<?xml version="1.0" standalone="no"?>
<!DOCTYPE svg PUBLIC "-//W3C//DTD SVG 1.1//EN" "http://www.w3.org/Graphics/SVG/1.1/DTD/svg11.dtd" >
<svg xmlns="http://www.w3.org/2000/svg">
<metadata>
Created by FontPrep 20130207 at Mon Dec 15 10:38:16 2014
 By admin
Copyright (c) 1997-2013, SIL International (http://scripts.sil.org/)
</metadata>
<defs>
<font id="9de3a8cc006aa64657542c2e3ea14ca4" horiz-adv-x='1024' >
  <font-face 
    font-family="CharisSIL-Bold"
    font-weight="700"
    font-stretch="normal"
    units-per-em="2048"
    panose-1="2 0 8 0 7 0 0 2 0 4"
    ascent="1638"
    descent="-410"
    x-height="999"
    cap-height="1374"
    bbox="-1475 -1092 3602 2703"
    underline-thickness="120"
    underline-position="-230"
    unicode-range="U+000D-1D513"
  />
<missing-glyph horiz-adv-x="1400" 
d="M100 1800h1200v-1800h-1200v1800zM150 50h1100v1700h-1100v-1700z" />
    <glyph glyph-name="Agrave" unicode="A&#x300;" horiz-adv-x="1405" 
d="M829 0v104l121 15q10 2 17 13t2 22l-111 325h-438l-113 -317q-6 -16 6 -29t23 -14l115 -15v-104h-441v104l115 17l459 1286h233l455 -1249q8 -18 16 -26t29 -13l78 -15v-104h-566zM631 1092l-172 -492h348zM398 1871q28 32 88 32q60 1 98 -33q14 -12 32 -32l280 -310
h-143l-332 181q-32 17 -47 63q-4 12 -4 40q0 27 28 59z" />
    <glyph glyph-name="Aacute" unicode="A&#x301;" horiz-adv-x="1405" 
d="M829 0v104l121 15q10 2 17 13t2 22l-111 325h-438l-113 -317q-6 -16 6 -29t23 -14l115 -15v-104h-441v104l115 17l459 1286h233l455 -1249q8 -18 16 -26t29 -13l78 -15v-104h-566zM631 1092l-172 -492h348zM972 1709l-332 -181h-143l280 310q52 54 80 60q28 5 55 5
q28 0 50 -10q22 -9 36 -25q26 -28 27 -61q0 -66 -53 -98z" />
    <glyph glyph-name="Acircumflex" unicode="A&#x302;" horiz-adv-x="1405" 
d="M829 0v104l121 15q10 2 17 13t2 22l-111 325h-438l-113 -317q-6 -16 6 -29t23 -14l115 -15v-104h-441v104l115 17l459 1286h233l455 -1249q8 -18 16 -26t29 -13l78 -15v-104h-566zM631 1092l-172 -492h348zM873 1528l-178 195l-178 -195h-170l227 351h242l227 -351h-170z
" />
    <glyph glyph-name="Atilde" unicode="A&#x303;" horiz-adv-x="1405" 
d="M829 0v104l121 15q10 2 17 13t2 22l-111 325h-438l-113 -317q-6 -16 6 -29t23 -14l115 -15v-104h-441v104l115 17l459 1286h233l455 -1249q8 -18 16 -26t29 -13l78 -15v-104h-566zM631 1092l-172 -492h348zM813 1598q-46 0 -76 16t-85 48q-55 34 -102 34q-46 0 -72 -28
t-31 -70h-111q44 178 155 234q39 20 85 20t77 -15t61 -33q79 -48 135 -48q57 0 85 58q8 18 10 38h111q-43 -179 -155 -234q-40 -20 -87 -20z" />
    <glyph glyph-name="Adieresis" unicode="A&#x308;" horiz-adv-x="1405" 
d="M829 0v104l121 15q10 2 17 13t2 22l-111 325h-438l-113 -317q-6 -16 6 -29t23 -14l115 -15v-104h-441v104l115 17l459 1286h233l455 -1249q8 -18 16 -26t29 -13l78 -15v-104h-566zM631 1092l-172 -492h348zM1052 1739q0 -29 -11 -55t-31 -44q-20 -20 -45 -31
q-26 -11 -55 -11q-28 0 -54 11t-46 31t-30 44q-11 26 -11 55t11 55q10 26 30 46t46 30q26 11 54 11q29 0 55 -11q25 -10 45 -30t31 -46t11 -55zM622 1739q0 -29 -11 -55t-31 -44q-20 -20 -45 -31q-26 -11 -55 -11t-55 11t-45 31t-30 44q-11 26 -11 55t11 55t30 46t45 30
q26 11 55 11t55 -11q25 -10 45 -30t31 -46t11 -55z" />
    <glyph glyph-name="Aring" unicode="A&#x30a;" horiz-adv-x="1405" 
d="M829 0v104l121 15q10 2 17 13t2 22l-111 325h-438l-113 -317q-6 -16 6 -29t23 -14l115 -15v-104h-441v104l115 17l459 1286h233l455 -1249q8 -18 16 -26t29 -13l78 -15v-104h-566zM631 1092l-172 -492h348zM878 1603q-76 -75 -184 -75q-106 0 -182 76t-76 182
q0 107 75 183t183 76t184 -76t76 -183q0 -108 -76 -183zM786 1878q-37 38 -78 38q-40 0 -64 -10t-40 -28q-18 -18 -28 -42t-11 -50q0 -53 38 -91t78 -38q39 0 63 10q24 9 42 27q38 38 37 92q0 54 -37 92z" />
    <glyph glyph-name="Ccedilla" unicode="C&#x327;" horiz-adv-x="1303" 
d="M742 -225q-14 0 -49 -4v202q-249 30 -433 214t-184 500t206 518t515 202q145 0 252.5 -31.5t179.5 -54.5v-348h-160l-45 229q0 5 -8 16.5t-18 15.5q-22 11 -69 22.5t-77 11.5q-210 0 -332.5 -159t-122.5 -413t115.5 -425t355.5 -171q62 0 119 27q8 3 20 16.5t15 22.5
l45 242h162v-359q-195 -82 -434 -82v-78q6 -2 35 -2q70 0 118 -39t48 -102q0 -110 -70 -164.5t-171 -54.5t-177 22v103q78 -17 129 -17q121 0 121 70q0 52 -36 61t-50 9z" />
    <glyph glyph-name="Egrave" unicode="E&#x300;" horiz-adv-x="1225" 
d="M53 0v104l113 11q47 5 47 45v1054q-1 20 -15 32t-32 14l-113 10v104h1045v-327h-148l-32 170q-10 38 -37 38h-381v-481h243q13 0 23 13t12 24l19 139h127v-481h-127l-19 139q-2 11 -12 24t-23 13h-243v-522h446q13 0 24 14t13 25l31 213h149v-375h-1110zM311 1871
q28 32 88 32q59 1 97 -33q14 -12 33 -32l280 -310h-143l-332 181q-32 17 -47 63q-4 12 -4 40q0 27 28 59z" />
    <glyph glyph-name="Eacute" unicode="E&#x301;" horiz-adv-x="1225" 
d="M53 0v104l113 11q47 5 47 45v1054q-1 20 -15 32t-32 14l-113 10v104h1045v-327h-148l-32 170q-10 38 -37 38h-381v-481h243q13 0 23 13t12 24l19 139h127v-481h-127l-19 139q-2 11 -12 24t-23 13h-243v-522h446q13 0 24 14t13 25l31 213h149v-375h-1110zM885 1709
l-332 -181h-143l280 310q52 54 80 60q28 5 55 5t49 -10q22 -9 38 -25q26 -28 26 -61q0 -66 -53 -98z" />
    <glyph glyph-name="Ecircumflex" unicode="E&#x302;" horiz-adv-x="1225" 
d="M53 0v104l113 11q47 5 47 45v1054q-1 20 -15 32t-32 14l-113 10v104h1045v-327h-148l-32 170q-10 38 -37 38h-381v-481h243q13 0 23 13t12 24l19 139h127v-481h-127l-19 139q-2 11 -12 24t-23 13h-243v-522h446q13 0 24 14t13 25l31 213h149v-375h-1110zM786 1528
l-178 195l-178 -195h-170l227 351h242l227 -351h-170z" />
    <glyph glyph-name="Edieresis" unicode="E&#x308;" horiz-adv-x="1225" 
d="M53 0v104l113 11q47 5 47 45v1054q-1 20 -15 32t-32 14l-113 10v104h1045v-327h-148l-32 170q-10 38 -37 38h-381v-481h243q13 0 23 13t12 24l19 139h127v-481h-127l-19 139q-2 11 -12 24t-23 13h-243v-522h446q13 0 24 14t13 25l31 213h149v-375h-1110zM965 1739
q0 -29 -11 -55q-10 -26 -30 -44q-20 -20 -46 -31t-55 -11t-55 11t-44 31q-20 20 -31 44q-11 26 -11 55t11 55t31 46t44 30q26 11 55 11t55 -11q26 -10 46 -30t30 -46q11 -26 11 -55zM535 1739q0 -29 -11 -55q-10 -26 -30 -44q-20 -20 -46 -31t-55 -11t-55 11t-45 31t-30 44
q-11 26 -11 55t11 55t30 46t45 30q26 11 55 11t55 -11q26 -10 46 -30t30 -46q11 -26 11 -55z" />
    <glyph glyph-name="Igrave" unicode="I&#x300;" horiz-adv-x="735" 
d="M47 0v104l127 11q45 5 45 45v1054q0 20 -13 32t-32 14l-127 10v104h639v-104l-127 -10q-17 -2 -32 -14t-15 -32v-1054q0 -20 15 -32t32 -13l127 -11v-104h-639zM69 1871q28 32 88 32q59 1 97 -33q14 -12 33 -32l280 -310h-143l-332 181q-32 17 -47 63q-4 12 -4 40
q0 27 28 59z" />
    <glyph glyph-name="Iacute" unicode="I&#x301;" horiz-adv-x="735" 
d="M47 0v104l127 11q45 5 45 45v1054q0 20 -13 32t-32 14l-127 10v104h639v-104l-127 -10q-17 -2 -32 -14t-15 -32v-1054q0 -20 15 -32t32 -13l127 -11v-104h-639zM643 1709l-332 -181h-143l280 310q52 54 80 60q28 5 55 5t49 -10q22 -9 38 -25q26 -28 26 -61q0 -66 -53 -98
z" />
    <glyph glyph-name="Icircumflex" unicode="I&#x302;" horiz-adv-x="735" 
d="M47 0v104l127 11q45 5 45 45v1054q0 20 -13 32t-32 14l-127 10v104h639v-104l-127 -10q-17 -2 -32 -14t-15 -32v-1054q0 -20 15 -32t32 -13l127 -11v-104h-639zM544 1528l-178 195l-178 -195h-170l227 351h242l227 -351h-170z" />
    <glyph glyph-name="Idieresis" unicode="I&#x308;" horiz-adv-x="735" 
d="M47 0v104l127 11q45 5 45 45v1054q0 20 -13 32t-32 14l-127 10v104h639v-104l-127 -10q-17 -2 -32 -14t-15 -32v-1054q0 -20 15 -32t32 -13l127 -11v-104h-639zM723 1739q0 -29 -11 -55q-10 -26 -30 -44q-20 -20 -46 -31t-55 -11t-55 11t-44 31q-20 20 -31 44
q-11 26 -11 55t11 55t31 46t44 30q26 11 55 11t55 -11q26 -10 46 -30t30 -46q11 -26 11 -55zM293 1739q0 -29 -11 -55q-10 -26 -30 -44q-20 -20 -46 -31t-55 -11t-55 11t-45 31t-30 44q-11 26 -11 55t11 55t30 46t45 30q26 11 55 11t55 -11q26 -10 46 -30t30 -46
q11 -26 11 -55z" />
    <glyph glyph-name="Ntilde" unicode="N&#x303;" horiz-adv-x="1524" 
d="M1309 1214v-1214h-250l-690 1083v-923q0 -20 14 -32t31 -13l114 -11v-104h-473v104l113 11q45 5 45 45v1054q0 20 -13 32t-32 14l-111 10v104h506v-55l590 -924v819q-1 20 -15 32t-32 14l-117 10v104h475v-104l-110 -10q-17 -2 -31 -14t-14 -32zM877 1598q-46 0 -76 16
t-85 48q-55 34 -102 34q-46 0 -72 -28t-31 -70h-111q44 178 155 234q39 20 85 20t77 -15t61 -33q79 -48 135 -48q57 0 85 58q8 18 10 38h111q-43 -179 -155 -234q-40 -20 -87 -20z" />
    <glyph glyph-name="Ograve" unicode="O&#x300;" horiz-adv-x="1548" 
d="M1475 656q1 -122 -49 -252t-141 -227q-197 -210 -506 -210t-506 194t-197 520t186 526t506 200q206 -1 372 -101q239 -144 312 -434q23 -92 23 -216zM1145 699q-1 93 -23 201t-67 191q-98 179 -269 179q-256 0 -347 -308q-36 -122 -36 -233q-1 -112 9 -184t29 -138
q40 -140 123 -225q83 -86 202 -86q191 0 292 189q59 111 73 216t14 198zM478 1871q28 32 88 32q60 1 98 -33q14 -12 32 -32l280 -310h-143l-332 181q-32 17 -47 63q-4 12 -4 40q0 27 28 59z" />
    <glyph glyph-name="Oacute" unicode="O&#x301;" horiz-adv-x="1548" 
d="M1475 656q1 -122 -49 -252t-141 -227q-197 -210 -506 -210t-506 194t-197 520t186 526t506 200q206 -1 372 -101q239 -144 312 -434q23 -92 23 -216zM1145 699q-1 93 -23 201t-67 191q-98 179 -269 179q-256 0 -347 -308q-36 -122 -36 -233q-1 -112 9 -184t29 -138
q40 -140 123 -225q83 -86 202 -86q191 0 292 189q59 111 73 216t14 198zM1052 1709l-332 -181h-143l280 310q52 54 80 60q28 5 55 5q28 0 50 -10q22 -9 36 -25q26 -28 27 -61q0 -66 -53 -98z" />
    <glyph glyph-name="Ocircumflex" unicode="O&#x302;" horiz-adv-x="1548" 
d="M1475 656q1 -122 -49 -252t-141 -227q-197 -210 -506 -210t-506 194t-197 520t186 526t506 200q206 -1 372 -101q239 -144 312 -434q23 -92 23 -216zM1145 699q-1 93 -23 201t-67 191q-98 179 -269 179q-256 0 -347 -308q-36 -122 -36 -233q-1 -112 9 -184t29 -138
q40 -140 123 -225q83 -86 202 -86q191 0 292 189q59 111 73 216t14 198zM953 1528l-178 195l-178 -195h-170l227 351h242l227 -351h-170z" />
    <glyph glyph-name="Otilde" unicode="O&#x303;" horiz-adv-x="1548" 
d="M1475 656q1 -122 -49 -252t-141 -227q-197 -210 -506 -210t-506 194t-197 520t186 526t506 200q206 -1 372 -101q239 -144 312 -434q23 -92 23 -216zM1145 699q-1 93 -23 201t-67 191q-98 179 -269 179q-256 0 -347 -308q-36 -122 -36 -233q-1 -112 9 -184t29 -138
q40 -140 123 -225q83 -86 202 -86q191 0 292 189q59 111 73 216t14 198zM893 1598q-46 0 -76 16t-85 48q-55 34 -102 34q-46 0 -72 -28t-31 -70h-111q44 178 155 234q39 20 85 20t77 -15t61 -33q79 -48 135 -48q57 0 85 58q8 18 10 38h111q-43 -179 -155 -234
q-40 -20 -87 -20z" />
    <glyph glyph-name="Odieresis" unicode="O&#x308;" horiz-adv-x="1548" 
d="M1475 656q1 -122 -49 -252t-141 -227q-197 -210 -506 -210t-506 194t-197 520t186 526t506 200q206 -1 372 -101q239 -144 312 -434q23 -92 23 -216zM1145 699q-1 93 -23 201t-67 191q-98 179 -269 179q-256 0 -347 -308q-36 -122 -36 -233q-1 -112 9 -184t29 -138
q40 -140 123 -225q83 -86 202 -86q191 0 292 189q59 111 73 216t14 198zM1132 1739q0 -29 -11 -55t-31 -44q-20 -20 -45 -31q-26 -11 -55 -11q-28 0 -54 11t-46 31t-30 44q-11 26 -11 55t11 55q10 26 30 46t46 30q26 11 54 11q29 0 55 -11q25 -10 45 -30t31 -46t11 -55z
M702 1739q0 -29 -11 -55t-31 -44q-20 -20 -45 -31q-26 -11 -55 -11t-55 11t-45 31t-30 44q-11 26 -11 55t11 55t30 46t45 30q26 11 55 11t55 -11q25 -10 45 -30t31 -46t11 -55z" />
    <glyph glyph-name="Ugrave" unicode="U&#x300;" horiz-adv-x="1493" 
d="M203 520v694q-1 20 -15 32t-32 14l-111 10v104h606v-104l-110 -10q-17 -2 -31 -14t-14 -32v-710q0 -192 81 -280t243 -87q310 0 310 367v710q0 20 -13 32t-32 14l-116 10v104h471v-104l-109 -10q-17 -2 -31 -14t-14 -32v-694q0 -297 -134 -425t-427 -128q-522 0 -522 553
zM463 1871q28 32 88 32q59 1 97 -33q14 -12 33 -32l280 -310h-143l-332 181q-32 17 -47 63q-4 12 -4 40q0 27 28 59z" />
    <glyph glyph-name="Uacute" unicode="U&#x301;" horiz-adv-x="1493" 
d="M203 520v694q-1 20 -15 32t-32 14l-111 10v104h606v-104l-110 -10q-17 -2 -31 -14t-14 -32v-710q0 -192 81 -280t243 -87q310 0 310 367v710q0 20 -13 32t-32 14l-116 10v104h471v-104l-109 -10q-17 -2 -31 -14t-14 -32v-694q0 -297 -134 -425t-427 -128q-522 0 -522 553
zM1037 1709l-332 -181h-143l280 310q52 54 80 60q28 5 55 5t49 -10q22 -9 38 -25q26 -28 26 -61q0 -66 -53 -98z" />
    <glyph glyph-name="Ucircumflex" unicode="U&#x302;" horiz-adv-x="1493" 
d="M203 520v694q-1 20 -15 32t-32 14l-111 10v104h606v-104l-110 -10q-17 -2 -31 -14t-14 -32v-710q0 -192 81 -280t243 -87q310 0 310 367v710q0 20 -13 32t-32 14l-116 10v104h471v-104l-109 -10q-17 -2 -31 -14t-14 -32v-694q0 -297 -134 -425t-427 -128q-522 0 -522 553
zM938 1528l-178 195l-178 -195h-170l227 351h242l227 -351h-170z" />
    <glyph glyph-name="Udieresis" unicode="U&#x308;" horiz-adv-x="1493" 
d="M203 520v694q-1 20 -15 32t-32 14l-111 10v104h606v-104l-110 -10q-17 -2 -31 -14t-14 -32v-710q0 -192 81 -280t243 -87q310 0 310 367v710q0 20 -13 32t-32 14l-116 10v104h471v-104l-109 -10q-17 -2 -31 -14t-14 -32v-694q0 -297 -134 -425t-427 -128q-522 0 -522 553
zM1117 1739q0 -29 -11 -55q-10 -26 -30 -44q-20 -20 -46 -31t-55 -11t-55 11t-44 31q-20 20 -31 44q-11 26 -11 55t11 55t31 46t44 30q26 11 55 11t55 -11q26 -10 46 -30t30 -46q11 -26 11 -55zM687 1739q0 -29 -11 -55q-10 -26 -30 -44q-20 -20 -46 -31t-55 -11t-55 11
t-45 31t-30 44q-11 26 -11 55t11 55t30 46t45 30q26 11 55 11t55 -11q26 -10 46 -30t30 -46q11 -26 11 -55z" />
    <glyph glyph-name="Yacute" unicode="Y&#x301;" horiz-adv-x="1358" 
d="M840 160q0 -40 45 -45l125 -11v-104h-635v104l125 11q17 1 32 13t15 32v377l-395 714l-132 19v104h582v-104l-108 -10q-10 0 -16 -15t5 -35l258 -485l279 487q12 18 8 34t-18 16l-125 8v104h452v-104l-118 -19l-379 -657v-434zM955 1709l-332 -181h-143l280 310
q52 54 80 60q28 5 55 5t49 -10q22 -9 38 -25q26 -28 26 -61q0 -66 -53 -98z" />
    <glyph glyph-name="agrave" unicode="a&#x300;" horiz-adv-x="1133" 
d="M502 145q88 0 188 45v338q-197 -40 -265 -89q-69 -49 -69 -146q0 -98 87 -136q27 -12 59 -12zM203 707q-92 -7 -92 85q1 44 41 90q40 44 106 76q136 66 321 66t275 -64q110 -78 109 -284v-526q0 -18 13 -32t32 -16l90 -6v-96h-381l-27 102q-187 -127 -356 -127
q-114 0 -191 73t-77 183t30 155q54 81 188 137t408 116v25q0 20 2 52q4 77 -40 135q-43 58 -152 58q-48 0 -88 -8v-194h-211zM253 1471q28 32 88 32q59 1 97 -33q14 -12 33 -32l280 -310h-143l-332 181q-32 17 -47 63q-4 12 -4 40q0 27 28 59z" />
    <glyph glyph-name="aacute" unicode="a&#x301;" horiz-adv-x="1133" 
d="M502 145q88 0 188 45v338q-197 -40 -265 -89q-69 -49 -69 -146q0 -98 87 -136q27 -12 59 -12zM203 707q-92 -7 -92 85q1 44 41 90q40 44 106 76q136 66 321 66t275 -64q110 -78 109 -284v-526q0 -18 13 -32t32 -16l90 -6v-96h-381l-27 102q-187 -127 -356 -127
q-114 0 -191 73t-77 183t30 155q54 81 188 137t408 116v25q0 20 2 52q4 77 -40 135q-43 58 -152 58q-48 0 -88 -8v-194h-211zM827 1309l-332 -181h-143l280 310q52 54 80 60q28 5 55 5t49 -10q22 -9 38 -25q26 -28 26 -61q0 -66 -53 -98z" />
    <glyph glyph-name="acircumflex" unicode="a&#x302;" horiz-adv-x="1133" 
d="M502 145q88 0 188 45v338q-197 -40 -265 -89q-69 -49 -69 -146q0 -98 87 -136q27 -12 59 -12zM203 707q-92 -7 -92 85q1 44 41 90q40 44 106 76q136 66 321 66t275 -64q110 -78 109 -284v-526q0 -18 13 -32t32 -16l90 -6v-96h-381l-27 102q-187 -127 -356 -127
q-114 0 -191 73t-77 183t30 155q54 81 188 137t408 116v25q0 20 2 52q4 77 -40 135q-43 58 -152 58q-48 0 -88 -8v-194h-211zM728 1128l-178 195l-178 -195h-170l227 351h242l227 -351h-170z" />
    <glyph glyph-name="atilde" unicode="a&#x303;" horiz-adv-x="1133" 
d="M502 145q88 0 188 45v338q-197 -40 -265 -89q-69 -49 -69 -146q0 -98 87 -136q27 -12 59 -12zM203 707q-92 -7 -92 85q1 44 41 90q40 44 106 76q136 66 321 66t275 -64q110 -78 109 -284v-526q0 -18 13 -32t32 -16l90 -6v-96h-381l-27 102q-187 -127 -356 -127
q-114 0 -191 73t-77 183t30 155q54 81 188 137t408 116v25q0 20 2 52q4 77 -40 135q-43 58 -152 58q-48 0 -88 -8v-194h-211zM668 1198q-46 0 -76 16t-85 48q-55 34 -102 34t-73 -28t-30 -70h-111q44 178 155 234q40 20 86 20t76 -15t60 -33q79 -48 136 -48q56 0 84 58
q8 18 11 38h111q-44 -179 -156 -234q-40 -20 -86 -20z" />
    <glyph glyph-name="adieresis" unicode="a&#x308;" horiz-adv-x="1133" 
d="M502 145q88 0 188 45v338q-197 -40 -265 -89q-69 -49 -69 -146q0 -98 87 -136q27 -12 59 -12zM203 707q-92 -7 -92 85q1 44 41 90q40 44 106 76q136 66 321 66t275 -64q110 -78 109 -284v-526q0 -18 13 -32t32 -16l90 -6v-96h-381l-27 102q-187 -127 -356 -127
q-114 0 -191 73t-77 183t30 155q54 81 188 137t408 116v25q0 20 2 52q4 77 -40 135q-43 58 -152 58q-48 0 -88 -8v-194h-211zM907 1339q0 -29 -11 -55q-10 -26 -30 -44q-20 -20 -46 -31t-55 -11t-55 11t-44 31q-20 20 -31 44q-11 26 -11 55t11 55t31 46t44 30q26 11 55 11
t55 -11q26 -10 46 -30t30 -46q11 -26 11 -55zM477 1339q0 -29 -11 -55q-10 -26 -30 -44q-20 -20 -46 -31t-55 -11t-55 11t-45 31t-30 44q-11 26 -11 55t11 55t30 46t45 30q26 11 55 11t55 -11q26 -10 46 -30t30 -46q11 -26 11 -55z" />
    <glyph glyph-name="aring" unicode="a&#x30a;" horiz-adv-x="1133" 
d="M502 145q88 0 188 45v338q-197 -40 -265 -89q-69 -49 -69 -146q0 -98 87 -136q27 -12 59 -12zM203 707q-92 -7 -92 85q1 44 41 90q40 44 106 76q136 66 321 66t275 -64q110 -78 109 -284v-526q0 -18 13 -32t32 -16l90 -6v-96h-381l-27 102q-187 -127 -356 -127
q-114 0 -191 73t-77 183t30 155q54 81 188 137t408 116v25q0 20 2 52q4 77 -40 135q-43 58 -152 58q-48 0 -88 -8v-194h-211zM733 1203q-76 -75 -184 -75q-107 0 -183 76t-75 182q0 107 75 183t183 76t184 -76t76 -183q0 -108 -76 -183zM641 1478q-37 38 -78 38
q-39 0 -63 -10t-42 -28t-28 -42t-10 -50q0 -53 38 -91t78 -38t64 10q24 9 40 27q38 38 38 92t-37 92z" />
    <glyph glyph-name="ccedilla" unicode="c&#x327;" horiz-adv-x="1028" 
d="M627 920q-103 0 -181.5 -101t-78.5 -281t83 -285.5t214 -105.5t211 46.5t90 54.5v-158q-26 -12 -112.5 -56t-232.5 -57v-88q6 -2 35 -2q70 0 118 -39t48 -102q0 -110 -70 -164.5t-171 -54.5t-177 22v103q78 -17 129 -17q121 0 121 70t-90 70q-9 0 -45 -4v206
q-200 13 -326 152t-126 364t152 378t376 153q160 0 257 -62.5t97 -162.5q0 -65 -43 -109.5t-89 -44.5q-70 0 -95 11t-55 32v230z" />
    <glyph glyph-name="egrave" unicode="e&#x300;" horiz-adv-x="1083" 
d="M1020 96q-182 -121 -448 -121q-114 0 -212 40q-98 39 -164 109q-130 138 -130 369q0 230 142 380q142 151 370 151t343 -144q99 -125 99 -323v-49h-672q0 -260 182 -338q59 -26 134 -25q191 0 356 115v-164zM727 668q0 164 -91 216q-32 18 -83 19q-98 0 -147 -83
q-48 -83 -48 -197h369v45zM273 1471q28 32 88 32q59 1 97 -33q14 -12 33 -32l280 -310h-143l-332 181q-32 17 -47 63q-4 12 -4 40q0 27 28 59z" />
    <glyph glyph-name="eacute" unicode="e&#x301;" horiz-adv-x="1083" 
d="M1020 96q-182 -121 -448 -121q-114 0 -212 40q-98 39 -164 109q-130 138 -130 369q0 230 142 380q142 151 370 151t343 -144q99 -125 99 -323v-49h-672q0 -260 182 -338q59 -26 134 -25q191 0 356 115v-164zM727 668q0 164 -91 216q-32 18 -83 19q-98 0 -147 -83
q-48 -83 -48 -197h369v45zM847 1309l-332 -181h-143l280 310q52 54 80 60q28 5 55 5t49 -10q22 -9 38 -25q26 -28 26 -61q0 -66 -53 -98z" />
    <glyph glyph-name="ecircumflex" unicode="e&#x302;" horiz-adv-x="1083" 
d="M1020 96q-182 -121 -448 -121q-114 0 -212 40q-98 39 -164 109q-130 138 -130 369q0 230 142 380q142 151 370 151t343 -144q99 -125 99 -323v-49h-672q0 -260 182 -338q59 -26 134 -25q191 0 356 115v-164zM727 668q0 164 -91 216q-32 18 -83 19q-98 0 -147 -83
q-48 -83 -48 -197h369v45zM748 1128l-178 195l-178 -195h-170l227 351h242l227 -351h-170z" />
    <glyph glyph-name="edieresis" unicode="e&#x308;" horiz-adv-x="1083" 
d="M1020 96q-182 -121 -448 -121q-114 0 -212 40q-98 39 -164 109q-130 138 -130 369q0 230 142 380q142 151 370 151t343 -144q99 -125 99 -323v-49h-672q0 -260 182 -338q59 -26 134 -25q191 0 356 115v-164zM727 668q0 164 -91 216q-32 18 -83 19q-98 0 -147 -83
q-48 -83 -48 -197h369v45zM927 1339q0 -29 -11 -55q-10 -26 -30 -44q-20 -20 -46 -31t-55 -11t-55 11t-44 31q-20 20 -31 44q-11 26 -11 55t11 55t31 46t44 30q26 11 55 11t55 -11q26 -10 46 -30t30 -46q11 -26 11 -55zM497 1339q0 -29 -11 -55q-10 -26 -30 -44
q-20 -20 -46 -31t-55 -11t-55 11t-45 31t-30 44q-11 26 -11 55t11 55t30 46t45 30q26 11 55 11t55 -11q26 -10 46 -30t30 -46q11 -26 11 -55z" />
    <glyph glyph-name="igrave" unicode="i&#x300;" horiz-adv-x="682" 
d="M66 0v96l94 6q18 2 32 16t13 32v688h-131v84l299 102h104v-874q1 -18 15 -32t32 -16l99 -6v-96h-557zM47 1471q28 32 88 32q59 1 97 -33q14 -12 33 -32l280 -310h-143l-332 181q-32 17 -47 63q-4 12 -4 40q0 27 28 59z" />
    <glyph glyph-name="iacute" unicode="i&#x301;" horiz-adv-x="682" 
d="M66 0v96l94 6q18 2 32 16t13 32v688h-131v84l299 102h104v-874q1 -18 15 -32t32 -16l99 -6v-96h-557zM621 1309l-332 -181h-143l280 310q52 54 80 60q28 5 55 5t49 -10q22 -9 38 -25q26 -28 26 -61q0 -66 -53 -98z" />
    <glyph glyph-name="icircumflex" unicode="i&#x302;" horiz-adv-x="682" 
d="M66 0v96l94 6q18 2 32 16t13 32v688h-131v84l299 102h104v-874q1 -18 15 -32t32 -16l99 -6v-96h-557zM522 1128l-178 195l-178 -195h-170l227 351h242l227 -351h-170z" />
    <glyph glyph-name="idieresis" unicode="i&#x308;" horiz-adv-x="682" 
d="M66 0v96l94 6q18 2 32 16t13 32v688h-131v84l299 102h104v-874q1 -18 15 -32t32 -16l99 -6v-96h-557zM701 1339q0 -29 -11 -55q-10 -26 -30 -44q-20 -20 -46 -31t-55 -11t-55 11t-44 31q-20 20 -31 44q-11 26 -11 55t11 55t31 46t44 30q26 11 55 11t55 -11q26 -10 46 -30
t30 -46q11 -26 11 -55zM271 1339q0 -29 -11 -55q-10 -26 -30 -44q-20 -20 -46 -31t-55 -11t-55 11t-45 31t-30 44q-11 26 -11 55t11 55t30 46t45 30q26 11 55 11t55 -11q26 -10 46 -30t30 -46q11 -26 11 -55z" />
    <glyph glyph-name="ntilde" unicode="n&#x303;" horiz-adv-x="1280" 
d="M828 1024q268 0 268 -356v-518q0 -18 14 -32t33 -16l63 -6v-96h-504v96l76 6q19 2 32 16t13 32v481q0 137 -90 187q-32 18 -105 18t-169 -27v-659q0 -18 14 -32t33 -16l61 -6v-96h-501v96l73 6q19 2 32 16t13 32v686h-141v84l309 104h107v-125q189 125 369 125zM742 1198
q-46 0 -76 16t-85 48q-55 34 -102 34t-73 -28t-30 -70h-111q44 178 155 234q40 20 86 20t76 -15t60 -33q79 -48 136 -48q56 0 84 58q8 18 11 38h111q-44 -179 -156 -234q-40 -20 -86 -20z" />
    <glyph glyph-name="ograve" unicode="o&#x300;" horiz-adv-x="1196" 
d="M988 117q-145 -142 -388 -142t-389 140q-145 140 -145 384t149 384q149 141 395 141q245 0 384 -146t139 -383q0 -236 -145 -378zM827 483q0 55 -4 103q-3 48 -13 94q-21 100 -73 164q-52 63 -130 63q-135 1 -191 -135q-44 -106 -43 -268q0 -320 144 -396q35 -18 94 -18
t103 38t69 96q25 59 35 131t9 128zM302 1471q28 32 88 32q60 1 98 -33q14 -12 32 -32l280 -310h-143l-332 181q-32 17 -47 63q-4 12 -4 40q0 27 28 59z" />
    <glyph glyph-name="oacute" unicode="o&#x301;" horiz-adv-x="1196" 
d="M988 117q-145 -142 -388 -142t-389 140q-145 140 -145 384t149 384q149 141 395 141q245 0 384 -146t139 -383q0 -236 -145 -378zM827 483q0 55 -4 103q-3 48 -13 94q-21 100 -73 164q-52 63 -130 63q-135 1 -191 -135q-44 -106 -43 -268q0 -320 144 -396q35 -18 94 -18
t103 38t69 96q25 59 35 131t9 128zM876 1309l-332 -181h-143l280 310q52 54 80 60q28 5 55 5q28 0 50 -10q22 -9 36 -25q26 -28 27 -61q0 -66 -53 -98z" />
    <glyph glyph-name="ocircumflex" unicode="o&#x302;" horiz-adv-x="1196" 
d="M988 117q-145 -142 -388 -142t-389 140q-145 140 -145 384t149 384q149 141 395 141q245 0 384 -146t139 -383q0 -236 -145 -378zM827 483q0 55 -4 103q-3 48 -13 94q-21 100 -73 164q-52 63 -130 63q-135 1 -191 -135q-44 -106 -43 -268q0 -320 144 -396q35 -18 94 -18
t103 38t69 96q25 59 35 131t9 128zM777 1128l-178 195l-178 -195h-170l227 351h242l227 -351h-170z" />
    <glyph glyph-name="otilde" unicode="o&#x303;" horiz-adv-x="1196" 
d="M988 117q-145 -142 -388 -142t-389 140q-145 140 -145 384t149 384q149 141 395 141q245 0 384 -146t139 -383q0 -236 -145 -378zM827 483q0 55 -4 103q-3 48 -13 94q-21 100 -73 164q-52 63 -130 63q-135 1 -191 -135q-44 -106 -43 -268q0 -320 144 -396q35 -18 94 -18
t103 38t69 96q25 59 35 131t9 128zM717 1198q-46 0 -76 16t-85 48q-55 33 -102 34q-46 0 -72 -28t-31 -70h-111q44 178 155 234q39 20 85 20t77 -15t61 -33q79 -48 135 -48q57 0 85 58q8 18 10 38h111q-43 -179 -155 -234q-40 -20 -87 -20z" />
    <glyph glyph-name="odieresis" unicode="o&#x308;" horiz-adv-x="1196" 
d="M988 117q-145 -142 -388 -142t-389 140q-145 140 -145 384t149 384q149 141 395 141q245 0 384 -146t139 -383q0 -236 -145 -378zM827 483q0 55 -4 103q-3 48 -13 94q-21 100 -73 164q-52 63 -130 63q-135 1 -191 -135q-44 -106 -43 -268q0 -320 144 -396q35 -18 94 -18
t103 38t69 96q25 59 35 131t9 128zM956 1339q0 -29 -11 -55t-31 -44q-20 -20 -45 -31q-26 -11 -55 -11q-28 0 -54 11t-46 31t-30 44q-11 26 -11 55t11 55q10 26 30 46t46 30q26 11 54 11q29 0 55 -11q25 -10 45 -30t31 -46t11 -55zM526 1339q0 -29 -11 -55t-31 -44
q-20 -20 -45 -31q-26 -11 -55 -11t-55 11t-45 31t-30 44q-11 26 -11 55t11 55t30 46t45 30q26 11 55 11t55 -11q25 -10 45 -30t31 -46t11 -55z" />
    <glyph glyph-name="ugrave" unicode="u&#x300;" horiz-adv-x="1270" 
d="M811 113q-180 -138 -339 -138q-152 0 -220 84t-68 250v529h-133v84l301 102h107v-635q0 -101 24 -142q23 -41 61 -63t110 -22t157 35v641h-129v84l299 102h104v-874q1 -18 15 -32t33 -16l90 -6v-96h-412v113zM340 1471q28 32 88 32q60 1 98 -33q14 -12 32 -32l280 -310
h-143l-332 181q-32 17 -47 63q-4 12 -4 40q0 27 28 59z" />
    <glyph glyph-name="uacute" unicode="u&#x301;" horiz-adv-x="1270" 
d="M811 113q-180 -138 -339 -138q-152 0 -220 84t-68 250v529h-133v84l301 102h107v-635q0 -101 24 -142q23 -41 61 -63t110 -22t157 35v641h-129v84l299 102h104v-874q1 -18 15 -32t33 -16l90 -6v-96h-412v113zM914 1309l-332 -181h-143l280 310q52 54 80 60q28 5 55 5
q28 0 50 -10q22 -9 36 -25q26 -28 27 -61q0 -66 -53 -98z" />
    <glyph glyph-name="ucircumflex" unicode="u&#x302;" horiz-adv-x="1270" 
d="M811 113q-180 -138 -339 -138q-152 0 -220 84t-68 250v529h-133v84l301 102h107v-635q0 -101 24 -142q23 -41 61 -63t110 -22t157 35v641h-129v84l299 102h104v-874q1 -18 15 -32t33 -16l90 -6v-96h-412v113zM815 1128l-178 195l-178 -195h-170l227 351h242l227 -351
h-170z" />
    <glyph glyph-name="udieresis" unicode="u&#x308;" horiz-adv-x="1270" 
d="M811 113q-180 -138 -339 -138q-152 0 -220 84t-68 250v529h-133v84l301 102h107v-635q0 -101 24 -142q23 -41 61 -63t110 -22t157 35v641h-129v84l299 102h104v-874q1 -18 15 -32t33 -16l90 -6v-96h-412v113zM994 1339q0 -29 -11 -55t-31 -44q-20 -20 -45 -31
q-26 -11 -55 -11q-28 0 -54 11t-46 31t-30 44q-11 26 -11 55t11 55q10 26 30 46t46 30q26 11 54 11q29 0 55 -11q25 -10 45 -30t31 -46t11 -55zM564 1339q0 -29 -11 -55t-31 -44q-20 -20 -45 -31q-26 -11 -55 -11t-55 11t-45 31t-30 44q-11 26 -11 55t11 55t30 46t45 30
q26 11 55 11t55 -11q25 -10 45 -30t31 -46t11 -55z" />
    <glyph glyph-name="yacute" unicode="y&#x301;" horiz-adv-x="1159" 
d="M257 -473q-126 0 -176 90q-51 90 17 168q29 33 82 57l174 -133q72 68 130 211q14 36 22 62l-365 909l-121 12v96h539v-96l-94 -6q-19 -2 -28 -15t-3 -30l211 -526l217 526q6 15 -4 29t-27 16l-90 6v96h400v-96l-109 -14l-354 -869q-87 -212 -139 -288q-51 -76 -93 -115
q-92 -90 -189 -90zM877 1309l-332 -181h-143l280 310q52 54 80 60q28 5 55 5t49 -10q22 -9 38 -25q26 -28 26 -61q0 -66 -53 -98z" />
    <glyph glyph-name="ydieresis" unicode="y&#x308;" horiz-adv-x="1159" 
d="M257 -473q-126 0 -176 90q-51 90 17 168q29 33 82 57l174 -133q72 68 130 211q14 36 22 62l-365 909l-121 12v96h539v-96l-94 -6q-19 -2 -28 -15t-3 -30l211 -526l217 526q6 15 -4 29t-27 16l-90 6v96h400v-96l-109 -14l-354 -869q-87 -212 -139 -288q-51 -76 -93 -115
q-92 -90 -189 -90zM957 1339q0 -29 -11 -55q-10 -26 -30 -44q-20 -20 -46 -31t-55 -11t-55 11t-44 31q-20 20 -31 44q-11 26 -11 55t11 55t31 46t44 30q26 11 55 11t55 -11q26 -10 46 -30t30 -46q11 -26 11 -55zM527 1339q0 -29 -11 -55q-10 -26 -30 -44q-20 -20 -46 -31
t-55 -11t-55 11t-45 31t-30 44q-11 26 -11 55t11 55t30 46t45 30q26 11 55 11t55 -11q26 -10 46 -30t30 -46q11 -26 11 -55z" />
    <glyph glyph-name="Amacron" unicode="A&#x304;" horiz-adv-x="1405" 
d="M829 0v104l121 15q10 2 17 13t2 22l-111 325h-438l-113 -317q-6 -16 6 -29t23 -14l115 -15v-104h-441v104l115 17l459 1286h233l455 -1249q8 -18 16 -26t29 -13l78 -15v-104h-566zM631 1092l-172 -492h348zM347 1600v165h696v-165h-696z" />
    <glyph glyph-name="amacron" unicode="a&#x304;" horiz-adv-x="1133" 
d="M502 145q88 0 188 45v338q-197 -40 -265 -89q-69 -49 -69 -146q0 -98 87 -136q27 -12 59 -12zM203 707q-92 -7 -92 85q1 44 41 90q40 44 106 76q136 66 321 66t275 -64q110 -78 109 -284v-526q0 -18 13 -32t32 -16l90 -6v-96h-381l-27 102q-187 -127 -356 -127
q-114 0 -191 73t-77 183t30 155q54 81 188 137t408 116v25q0 20 2 52q4 77 -40 135q-43 58 -152 58q-48 0 -88 -8v-194h-211zM202 1200v165h696v-165h-696z" />
    <glyph glyph-name="Abreve" unicode="A&#x306;" horiz-adv-x="1405" 
d="M829 0v104l121 15q10 2 17 13t2 22l-111 325h-438l-113 -317q-6 -16 6 -29t23 -14l115 -15v-104h-441v104l115 17l459 1286h233l455 -1249q8 -18 16 -26t29 -13l78 -15v-104h-566zM631 1092l-172 -492h348zM674 1694q196 0 233 168h109q0 -146 -84 -240t-237 -94
q-154 0 -237 93t-83 241h106q19 -86 78 -127q60 -41 115 -41z" />
    <glyph glyph-name="abreve" unicode="a&#x306;" horiz-adv-x="1133" 
d="M502 145q88 0 188 45v338q-197 -40 -265 -89q-69 -49 -69 -146q0 -98 87 -136q27 -12 59 -12zM203 707q-92 -7 -92 85q1 44 41 90q40 44 106 76q136 66 321 66t275 -64q110 -78 109 -284v-526q0 -18 13 -32t32 -16l90 -6v-96h-381l-27 102q-187 -127 -356 -127
q-114 0 -191 73t-77 183t30 155q54 81 188 137t408 116v25q0 20 2 52q4 77 -40 135q-43 58 -152 58q-48 0 -88 -8v-194h-211zM529 1294q196 0 233 168h109q0 -146 -84 -240t-237 -94q-154 0 -237 93t-83 241h106q19 -86 78 -127q60 -41 115 -41z" />
    <glyph glyph-name="Aogonek" unicode="A&#x328;" horiz-adv-x="1405" 
d="M631 1092l-172 -492h348zM917 -254q0 117 114 215q27 24 49 39h-251v104l121 15q10 2 17 13t2 22l-111 325h-438l-113 -317q-6 -16 6 -29t23 -14l115 -15v-104h-441v104l115 17l459 1286h233l455 -1249q8 -19 15.5 -26.5t29.5 -12.5l78 -15v-104h-186q-126 -96 -126 -201
q0 -45 25.5 -75.5t63.5 -30.5t68 24t35 27l64 -106q-135 -64 -189 -64q-106 0 -169.5 47t-63.5 125z" />
    <glyph glyph-name="aogonek" unicode="a&#x328;" horiz-adv-x="1133" 
d="M502 145q88 0 188 45v338q-197 -40 -265.5 -88.5t-68.5 -146.5t57 -123t89 -25zM203 707q-92 -7 -92 85q0 44 40.5 89.5t141.5 94t286 48.5t284.5 -71t99.5 -277v-526q0 -19 13 -32.5t32 -15.5l90 -6v-96h-196q-126 -96 -126 -201q0 -45 25.5 -75.5t63.5 -30.5t68 24
t35 27l64 -106q-135 -64 -189 -64q-106 0 -169.5 47t-63.5 125q0 117 114 215q27 24 49 39h-56l-27 102q-187 -127 -356 -127q-114 0 -191 73t-77 183t42 173t176 119t408 116v25q0 20 2 52q4 77 -39 135t-153 58q-48 0 -88 -8v-194h-211z" />
    <glyph glyph-name="Cacute" unicode="C&#x301;" horiz-adv-x="1303" 
d="M168 316q-92 164 -92 348q0 339 206 541t515 202q145 0 305 -47q54 -16 127 -39v-348h-160l-45 229q0 4 -8 16t-18 16q-22 11 -69 23q-47 11 -77 11q-210 0 -332 -159q-123 -159 -123 -413q1 -254 107 -412q125 -185 364 -184q62 0 119 27q8 3 20 17t15 22l45 242h162
v-359q-195 -82 -418 -82t-388 92q-163 93 -255 257zM1040 1709l-332 -181h-143l280 310q52 54 80 60q28 5 55 5q28 0 50 -10q22 -9 36 -25q26 -28 27 -61q0 -66 -53 -98z" />
    <glyph glyph-name="cacute" unicode="c&#x301;" horiz-adv-x="1028" 
d="M627 920q-103 0 -181 -101q-79 -101 -79 -281t83 -285q83 -106 214 -106q130 1 262 77q28 16 39 24v-158q-25 -12 -63 -31q-166 -84 -314 -84q-147 0 -239 41q-92 40 -155 110q-128 141 -128 367q0 225 152 378t376 153q160 0 257 -63t97 -162q0 -65 -43 -110
q-43 -44 -89 -44q-70 0 -95 11t-55 32v230zM852 1309l-332 -181h-143l280 310q52 54 80 60q28 5 55 5q28 0 50 -10q22 -9 36 -25q26 -28 27 -61q0 -66 -53 -98z" />
    <glyph glyph-name="Ccircumflex" unicode="C&#x302;" horiz-adv-x="1303" 
d="M168 316q-92 164 -92 348q0 339 206 541t515 202q145 0 305 -47q54 -16 127 -39v-348h-160l-45 229q0 4 -8 16t-18 16q-22 11 -69 23q-47 11 -77 11q-210 0 -332 -159q-123 -159 -123 -413q1 -254 107 -412q125 -185 364 -184q62 0 119 27q8 3 20 17t15 22l45 242h162
v-359q-195 -82 -418 -82t-388 92q-163 93 -255 257zM941 1528l-178 195l-178 -195h-170l227 351h242l227 -351h-170z" />
    <glyph glyph-name="ccircumflex" unicode="c&#x302;" horiz-adv-x="1028" 
d="M627 920q-103 0 -181 -101q-79 -101 -79 -281t83 -285q83 -106 214 -106q130 1 262 77q28 16 39 24v-158q-25 -12 -63 -31q-166 -84 -314 -84q-147 0 -239 41q-92 40 -155 110q-128 141 -128 367q0 225 152 378t376 153q160 0 257 -63t97 -162q0 -65 -43 -110
q-43 -44 -89 -44q-70 0 -95 11t-55 32v230zM753 1128l-178 195l-178 -195h-170l227 351h242l227 -351h-170z" />
    <glyph glyph-name="Cdotaccent" unicode="C&#x307;" horiz-adv-x="1303" 
d="M168 316q-92 164 -92 348q0 339 206 541t515 202q145 0 305 -47q54 -16 127 -39v-348h-160l-45 229q0 4 -8 16t-18 16q-22 11 -69 23q-47 11 -77 11q-210 0 -332 -159q-123 -159 -123 -413q1 -254 107 -412q125 -185 364 -184q62 0 119 27q8 3 20 17t15 22l45 242h162
v-359q-195 -82 -418 -82t-388 92q-163 93 -255 257zM664 1638q-40 40 -40 84q0 77 39 121t99 44t100 -44q41 -44 41 -89q-1 -44 -11 -70t-29 -45q-41 -41 -101 -41q-58 0 -98 40z" />
    <glyph glyph-name="cdotaccent" unicode="c&#x307;" horiz-adv-x="1028" 
d="M627 920q-103 0 -181 -101q-79 -101 -79 -281t83 -285q83 -106 214 -106q130 1 262 77q28 16 39 24v-158q-25 -12 -63 -31q-166 -84 -314 -84q-147 0 -239 41q-92 40 -155 110q-128 141 -128 367q0 225 152 378t376 153q160 0 257 -63t97 -162q0 -65 -43 -110
q-43 -44 -89 -44q-70 0 -95 11t-55 32v230zM476 1238q-40 40 -40 84q0 77 39 121t99 44t100 -44q41 -44 41 -89q-1 -44 -11 -70t-29 -45q-41 -41 -101 -41q-58 0 -98 40z" />
    <glyph glyph-name="Ccaron" unicode="C&#x30c;" horiz-adv-x="1303" 
d="M168 316q-92 164 -92 348q0 339 206 541t515 202q145 0 305 -47q54 -16 127 -39v-348h-160l-45 229q0 4 -8 16t-18 16q-22 11 -69 23q-47 11 -77 11q-210 0 -332 -159q-123 -159 -123 -413q1 -254 107 -412q125 -185 364 -184q62 0 119 27q8 3 20 17t15 22l45 242h162
v-359q-195 -82 -418 -82t-388 92q-163 93 -255 257zM884 1528h-242l-227 351h170l178 -193l178 193h170z" />
    <glyph glyph-name="ccaron" unicode="c&#x30c;" horiz-adv-x="1028" 
d="M627 920q-103 0 -181 -101q-79 -101 -79 -281t83 -285q83 -106 214 -106q130 1 262 77q28 16 39 24v-158q-25 -12 -63 -31q-166 -84 -314 -84q-147 0 -239 41q-92 40 -155 110q-128 141 -128 367q0 225 152 378t376 153q160 0 257 -63t97 -162q0 -65 -43 -110
q-43 -44 -89 -44q-70 0 -95 11t-55 32v230zM696 1128h-242l-227 351h170l178 -193l178 193h170z" />
    <glyph glyph-name="Dcaron" unicode="D&#x30c;" horiz-adv-x="1483" 
d="M1217 179q-190 -179 -525 -179h-639v104l113 11q47 5 47 45v1054q-1 20 -15 32t-32 14l-113 10v104h627q344 0 535 -183q192 -183 192 -508t-190 -504zM1077 684q0 408 -234 526q-89 44 -208 45h-129v-1134l170 4q232 5 336 217q65 132 65 342zM834 1528h-242l-227 351
h170l178 -193l178 193h170z" />
    <glyph glyph-name="dcaron" unicode="d&#x30c;" horiz-adv-x="1529" 
d="M579 1024q95 0 212 -25v330h-152v84l319 103h105v-1366q0 -19 13 -32.5t32 -15.5l86 -6v-96h-403v119q-12 -6 -148 -109t-314.5 -12t-220.5 231t-42 260t40 222t111 171.5t169 105.5t193 36zM365 524q0 -257 99.5 -308.5t168.5 -51.5t158 39v661q-89 37 -153 37
q-131 0 -202 -105t-71 -272zM1189.5 1531q40.5 30 88.5 30q86 0 136 -48.5t50 -112.5q0 -114 -82.5 -185.5t-207.5 -96.5v82q60 18 102.5 60.5t42.5 91.5h-129q-41 37 -41 93t40.5 86z" />
    <glyph glyph-name="Emacron" unicode="E&#x304;" horiz-adv-x="1225" 
d="M53 0v104l113 11q47 5 47 45v1054q-1 20 -15 32t-32 14l-113 10v104h1045v-327h-148l-32 170q-10 38 -37 38h-381v-481h243q13 0 23 13t12 24l19 139h127v-481h-127l-19 139q-2 11 -12 24t-23 13h-243v-522h446q13 0 24 14t13 25l31 213h149v-375h-1110zM260 1600v165
h696v-165h-696z" />
    <glyph glyph-name="emacron" unicode="e&#x304;" horiz-adv-x="1083" 
d="M1020 96q-182 -121 -448 -121q-114 0 -212 40q-98 39 -164 109q-130 138 -130 369q0 230 142 380q142 151 370 151t343 -144q99 -125 99 -323v-49h-672q0 -260 182 -338q59 -26 134 -25q191 0 356 115v-164zM727 668q0 164 -91 216q-32 18 -83 19q-98 0 -147 -83
q-48 -83 -48 -197h369v45zM222 1200v165h696v-165h-696z" />
    <glyph glyph-name="Ebreve" unicode="E&#x306;" horiz-adv-x="1225" 
d="M53 0v104l113 11q47 5 47 45v1054q-1 20 -15 32t-32 14l-113 10v104h1045v-327h-148l-32 170q-10 38 -37 38h-381v-481h243q13 0 23 13t12 24l19 139h127v-481h-127l-19 139q-2 11 -12 24t-23 13h-243v-522h446q13 0 24 14t13 25l31 213h149v-375h-1110zM587 1694
q196 0 233 168h109q0 -146 -84 -240t-237 -94q-154 0 -237 93t-83 241h106q19 -86 78 -127q60 -41 115 -41z" />
    <glyph glyph-name="ebreve" unicode="e&#x306;" horiz-adv-x="1083" 
d="M1020 96q-182 -121 -448 -121q-114 0 -212 40q-98 39 -164 109q-130 138 -130 369q0 230 142 380q142 151 370 151t343 -144q99 -125 99 -323v-49h-672q0 -260 182 -338q59 -26 134 -25q191 0 356 115v-164zM727 668q0 164 -91 216q-32 18 -83 19q-98 0 -147 -83
q-48 -83 -48 -197h369v45zM549 1294q196 0 233 168h109q0 -146 -84 -240t-237 -94q-154 0 -237 93t-83 241h106q19 -86 78 -127q60 -41 115 -41z" />
    <glyph glyph-name="Edotaccent" unicode="E&#x307;" horiz-adv-x="1225" 
d="M53 0v104l113 11q47 5 47 45v1054q-1 20 -15 32t-32 14l-113 10v104h1045v-327h-148l-32 170q-10 38 -37 38h-381v-481h243q13 0 23 13t12 24l19 139h127v-481h-127l-19 139q-2 11 -12 24t-23 13h-243v-522h446q13 0 24 14t13 25l31 213h149v-375h-1110zM508 1638
q-40 40 -39 84q0 77 39 121t99 44t100 -44q41 -44 41 -89q0 -44 -10 -70t-30 -45q-40 -41 -100 -41t-100 40z" />
    <glyph glyph-name="edotaccent" unicode="e&#x307;" horiz-adv-x="1083" 
d="M1020 96q-182 -121 -448 -121q-114 0 -212 40q-98 39 -164 109q-130 138 -130 369q0 230 142 380q142 151 370 151t343 -144q99 -125 99 -323v-49h-672q0 -260 182 -338q59 -26 134 -25q191 0 356 115v-164zM727 668q0 164 -91 216q-32 18 -83 19q-98 0 -147 -83
q-48 -83 -48 -197h369v45zM470 1238q-40 40 -39 84q0 77 39 121t99 44t100 -44q41 -44 41 -89q0 -44 -10 -70t-30 -45q-40 -41 -100 -41t-100 40z" />
    <glyph glyph-name="Eogonek" unicode="E&#x328;" horiz-adv-x="1225" 
d="M635 -254q0 117 114 215q27 24 49 39h-745v104l113 11q47 5 47 45v1054q0 20 -14.5 32t-32.5 14l-113 10v104h1045v-327h-148l-32 170q-10 38 -37 38h-381v-481h243q14 0 23.5 13t11.5 24l19 139h127v-481h-127l-19 139q-2 11 -11.5 24t-23.5 13h-243v-522h446
q13 0 24 14t13 25l31 213h149v-375h-236q-126 -96 -126 -201q0 -45 25.5 -75.5t63.5 -30.5t68 24t35 27l64 -106q-135 -64 -189 -64q-106 0 -169.5 47t-63.5 125z" />
    <glyph glyph-name="eogonek" unicode="e&#x328;" horiz-adv-x="1083" 
d="M727 668q0 164 -61.5 199.5t-112.5 35.5q-98 0 -146.5 -83t-48.5 -197h369v45zM664 145q191 0 356 115v-164q-77 -51 -183 -84q-58 -29 -104.5 -90.5t-46.5 -114.5q0 -114 102 -114q26 0 55.5 24t34.5 27l64 -106q-135 -64 -189 -64q-106 0 -169.5 47t-63.5 125
q0 128 132 231q-31 -2 -64 -2q-251 0 -386.5 144t-135.5 374t142 380.5t370 150.5t335 -134.5t107 -332.5v-49h-672q0 -259 120.5 -311t195.5 -52z" />
    <glyph glyph-name="Ecaron" unicode="E&#x30c;" horiz-adv-x="1225" 
d="M53 0v104l113 11q47 5 47 45v1054q-1 20 -15 32t-32 14l-113 10v104h1045v-327h-148l-32 170q-10 38 -37 38h-381v-481h243q13 0 23 13t12 24l19 139h127v-481h-127l-19 139q-2 11 -12 24t-23 13h-243v-522h446q13 0 24 14t13 25l31 213h149v-375h-1110zM729 1528h-242
l-227 351h170l178 -193l178 193h170z" />
    <glyph glyph-name="ecaron" unicode="e&#x30c;" horiz-adv-x="1083" 
d="M1020 96q-182 -121 -448 -121q-114 0 -212 40q-98 39 -164 109q-130 138 -130 369q0 230 142 380q142 151 370 151t343 -144q99 -125 99 -323v-49h-672q0 -260 182 -338q59 -26 134 -25q191 0 356 115v-164zM727 668q0 164 -91 216q-32 18 -83 19q-98 0 -147 -83
q-48 -83 -48 -197h369v45zM691 1128h-242l-227 351h170l178 -193l178 193h170z" />
    <glyph glyph-name="Gcircumflex" unicode="G&#x302;" horiz-adv-x="1466" 
d="M985 121v399q0 20 -14 32t-33 13l-137 10v105h618v-105l-104 -10q-47 -5 -47 -45v-457q-217 -96 -475 -96q-312 0 -514 200q-203 200 -203 525t204 520t529 195q250 0 461 -80v-354h-160l-41 221q-6 31 -68 55q-62 23 -134 23q-71 0 -143 -22t-126 -62
q-104 -76 -154 -206q-51 -129 -51 -272q0 -278 131 -434q131 -155 369 -155h92zM967 1528l-178 195l-178 -195h-170l227 351h242l227 -351h-170z" />
    <glyph glyph-name="gcircumflex" unicode="g&#x302;" horiz-adv-x="1137" 
d="M979 686q0 -72 -23 -124q-24 -52 -62 -90q-72 -72 -184 -104q-113 -31 -221 -24q-61 -42 -63 -84q0 -17 8 -39q490 -41 589 -189q34 -50 34 -112q-1 -62 -23 -113t-61 -95q-78 -87 -206 -136t-236 -49q-206 0 -336 81q-129 81 -129 236q0 112 72 168t132 47
q-26 51 -26 93q0 66 26 109q26 42 88 97q-84 19 -138 68q-54 48 -84 104t-30 142q0 170 127 261t326 91q115 0 237 -44q30 -11 56 -19h266v-121h-180q41 -82 41 -154zM668 853q-41 71 -120 71t-119 -69t-40 -142q-1 -73 9 -117t30 -78t50 -56q31 -22 73 -22q41 0 71 22
t50 56q38 68 37 167q0 97 -41 168zM793 -148q0 43 -22 69q-22 27 -57 45t-79 30t-88 20t-83 10q-39 4 -65 7q-10 -15 -21 -31q-10 -16 -26 -47t-16 -81t19 -92q20 -42 52 -74q33 -32 73 -50t81 -18t83 16t74 44q33 28 54 68t21 84zM730 1128l-178 195l-178 -195h-170
l227 351h242l227 -351h-170z" />
    <glyph glyph-name="Gbreve" unicode="G&#x306;" horiz-adv-x="1466" 
d="M985 121v399q0 20 -14 32t-33 13l-137 10v105h618v-105l-104 -10q-47 -5 -47 -45v-457q-217 -96 -475 -96q-312 0 -514 200q-203 200 -203 525t204 520t529 195q250 0 461 -80v-354h-160l-41 221q-6 31 -68 55q-62 23 -134 23q-71 0 -143 -22t-126 -62
q-104 -76 -154 -206q-51 -129 -51 -272q0 -278 131 -434q131 -155 369 -155h92zM768 1694q196 0 233 168h109q0 -146 -84 -240t-237 -94q-154 0 -237 93t-83 241h106q19 -86 78 -127q60 -41 115 -41z" />
    <glyph glyph-name="gbreve" unicode="g&#x306;" horiz-adv-x="1137" 
d="M979 686q0 -72 -23 -124q-24 -52 -62 -90q-72 -72 -184 -104q-113 -31 -221 -24q-61 -42 -63 -84q0 -17 8 -39q490 -41 589 -189q34 -50 34 -112q-1 -62 -23 -113t-61 -95q-78 -87 -206 -136t-236 -49q-206 0 -336 81q-129 81 -129 236q0 112 72 168t132 47
q-26 51 -26 93q0 66 26 109q26 42 88 97q-84 19 -138 68q-54 48 -84 104t-30 142q0 170 127 261t326 91q115 0 237 -44q30 -11 56 -19h266v-121h-180q41 -82 41 -154zM668 853q-41 71 -120 71t-119 -69t-40 -142q-1 -73 9 -117t30 -78t50 -56q31 -22 73 -22q41 0 71 22
t50 56q38 68 37 167q0 97 -41 168zM793 -148q0 43 -22 69q-22 27 -57 45t-79 30t-88 20t-83 10q-39 4 -65 7q-10 -15 -21 -31q-10 -16 -26 -47t-16 -81t19 -92q20 -42 52 -74q33 -32 73 -50t81 -18t83 16t74 44q33 28 54 68t21 84zM531 1294q196 0 233 168h109
q0 -146 -84 -240t-237 -94q-154 0 -237 93t-83 241h106q19 -86 78 -127q60 -41 115 -41z" />
    <glyph glyph-name="Gdotaccent" unicode="G&#x307;" horiz-adv-x="1466" 
d="M985 121v399q0 20 -14 32t-33 13l-137 10v105h618v-105l-104 -10q-47 -5 -47 -45v-457q-217 -96 -475 -96q-312 0 -514 200q-203 200 -203 525t204 520t529 195q250 0 461 -80v-354h-160l-41 221q-6 31 -68 55q-62 23 -134 23q-71 0 -143 -22t-126 -62
q-104 -76 -154 -206q-51 -129 -51 -272q0 -278 131 -434q131 -155 369 -155h92zM690 1638q-40 40 -40 84q0 77 39 121t99 44t100 -44q41 -44 41 -89q-1 -44 -11 -70t-29 -45q-41 -41 -101 -41q-58 0 -98 40z" />
    <glyph glyph-name="gdotaccent" unicode="g&#x307;" horiz-adv-x="1137" 
d="M979 686q0 -72 -23 -124q-24 -52 -62 -90q-72 -72 -184 -104q-113 -31 -221 -24q-61 -42 -63 -84q0 -17 8 -39q490 -41 589 -189q34 -50 34 -112q-1 -62 -23 -113t-61 -95q-78 -87 -206 -136t-236 -49q-206 0 -336 81q-129 81 -129 236q0 112 72 168t132 47
q-26 51 -26 93q0 66 26 109q26 42 88 97q-84 19 -138 68q-54 48 -84 104t-30 142q0 170 127 261t326 91q115 0 237 -44q30 -11 56 -19h266v-121h-180q41 -82 41 -154zM668 853q-41 71 -120 71t-119 -69t-40 -142q-1 -73 9 -117t30 -78t50 -56q31 -22 73 -22q41 0 71 22
t50 56q38 68 37 167q0 97 -41 168zM793 -148q0 43 -22 69q-22 27 -57 45t-79 30t-88 20t-83 10q-39 4 -65 7q-10 -15 -21 -31q-10 -16 -26 -47t-16 -81t19 -92q20 -42 52 -74q33 -32 73 -50t81 -18t83 16t74 44q33 28 54 68t21 84zM452 1238q-40 40 -39 84q0 77 39 121
t99 44t100 -44q41 -44 41 -89q0 -44 -10 -70t-30 -45q-40 -41 -100 -41t-100 40z" />
    <glyph glyph-name="Gcommaaccent" unicode="G&#x327;" horiz-adv-x="1466" 
d="M985 121v399q0 20 -14 32t-33 13l-137 10v105h618v-105l-104 -10q-47 -5 -47 -45v-457q-217 -96 -475 -96q-312 0 -514 200q-203 200 -203 525t204 520t529 195q250 0 461 -80v-354h-160l-41 221q-6 31 -68 55q-62 23 -134 23q-71 0 -143 -22t-126 -62
q-104 -76 -154 -206q-51 -129 -51 -272q0 -278 131 -434q131 -155 369 -155h92zM673 -156q41 31 89 31q86 0 136 -50q49 -50 49 -113q0 -111 -84 -184q-84 -72 -206 -95v82q59 16 102 60t43 91h-129q-41 39 -41 93t41 85z" />
    <glyph glyph-name="gcommaaccent" unicode="g&#x327;" horiz-adv-x="1137" 
d="M979 686q0 -72 -23 -124q-24 -52 -62 -90q-72 -72 -184 -104q-113 -31 -221 -24q-61 -42 -63 -84q0 -17 8 -39q490 -41 589 -189q34 -50 34 -112q-1 -62 -23 -113t-61 -95q-78 -87 -206 -136t-236 -49q-206 0 -336 81q-129 81 -129 236q0 112 72 168t132 47
q-26 51 -26 93q0 66 26 109q26 42 88 97q-84 19 -138 68q-54 48 -84 104t-30 142q0 170 127 261t326 91q115 0 237 -44q30 -11 56 -19h266v-121h-180q41 -82 41 -154zM668 853q-41 71 -120 71t-119 -69t-40 -142q-1 -73 9 -117t30 -78t50 -56q31 -22 73 -22q41 0 71 22
t50 56q38 68 37 167q0 97 -41 168zM793 -148q0 43 -22 69q-22 27 -57 45t-79 30t-88 20t-83 10q-39 4 -65 7q-10 -15 -21 -31q-10 -16 -26 -47t-16 -81t19 -92q20 -42 52 -74q33 -32 73 -50t81 -18t83 16t74 44q33 28 54 68t21 84zM670 1157q-40 -30 -89 -30q-86 0 -136 49
t-50 112q0 114 82 185t208 97v-82q-61 -18 -103 -60t-42 -92h129q41 -37 41 -93t-40 -86z" />
    <glyph glyph-name="Hcircumflex" unicode="H&#x302;" horiz-adv-x="1575" 
d="M918 0v104l106 11q45 5 45 45v495h-563v-495q0 -40 45 -45l108 -11v-104h-598v104l107 11q45 5 45 45v1054q0 20 -13 32t-32 14l-107 10v104h598v-104l-108 -10q-19 -2 -32 -14t-13 -32v-428h563v428q0 20 -13 32t-32 14l-106 10v104h595v-104l-106 -10q-17 -2 -31 -14
t-14 -32v-1054q0 -40 45 -45l106 -11v-104h-595zM965 1528l-178 195l-178 -195h-170l227 351h242l227 -351h-170z" />
    <glyph glyph-name="hcircumflex" unicode="h&#x302;" horiz-adv-x="1282" 
d="M817 1024q205 0 262 -185q19 -62 19 -137v-552q0 -18 13 -32t32 -16l86 -6v-96h-516v96l65 6q19 2 32 16t13 32v483q0 127 -81 181q-34 22 -97 22t-186 -27v-659q0 -18 13 -32t32 -16l71 -6v-96h-520v96l84 6q19 2 32 16t13 32v1179h-145v84l313 103h107v-619
q207 127 358 127zM812 1568l-178 195l-178 -195h-170l227 351h242l227 -351h-170z" />
    <glyph glyph-name="Itilde" unicode="I&#x303;" horiz-adv-x="735" 
d="M47 0v104l127 11q45 5 45 45v1054q0 20 -13 32t-32 14l-127 10v104h639v-104l-127 -10q-17 -2 -32 -14t-15 -32v-1054q0 -20 15 -32t32 -13l127 -11v-104h-639zM484 1598q-46 0 -76 16t-85 48q-55 34 -102 34t-73 -28t-30 -70h-111q44 178 155 234q40 20 86 20t76 -15
t60 -33q79 -48 136 -48q56 0 84 58q8 18 11 38h111q-44 -179 -156 -234q-40 -20 -86 -20z" />
    <glyph glyph-name="itilde" unicode="i&#x303;" horiz-adv-x="682" 
d="M66 0v96l94 6q18 2 32 16t13 32v688h-131v84l299 102h104v-874q1 -18 15 -32t32 -16l99 -6v-96h-557zM463 1198q-46 0 -76 16t-85 48q-55 34 -102 34q-46 0 -72 -28t-31 -70h-111q44 178 155 234q39 20 85 20t77 -15t61 -33q79 -48 135 -48q57 0 85 58q8 18 10 38h111
q-43 -179 -155 -234q-40 -20 -87 -20z" />
    <glyph glyph-name="Imacron" unicode="I&#x304;" horiz-adv-x="735" 
d="M47 0v104l127 11q45 5 45 45v1054q0 20 -13 32t-32 14l-127 10v104h639v-104l-127 -10q-17 -2 -32 -14t-15 -32v-1054q0 -20 15 -32t32 -13l127 -11v-104h-639zM118 1600v165h496v-165h-496z" />
    <glyph glyph-name="imacron" unicode="i&#x304;" horiz-adv-x="682" 
d="M66 0v96l94 6q18 2 32 16t13 32v688h-131v84l299 102h104v-874q1 -18 15 -32t32 -16l99 -6v-96h-557zM96 1200v165h496v-165h-496z" />
    <glyph glyph-name="Ibreve" unicode="I&#x306;" horiz-adv-x="735" 
d="M47 0v104l127 11q45 5 45 45v1054q0 20 -13 32t-32 14l-127 10v104h639v-104l-127 -10q-17 -2 -32 -14t-15 -32v-1054q0 -20 15 -32t32 -13l127 -11v-104h-639zM345 1694q196 0 233 168h109q0 -146 -84 -240t-237 -94q-154 0 -237 93t-83 241h106q19 -86 78 -127
q60 -41 115 -41z" />
    <glyph glyph-name="ibreve" unicode="i&#x306;" horiz-adv-x="682" 
d="M66 0v96l94 6q18 2 32 16t13 32v688h-131v84l299 102h104v-874q1 -18 15 -32t32 -16l99 -6v-96h-557zM323 1294q196 0 233 168h109q0 -146 -84 -240t-237 -94q-154 0 -237 93t-83 241h106q19 -86 78 -127q60 -41 115 -41z" />
    <glyph glyph-name="Iogonek" unicode="I&#x328;" horiz-adv-x="735" 
d="M411 -426q-106 0 -169.5 47t-63.5 125q0 117 114 215q27 24 49 39h-294v104l127 11q45 5 45 45v1054q0 20 -13 32t-32 14l-127 10v104h639v-104l-127 -10q-17 -2 -32 -14t-15 -32v-1054q0 -20 15 -31.5t32 -13.5l127 -11v-104h-216q-126 -96 -126 -201q0 -45 25.5 -75.5
t63.5 -30.5t68 24t35 27l64 -106q-135 -64 -189 -64z" />
    <glyph glyph-name="iogonek" unicode="i&#x328;" horiz-adv-x="682" 
d="M506 1358q0 -33 -12.5 -62t-34.5 -51t-51 -34.5t-62 -12.5t-62 12.5t-50 34.5t-33.5 51t-12.5 62t12.5 62t33.5 50t50 33.5t62 12.5t62 -12.5t51 -33.5t34.5 -50t12.5 -62zM384 -426q-106 0 -169.5 47t-63.5 125q0 117 114 215q27 24 49 39h-248v96l94 6q18 2 31.5 15.5
t13.5 32.5v688h-131v84l299 102h104v-874q0 -19 14.5 -32.5t32.5 -15.5l99 -6v-96h-180q-126 -96 -126 -201q0 -45 25.5 -75.5t63.5 -30.5t68 24t35 27l64 -106q-135 -64 -189 -64z" />
    <glyph glyph-name="Idotaccent" unicode="I&#x307;" horiz-adv-x="735" 
d="M47 0v104l127 11q45 5 45 45v1054q0 20 -13 32t-32 14l-127 10v104h639v-104l-127 -10q-17 -2 -32 -14t-15 -32v-1054q0 -20 15 -32t32 -13l127 -11v-104h-639zM266 1638q-40 40 -39 84q0 77 39 121t99 44t100 -44q41 -44 41 -89q0 -44 -10 -70t-30 -45q-40 -41 -100 -41
t-100 40z" />
    <glyph glyph-name="Jcircumflex" unicode="J&#x302;" horiz-adv-x="1049" 
d="M834 1214v-718q0 -380 -264 -491q-90 -38 -228 -38t-293 58v374h160l47 -274q10 -35 60 -35q110 0 169 93q58 93 58 319v712q0 20 -14 32t-31 14l-127 10v104h633v-104l-125 -10q-19 -2 -32 -14t-13 -32zM897 1528l-178 195l-178 -195h-170l227 351h242l227 -351h-170z
" />
    <glyph glyph-name="jcircumflex" unicode="j&#x302;" horiz-adv-x="664" 
d="M205 -10v848h-146v84l314 102h104v-928q0 -252 -112 -401q-121 -168 -345 -168q-138 0 -188 89q-16 30 -16 62q0 59 39 98q39 40 92 44l200 -203q58 92 58 373zM551 1128l-178 195l-178 -195h-170l227 351h242l227 -351h-170z" />
    <glyph glyph-name="Kcommaaccent" unicode="K&#x327;" horiz-adv-x="1397" 
d="M952 0v76l-334 524h-112v-440q0 -40 45 -45l108 -11v-104h-600v104l109 11q45 5 45 45v1054q0 20 -13 32t-32 14l-109 10v104h600v-104l-108 -10q-19 -2 -32 -14t-13 -32v-516h57l441 537q4 5 2 15t-13 10l-116 10v104h469v-104q-22 -2 -45 -4t-49 -4t-50 -5l-381 -454
l430 -686l146 -13v-104h-445zM612 -156q41 31 89 31q86 0 136 -50q49 -50 49 -113q0 -111 -84 -184q-84 -72 -206 -95v82q59 16 102 60t43 91h-129q-41 39 -41 93t41 85z" />
    <glyph glyph-name="kcommaaccent" unicode="k&#x327;" horiz-adv-x="1212" 
d="M780 0v84l-225 379h-96v-313q1 -18 13 -32t32 -16l82 -6v-96h-533v96l86 6q19 2 32 16t13 32v1179h-143v84l313 103h105v-984h45l274 328q10 11 6 22t-20 13l-78 8v96h426v-96l-135 -16l-219 -250l315 -531l121 -10v-96h-414zM501 -156q41 31 89 31q86 0 136 -50
q49 -50 49 -113q0 -111 -84 -184q-84 -72 -206 -95v82q59 16 102 60t43 91h-129q-41 39 -41 93t41 85z" />
    <glyph glyph-name="Lacute" unicode="L&#x301;" horiz-adv-x="1135" 
d="M55 0v104l113 11q45 5 45 45v1054q0 20 -13 32t-32 14l-113 10v104h611v-104l-115 -10q-19 -2 -32 -14t-13 -32v-1089h356q30 0 44 33q4 8 5 14l27 236h164v-408h-1047zM855 1709l-332 -181h-143l280 310q52 54 80 60q28 5 55 5t49 -10q22 -9 38 -25q26 -28 26 -61
q0 -66 -53 -98z" />
    <glyph glyph-name="lacute" unicode="l&#x301;" horiz-adv-x="682" 
d="M59 0v96l101 6q20 2 32 15t13 33v1179h-146v84l314 103h104v-1366q1 -20 13 -33t32 -15l103 -6v-96h-566zM619 1789l-332 -181h-143l280 310q52 54 80 60q28 5 55 5t49 -10q22 -9 38 -25q26 -28 26 -61q0 -66 -53 -98z" />
    <glyph glyph-name="Lcommaaccent" unicode="L&#x327;" horiz-adv-x="1135" 
d="M55 0v104l113 11q45 5 45 45v1054q0 20 -13 32t-32 14l-113 10v104h611v-104l-115 -10q-19 -2 -32 -14t-13 -32v-1089h356q30 0 44 33q4 8 5 14l27 236h164v-408h-1047zM462 -156q41 31 89 31q86 0 136 -50q49 -50 49 -113q0 -111 -84 -184q-84 -72 -206 -95v82
q59 16 102 60t43 91h-129q-41 39 -41 93t41 85z" />
    <glyph glyph-name="lcommaaccent" unicode="l&#x327;" horiz-adv-x="682" 
d="M59 0v96l101 6q20 2 32 15t13 33v1179h-146v84l314 103h104v-1366q1 -20 13 -33t32 -15l103 -6v-96h-566zM226 -156q41 31 89 31q86 0 136 -50q49 -50 49 -113q0 -111 -84 -184q-84 -72 -206 -95v82q59 16 102 60t43 91h-129q-41 39 -41 93t41 85z" />
    <glyph glyph-name="Lcaron" unicode="L&#x30c;" horiz-adv-x="1135" 
d="M55 0v104l113 11q45 5 45 45v1054q0 20 -13 32t-32 14l-113 10v104h611v-104l-115 -10q-19 -2 -32 -14t-13 -32v-1089h356q30 0 39 20.5t10 26.5l27 236h164v-408h-1047zM785.5 1441q40.5 30 88.5 30q86 0 136 -48.5t50 -112.5q0 -114 -82.5 -185.5t-207.5 -96.5v82
q60 18 102.5 60.5t42.5 91.5h-129q-41 37 -41 93t40.5 86z" />
    <glyph glyph-name="lcaron" unicode="l&#x30c;" horiz-adv-x="947" 
d="M59 0v96l101 6q20 2 32.5 15t12.5 33v1179h-146v84l314 103h104v-1366q0 -20 12.5 -33t32.5 -15l103 -6v-96h-566zM607.5 1531q40.5 30 88.5 30q86 0 136 -48.5t50 -112.5q0 -114 -82.5 -185.5t-207.5 -96.5v82q60 18 102.5 60.5t42.5 91.5h-129q-41 37 -41 93t40.5 86z
" />
    <glyph glyph-name="Nacute" unicode="N&#x301;" horiz-adv-x="1524" 
d="M1309 1214v-1214h-250l-690 1083v-923q0 -20 14 -32t31 -13l114 -11v-104h-473v104l113 11q45 5 45 45v1054q0 20 -13 32t-32 14l-111 10v104h506v-55l590 -924v819q-1 20 -15 32t-32 14l-117 10v104h475v-104l-110 -10q-17 -2 -31 -14t-14 -32zM1036 1709l-332 -181
h-143l280 310q52 54 80 60q28 5 55 5q28 0 50 -10q22 -9 36 -25q26 -28 27 -61q0 -66 -53 -98z" />
    <glyph glyph-name="nacute" unicode="n&#x301;" horiz-adv-x="1280" 
d="M828 1024q268 0 268 -356v-518q0 -18 14 -32t33 -16l63 -6v-96h-504v96l76 6q19 2 32 16t13 32v481q0 137 -90 187q-32 18 -105 18t-169 -27v-659q0 -18 14 -32t33 -16l61 -6v-96h-501v96l73 6q19 2 32 16t13 32v686h-141v84l309 104h107v-125q189 125 369 125zM901 1309
l-332 -181h-143l280 310q52 54 80 60q28 5 55 5t49 -10q22 -9 38 -25q26 -28 26 -61q0 -66 -53 -98z" />
    <glyph glyph-name="Ncommaaccent" unicode="N&#x327;" horiz-adv-x="1524" 
d="M1309 1214v-1214h-250l-690 1083v-923q0 -20 14 -32t31 -13l114 -11v-104h-473v104l113 11q45 5 45 45v1054q0 20 -13 32t-32 14l-111 10v104h506v-55l590 -924v819q-1 20 -15 32t-32 14l-117 10v104h475v-104l-110 -10q-17 -2 -31 -14t-14 -32zM643 -156q41 31 89 31
q86 0 136 -50q49 -50 49 -113q0 -111 -84 -184q-84 -72 -206 -95v82q59 16 102 60t43 91h-129q-41 39 -41 93t41 85z" />
    <glyph glyph-name="ncommaaccent" unicode="n&#x327;" horiz-adv-x="1280" 
d="M828 1024q268 0 268 -356v-518q0 -18 14 -32t33 -16l63 -6v-96h-504v96l76 6q19 2 32 16t13 32v481q0 137 -90 187q-32 18 -105 18t-169 -27v-659q0 -18 14 -32t33 -16l61 -6v-96h-501v96l73 6q19 2 32 16t13 32v686h-141v84l309 104h107v-125q189 125 369 125zM508 -156
q41 31 89 31q86 0 136 -50q49 -50 49 -113q0 -111 -84 -184q-84 -72 -206 -95v82q59 16 102 60t43 91h-129q-41 39 -41 93t41 85z" />
    <glyph glyph-name="Ncaron" unicode="N&#x30c;" horiz-adv-x="1524" 
d="M1309 1214v-1214h-250l-690 1083v-923q0 -20 14 -32t31 -13l114 -11v-104h-473v104l113 11q45 5 45 45v1054q0 20 -13 32t-32 14l-111 10v104h506v-55l590 -924v819q-1 20 -15 32t-32 14l-117 10v104h475v-104l-110 -10q-17 -2 -31 -14t-14 -32zM880 1528h-242l-227 351
h170l178 -193l178 193h170z" />
    <glyph glyph-name="ncaron" unicode="n&#x30c;" horiz-adv-x="1280" 
d="M828 1024q268 0 268 -356v-518q0 -18 14 -32t33 -16l63 -6v-96h-504v96l76 6q19 2 32 16t13 32v481q0 137 -90 187q-32 18 -105 18t-169 -27v-659q0 -18 14 -32t33 -16l61 -6v-96h-501v96l73 6q19 2 32 16t13 32v686h-141v84l309 104h107v-125q189 125 369 125zM745 1128
h-242l-227 351h170l178 -193l178 193h170z" />
    <glyph glyph-name="Omacron" unicode="O&#x304;" horiz-adv-x="1548" 
d="M1475 656q1 -122 -49 -252t-141 -227q-197 -210 -506 -210t-506 194t-197 520t186 526t506 200q206 -1 372 -101q239 -144 312 -434q23 -92 23 -216zM1145 699q-1 93 -23 201t-67 191q-98 179 -269 179q-256 0 -347 -308q-36 -122 -36 -233q-1 -112 9 -184t29 -138
q40 -140 123 -225q83 -86 202 -86q191 0 292 189q59 111 73 216t14 198zM427 1600v165h696v-165h-696z" />
    <glyph glyph-name="omacron" unicode="o&#x304;" horiz-adv-x="1196" 
d="M988 117q-145 -142 -388 -142t-389 140q-145 140 -145 384t149 384q149 141 395 141q245 0 384 -146t139 -383q0 -236 -145 -378zM827 483q0 55 -4 103q-3 48 -13 94q-21 100 -73 164q-52 63 -130 63q-135 1 -191 -135q-44 -106 -43 -268q0 -320 144 -396q35 -18 94 -18
t103 38t69 96q25 59 35 131t9 128zM251 1200v165h696v-165h-696z" />
    <glyph glyph-name="Obreve" unicode="O&#x306;" horiz-adv-x="1548" 
d="M1475 656q1 -122 -49 -252t-141 -227q-197 -210 -506 -210t-506 194t-197 520t186 526t506 200q206 -1 372 -101q239 -144 312 -434q23 -92 23 -216zM1145 699q-1 93 -23 201t-67 191q-98 179 -269 179q-256 0 -347 -308q-36 -122 -36 -233q-1 -112 9 -184t29 -138
q40 -140 123 -225q83 -86 202 -86q191 0 292 189q59 111 73 216t14 198zM754 1694q196 0 233 168h109q0 -146 -84 -240t-237 -94q-154 0 -237 93t-83 241h106q19 -86 78 -127q60 -41 115 -41z" />
    <glyph glyph-name="obreve" unicode="o&#x306;" horiz-adv-x="1196" 
d="M988 117q-145 -142 -388 -142t-389 140q-145 140 -145 384t149 384q149 141 395 141q245 0 384 -146t139 -383q0 -236 -145 -378zM827 483q0 55 -4 103q-3 48 -13 94q-21 100 -73 164q-52 63 -130 63q-135 1 -191 -135q-44 -106 -43 -268q0 -320 144 -396q35 -18 94 -18
t103 38t69 96q25 59 35 131t9 128zM578 1294q196 0 233 168h109q0 -146 -84 -240t-237 -94q-154 0 -237 93t-83 241h106q19 -86 78 -127q60 -41 115 -41z" />
    <glyph glyph-name="Ohungarumlaut" unicode="O&#x30b;" horiz-adv-x="1548" 
d="M1475 656q1 -122 -49 -252t-141 -227q-197 -210 -506 -210t-506 194t-197 520t186 526t506 200q206 -1 372 -101q239 -144 312 -434q23 -92 23 -216zM1145 699q-1 93 -23 201t-67 191q-98 179 -269 179q-256 0 -347 -308q-36 -122 -36 -233q-1 -112 9 -184t29 -138
q40 -140 123 -225q83 -86 202 -86q191 0 292 189q59 111 73 216t14 198zM1329 1746q-17 -27 -37 -37l-329 -181h-144l281 310q48 54 92 62q16 3 43 3t49 -10q22 -9 36 -25q26 -29 26 -62t-17 -60zM889 1747q-16 -27 -37 -38l-330 -181h-143l281 310q48 54 92 62q16 3 43 3
t49 -10q22 -9 36 -25q26 -29 25 -62q0 -32 -16 -59z" />
    <glyph glyph-name="ohungarumlaut" unicode="o&#x30b;" horiz-adv-x="1196" 
d="M988 117q-145 -142 -388 -142t-389 140q-145 140 -145 384t149 384q149 141 395 141q245 0 384 -146t139 -383q0 -236 -145 -378zM827 483q0 55 -4 103q-3 48 -13 94q-21 100 -73 164q-52 63 -130 63q-135 1 -191 -135q-44 -106 -43 -268q0 -320 144 -396q35 -18 94 -18
t103 38t69 96q25 59 35 131t9 128zM1153 1346q-17 -27 -37 -37l-329 -181h-144l281 310q48 54 92 62q16 3 43 3t49 -10q22 -9 36 -25q26 -29 26 -62t-17 -60zM713 1347q-16 -27 -37 -38l-330 -181h-143l281 310q48 54 92 62q16 3 43 3t49 -10q22 -9 36 -25q26 -29 25 -62
q0 -32 -16 -59z" />
    <glyph glyph-name="Racute" unicode="R&#x301;" horiz-adv-x="1442" 
d="M589 723q110 1 184 49q104 68 104 223q0 256 -306 256q-8 1 -19 1h-21q-12 0 -25 -1v-524q51 -4 83 -4zM1208 -33q-68 -1 -134 27t-110 72t-70 102q-26 56 -48 116t-43 117q-74 201 -256 201h-41v-442q0 -40 45 -45l113 -11v-104h-607v104l109 11q47 5 47 45v1054
q-1 20 -15 32t-32 14l-109 10v104h680q161 0 281 -61q166 -84 166 -279q0 -232 -215 -320q-68 -28 -142 -38q175 -34 245 -172q33 -64 53 -136q20 -73 35 -111q34 -86 95 -127t187 -26v-104q-68 -8 -116 -20q-50 -12 -118 -13zM922 1709l-332 -181h-143l280 310q52 54 80 60
q28 5 55 5q28 0 50 -10q22 -9 36 -25q26 -28 27 -61q0 -66 -53 -98z" />
    <glyph glyph-name="racute" unicode="r&#x301;" horiz-adv-x="885" 
d="M726 1024q90 0 138 -37v-311h-139q-39 56 -71 69t-84 13t-111 -37v-574q1 -19 13 -33t32 -14l131 -6v-96h-586v96l90 6q19 2 32 16t13 31v689h-149v84l317 104h107v-217q107 133 201 192q40 25 66 25zM757 1309l-332 -181h-143l280 310q52 54 80 60q28 5 55 5t49 -10
q22 -9 38 -25q26 -28 26 -61q0 -66 -53 -98z" />
    <glyph glyph-name="Rcommaaccent" unicode="R&#x327;" horiz-adv-x="1442" 
d="M589 723q110 1 184 49q104 68 104 223q0 256 -306 256q-8 1 -19 1h-21q-12 0 -25 -1v-524q51 -4 83 -4zM1208 -33q-68 -1 -134 27t-110 72t-70 102q-26 56 -48 116t-43 117q-74 201 -256 201h-41v-442q0 -40 45 -45l113 -11v-104h-607v104l109 11q47 5 47 45v1054
q-1 20 -15 32t-32 14l-109 10v104h680q161 0 281 -61q166 -84 166 -279q0 -232 -215 -320q-68 -28 -142 -38q175 -34 245 -172q33 -64 53 -136q20 -73 35 -111q34 -86 95 -127t187 -26v-104q-68 -8 -116 -20q-50 -12 -118 -13zM529 -156q41 31 89 31q86 0 136 -50
q49 -50 49 -113q0 -111 -84 -184q-84 -72 -206 -95v82q59 16 102 60t43 91h-129q-41 39 -41 93t41 85z" />
    <glyph glyph-name="rcommaaccent" unicode="r&#x327;" horiz-adv-x="885" 
d="M726 1024q90 0 138 -37v-311h-139q-39 56 -71 69t-84 13t-111 -37v-574q1 -19 13 -33t32 -14l131 -6v-96h-586v96l90 6q19 2 32 16t13 31v689h-149v84l317 104h107v-217q107 133 201 192q40 25 66 25zM193 -156q41 31 89 31q86 0 136 -50q49 -50 49 -113q0 -111 -84 -184
q-84 -72 -206 -95v82q59 16 102 60t43 91h-129q-41 39 -41 93t41 85z" />
    <glyph glyph-name="Rcaron" unicode="R&#x30c;" horiz-adv-x="1442" 
d="M589 723q110 1 184 49q104 68 104 223q0 256 -306 256q-8 1 -19 1h-21q-12 0 -25 -1v-524q51 -4 83 -4zM1208 -33q-68 -1 -134 27t-110 72t-70 102q-26 56 -48 116t-43 117q-74 201 -256 201h-41v-442q0 -40 45 -45l113 -11v-104h-607v104l109 11q47 5 47 45v1054
q-1 20 -15 32t-32 14l-109 10v104h680q161 0 281 -61q166 -84 166 -279q0 -232 -215 -320q-68 -28 -142 -38q175 -34 245 -172q33 -64 53 -136q20 -73 35 -111q34 -86 95 -127t187 -26v-104q-68 -8 -116 -20q-50 -12 -118 -13zM766 1528h-242l-227 351h170l178 -193l178 193
h170z" />
    <glyph glyph-name="rcaron" unicode="r&#x30c;" horiz-adv-x="885" 
d="M726 1024q90 0 138 -37v-311h-139q-39 56 -71 69t-84 13t-111 -37v-574q1 -19 13 -33t32 -14l131 -6v-96h-586v96l90 6q19 2 32 16t13 31v689h-149v84l317 104h107v-217q107 133 201 192q40 25 66 25zM601 1128h-242l-227 351h170l178 -193l178 193h170z" />
    <glyph glyph-name="Sacute" unicode="S&#x301;" horiz-adv-x="1098" 
d="M985 989h-158l-34 219q-6 25 -54 43q-47 19 -98 19q-106 0 -179 -49t-73 -136q0 -137 173 -230q50 -27 109 -57q169 -84 237 -144q114 -102 114 -253q0 -207 -159 -320q-159 -114 -374 -114t-413 78v375h162l34 -248q2 -12 12 -22t15 -9q127 -53 240 -26q182 43 182 191
q-1 144 -217 256q-161 84 -218 123q-182 121 -182 290q0 208 143 320t346 112t392 -82v-336zM856 1709l-332 -181h-143l280 310q52 54 80 60q28 5 55 5q28 0 50 -10q22 -9 36 -25q26 -28 27 -61q0 -66 -53 -98z" />
    <glyph glyph-name="sacute" unicode="s&#x301;" horiz-adv-x="911" 
d="M815 686h-127l-22 164q-44 51 -138 51q-176 0 -176 -113q0 -76 129 -148q37 -20 83 -44q147 -75 191 -111q93 -75 93 -169q0 -174 -133 -266q-110 -76 -294 -75q-184 0 -355 56v311h129q9 -91 24 -188q4 -10 73 -34t120 -24q90 0 132 42t42 86t-26 76q-26 30 -69 55
t-95 47t-99 46q-105 53 -162 113t-57 141q0 152 115 237t299 85q183 0 323 -55v-283zM757 1309l-332 -181h-143l280 310q52 54 80 60q28 5 55 5t49 -10q22 -9 38 -25q26 -28 26 -61q0 -66 -53 -98z" />
    <glyph glyph-name="Scircumflex" unicode="S&#x302;" horiz-adv-x="1098" 
d="M985 989h-158l-34 219q-6 25 -54 43q-47 19 -98 19q-106 0 -179 -49t-73 -136q0 -137 173 -230q50 -27 109 -57q169 -84 237 -144q114 -102 114 -253q0 -207 -159 -320q-159 -114 -374 -114t-413 78v375h162l34 -248q2 -12 12 -22t15 -9q127 -53 240 -26q182 43 182 191
q-1 144 -217 256q-161 84 -218 123q-182 121 -182 290q0 208 143 320t346 112t392 -82v-336zM757 1528l-178 195l-178 -195h-170l227 351h242l227 -351h-170z" />
    <glyph glyph-name="scircumflex" unicode="s&#x302;" horiz-adv-x="911" 
d="M815 686h-127l-22 164q-44 51 -138 51q-176 0 -176 -113q0 -76 129 -148q37 -20 83 -44q147 -75 191 -111q93 -75 93 -169q0 -174 -133 -266q-110 -76 -294 -75q-184 0 -355 56v311h129q9 -91 24 -188q4 -10 73 -34t120 -24q90 0 132 42t42 86t-26 76q-26 30 -69 55
t-95 47t-99 46q-105 53 -162 113t-57 141q0 152 115 237t299 85q183 0 323 -55v-283zM658 1128l-178 195l-178 -195h-170l227 351h242l227 -351h-170z" />
    <glyph glyph-name="Scedilla" unicode="S&#x327;" horiz-adv-x="1098" 
d="M985 989h-158l-34 219q-6 25 -54 43q-47 19 -98 19q-106 0 -179 -48.5t-73 -136.5q0 -137 111.5 -197t170.5 -90q169 -85 260 -165.5t91 -231.5q0 -207 -134 -302.5t-277 -119.5v-90q6 -2 35 -2q70 0 118 -39t48 -102q0 -110 -70 -164.5t-171 -54.5t-177 22v103
q78 -17 129 -17q121 0 121 70t-90 70q-9 0 -45 -4v197q-17 -1 -34 -1q-200 0 -399 78v375h162l34 -248q2 -12 12 -21.5t15 -9.5q127 -53 274.5 -18t147.5 183q0 144 -188.5 242t-308.5 177.5t-120 249.5q0 208 143.5 320t345.5 112q203 0 392 -82v-336z" />
    <glyph glyph-name="scedilla" unicode="s&#x327;" horiz-adv-x="911" 
d="M815 686h-127l-22 164q-44 51 -138 51q-176 0 -176 -113q0 -77 83 -122.5t129 -69.5q147 -75 215.5 -130.5t68.5 -149.5t-61 -202t-274 -133v-92q6 -2 35 -2q70 0 118 -39t48 -102q0 -110 -70 -164.5t-171 -54.5t-177 22v103q78 -17 129 -17q121 0 121 70t-90 70
q-9 0 -45 -4v204q-182 3 -345 56v311h129q9 -91 24 -188q4 -10 73.5 -34t119.5 -24q90 0 132 42t42 86t-26.5 75t-68.5 56t-94.5 47t-99.5 46q-105 53 -162 113t-57 141q0 152 115.5 237t298.5 85t323 -55v-283z" />
    <glyph glyph-name="Scaron" unicode="S&#x30c;" horiz-adv-x="1098" 
d="M985 989h-158l-34 219q-6 25 -54 43q-47 19 -98 19q-106 0 -179 -49t-73 -136q0 -137 173 -230q50 -27 109 -57q169 -84 237 -144q114 -102 114 -253q0 -207 -159 -320q-159 -114 -374 -114t-413 78v375h162l34 -248q2 -12 12 -22t15 -9q127 -53 240 -26q182 43 182 191
q-1 144 -217 256q-161 84 -218 123q-182 121 -182 290q0 208 143 320t346 112t392 -82v-336zM700 1528h-242l-227 351h170l178 -193l178 193h170z" />
    <glyph glyph-name="scaron" unicode="s&#x30c;" horiz-adv-x="911" 
d="M815 686h-127l-22 164q-44 51 -138 51q-176 0 -176 -113q0 -76 129 -148q37 -20 83 -44q147 -75 191 -111q93 -75 93 -169q0 -174 -133 -266q-110 -76 -294 -75q-184 0 -355 56v311h129q9 -91 24 -188q4 -10 73 -34t120 -24q90 0 132 42t42 86t-26 76q-26 30 -69 55
t-95 47t-99 46q-105 53 -162 113t-57 141q0 152 115 237t299 85q183 0 323 -55v-283zM601 1128h-242l-227 351h170l178 -193l178 193h170z" />
    <glyph glyph-name="uni0162" unicode="T&#x327;" horiz-adv-x="1247" 
d="M624 -225q-14 0 -50 -4v229h-263v104l119 11q47 5 47 45v1091h-229q-28 0 -31 -24l-37 -228h-147v375h1181v-375h-149l-37 228q-3 24 -29 24h-229v-1091q0 -20 13.5 -31.5t31.5 -13.5l121 -11v-104h-260v-111q6 -2 35 -2q70 0 118 -39t48 -102q0 -110 -70 -164.5
t-171 -54.5t-177 22v103q78 -17 129 -17q121 0 121 70q0 52 -35.5 61t-49.5 9z" />
    <glyph glyph-name="uni0163" unicode="t&#x327;" horiz-adv-x="768" 
d="M459 311q1 -178 159 -178q72 0 142 14v-102q-159 -66 -303 -69v-87q6 -2 35 -2q70 0 118 -39t48 -102q0 -110 -70 -164.5t-171 -54.5t-177 22v103q78 -17 129 -17q121 0 121 70t-90 70q-9 0 -45 -4v210q-77 15 -124 65t-47 181v641h-135v82l158 94l110 218h142v-263h284
v-131h-284v-557z" />
    <glyph glyph-name="Tcaron" unicode="T&#x30c;" horiz-adv-x="1247" 
d="M999 1251h-229v-1091q0 -20 14 -32t31 -13l121 -11v-104h-625v104l119 11q47 5 47 45v1091h-229q-28 0 -31 -24l-37 -228h-147v375h1181v-375h-149l-37 228q-3 24 -29 24zM744 1528h-242l-227 351h170l178 -193l178 193h170z" />
    <glyph glyph-name="tcaron" unicode="t&#x30c;" horiz-adv-x="768" 
d="M459 311q1 -178 159 -178q72 0 142 14v-102q-168 -70 -328 -70q-196 0 -222 93.5t-26 158.5v641h-135v82l158 94l110 218h142v-263h284v-131h-284v-557zM578.5 1531q40.5 30 88.5 30q86 0 136 -48.5t50 -112.5q0 -114 -82.5 -185.5t-207.5 -96.5v82q60 18 102.5 60.5
t42.5 91.5h-129q-41 37 -41 93t40.5 86z" />
    <glyph glyph-name="Utilde" unicode="U&#x303;" horiz-adv-x="1493" 
d="M203 520v694q-1 20 -15 32t-32 14l-111 10v104h606v-104l-110 -10q-17 -2 -31 -14t-14 -32v-710q0 -192 81 -280t243 -87q310 0 310 367v710q0 20 -13 32t-32 14l-116 10v104h471v-104l-109 -10q-17 -2 -31 -14t-14 -32v-694q0 -297 -134 -425t-427 -128q-522 0 -522 553
zM878 1598q-46 0 -76 16t-85 48q-55 34 -102 34t-73 -28t-30 -70h-111q44 178 155 234q40 20 86 20t76 -15t60 -33q79 -48 136 -48q56 0 84 58q8 18 11 38h111q-44 -179 -156 -234q-40 -20 -86 -20z" />
    <glyph glyph-name="utilde" unicode="u&#x303;" horiz-adv-x="1270" 
d="M811 113q-180 -138 -339 -138q-152 0 -220 84t-68 250v529h-133v84l301 102h107v-635q0 -101 24 -142q23 -41 61 -63t110 -22t157 35v641h-129v84l299 102h104v-874q1 -18 15 -32t33 -16l90 -6v-96h-412v113zM755 1198q-46 0 -76 16t-85 48q-55 34 -102 34q-46 0 -72 -28
t-31 -70h-111q44 178 155 234q39 20 85 20t77 -15t61 -33q79 -48 135 -48q57 0 85 58q8 18 10 38h111q-43 -179 -155 -234q-40 -20 -87 -20z" />
    <glyph glyph-name="Umacron" unicode="U&#x304;" horiz-adv-x="1493" 
d="M203 520v694q-1 20 -15 32t-32 14l-111 10v104h606v-104l-110 -10q-17 -2 -31 -14t-14 -32v-710q0 -192 81 -280t243 -87q310 0 310 367v710q0 20 -13 32t-32 14l-116 10v104h471v-104l-109 -10q-17 -2 -31 -14t-14 -32v-694q0 -297 -134 -425t-427 -128q-522 0 -522 553
zM412 1600v165h696v-165h-696z" />
    <glyph glyph-name="umacron" unicode="u&#x304;" horiz-adv-x="1270" 
d="M811 113q-180 -138 -339 -138q-152 0 -220 84t-68 250v529h-133v84l301 102h107v-635q0 -101 24 -142q23 -41 61 -63t110 -22t157 35v641h-129v84l299 102h104v-874q1 -18 15 -32t33 -16l90 -6v-96h-412v113zM289 1200v165h696v-165h-696z" />
    <glyph glyph-name="Ubreve" unicode="U&#x306;" horiz-adv-x="1493" 
d="M203 520v694q-1 20 -15 32t-32 14l-111 10v104h606v-104l-110 -10q-17 -2 -31 -14t-14 -32v-710q0 -192 81 -280t243 -87q310 0 310 367v710q0 20 -13 32t-32 14l-116 10v104h471v-104l-109 -10q-17 -2 -31 -14t-14 -32v-694q0 -297 -134 -425t-427 -128q-522 0 -522 553
zM739 1694q196 0 233 168h109q0 -146 -84 -240t-237 -94q-154 0 -237 93t-83 241h106q19 -86 78 -127q60 -41 115 -41z" />
    <glyph glyph-name="ubreve" unicode="u&#x306;" horiz-adv-x="1270" 
d="M811 113q-180 -138 -339 -138q-152 0 -220 84t-68 250v529h-133v84l301 102h107v-635q0 -101 24 -142q23 -41 61 -63t110 -22t157 35v641h-129v84l299 102h104v-874q1 -18 15 -32t33 -16l90 -6v-96h-412v113zM616 1294q196 0 233 168h109q0 -146 -84 -240t-237 -94
q-154 0 -237 93t-83 241h106q19 -86 78 -127q60 -41 115 -41z" />
    <glyph glyph-name="Uring" unicode="U&#x30a;" horiz-adv-x="1493" 
d="M203 520v694q-1 20 -15 32t-32 14l-111 10v104h606v-104l-110 -10q-17 -2 -31 -14t-14 -32v-710q0 -192 81 -280t243 -87q310 0 310 367v710q0 20 -13 32t-32 14l-116 10v104h471v-104l-109 -10q-17 -2 -31 -14t-14 -32v-694q0 -297 -134 -425t-427 -128q-522 0 -522 553
zM943 1603q-76 -75 -184 -75q-107 0 -183 76t-75 182q0 107 75 183t183 76t184 -76t76 -183q0 -108 -76 -183zM851 1878q-37 38 -78 38q-39 0 -63 -10t-42 -28t-28 -42t-10 -50q0 -53 38 -91t78 -38t64 10q24 9 40 27q38 38 38 92t-37 92z" />
    <glyph glyph-name="uring" unicode="u&#x30a;" horiz-adv-x="1270" 
d="M811 113q-180 -138 -339 -138q-152 0 -220 84t-68 250v529h-133v84l301 102h107v-635q0 -101 24 -142q23 -41 61 -63t110 -22t157 35v641h-129v84l299 102h104v-874q1 -18 15 -32t33 -16l90 -6v-96h-412v113zM820 1203q-76 -75 -184 -75q-106 0 -182 76t-76 182
q0 107 75 183t183 76t184 -76t76 -183q0 -108 -76 -183zM728 1478q-37 38 -78 38q-40 0 -64 -10t-40 -28q-18 -18 -28 -42t-11 -50q0 -53 38 -91t78 -38q39 0 63 10q24 9 42 27q38 38 37 92q0 54 -37 92z" />
    <glyph glyph-name="Uhungarumlaut" unicode="U&#x30b;" horiz-adv-x="1493" 
d="M203 520v694q-1 20 -15 32t-32 14l-111 10v104h606v-104l-110 -10q-17 -2 -31 -14t-14 -32v-710q0 -192 81 -280t243 -87q310 0 310 367v710q0 20 -13 32t-32 14l-116 10v104h471v-104l-109 -10q-17 -2 -31 -14t-14 -32v-694q0 -297 -134 -425t-427 -128q-522 0 -522 553
zM1314 1746q-17 -27 -37 -37l-329 -181h-144l281 310q48 54 92 62q16 3 43 3q28 0 50 -10q22 -9 36 -25q26 -29 25 -62q0 -33 -17 -60zM874 1747q-16 -27 -37 -38l-330 -181h-143l281 310q47 54 91 62q16 3 44 3q27 0 49 -10q21 -9 35 -25q26 -29 26 -62q0 -32 -16 -59z" />
    <glyph glyph-name="uhungarumlaut" unicode="u&#x30b;" horiz-adv-x="1270" 
d="M811 113q-180 -138 -339 -138q-152 0 -220 84t-68 250v529h-133v84l301 102h107v-635q0 -101 24 -142q23 -41 61 -63t110 -22t157 35v641h-129v84l299 102h104v-874q1 -18 15 -32t33 -16l90 -6v-96h-412v113zM1191 1346q-17 -27 -37 -37l-329 -181h-144l281 310
q48 54 92 62q16 3 43 3t49 -10q22 -9 36 -25q26 -29 26 -62t-17 -60zM751 1347q-16 -27 -37 -38l-330 -181h-143l281 310q48 54 92 62q16 3 43 3t49 -10q22 -9 36 -25q26 -29 25 -62q0 -32 -16 -59z" />
    <glyph glyph-name="Uogonek" unicode="U&#x328;" horiz-adv-x="1493" 
d="M695 -254q0 117 114 215l10 10q-45 -4 -94 -4q-522 0 -522 553v694q0 20 -14.5 32t-32.5 14l-111 10v104h606v-104l-110 -10q-17 -2 -31 -14t-14 -32v-710q0 -192 81 -279.5t243 -87.5q310 0 310 367v710q0 20 -13 32t-32 14l-116 10v104h471v-104l-109 -10
q-17 -2 -31 -14t-14 -32v-694q0 -297 -137 -428q-65 -62 -162 -92q-126 -96 -126 -201q0 -45 25.5 -75.5t63.5 -30.5t68 24t35 27l64 -106q-135 -64 -189 -64q-106 0 -169.5 47t-63.5 125z" />
    <glyph glyph-name="uogonek" unicode="u&#x328;" horiz-adv-x="1270" 
d="M811 113q-180 -138 -339 -138q-152 0 -220 84t-68 250v529h-133v84l301 102h107v-635q0 -101 36.5 -164t151.5 -63q80 0 164 35v641h-129v84l299 102h104v-874q0 -19 14.5 -32.5t33.5 -15.5l90 -6v-96h-194q-126 -96 -126 -201q0 -45 25.5 -75.5t63.5 -30.5t68 24t35 27
l64 -106q-135 -64 -189 -64q-106 0 -169.5 47t-63.5 125q0 117 114 215q27 24 49 39h-89v113z" />
    <glyph glyph-name="Wcircumflex" unicode="W&#x302;" horiz-adv-x="1978" 
d="M20 1374h558v-104l-121 -13q-28 -3 -19 -43l217 -811l287 971h221l297 -993l205 833q9 38 -29 43l-131 13v104h453v-104l-125 -17l-322 -1286h-194l-320 1065l-313 -1065h-197l-342 1286l-125 17v104zM1198 1528l-178 195l-178 -195h-170l227 351h242l227 -351h-170z" />
    <glyph glyph-name="wcircumflex" unicode="w&#x302;" horiz-adv-x="1722" 
d="M20 999h525v-96l-88 -6q-17 -2 -27 -15t-4 -30l160 -563l229 710h225l220 -714l170 567q4 15 -4 29t-25 16l-90 6v96h393v-96l-115 -14l-274 -889h-228l-223 727l-235 -727h-223l-265 891l-121 12v96zM1070 1128l-178 195l-178 -195h-170l227 351h242l227 -351h-170z" />
    <glyph glyph-name="Ycircumflex" unicode="Y&#x302;" horiz-adv-x="1358" 
d="M840 160q0 -40 45 -45l125 -11v-104h-635v104l125 11q17 1 32 13t15 32v377l-395 714l-132 19v104h582v-104l-108 -10q-10 0 -16 -15t5 -35l258 -485l279 487q12 18 8 34t-18 16l-125 8v104h452v-104l-118 -19l-379 -657v-434zM856 1528l-178 195l-178 -195h-170l227 351
h242l227 -351h-170z" />
    <glyph glyph-name="ycircumflex" unicode="y&#x302;" horiz-adv-x="1159" 
d="M257 -473q-126 0 -176 90q-51 90 17 168q29 33 82 57l174 -133q72 68 130 211q14 36 22 62l-365 909l-121 12v96h539v-96l-94 -6q-19 -2 -28 -15t-3 -30l211 -526l217 526q6 15 -4 29t-27 16l-90 6v96h400v-96l-109 -14l-354 -869q-87 -212 -139 -288q-51 -76 -93 -115
q-92 -90 -189 -90zM778 1128l-178 195l-178 -195h-170l227 351h242l227 -351h-170z" />
    <glyph glyph-name="Ydieresis" unicode="Y&#x308;" horiz-adv-x="1358" 
d="M840 160q0 -40 45 -45l125 -11v-104h-635v104l125 11q17 1 32 13t15 32v377l-395 714l-132 19v104h582v-104l-108 -10q-10 0 -16 -15t5 -35l258 -485l279 487q12 18 8 34t-18 16l-125 8v104h452v-104l-118 -19l-379 -657v-434zM1035 1739q0 -29 -11 -55q-10 -26 -30 -44
q-20 -20 -46 -31t-55 -11t-55 11t-44 31q-20 20 -31 44q-11 26 -11 55t11 55t31 46t44 30q26 11 55 11t55 -11q26 -10 46 -30t30 -46q11 -26 11 -55zM605 1739q0 -29 -11 -55q-10 -26 -30 -44q-20 -20 -46 -31t-55 -11t-55 11t-45 31t-30 44q-11 26 -11 55t11 55t30 46
t45 30q26 11 55 11t55 -11q26 -10 46 -30t30 -46q11 -26 11 -55z" />
    <glyph glyph-name="Zacute" unicode="Z&#x301;" horiz-adv-x="1190" 
d="M76 0v121l702 1128h-452q-26 0 -29 -24l-37 -224h-149v373h993v-121l-701 -1126h490q25 0 31 23l41 253h149v-403h-1038zM893 1709l-332 -181h-143l280 310q52 54 80 60q28 5 55 5t49 -10q22 -9 38 -25q26 -28 26 -61q0 -66 -53 -98z" />
    <glyph glyph-name="zacute" unicode="&#x7a;&#x301;" horiz-adv-x="1006" 
d="M66 0v133l524 750h-309q-15 -1 -27 -15t-12 -28l-15 -158h-145v317h829v-114l-536 -764h352q21 1 39 33q4 8 6 16l27 174h141v-344h-874zM790 1309l-332 -181h-143l280 310q52 54 80 60q28 5 55 5q28 0 50 -10q22 -9 36 -25q26 -28 27 -61q0 -66 -53 -98z" />
    <glyph glyph-name="Zdotaccent" unicode="Z&#x307;" horiz-adv-x="1190" 
d="M76 0v121l702 1128h-452q-26 0 -29 -24l-37 -224h-149v373h993v-121l-701 -1126h490q25 0 31 23l41 253h149v-403h-1038zM516 1638q-40 40 -39 84q0 77 39 121t99 44t100 -44q41 -44 41 -89q0 -44 -10 -70t-30 -45q-40 -41 -100 -41t-100 40z" />
    <glyph glyph-name="zdotaccent" unicode="&#x7a;&#x307;" horiz-adv-x="1006" 
d="M66 0v133l524 750h-309q-15 -1 -27 -15t-12 -28l-15 -158h-145v317h829v-114l-536 -764h352q21 1 39 33q4 8 6 16l27 174h141v-344h-874zM414 1238q-40 40 -40 84q0 77 39 121t99 44t100 -44q41 -44 41 -89q-1 -44 -11 -70t-29 -45q-41 -41 -101 -41q-58 0 -98 40z" />
    <glyph glyph-name="Zcaron" unicode="Z&#x30c;" horiz-adv-x="1190" 
d="M76 0v121l702 1128h-452q-26 0 -29 -24l-37 -224h-149v373h993v-121l-701 -1126h490q25 0 31 23l41 253h149v-403h-1038zM737 1528h-242l-227 351h170l178 -193l178 193h170z" />
    <glyph glyph-name="zcaron" unicode="&#x7a;&#x30c;" horiz-adv-x="1006" 
d="M66 0v133l524 750h-309q-15 -1 -27 -15t-12 -28l-15 -158h-145v317h829v-114l-536 -764h352q21 1 39 33q4 8 6 16l27 174h141v-344h-874zM634 1128h-242l-227 351h170l178 -193l178 193h170z" />
    <glyph glyph-name="Ohorn" unicode="O&#x31b;" horiz-adv-x="1693" 
d="M1319 1421q-82 68 -82 140t59.5 124t130.5 52q134 0 185 -74t51 -233q0 -191 -108.5 -273t-172.5 -108q93 -169 93 -343q0 -327 -193.5 -533t-502.5 -206t-506 194t-197 520t186.5 526t505.5 200q261 0 384 -101t169 -161q182 82 182 276h-184zM1145 699
q0 93 -22.5 201.5t-94 239t-242.5 130.5q-256 0 -319.5 -215t-63.5 -326q0 -112 9.5 -184t39 -175t112 -188.5t202.5 -85.5q191 0 271 150t94 255t14 198z" />
    <glyph glyph-name="ohorn" unicode="o&#x31b;" horiz-adv-x="1382" 
d="M1058 1223.5q46 31.5 96 31.5q89 0 143.5 -69.5t54.5 -169.5q0 -151 -98 -222.5t-152 -95.5q31 -95 31 -207q0 -232 -145.5 -374t-387.5 -142q-243 0 -388.5 140t-145.5 384t149 384.5t391 140.5q168 0 284.5 -67t176.5 -183q111 59 137.5 128.5t26.5 105.5h-174
q-45 62 -45 123t46 92.5zM827 483q0 56 -4 103.5t-19 120.5t-67 136.5t-130 63.5q-134 0 -184 -120.5t-50 -282.5q0 -319 89.5 -366.5t148.5 -47.5t103 37.5t69 96.5t34.5 131t9.5 128z" />
    <glyph glyph-name="Uhorn" unicode="U&#x31b;" horiz-adv-x="1726" 
d="M1341 1483q-79 68 -79 141q0 72 58.5 122t129.5 50q137 0 196.5 -74.5t59.5 -207.5q0 -134 -25.5 -216t-97.5 -170.5t-301 -189.5v-418q0 -297 -134.5 -425t-426.5 -128q-518 0 -518 553v694q0 20 -14.5 32t-32.5 14l-111 10v104h602v-104l-110 -10q-19 -2 -32 -14
t-13 -32v-710q0 -192 80.5 -279.5t250.5 -87.5q299 0 299 367v710q0 20 -13 32t-32 14l-98 10v104h434v-104l-86 -10q-18 -2 -31.5 -14t-13.5 -32v-145q121 51 188.5 143t67.5 271h-197z" />
    <glyph glyph-name="uhorn" unicode="u&#x31b;" horiz-adv-x="1417" 
d="M811 113q-180 -138 -339 -138q-152 0 -220 84t-68 250v529h-133v84l301 102h107v-635q0 -101 36.5 -164t151.5 -63q80 0 164 35v641h-129v84l299 102h104v-139q123 50 157 120t34 115h-164q-45 59 -45 105q0 77 47 110t116 33q70 0 118.5 -50.5t48.5 -153.5t-89 -214.5
t-223 -152.5v-647q0 -19 14.5 -32.5t33.5 -15.5l90 -6v-96h-412v113z" />
    <glyph glyph-name="uni01CD" unicode="A&#x30c;" horiz-adv-x="1405" 
d="M829 0v104l121 15q10 2 17 13t2 22l-111 325h-438l-113 -317q-6 -16 6 -29t23 -14l115 -15v-104h-441v104l115 17l459 1286h233l455 -1249q8 -18 16 -26t29 -13l78 -15v-104h-566zM631 1092l-172 -492h348zM816 1528h-242l-227 351h170l178 -193l178 193h170z" />
    <glyph glyph-name="uni01CE" unicode="a&#x30c;" horiz-adv-x="1133" 
d="M502 145q88 0 188 45v338q-197 -40 -265 -89q-69 -49 -69 -146q0 -98 87 -136q27 -12 59 -12zM203 707q-92 -7 -92 85q1 44 41 90q40 44 106 76q136 66 321 66t275 -64q110 -78 109 -284v-526q0 -18 13 -32t32 -16l90 -6v-96h-381l-27 102q-187 -127 -356 -127
q-114 0 -191 73t-77 183t30 155q54 81 188 137t408 116v25q0 20 2 52q4 77 -40 135q-43 58 -152 58q-48 0 -88 -8v-194h-211zM671 1128h-242l-227 351h170l178 -193l178 193h170z" />
    <glyph glyph-name="uni01CF" unicode="I&#x30c;" horiz-adv-x="735" 
d="M47 0v104l127 11q45 5 45 45v1054q0 20 -13 32t-32 14l-127 10v104h639v-104l-127 -10q-17 -2 -32 -14t-15 -32v-1054q0 -20 15 -32t32 -13l127 -11v-104h-639zM487 1528h-242l-227 351h170l178 -193l178 193h170z" />
    <glyph glyph-name="uni01D0" unicode="i&#x30c;" horiz-adv-x="682" 
d="M66 0v96l94 6q18 2 32 16t13 32v688h-131v84l299 102h104v-874q1 -18 15 -32t32 -16l99 -6v-96h-557zM465 1128h-242l-227 351h170l178 -193l178 193h170z" />
    <glyph glyph-name="uni01D1" unicode="O&#x30c;" horiz-adv-x="1548" 
d="M1475 656q1 -122 -49 -252t-141 -227q-197 -210 -506 -210t-506 194t-197 520t186 526t506 200q206 -1 372 -101q239 -144 312 -434q23 -92 23 -216zM1145 699q-1 93 -23 201t-67 191q-98 179 -269 179q-256 0 -347 -308q-36 -122 -36 -233q-1 -112 9 -184t29 -138
q40 -140 123 -225q83 -86 202 -86q191 0 292 189q59 111 73 216t14 198zM896 1528h-242l-227 351h170l178 -193l178 193h170z" />
    <glyph glyph-name="uni01D2" unicode="o&#x30c;" horiz-adv-x="1196" 
d="M988 117q-145 -142 -388 -142t-389 140q-145 140 -145 384t149 384q149 141 395 141q245 0 384 -146t139 -383q0 -236 -145 -378zM827 483q0 55 -4 103q-3 48 -13 94q-21 100 -73 164q-52 63 -130 63q-135 1 -191 -135q-44 -106 -43 -268q0 -320 144 -396q35 -18 94 -18
t103 38t69 96q25 59 35 131t9 128zM720 1128h-242l-227 351h170l178 -193l178 193h170z" />
    <glyph glyph-name="uni01D3" unicode="U&#x30c;" horiz-adv-x="1493" 
d="M203 520v694q-1 20 -15 32t-32 14l-111 10v104h606v-104l-110 -10q-17 -2 -31 -14t-14 -32v-710q0 -192 81 -280t243 -87q310 0 310 367v710q0 20 -13 32t-32 14l-116 10v104h471v-104l-109 -10q-17 -2 -31 -14t-14 -32v-694q0 -297 -134 -425t-427 -128q-522 0 -522 553
zM881 1528h-242l-227 351h170l178 -193l178 193h170z" />
    <glyph glyph-name="uni01D4" unicode="u&#x30c;" horiz-adv-x="1270" 
d="M811 113q-180 -138 -339 -138q-152 0 -220 84t-68 250v529h-133v84l301 102h107v-635q0 -101 24 -142q23 -41 61 -63t110 -22t157 35v641h-129v84l299 102h104v-874q1 -18 15 -32t33 -16l90 -6v-96h-412v113zM758 1128h-242l-227 351h170l178 -193l178 193h170z" />
    <glyph glyph-name="uni01E2" unicode="&#xc6;&#x304;" horiz-adv-x="1985" 
d="M821 0v104l107 9q21 3 37 17t16 28v342h-453l-202 -342q-10 -17 -5 -29t19 -14l117 -11v-104h-447v104l125 15l651 1098q15 21 -14 38q-7 4 -14 5l-101 10v104h1201v-327h-148l-29 170q-8 38 -34 38h-373v-481h227q15 0 25 13t12 24l18 139h127v-481h-127l-18 141
q-2 11 -13 23t-24 12h-227v-522h432q12 0 22 14t13 25l33 213h149v-375h-1102zM981 627v630l-377 -630h377zM798 1600v165h696v-165h-696z" />
    <glyph glyph-name="uni01E3" unicode="&#xe6;&#x304;" horiz-adv-x="1579" 
d="M723 133q-195 -149 -410 -149q-54 0 -104 22q-49 22 -81 60q-62 73 -62 172q0 98 32 155t100 100q112 69 457 150v57q1 110 -45 162t-145 51q-16 0 -72 -8v-196h-184q-60 0 -80 16t-20 67q0 52 39 96q40 44 102 75q127 63 308 63t288 -111q115 111 298 111
q184 0 283 -144q86 -125 86 -329l-1 -26q-1 -8 -1 -15h-593v-236q55 -66 166 -103q57 -19 137 -19q152 0 290 110v-162q-168 -118 -381 -118q-168 0 -303 74q-61 33 -104 75zM479 150q80 0 176 55v327q-187 -50 -247 -100t-60 -140q0 -92 74 -130q24 -12 57 -12zM1233 670
q0 243 -148 243q-174 0 -174 -286h322v43zM475 1200v165h696v-165h-696z" />
    <glyph glyph-name="Gcaron" unicode="G&#x30c;" horiz-adv-x="1466" 
d="M985 121v399q0 20 -14 32t-33 13l-137 10v105h618v-105l-104 -10q-47 -5 -47 -45v-457q-217 -96 -475 -96q-312 0 -514 200q-203 200 -203 525t204 520t529 195q250 0 461 -80v-354h-160l-41 221q-6 31 -68 55q-62 23 -134 23q-71 0 -143 -22t-126 -62
q-104 -76 -154 -206q-51 -129 -51 -272q0 -278 131 -434q131 -155 369 -155h92zM910 1528h-242l-227 351h170l178 -193l178 193h170z" />
    <glyph glyph-name="gcaron" unicode="g&#x30c;" horiz-adv-x="1137" 
d="M979 686q0 -72 -23 -124q-24 -52 -62 -90q-72 -72 -184 -104q-113 -31 -221 -24q-61 -42 -63 -84q0 -17 8 -39q490 -41 589 -189q34 -50 34 -112q-1 -62 -23 -113t-61 -95q-78 -87 -206 -136t-236 -49q-206 0 -336 81q-129 81 -129 236q0 112 72 168t132 47
q-26 51 -26 93q0 66 26 109q26 42 88 97q-84 19 -138 68q-54 48 -84 104t-30 142q0 170 127 261t326 91q115 0 237 -44q30 -11 56 -19h266v-121h-180q41 -82 41 -154zM668 853q-41 71 -120 71t-119 -69t-40 -142q-1 -73 9 -117t30 -78t50 -56q31 -22 73 -22q41 0 71 22
t50 56q38 68 37 167q0 97 -41 168zM793 -148q0 43 -22 69q-22 27 -57 45t-79 30t-88 20t-83 10q-39 4 -65 7q-10 -15 -21 -31q-10 -16 -26 -47t-16 -81t19 -92q20 -42 52 -74q33 -32 73 -50t81 -18t83 16t74 44q33 28 54 68t21 84zM673 1128h-242l-227 351h170l178 -193
l178 193h170z" />
    <glyph glyph-name="uni01E8" unicode="K&#x30c;" horiz-adv-x="1397" 
d="M952 0v76l-334 524h-112v-440q0 -40 45 -45l108 -11v-104h-600v104l109 11q45 5 45 45v1054q0 20 -13 32t-32 14l-109 10v104h600v-104l-108 -10q-19 -2 -32 -14t-13 -32v-516h57l441 537q4 5 2 15t-13 10l-116 10v104h469v-104q-22 -2 -45 -4t-49 -4t-50 -5l-381 -454
l430 -686l146 -13v-104h-445zM849 1528h-242l-227 351h170l178 -193l178 193h170z" />
    <glyph glyph-name="uni01E9" unicode="k&#x30c;" horiz-adv-x="1212" 
d="M780 0v84l-225 379h-96v-313q1 -18 13 -32t32 -16l82 -6v-96h-533v96l86 6q19 2 32 16t13 32v1179h-143v84l313 103h105v-984h45l274 328q10 11 6 22t-20 13l-78 8v96h426v-96l-135 -16l-219 -250l315 -531l121 -10v-96h-414zM738 1568h-242l-227 351h170l178 -193
l178 193h170z" />
    <glyph glyph-name="uni01EA" unicode="O&#x328;" horiz-adv-x="1548" 
d="M1145 699q0 93 -22.5 201.5t-94 239t-242.5 130.5q-256 0 -319.5 -215t-63.5 -326q0 -112 9.5 -184t39 -175t112 -188.5t202.5 -85.5q191 0 271 150t94 255t14 198zM670 -254q0 117 114 215l6 6h-4q-315 0 -512.5 194t-197.5 520t186.5 526t505.5 200q206 0 409 -122.5
t250.5 -314t47.5 -314.5t-75.5 -320.5t-332.5 -312.5q-60 -26 -127 -40q-104 -91 -104 -184q0 -45 25.5 -75.5t63.5 -30.5t68 24t35 27l64 -106q-135 -64 -189 -64q-106 0 -169.5 47t-63.5 125z" />
    <glyph glyph-name="uni01EB" unicode="o&#x328;" horiz-adv-x="1196" 
d="M827 483q0 56 -4 103.5t-19 120.5t-67 136.5t-130 63.5q-134 0 -184 -120.5t-50 -282.5q0 -319 89.5 -366.5t148.5 -47.5t103 37.5t69 96.5t34.5 131t9.5 128zM540 -254q0 117 114 215q11 10 21 19q-40 -5 -120 -5t-176.5 36t-204.5 140t-108 348t149 384.5t395 140.5
q245 0 384 -146.5t139 -381.5q0 -236 -143 -377q-48 -47 -111 -80q-118 -77 -145.5 -143t-27.5 -104t25.5 -68.5t63.5 -30.5t68 24t35 27l64 -106q-135 -64 -189 -64q-106 0 -169.5 47t-63.5 125z" />
    <glyph glyph-name="uni01EE" unicode="&#x1b7;&#x30c;" horiz-adv-x="1331" 
d="M653 518q-73 0 -90 -20l-61 67l370 549h-518q-15 0 -30 -18t-17 -37l-16 -258h-148v573h1049v-108l-428 -619q206 0 356 -164q66 -71 101 -159q36 -88 36 -172t-24 -162t-67 -148q-88 -143 -240 -229t-354 -86t-361 101q-158 101 -158 233q0 97 52 141q52 43 107 44
q56 1 114 -32l75 -293q19 -5 43 -15t68 -25q46 -15 86 -15t83 22t81 59q76 74 125 189t49 203q0 87 -18 153t-53 117q-35 49 -87 79t-125 30zM776 1528h-242l-227 351h170l178 -193l178 193h170z" />
    <glyph glyph-name="uni01EF" unicode="&#x292;&#x30c;" horiz-adv-x="1147" 
d="M554 311q-64 0 -75 -16l-55 53l311 418h-424q-15 0 -27 -14t-14 -29l-14 -182h-145v458h913v-94l-373 -493q181 0 306 -112q124 -112 124 -251q1 -199 -169 -359q-172 -162 -416 -163q-184 0 -324 91q-139 91 -139 196q0 77 45 111t92 34t100 -25l68 -229q16 -5 40 -13
t66 -20q43 -14 81 -14q37 0 71 18t62 47q55 58 89 150q33 92 33 162t-12 119q-12 50 -40 84q-26 34 -68 54t-106 19zM678 1128h-242l-227 351h170l178 -193l178 193h170z" />
    <glyph glyph-name="uni01F0" unicode="j&#x30c;" horiz-adv-x="664" 
d="M205 -10v848h-146v84l314 102h104v-928q0 -252 -112 -401q-121 -168 -345 -168q-138 0 -188 89q-16 30 -16 62q0 59 39 98q39 40 92 44l200 -203q58 92 58 373zM494 1128h-242l-227 351h170l178 -193l178 193h170z" />
    <glyph glyph-name="uni01F4" unicode="G&#x301;" horiz-adv-x="1466" 
d="M985 121v399q0 20 -14 32t-33 13l-137 10v105h618v-105l-104 -10q-47 -5 -47 -45v-457q-217 -96 -475 -96q-312 0 -514 200q-203 200 -203 525t204 520t529 195q250 0 461 -80v-354h-160l-41 221q-6 31 -68 55q-62 23 -134 23q-71 0 -143 -22t-126 -62
q-104 -76 -154 -206q-51 -129 -51 -272q0 -278 131 -434q131 -155 369 -155h92zM1066 1709l-332 -181h-143l280 310q52 54 80 60q28 5 55 5q28 0 50 -10q22 -9 36 -25q26 -28 27 -61q0 -66 -53 -98z" />
    <glyph glyph-name="uni01F5" unicode="g&#x301;" horiz-adv-x="1137" 
d="M979 686q0 -72 -23 -124q-24 -52 -62 -90q-72 -72 -184 -104q-113 -31 -221 -24q-61 -42 -63 -84q0 -17 8 -39q490 -41 589 -189q34 -50 34 -112q-1 -62 -23 -113t-61 -95q-78 -87 -206 -136t-236 -49q-206 0 -336 81q-129 81 -129 236q0 112 72 168t132 47
q-26 51 -26 93q0 66 26 109q26 42 88 97q-84 19 -138 68q-54 48 -84 104t-30 142q0 170 127 261t326 91q115 0 237 -44q30 -11 56 -19h266v-121h-180q41 -82 41 -154zM668 853q-41 71 -120 71t-119 -69t-40 -142q-1 -73 9 -117t30 -78t50 -56q31 -22 73 -22q41 0 71 22
t50 56q38 68 37 167q0 97 -41 168zM793 -148q0 43 -22 69q-22 27 -57 45t-79 30t-88 20t-83 10q-39 4 -65 7q-10 -15 -21 -31q-10 -16 -26 -47t-16 -81t19 -92q20 -42 52 -74q33 -32 73 -50t81 -18t83 16t74 44q33 28 54 68t21 84zM829 1309l-332 -181h-143l280 310
q52 54 80 60q28 5 55 5t49 -10q22 -9 38 -25q26 -28 26 -61q0 -66 -53 -98z" />
    <glyph glyph-name="uni01F8" unicode="N&#x300;" horiz-adv-x="1524" 
d="M1309 1214v-1214h-250l-690 1083v-923q0 -20 14 -32t31 -13l114 -11v-104h-473v104l113 11q45 5 45 45v1054q0 20 -13 32t-32 14l-111 10v104h506v-55l590 -924v819q-1 20 -15 32t-32 14l-117 10v104h475v-104l-110 -10q-17 -2 -31 -14t-14 -32zM462 1871q28 32 88 32
q60 1 98 -33q14 -12 32 -32l280 -310h-143l-332 181q-32 17 -47 63q-4 12 -4 40q0 27 28 59z" />
    <glyph glyph-name="uni01F9" unicode="n&#x300;" horiz-adv-x="1280" 
d="M828 1024q268 0 268 -356v-518q0 -18 14 -32t33 -16l63 -6v-96h-504v96l76 6q19 2 32 16t13 32v481q0 137 -90 187q-32 18 -105 18t-169 -27v-659q0 -18 14 -32t33 -16l61 -6v-96h-501v96l73 6q19 2 32 16t13 32v686h-141v84l309 104h107v-125q189 125 369 125zM327 1471
q28 32 88 32q59 1 97 -33q14 -12 33 -32l280 -310h-143l-332 181q-32 17 -47 63q-4 12 -4 40q0 27 28 59z" />
    <glyph glyph-name="AEacute" unicode="&#xc6;&#x301;" horiz-adv-x="1985" 
d="M821 0v104l107 9q21 3 37 17t16 28v342h-453l-202 -342q-10 -17 -5 -29t19 -14l117 -11v-104h-447v104l125 15l651 1098q15 21 -14 38q-7 4 -14 5l-101 10v104h1201v-327h-148l-29 170q-8 38 -34 38h-373v-481h227q15 0 25 13t12 24l18 139h127v-481h-127l-18 141
q-2 11 -13 23t-24 12h-227v-522h432q12 0 22 14t13 25l33 213h149v-375h-1102zM981 627v630l-377 -630h377zM1423 1709l-332 -181h-143l280 310q52 54 80 60q28 5 55 5t49 -10q22 -9 38 -25q26 -28 26 -61q0 -66 -53 -98z" />
    <glyph glyph-name="aeacute" unicode="&#xe6;&#x301;" horiz-adv-x="1579" 
d="M723 133q-195 -149 -410 -149q-54 0 -104 22q-49 22 -81 60q-62 73 -62 172q0 98 32 155t100 100q112 69 457 150v57q1 110 -45 162t-145 51q-16 0 -72 -8v-196h-184q-60 0 -80 16t-20 67q0 52 39 96q40 44 102 75q127 63 308 63t288 -111q115 111 298 111
q184 0 283 -144q86 -125 86 -329l-1 -26q-1 -8 -1 -15h-593v-236q55 -66 166 -103q57 -19 137 -19q152 0 290 110v-162q-168 -118 -381 -118q-168 0 -303 74q-61 33 -104 75zM479 150q80 0 176 55v327q-187 -50 -247 -100t-60 -140q0 -92 74 -130q24 -12 57 -12zM1233 670
q0 243 -148 243q-174 0 -174 -286h322v43zM1100 1309l-332 -181h-143l280 310q52 54 80 60q28 5 55 5q28 0 50 -10q22 -9 36 -25q26 -28 27 -61q0 -66 -53 -98z" />
    <glyph glyph-name="Oslashacute" unicode="&#xd8;&#x301;" horiz-adv-x="1548" 
d="M403 713q0 -250 78 -414l506 885q-82 86 -201 86q-256 0 -347 -308q-36 -122 -36 -249zM1058 285q87 162 87 393t-82 395l-506 -885q86 -92 209 -92q191 0 292 189zM1182 1280q293 -212 293 -627q1 -119 -49 -249t-141 -227q-197 -210 -499 -210q-177 0 -319 62
l-119 -207l-104 61l116 205q-132 90 -208 244t-76 334t47 312q47 130 135 225t218 149q128 54 292 55q164 0 309 -66l109 191l106 -59zM1052 1709l-332 -181h-143l280 310q52 54 80 60q28 5 55 5q28 0 50 -10q22 -9 36 -25q26 -28 27 -61q0 -66 -53 -98z" />
    <glyph glyph-name="oslashacute" unicode="&#xf8;&#x301;" horiz-adv-x="1196" 
d="M66 496q0 246 149 387t391 141q111 0 197 -31l102 183l90 -52l-96 -172q115 -68 175 -186t59 -252q0 -254 -145 -397q-145 -142 -396 -142q-116 0 -217 37l-101 -182l-90 57l97 172q-215 138 -215 437zM602 907q-130 1 -186 -135q-44 -106 -43 -255q0 -149 26 -243
l328 582q-51 51 -125 51zM714 128q44 38 78 118q34 81 35 242q0 160 -39 266l-331 -596q57 -68 135 -68t122 38zM876 1309l-332 -181h-143l280 310q52 54 80 60q28 5 55 5q28 0 50 -10q22 -9 36 -25q26 -28 27 -61q0 -66 -53 -98z" />
    <glyph glyph-name="uni0200" unicode="A&#x30f;" horiz-adv-x="1405" 
d="M829 0v104l121 15q10 2 17 13t2 22l-111 325h-438l-113 -317q-6 -16 6 -29t23 -14l115 -15v-104h-441v104l115 17l459 1286h233l455 -1249q8 -18 16 -26t29 -13l78 -15v-104h-566zM631 1092l-172 -492h348zM591 1871q28 32 88 32q61 1 99 -33q14 -12 31 -32l281 -310
h-144l-329 181q-35 17 -50 63q-4 12 -4 40q0 27 28 59zM151 1871q28 32 88 32q59 1 99 -33q15 -12 33 -32l278 -310h-141l-332 181q-32 17 -48 63q-4 12 -5 40q0 27 28 59z" />
    <glyph glyph-name="uni0201" unicode="a&#x30f;" horiz-adv-x="1133" 
d="M502 145q88 0 188 45v338q-197 -40 -265 -89q-69 -49 -69 -146q0 -98 87 -136q27 -12 59 -12zM203 707q-92 -7 -92 85q1 44 41 90q40 44 106 76q136 66 321 66t275 -64q110 -78 109 -284v-526q0 -18 13 -32t32 -16l90 -6v-96h-381l-27 102q-187 -127 -356 -127
q-114 0 -191 73t-77 183t30 155q54 81 188 137t408 116v25q0 20 2 52q4 77 -40 135q-43 58 -152 58q-48 0 -88 -8v-194h-211zM446 1471q28 32 88 32q60 1 98 -33q14 -12 32 -32l281 -310h-144l-329 181q-35 17 -50 63q-4 12 -4 40q0 27 28 59zM6 1471q28 32 88 32
q59 1 99 -33q15 -12 33 -32l278 -310h-141l-332 181q-33 17 -49 63q-4 12 -4 40q0 27 28 59z" />
    <glyph glyph-name="uni0202" unicode="A&#x311;" horiz-adv-x="1405" 
d="M829 0v104l121 15q10 2 17 13t2 22l-111 325h-438l-113 -317q-6 -16 6 -29t23 -14l115 -15v-104h-441v104l115 17l459 1286h233l455 -1249q8 -18 16 -26t29 -13l78 -15v-104h-566zM631 1092l-172 -492h348zM694 1694q-76 0 -135 -40t-78 -126h-106q0 147 82 240
q82 94 238 94q155 0 238 -94t83 -240h-109q-37 166 -213 166z" />
    <glyph glyph-name="uni0203" unicode="a&#x311;" horiz-adv-x="1133" 
d="M502 145q88 0 188 45v338q-197 -40 -265 -89q-69 -49 -69 -146q0 -98 87 -136q27 -12 59 -12zM203 707q-92 -7 -92 85q1 44 41 90q40 44 106 76q136 66 321 66t275 -64q110 -78 109 -284v-526q0 -18 13 -32t32 -16l90 -6v-96h-381l-27 102q-187 -127 -356 -127
q-114 0 -191 73t-77 183t30 155q54 81 188 137t408 116v25q0 20 2 52q4 77 -40 135q-43 58 -152 58q-48 0 -88 -8v-194h-211zM230 1128q0 147 82 240q82 94 238 94q155 0 238 -94t83 -240h-109q-36 166 -212 166q-76 0 -136 -40q-59 -40 -78 -126h-106z" />
    <glyph glyph-name="uni0204" unicode="E&#x30f;" horiz-adv-x="1225" 
d="M53 0v104l113 11q47 5 47 45v1054q-1 20 -15 32t-32 14l-113 10v104h1045v-327h-148l-32 170q-10 38 -37 38h-381v-481h243q13 0 23 13t12 24l19 139h127v-481h-127l-19 139q-2 11 -12 24t-23 13h-243v-522h446q13 0 24 14t13 25l31 213h149v-375h-1110zM504 1871
q28 32 88 32q60 1 98 -33q14 -12 32 -32l281 -310h-144l-329 181q-35 17 -50 63q-4 12 -4 40q0 27 28 59zM64 1871q28 32 88 32q59 1 99 -33q15 -12 33 -32l278 -310h-141l-332 181q-33 17 -49 63q-4 12 -4 40q0 27 28 59z" />
    <glyph glyph-name="uni0205" unicode="e&#x30f;" horiz-adv-x="1083" 
d="M1020 96q-182 -121 -448 -121q-114 0 -212 40q-98 39 -164 109q-130 138 -130 369q0 230 142 380q142 151 370 151t343 -144q99 -125 99 -323v-49h-672q0 -260 182 -338q59 -26 134 -25q191 0 356 115v-164zM727 668q0 164 -91 216q-32 18 -83 19q-98 0 -147 -83
q-48 -83 -48 -197h369v45zM466 1471q28 32 88 32q60 1 98 -33q14 -12 32 -32l281 -310h-144l-329 181q-35 17 -50 63q-4 12 -4 40q0 27 28 59zM26 1471q28 32 88 32q59 1 99 -33q15 -12 33 -32l278 -310h-141l-332 181q-33 17 -49 63q-4 12 -4 40q0 27 28 59z" />
    <glyph glyph-name="uni0206" unicode="E&#x311;" horiz-adv-x="1225" 
d="M53 0v104l113 11q47 5 47 45v1054q-1 20 -15 32t-32 14l-113 10v104h1045v-327h-148l-32 170q-10 38 -37 38h-381v-481h243q13 0 23 13t12 24l19 139h127v-481h-127l-19 139q-2 11 -12 24t-23 13h-243v-522h446q13 0 24 14t13 25l31 213h149v-375h-1110zM288 1528
q0 147 82 240q82 94 238 94q155 0 238 -94t83 -240h-109q-36 166 -212 166q-76 0 -136 -40q-59 -40 -78 -126h-106z" />
    <glyph glyph-name="uni0207" unicode="e&#x311;" horiz-adv-x="1083" 
d="M1020 96q-182 -121 -448 -121q-114 0 -212 40q-98 39 -164 109q-130 138 -130 369q0 230 142 380q142 151 370 151t343 -144q99 -125 99 -323v-49h-672q0 -260 182 -338q59 -26 134 -25q191 0 356 115v-164zM727 668q0 164 -91 216q-32 18 -83 19q-98 0 -147 -83
q-48 -83 -48 -197h369v45zM570 1294q-76 0 -136 -40q-59 -40 -78 -126h-106q0 147 82 240q82 94 238 94q155 0 238 -94t83 -240h-109q-36 166 -212 166z" />
    <glyph glyph-name="uni0208" unicode="I&#x30f;" horiz-adv-x="735" 
d="M47 0v104l127 11q45 5 45 45v1054q0 20 -13 32t-32 14l-127 10v104h639v-104l-127 -10q-17 -2 -32 -14t-15 -32v-1054q0 -20 15 -32t32 -13l127 -11v-104h-639zM262 1871q28 32 88 32q60 1 98 -33q14 -12 32 -32l281 -310h-144l-329 181q-35 17 -50 63q-4 12 -4 40
q0 27 28 59zM-178 1871q28 32 88 32q59 1 99 -33q15 -12 33 -32l278 -310h-141l-332 181q-33 17 -49 63q-4 12 -4 40q0 27 28 59z" />
    <glyph glyph-name="uni0209" unicode="i&#x30f;" horiz-adv-x="682" 
d="M66 0v96l94 6q18 2 32 16t13 32v688h-131v84l299 102h104v-874q1 -18 15 -32t32 -16l99 -6v-96h-557zM240 1471q28 32 88 32q60 1 98 -33q14 -12 32 -32l281 -310h-144l-329 181q-35 17 -50 63q-4 12 -4 40q0 27 28 59zM-200 1471q28 32 88 32q59 1 99 -33q15 -12 33 -32
l278 -310h-141l-332 181q-33 17 -49 63q-4 12 -4 40q0 27 28 59z" />
    <glyph glyph-name="uni020A" unicode="I&#x311;" horiz-adv-x="735" 
d="M47 0v104l127 11q45 5 45 45v1054q0 20 -13 32t-32 14l-127 10v104h639v-104l-127 -10q-17 -2 -32 -14t-15 -32v-1054q0 -20 15 -32t32 -13l127 -11v-104h-639zM366 1694q-76 0 -136 -40q-59 -40 -78 -126h-106q0 147 82 240q82 94 238 94q155 0 238 -94t83 -240h-109
q-36 166 -212 166z" />
    <glyph glyph-name="uni020B" unicode="i&#x311;" horiz-adv-x="682" 
d="M66 0v96l94 6q18 2 32 16t13 32v688h-131v84l299 102h104v-874q1 -18 15 -32t32 -16l99 -6v-96h-557zM344 1294q-76 0 -136 -40q-59 -40 -78 -126h-106q0 147 82 240q82 94 238 94q155 0 238 -94t83 -240h-109q-36 166 -212 166z" />
    <glyph glyph-name="uni020C" unicode="O&#x30f;" horiz-adv-x="1548" 
d="M1475 656q1 -122 -49 -252t-141 -227q-197 -210 -506 -210t-506 194t-197 520t186 526t506 200q206 -1 372 -101q239 -144 312 -434q23 -92 23 -216zM1145 699q-1 93 -23 201t-67 191q-98 179 -269 179q-256 0 -347 -308q-36 -122 -36 -233q-1 -112 9 -184t29 -138
q40 -140 123 -225q83 -86 202 -86q191 0 292 189q59 111 73 216t14 198zM671 1871q28 32 88 32q61 1 99 -33q14 -12 31 -32l281 -310h-144l-329 181q-35 17 -50 63q-4 12 -4 40q0 27 28 59zM231 1871q28 32 88 32q59 1 99 -33q15 -12 33 -32l278 -310h-141l-332 181
q-32 17 -48 63q-4 12 -5 40q0 27 28 59z" />
    <glyph glyph-name="uni020D" unicode="o&#x30f;" horiz-adv-x="1196" 
d="M988 117q-145 -142 -388 -142t-389 140q-145 140 -145 384t149 384q149 141 395 141q245 0 384 -146t139 -383q0 -236 -145 -378zM827 483q0 55 -4 103q-3 48 -13 94q-21 100 -73 164q-52 63 -130 63q-135 1 -191 -135q-44 -106 -43 -268q0 -320 144 -396q35 -18 94 -18
t103 38t69 96q25 59 35 131t9 128zM495 1471q28 32 88 32q61 1 99 -33q14 -12 31 -32l281 -310h-144l-329 181q-35 17 -50 63q-4 12 -4 40q0 27 28 59zM55 1471q28 32 88 32q59 1 99 -33q15 -12 33 -32l278 -310h-141l-332 181q-32 17 -48 63q-4 12 -5 40q0 27 28 59z" />
    <glyph glyph-name="uni020E" unicode="O&#x311;" horiz-adv-x="1548" 
d="M1475 656q1 -122 -49 -252t-141 -227q-197 -210 -506 -210t-506 194t-197 520t186 526t506 200q206 -1 372 -101q239 -144 312 -434q23 -92 23 -216zM1145 699q-1 93 -23 201t-67 191q-98 179 -269 179q-256 0 -347 -308q-36 -122 -36 -233q-1 -112 9 -184t29 -138
q40 -140 123 -225q83 -86 202 -86q191 0 292 189q59 111 73 216t14 198zM774 1694q-76 0 -135 -40t-78 -126h-106q0 147 82 240q82 94 238 94q155 0 238 -94t83 -240h-109q-37 166 -213 166z" />
    <glyph glyph-name="uni020F" unicode="o&#x311;" horiz-adv-x="1196" 
d="M988 117q-145 -142 -388 -142t-389 140q-145 140 -145 384t149 384q149 141 395 141q245 0 384 -146t139 -383q0 -236 -145 -378zM827 483q0 55 -4 103q-3 48 -13 94q-21 100 -73 164q-52 63 -130 63q-135 1 -191 -135q-44 -106 -43 -268q0 -320 144 -396q35 -18 94 -18
t103 38t69 96q25 59 35 131t9 128zM279 1128q0 147 82 240q82 94 238 94q155 0 238 -94t83 -240h-109q-37 166 -213 166q-76 0 -135 -40t-78 -126h-106z" />
    <glyph glyph-name="uni0210" unicode="R&#x30f;" horiz-adv-x="1442" 
d="M589 723q110 1 184 49q104 68 104 223q0 256 -306 256q-8 1 -19 1h-21q-12 0 -25 -1v-524q51 -4 83 -4zM1208 -33q-68 -1 -134 27t-110 72t-70 102q-26 56 -48 116t-43 117q-74 201 -256 201h-41v-442q0 -40 45 -45l113 -11v-104h-607v104l109 11q47 5 47 45v1054
q-1 20 -15 32t-32 14l-109 10v104h680q161 0 281 -61q166 -84 166 -279q0 -232 -215 -320q-68 -28 -142 -38q175 -34 245 -172q33 -64 53 -136q20 -73 35 -111q34 -86 95 -127t187 -26v-104q-68 -8 -116 -20q-50 -12 -118 -13zM541 1871q28 32 88 32q61 1 99 -33
q14 -12 31 -32l281 -310h-144l-329 181q-35 17 -50 63q-4 12 -4 40q0 27 28 59zM101 1871q28 32 88 32q59 1 99 -33q15 -12 33 -32l278 -310h-141l-332 181q-32 17 -48 63q-4 12 -5 40q0 27 28 59z" />
    <glyph glyph-name="uni0211" unicode="r&#x30f;" horiz-adv-x="885" 
d="M726 1024q90 0 138 -37v-311h-139q-39 56 -71 69t-84 13t-111 -37v-574q1 -19 13 -33t32 -14l131 -6v-96h-586v96l90 6q19 2 32 16t13 31v689h-149v84l317 104h107v-217q107 133 201 192q40 25 66 25zM376 1471q28 32 88 32q60 1 98 -33q14 -12 32 -32l281 -310h-144
l-329 181q-35 17 -50 63q-4 12 -4 40q0 27 28 59zM-64 1471q28 32 88 32q59 1 99 -33q15 -12 33 -32l278 -310h-141l-332 181q-33 17 -49 63q-4 12 -4 40q0 27 28 59z" />
    <glyph glyph-name="uni0212" unicode="R&#x311;" horiz-adv-x="1442" 
d="M589 723q110 1 184 49q104 68 104 223q0 256 -306 256q-8 1 -19 1h-21q-12 0 -25 -1v-524q51 -4 83 -4zM1208 -33q-68 -1 -134 27t-110 72t-70 102q-26 56 -48 116t-43 117q-74 201 -256 201h-41v-442q0 -40 45 -45l113 -11v-104h-607v104l109 11q47 5 47 45v1054
q-1 20 -15 32t-32 14l-109 10v104h680q161 0 281 -61q166 -84 166 -279q0 -232 -215 -320q-68 -28 -142 -38q175 -34 245 -172q33 -64 53 -136q20 -73 35 -111q34 -86 95 -127t187 -26v-104q-68 -8 -116 -20q-50 -12 -118 -13zM325 1528q0 147 82 240q82 94 238 94
q155 0 238 -94t83 -240h-109q-37 166 -213 166q-76 0 -135 -40t-78 -126h-106z" />
    <glyph glyph-name="uni0213" unicode="r&#x311;" horiz-adv-x="885" 
d="M726 1024q90 0 138 -37v-311h-139q-39 56 -71 69t-84 13t-111 -37v-574q1 -19 13 -33t32 -14l131 -6v-96h-586v96l90 6q19 2 32 16t13 31v689h-149v84l317 104h107v-217q107 133 201 192q40 25 66 25zM160 1128q0 147 82 240q82 94 238 94q155 0 238 -94t83 -240h-109
q-36 166 -212 166q-76 0 -136 -40q-59 -40 -78 -126h-106z" />
    <glyph glyph-name="uni0214" unicode="U&#x30f;" horiz-adv-x="1493" 
d="M203 520v694q-1 20 -15 32t-32 14l-111 10v104h606v-104l-110 -10q-17 -2 -31 -14t-14 -32v-710q0 -192 81 -280t243 -87q310 0 310 367v710q0 20 -13 32t-32 14l-116 10v104h471v-104l-109 -10q-17 -2 -31 -14t-14 -32v-694q0 -297 -134 -425t-427 -128q-522 0 -522 553
zM656 1871q28 32 88 32q60 1 98 -33q14 -12 32 -32l281 -310h-144l-329 181q-35 17 -50 63q-4 12 -4 40q0 27 28 59zM216 1871q28 32 88 32q59 1 99 -33q15 -12 33 -32l278 -310h-141l-332 181q-33 17 -49 63q-4 12 -4 40q0 27 28 59z" />
    <glyph glyph-name="uni0215" unicode="u&#x30f;" horiz-adv-x="1270" 
d="M811 113q-180 -138 -339 -138q-152 0 -220 84t-68 250v529h-133v84l301 102h107v-635q0 -101 24 -142q23 -41 61 -63t110 -22t157 35v641h-129v84l299 102h104v-874q1 -18 15 -32t33 -16l90 -6v-96h-412v113zM533 1471q28 32 88 32q61 1 99 -33q14 -12 31 -32l281 -310
h-144l-329 181q-35 17 -50 63q-4 12 -4 40q0 27 28 59zM93 1471q28 32 88 32q59 1 99 -33q15 -12 33 -32l278 -310h-141l-332 181q-32 17 -48 63q-4 12 -5 40q0 27 28 59z" />
    <glyph glyph-name="uni0216" unicode="U&#x311;" horiz-adv-x="1493" 
d="M203 520v694q-1 20 -15 32t-32 14l-111 10v104h606v-104l-110 -10q-17 -2 -31 -14t-14 -32v-710q0 -192 81 -280t243 -87q310 0 310 367v710q0 20 -13 32t-32 14l-116 10v104h471v-104l-109 -10q-17 -2 -31 -14t-14 -32v-694q0 -297 -134 -425t-427 -128q-522 0 -522 553
zM760 1694q-76 0 -136 -40q-59 -40 -78 -126h-106q0 147 82 240q82 94 238 94q155 0 238 -94t83 -240h-109q-36 166 -212 166z" />
    <glyph glyph-name="uni0217" unicode="u&#x311;" horiz-adv-x="1270" 
d="M811 113q-180 -138 -339 -138q-152 0 -220 84t-68 250v529h-133v84l301 102h107v-635q0 -101 24 -142q23 -41 61 -63t110 -22t157 35v641h-129v84l299 102h104v-874q1 -18 15 -32t33 -16l90 -6v-96h-412v113zM317 1128q0 147 82 240q82 94 238 94q155 0 238 -94t83 -240
h-109q-37 166 -213 166q-76 0 -135 -40t-78 -126h-106z" />
    <glyph glyph-name="Scommaaccent" unicode="S&#x326;" horiz-adv-x="1098" 
d="M985 989h-158l-34 219q-6 25 -54 43q-47 19 -98 19q-106 0 -179 -49t-73 -136q0 -137 173 -230q50 -27 109 -57q169 -84 237 -144q114 -102 114 -253q0 -207 -159 -320q-159 -114 -374 -114t-413 78v375h162l34 -248q2 -12 12 -22t15 -9q127 -53 240 -26q182 43 182 191
q-1 144 -217 256q-161 84 -218 123q-182 121 -182 290q0 208 143 320t346 112t392 -82v-336zM442 -156q41 31 89 31q86 0 136 -50q49 -50 49 -113q0 -111 -84 -184q-84 -72 -206 -95v82q59 16 102 60t43 91h-129q-41 39 -41 93t41 85z" />
    <glyph glyph-name="scommaaccent" unicode="s&#x326;" horiz-adv-x="911" 
d="M815 686h-127l-22 164q-44 51 -138 51q-176 0 -176 -113q0 -76 129 -148q37 -20 83 -44q147 -75 191 -111q93 -75 93 -169q0 -174 -133 -266q-110 -76 -294 -75q-184 0 -355 56v311h129q9 -91 24 -188q4 -10 73 -34t120 -24q90 0 132 42t42 86t-26 76q-26 30 -69 55
t-95 47t-99 46q-105 53 -162 113t-57 141q0 152 115 237t299 85q183 0 323 -55v-283zM344 -156q41 31 89 31q86 0 136 -50q49 -50 49 -113q0 -111 -84 -184q-84 -72 -206 -95v82q59 16 102 60t43 91h-129q-41 39 -41 93t41 85z" />
    <glyph glyph-name="uni021A" unicode="T&#x326;" horiz-adv-x="1247" 
d="M999 1251h-229v-1091q0 -20 14 -32t31 -13l121 -11v-104h-625v104l119 11q47 5 47 45v1091h-229q-28 0 -31 -24l-37 -228h-147v375h1181v-375h-149l-37 228q-3 24 -29 24zM507 -156q41 31 89 31q86 0 136 -50q49 -50 49 -113q0 -111 -84 -184q-84 -72 -206 -95v82
q59 16 102 60t43 91h-129q-41 39 -41 93t41 85z" />
    <glyph glyph-name="uni021B" unicode="t&#x326;" horiz-adv-x="768" 
d="M459 311q1 -178 159 -178q72 0 142 14v-102q-168 -70 -328 -70q-196 0 -235 140q-13 47 -13 112v641h-135v82l158 94l110 218h142v-263h284v-131h-284v-557zM288 -156q41 31 89 31q86 0 136 -50q49 -50 49 -113q0 -111 -84 -184q-84 -72 -206 -95v82q59 16 102 60t43 91
h-129q-41 39 -41 93t41 85z" />
    <glyph glyph-name="uni021E" unicode="H&#x30c;" horiz-adv-x="1575" 
d="M918 0v104l106 11q45 5 45 45v495h-563v-495q0 -40 45 -45l108 -11v-104h-598v104l107 11q45 5 45 45v1054q0 20 -13 32t-32 14l-107 10v104h598v-104l-108 -10q-19 -2 -32 -14t-13 -32v-428h563v428q0 20 -13 32t-32 14l-106 10v104h595v-104l-106 -10q-17 -2 -31 -14
t-14 -32v-1054q0 -40 45 -45l106 -11v-104h-595zM908 1528h-242l-227 351h170l178 -193l178 193h170z" />
    <glyph glyph-name="uni021F" unicode="h&#x30c;" horiz-adv-x="1282" 
d="M817 1024q205 0 262 -185q19 -62 19 -137v-552q0 -18 13 -32t32 -16l86 -6v-96h-516v96l65 6q19 2 32 16t13 32v483q0 127 -81 181q-34 22 -97 22t-186 -27v-659q0 -18 13 -32t32 -16l71 -6v-96h-520v96l84 6q19 2 32 16t13 32v1179h-145v84l313 103h107v-619
q207 127 358 127zM755 1568h-242l-227 351h170l178 -193l178 193h170z" />
    <glyph glyph-name="uni0226" unicode="A&#x307;" horiz-adv-x="1405" 
d="M829 0v104l121 15q10 2 17 13t2 22l-111 325h-438l-113 -317q-6 -16 6 -29t23 -14l115 -15v-104h-441v104l115 17l459 1286h233l455 -1249q8 -18 16 -26t29 -13l78 -15v-104h-566zM631 1092l-172 -492h348zM596 1638q-40 40 -40 84q0 77 39 121t99 44t100 -44
q41 -44 41 -89q-1 -44 -11 -70t-29 -45q-41 -41 -101 -41q-58 0 -98 40z" />
    <glyph glyph-name="uni0227" unicode="a&#x307;" horiz-adv-x="1133" 
d="M502 145q88 0 188 45v338q-197 -40 -265 -89q-69 -49 -69 -146q0 -98 87 -136q27 -12 59 -12zM203 707q-92 -7 -92 85q1 44 41 90q40 44 106 76q136 66 321 66t275 -64q110 -78 109 -284v-526q0 -18 13 -32t32 -16l90 -6v-96h-381l-27 102q-187 -127 -356 -127
q-114 0 -191 73t-77 183t30 155q54 81 188 137t408 116v25q0 20 2 52q4 77 -40 135q-43 58 -152 58q-48 0 -88 -8v-194h-211zM450 1238q-40 40 -39 84q0 77 39 121t99 44t100 -44q41 -44 41 -89q0 -44 -10 -70t-30 -45q-40 -41 -100 -41t-100 40z" />
    <glyph glyph-name="uni0228" unicode="E&#x327;" horiz-adv-x="1225" 
d="M608 -225q-13 0 -49 -4v229h-506v104l113 11q47 5 47 45v1054q0 20 -14.5 32t-32.5 14l-113 10v104h1045v-327h-148l-32 170q-10 38 -37 38h-381v-481h243q14 0 23.5 13t11.5 24l19 139h127v-481h-127l-19 139q-2 11 -11.5 24t-23.5 13h-243v-522h446q13 0 24 14t13 25
l31 213h149v-375h-502v-111q6 -2 35 -2q70 0 118 -39t48 -102q0 -110 -70 -164.5t-171 -54.5t-177 22v103q78 -17 129 -17q121 0 121 70q0 52 -36 61t-50 9z" />
    <glyph glyph-name="uni0229" unicode="e&#x327;" horiz-adv-x="1083" 
d="M727 668q0 164 -61.5 199.5t-112.5 35.5q-98 0 -146.5 -83t-48.5 -197h369v45zM664 145q191 0 356 115v-164q-101 -67 -255 -102q-76 -18 -169 -19v-86q6 -2 35 -2q70 0 118 -39t48 -102q0 -110 -70 -164.5t-171 -54.5t-177 22v103q78 -17 129 -17q121 0 121 70t-90 70
q-9 0 -45 -4v210q-183 22 -305.5 152t-122.5 360t142 380.5t370 150.5t335 -134.5t107 -332.5v-49h-672q0 -259 120.5 -311t195.5 -52z" />
    <glyph glyph-name="uni022E" unicode="O&#x307;" horiz-adv-x="1548" 
d="M1475 656q1 -122 -49 -252t-141 -227q-197 -210 -506 -210t-506 194t-197 520t186 526t506 200q206 -1 372 -101q239 -144 312 -434q23 -92 23 -216zM1145 699q-1 93 -23 201t-67 191q-98 179 -269 179q-256 0 -347 -308q-36 -122 -36 -233q-1 -112 9 -184t29 -138
q40 -140 123 -225q83 -86 202 -86q191 0 292 189q59 111 73 216t14 198zM676 1638q-40 40 -40 84q0 77 39 121t99 44t100 -44q41 -44 41 -89q-1 -44 -11 -70t-29 -45q-41 -41 -101 -41q-58 0 -98 40z" />
    <glyph glyph-name="uni022F" unicode="o&#x307;" horiz-adv-x="1196" 
d="M988 117q-145 -142 -388 -142t-389 140q-145 140 -145 384t149 384q149 141 395 141q245 0 384 -146t139 -383q0 -236 -145 -378zM827 483q0 55 -4 103q-3 48 -13 94q-21 100 -73 164q-52 63 -130 63q-135 1 -191 -135q-44 -106 -43 -268q0 -320 144 -396q35 -18 94 -18
t103 38t69 96q25 59 35 131t9 128zM500 1238q-40 40 -40 84q0 77 39 121t99 44t100 -44q41 -44 41 -89q-1 -44 -11 -70t-29 -45q-41 -41 -101 -41q-58 0 -98 40z" />
    <glyph glyph-name="uni0232" unicode="Y&#x304;" horiz-adv-x="1358" 
d="M840 160q0 -40 45 -45l125 -11v-104h-635v104l125 11q17 1 32 13t15 32v377l-395 714l-132 19v104h582v-104l-108 -10q-10 0 -16 -15t5 -35l258 -485l279 487q12 18 8 34t-18 16l-125 8v104h452v-104l-118 -19l-379 -657v-434zM330 1600v165h696v-165h-696z" />
    <glyph glyph-name="uni0233" unicode="y&#x304;" horiz-adv-x="1159" 
d="M257 -473q-126 0 -176 90q-51 90 17 168q29 33 82 57l174 -133q72 68 130 211q14 36 22 62l-365 909l-121 12v96h539v-96l-94 -6q-19 -2 -28 -15t-3 -30l211 -526l217 526q6 15 -4 29t-27 16l-90 6v96h400v-96l-109 -14l-354 -869q-87 -212 -139 -288q-51 -76 -93 -115
q-92 -90 -189 -90zM252 1200v165h696v-165h-696z" />
    <glyph glyph-name="uni0400" unicode="&#x415;&#x300;" horiz-adv-x="1225" 
d="M53 0v104l113 11q47 5 47 45v1054q-1 20 -15 32t-32 14l-113 10v104h1045v-327h-148l-32 170q-10 38 -37 38h-381v-481h243q13 0 23 13t12 24l19 139h127v-481h-127l-19 139q-2 11 -12 24t-23 13h-243v-522h446q13 0 24 14t13 25l31 213h149v-375h-1110zM311 1871
q28 32 88 32q59 1 97 -33q14 -12 33 -32l280 -310h-143l-332 181q-32 17 -47 63q-4 12 -4 40q0 27 28 59z" />
    <glyph glyph-name="uni0401" unicode="&#x415;&#x308;" horiz-adv-x="1225" 
d="M53 0v104l113 11q47 5 47 45v1054q-1 20 -15 32t-32 14l-113 10v104h1045v-327h-148l-32 170q-10 38 -37 38h-381v-481h243q13 0 23 13t12 24l19 139h127v-481h-127l-19 139q-2 11 -12 24t-23 13h-243v-522h446q13 0 24 14t13 25l31 213h149v-375h-1110zM965 1739
q0 -29 -11 -55q-10 -26 -30 -44q-20 -20 -46 -31t-55 -11t-55 11t-44 31q-20 20 -31 44q-11 26 -11 55t11 55t31 46t44 30q26 11 55 11t55 -11q26 -10 46 -30t30 -46q11 -26 11 -55zM535 1739q0 -29 -11 -55q-10 -26 -30 -44q-20 -20 -46 -31t-55 -11t-55 11t-45 31t-30 44
q-11 26 -11 55t11 55t30 46t45 30q26 11 55 11t55 -11q26 -10 46 -30t30 -46q11 -26 11 -55z" />
    <glyph glyph-name="uni0403" unicode="&#x413;&#x301;" horiz-adv-x="1161" 
d="M891 1251h-385v-1091q0 -20 14 -32t31 -13l115 -11v-104h-613v104l115 11q45 5 45 45v1054q0 20 -13 32t-32 14l-115 10v104h1063v-393h-149l-37 229q-3 25 -12 33t-27 8zM861 1709l-332 -181h-143l280 310q52 54 80 60q28 5 55 5t49 -10q22 -9 38 -25q26 -28 26 -61
q0 -66 -53 -98z" />
    <glyph glyph-name="uni0407" unicode="&#x406;&#x308;" horiz-adv-x="735" 
d="M47 0v104l127 11q45 5 45 45v1054q0 20 -13 32t-32 14l-127 10v104h639v-104l-127 -10q-17 -2 -32 -14t-15 -32v-1054q0 -20 15 -32t32 -13l127 -11v-104h-639zM723 1739q0 -29 -11 -55q-10 -26 -30 -44q-20 -20 -46 -31t-55 -11t-55 11t-44 31q-20 20 -31 44
q-11 26 -11 55t11 55t31 46t44 30q26 11 55 11t55 -11q26 -10 46 -30t30 -46q11 -26 11 -55zM293 1739q0 -29 -11 -55q-10 -26 -30 -44q-20 -20 -46 -31t-55 -11t-55 11t-45 31t-30 44q-11 26 -11 55t11 55t30 46t45 30q26 11 55 11t55 -11q26 -10 46 -30t30 -46
q11 -26 11 -55z" />
    <glyph glyph-name="uni040C" unicode="&#x41a;&#x301;" horiz-adv-x="1397" 
d="M952 0v74l-336 469q-26 37 -110 53v-436q0 -20 14 -32t31 -13l104 -11v-104h-592v104l105 11q45 5 45 45v1054q0 20 -13 32t-32 14l-105 10v104h592v-104l-104 -10q-17 -2 -31 -14t-14 -32v-487q134 14 213 152q34 57 51 115l34 116q88 297 339 297q111 0 169 -45
q58 -44 58 -90q0 -75 -19 -103t-85 -86l-228 125q-50 -59 -74 -140t-38 -128t-30 -84q-65 -137 -171 -194q123 -21 166 -82l332 -465l153 -11v-104h-424zM996 1709l-332 -181h-143l280 310q52 54 80 60q28 5 55 5q28 0 50 -10q22 -9 36 -25q26 -28 27 -61q0 -66 -53 -98z
" />
    <glyph glyph-name="uni040D" unicode="&#x418;&#x300;" horiz-adv-x="1536" 
d="M881 0v104l104 11q45 5 45 45v725l-524 -629v-96q0 -20 14 -32t31 -13l104 -11v-104h-592v104l105 11q45 5 45 45v1054q0 20 -13 32t-32 14l-105 10v104h592v-104l-104 -10q-17 -2 -31 -14t-14 -32v-690l524 629v61q0 20 -13 32t-32 14l-104 10v104h594v-104l-107 -10
q-17 -2 -31 -14t-14 -32v-1054q0 -20 14 -32t31 -13l107 -11v-104h-594zM472 1871q28 32 88 32q60 1 98 -33q14 -12 32 -32l280 -310h-143l-332 181q-32 17 -47 63q-4 12 -4 40q0 27 28 59z" />
    <glyph glyph-name="uni040E" unicode="&#x423;&#x306;" horiz-adv-x="1491" 
d="M934 1374h547v-104l-152 -13l-506 -1017q-94 -192 -253 -252q-57 -22 -118 -21q-105 0 -170 44t-65 97q1 53 73 126q24 25 56 49l219 -107q39 38 61 78l44 80l-498 923l-162 13v104h674v-104q-92 -8 -121 -10q-31 -2 -39 -14t0 -27l295 -564l273 564q10 17 4 28t-43 15
q-39 0 -119 8v104zM1148 1766q0 -34 -28 -80q-28 -45 -75 -81q-108 -81 -250 -81t-247 76t-105 174q-1 53 45 93t86 40q66 0 113 -43t47 -88l-109 -86q29 -46 103 -68q28 -8 64 -8q59 0 106 26t67 50l-108 88q0 45 45 87t86 42q41 1 68 -11q28 -12 48 -30t32 -42t12 -58z
" />
    <glyph glyph-name="uni0419" unicode="&#x418;&#x306;" horiz-adv-x="1536" 
d="M881 0v104l104 11q45 5 45 45v725l-524 -629v-96q0 -20 14 -32t31 -13l104 -11v-104h-592v104l105 11q45 5 45 45v1054q0 20 -13 32t-32 14l-105 10v104h592v-104l-104 -10q-17 -2 -31 -14t-14 -32v-690l524 629v61q0 20 -13 32t-32 14l-104 10v104h594v-104l-107 -10
q-17 -2 -31 -14t-14 -32v-1054q0 -20 14 -32t31 -13l107 -11v-104h-594zM1122 1766q0 -34 -28 -80q-28 -45 -75 -81q-108 -81 -250 -81t-247 76t-105 174q-1 53 45 93t86 40q66 0 113 -43t47 -88l-109 -86q29 -46 103 -68q28 -8 64 -8q59 0 106 26t67 50l-108 88q0 45 45 87
t86 42q41 1 68 -11q28 -12 48 -30t32 -42t12 -58z" />
    <glyph glyph-name="uni0439" unicode="&#x438;&#x306;" horiz-adv-x="1323" 
d="M745 0v96l74 6q19 2 32 16t13 32v479l-405 -441v-38q0 -18 13 -32t32 -16l74 -6v-96h-523v96l84 6q19 2 32 16t13 32v700q0 18 -13 32t-32 15l-84 6v96h523v-96l-74 -6q-19 -1 -32 -15t-13 -32v-485l405 448v37q0 18 -13 32t-32 15l-74 6v96h521v-96l-84 -6
q-19 -1 -32 -15t-13 -32v-700q0 -18 13 -32t32 -16l84 -6v-96h-521zM1013 1362q1 -35 -27 -79q-28 -45 -76 -79q-106 -76 -250 -76q-143 0 -247 73q-105 73 -105 169q0 53 45 91t85 38q66 0 113 -40q48 -40 48 -87l-109 -82q32 -42 104 -64q28 -8 63 -9q59 0 105 26t68 47
l-108 84q0 44 45 85q45 40 86 40q41 -1 68 -11t47 -28t33 -40q12 -23 12 -58z" />
    <glyph glyph-name="uni0450" unicode="&#x435;&#x300;" horiz-adv-x="1083" 
d="M1020 96q-182 -121 -448 -121q-114 0 -212 40q-98 39 -164 109q-130 138 -130 369q0 230 142 380q142 151 370 151t343 -144q99 -125 99 -323v-49h-672q0 -260 182 -338q59 -26 134 -25q191 0 356 115v-164zM727 668q0 164 -91 216q-32 18 -83 19q-98 0 -147 -83
q-48 -83 -48 -197h369v45zM273 1471q28 32 88 32q59 1 97 -33q14 -12 33 -32l280 -310h-143l-332 181q-32 17 -47 63q-4 12 -4 40q0 27 28 59z" />
    <glyph glyph-name="uni0451" unicode="&#x435;&#x308;" horiz-adv-x="1083" 
d="M1020 96q-182 -121 -448 -121q-114 0 -212 40q-98 39 -164 109q-130 138 -130 369q0 230 142 380q142 151 370 151t343 -144q99 -125 99 -323v-49h-672q0 -260 182 -338q59 -26 134 -25q191 0 356 115v-164zM727 668q0 164 -91 216q-32 18 -83 19q-98 0 -147 -83
q-48 -83 -48 -197h369v45zM927 1339q0 -29 -11 -55q-10 -26 -30 -44q-20 -20 -46 -31t-55 -11t-55 11t-44 31q-20 20 -31 44q-11 26 -11 55t11 55t31 46t44 30q26 11 55 11t55 -11q26 -10 46 -30t30 -46q11 -26 11 -55zM497 1339q0 -29 -11 -55q-10 -26 -30 -44
q-20 -20 -46 -31t-55 -11t-55 11t-45 31t-30 44q-11 26 -11 55t11 55t30 46t45 30q26 11 55 11t55 -11q26 -10 46 -30t30 -46q11 -26 11 -55z" />
    <glyph glyph-name="uni0453" unicode="&#x433;&#x301;" horiz-adv-x="985" 
d="M760 881h-301v-731q0 -18 13 -32t32 -16l74 -6v-96h-533v96l94 6q19 2 32 16t13 32v700q0 18 -13 32t-32 15l-94 6v96h899v-333h-115l-30 176q-3 23 -11 31t-28 8zM771 1309l-332 -181h-143l280 310q52 54 80 60q28 5 55 5t49 -10q22 -9 38 -25q26 -28 26 -61
q0 -66 -53 -98z" />
    <glyph glyph-name="uni0457" unicode="&#x456;&#x308;" horiz-adv-x="682" 
d="M66 0v96l94 6q18 2 32 16t13 32v688h-131v84l299 102h104v-874q1 -18 15 -32t32 -16l99 -6v-96h-557zM701 1339q0 -29 -11 -55q-10 -26 -30 -44q-20 -20 -46 -31t-55 -11t-55 11t-44 31q-20 20 -31 44q-11 26 -11 55t11 55t31 46t44 30q26 11 55 11t55 -11q26 -10 46 -30
t30 -46q11 -26 11 -55zM271 1339q0 -29 -11 -55q-10 -26 -30 -44q-20 -20 -46 -31t-55 -11t-55 11t-45 31t-30 44q-11 26 -11 55t11 55t30 46t45 30q26 11 55 11t55 -11q26 -10 46 -30t30 -46q11 -26 11 -55z" />
    <glyph glyph-name="uni045C" unicode="&#x43a;&#x301;" horiz-adv-x="1208" 
d="M809 0v72l-242 313q-27 36 -108 43v-278q0 -18 13 -32t32 -16l74 -6v-96h-533v96l94 6q19 2 32 16t13 32v700q0 18 -13 32t-32 15l-94 6v96h543v-96l-84 -6q-19 -1 -32 -15t-13 -32v-303q62 15 118 62t80 100q24 54 46 113t41 89q34 53 94 83q61 30 111 30q88 0 145 -43
t57 -86t-20 -81t-78 -85l-183 102q-16 -28 -38 -91q-21 -63 -41 -95q-21 -32 -39 -67t-54 -64q82 -26 113 -72l256 -338l125 -8v-96h-383zM895 1309l-332 -181h-143l280 310q52 54 80 60q28 5 55 5t49 -10q22 -9 38 -25q26 -28 26 -61q0 -66 -53 -98z" />
    <glyph glyph-name="uni045D" unicode="&#x438;&#x300;" horiz-adv-x="1323" 
d="M745 0v96l74 6q19 2 32 16t13 32v479l-405 -441v-38q0 -18 13 -32t32 -16l74 -6v-96h-523v96l84 6q19 2 32 16t13 32v700q0 18 -13 32t-32 15l-84 6v96h523v-96l-74 -6q-19 -1 -32 -15t-13 -32v-485l405 448v37q0 18 -13 32t-32 15l-74 6v96h521v-96l-84 -6
q-19 -1 -32 -15t-13 -32v-700q0 -18 13 -32t32 -16l84 -6v-96h-521zM363 1471q28 32 88 32q59 1 97 -33q14 -12 33 -32l280 -310h-143l-332 181q-32 17 -47 63q-4 12 -4 40q0 27 28 59z" />
    <glyph glyph-name="uni045E" unicode="&#x443;&#x306;" horiz-adv-x="1159" 
d="M257 -473q-126 0 -176 90q-51 90 17 168q29 33 82 57l174 -133q72 68 130 211q14 36 22 62l-365 909l-121 12v96h539v-96l-94 -6q-19 -2 -28 -15t-3 -30l211 -526l217 526q6 15 -4 29t-27 16l-90 6v96h400v-96l-109 -14l-354 -869q-87 -212 -139 -288q-51 -76 -93 -115
q-92 -90 -189 -90zM953 1362q1 -35 -27 -79q-28 -45 -76 -79q-106 -76 -250 -76q-143 0 -247 73q-105 73 -105 169q0 53 45 91t85 38q66 0 113 -40q48 -40 48 -87l-109 -82q32 -42 104 -64q28 -8 63 -9q59 0 105 26t68 47l-108 84q0 44 45 85q45 40 86 40q41 -1 68 -11
t47 -28t33 -40q12 -23 12 -58z" />
    <glyph glyph-name="uni04C1" unicode="&#x416;&#x306;" horiz-adv-x="1974" 
d="M121 1124q-107 88 -107 148q0 59 67 97t147 38q151 0 231 -76q89 -89 120 -216t48 -173t33 -70q23 -36 80 -82t102 -59v483q0 20 -14 32t-31 14l-107 10v104h594v-104l-104 -10q-19 -2 -32 -14t-13 -32v-483q65 17 147 99q56 56 90 185q10 39 20 79t33 104q24 64 76 116
q53 52 109 72t116 21q99 0 167 -38q67 -38 67 -81t-24 -80t-83 -84l-204 84q-47 -56 -70 -139q-23 -82 -35 -129q-12 -48 -38 -100q-61 -132 -142 -178q131 -27 176 -103l281 -444l135 -11v-104h-416v74l-305 469q-13 17 -53 31t-47 18v-432q0 -40 45 -45l104 -11v-104h-594
v104l107 11q17 1 31 13t14 32v432q-8 -4 -22 -9q-68 -23 -81 -40l-305 -469v-74h-414v104l134 11l280 444q49 76 178 103q-83 47 -147 188q-21 43 -34 90l-25 94q-29 114 -78 174zM1340 1766q0 -34 -28 -80q-28 -45 -75 -81q-108 -81 -250 -81t-247 76t-105 174q-1 53 45 93
t86 40q66 0 113 -43t47 -88l-109 -86q29 -46 103 -68q28 -8 64 -8q59 0 106 26t67 50l-108 88q0 45 45 87t86 42q41 1 68 -11q28 -12 48 -30t32 -42t12 -58z" />
    <glyph glyph-name="uni04C2" unicode="&#x436;&#x306;" horiz-adv-x="1608" 
d="M1237 0v68q-9 13 -21 32t-36 53q-23 34 -56 84q-34 51 -73 109q-19 24 -59 37q-39 12 -52 12v-245q0 -18 14 -32t31 -16l74 -6v-96h-510v96l74 6q17 2 31 16t14 32v245q-35 0 -70 -22t-39 -27q-145 -210 -163 -237q-18 -28 -27 -41v-68h-357v96l115 6l235 340
q39 54 95 72q-35 28 -53 58t-36 56q-16 26 -25 51t-16 51t-13 52t-19 49l-182 -81q-83 67 -95 113q-4 15 -4 37q0 48 67 86t136 38q137 0 205 -106q21 -34 49 -129t53 -132q24 -37 62 -51t82 -28v272q0 18 -14 32t-31 15l-74 6v96h510v-96l-74 -6q-17 -1 -31 -15t-14 -32
v-272q42 14 80 28t58 45q34 52 59 140t52 131q29 44 81 73t102 29q90 0 155 -38q66 -38 66 -90q0 -53 -50 -103q-19 -19 -48 -43l-182 81q-13 -25 -32 -96t-38 -102q-20 -31 -39 -61t-53 -58q57 -18 92 -72l238 -340l112 -6v-96h-356zM1155 1362q1 -35 -27 -79
q-28 -45 -76 -79q-106 -76 -250 -76q-143 0 -247 73q-105 73 -105 169q0 53 45 91t85 38q66 0 113 -40q48 -40 48 -87l-109 -82q32 -42 104 -64q28 -8 63 -9q59 0 105 26t68 47l-108 84q0 44 45 85q45 40 86 40q41 -1 68 -11t47 -28t33 -40q12 -23 12 -58z" />
    <glyph glyph-name="uni04D0" unicode="&#x410;&#x306;" horiz-adv-x="1405" 
d="M829 0v104l121 15q10 2 17 13t2 22l-111 325h-438l-113 -317q-6 -16 6 -29t23 -14l115 -15v-104h-441v104l115 17l459 1286h233l455 -1249q8 -18 16 -26t29 -13l78 -15v-104h-566zM631 1092l-172 -492h348zM1048 1766q0 -34 -28 -80q-28 -45 -75 -81q-108 -81 -250 -81
t-247 76t-105 174q-1 53 45 93t86 40q66 0 113 -43t47 -88l-109 -86q29 -46 103 -68q28 -8 64 -8q59 0 106 26t67 50l-108 88q0 45 45 87t86 42q41 1 68 -11q28 -12 48 -30t32 -42t12 -58z" />
    <glyph glyph-name="uni04D1" unicode="&#x430;&#x306;" horiz-adv-x="1133" 
d="M502 145q88 0 188 45v338q-197 -40 -265 -89q-69 -49 -69 -146q0 -98 87 -136q27 -12 59 -12zM203 707q-92 -7 -92 85q1 44 41 90q40 44 106 76q136 66 321 66t275 -64q110 -78 109 -284v-526q0 -18 13 -32t32 -16l90 -6v-96h-381l-27 102q-187 -127 -356 -127
q-114 0 -191 73t-77 183t30 155q54 81 188 137t408 116v25q0 20 2 52q4 77 -40 135q-43 58 -152 58q-48 0 -88 -8v-194h-211zM896 1362q0 -35 -28 -79q-28 -45 -75 -79q-106 -76 -250 -76q-143 0 -247 73q-105 73 -105 169q0 53 45 91t85 38q66 0 113 -40q48 -40 48 -87
l-109 -82q31 -42 103 -64q28 -8 64 -9q59 0 105 26t68 47l-108 84q0 44 45 85q45 40 86 40q41 -1 68 -11q28 -10 48 -28t32 -40q12 -23 12 -58z" />
    <glyph glyph-name="uni04D2" unicode="&#x410;&#x308;" horiz-adv-x="1405" 
d="M829 0v104l121 15q10 2 17 13t2 22l-111 325h-438l-113 -317q-6 -16 6 -29t23 -14l115 -15v-104h-441v104l115 17l459 1286h233l455 -1249q8 -18 16 -26t29 -13l78 -15v-104h-566zM631 1092l-172 -492h348zM1052 1739q0 -29 -11 -55t-31 -44q-20 -20 -45 -31
q-26 -11 -55 -11q-28 0 -54 11t-46 31t-30 44q-11 26 -11 55t11 55q10 26 30 46t46 30q26 11 54 11q29 0 55 -11q25 -10 45 -30t31 -46t11 -55zM622 1739q0 -29 -11 -55t-31 -44q-20 -20 -45 -31q-26 -11 -55 -11t-55 11t-45 31t-30 44q-11 26 -11 55t11 55t30 46t45 30
q26 11 55 11t55 -11q25 -10 45 -30t31 -46t11 -55z" />
    <glyph glyph-name="uni04D3" unicode="&#x430;&#x308;" horiz-adv-x="1133" 
d="M502 145q88 0 188 45v338q-197 -40 -265 -89q-69 -49 -69 -146q0 -98 87 -136q27 -12 59 -12zM203 707q-92 -7 -92 85q1 44 41 90q40 44 106 76q136 66 321 66t275 -64q110 -78 109 -284v-526q0 -18 13 -32t32 -16l90 -6v-96h-381l-27 102q-187 -127 -356 -127
q-114 0 -191 73t-77 183t30 155q54 81 188 137t408 116v25q0 20 2 52q4 77 -40 135q-43 58 -152 58q-48 0 -88 -8v-194h-211zM900 1339q0 -29 -11 -55t-31 -44q-20 -20 -45 -31q-26 -11 -55 -11q-28 0 -54 11t-46 31t-30 44q-11 26 -11 55t11 55q10 26 30 46t46 30
q26 11 54 11q29 0 55 -11q25 -10 45 -30t31 -46t11 -55zM470 1339q0 -29 -11 -55t-31 -44q-20 -20 -45 -31q-26 -11 -55 -11t-55 11t-45 31t-30 44q-11 26 -11 55t11 55t30 46t45 30q26 11 55 11t55 -11q25 -10 45 -30t31 -46t11 -55z" />
    <glyph glyph-name="uni04D6" unicode="&#x415;&#x306;" horiz-adv-x="1225" 
d="M53 0v104l113 11q47 5 47 45v1054q-1 20 -15 32t-32 14l-113 10v104h1045v-327h-148l-32 170q-10 38 -37 38h-381v-481h243q13 0 23 13t12 24l19 139h127v-481h-127l-19 139q-2 11 -12 24t-23 13h-243v-522h446q13 0 24 14t13 25l31 213h149v-375h-1110zM961 1766
q1 -34 -27 -80q-28 -45 -76 -81q-108 -81 -250 -81t-247 76t-105 174q0 53 46 93t85 40q66 0 113 -43t47 -88l-109 -86q30 -46 104 -68q28 -8 63 -8q59 0 106 26t67 50l-108 88q0 45 45 87t86 42q41 1 68 -11t47 -30t33 -42q12 -24 12 -58z" />
    <glyph glyph-name="uni04D7" unicode="&#x435;&#x306;" horiz-adv-x="1083" 
d="M1020 96q-182 -121 -448 -121q-114 0 -212 40q-98 39 -164 109q-130 138 -130 369q0 230 142 380q142 151 370 151t343 -144q99 -125 99 -323v-49h-672q0 -260 182 -338q59 -26 134 -25q191 0 356 115v-164zM727 668q0 164 -91 216q-32 18 -83 19q-98 0 -147 -83
q-48 -83 -48 -197h369v45zM923 1362q1 -35 -27 -79q-28 -45 -76 -79q-106 -76 -250 -76q-143 0 -247 73q-105 73 -105 169q0 53 45 91t85 38q66 0 113 -40q48 -40 48 -87l-109 -82q32 -42 104 -64q28 -8 63 -9q59 0 105 26t68 47l-108 84q0 44 45 85q45 40 86 40
q41 -1 68 -11t47 -28t33 -40q12 -23 12 -58z" />
    <glyph glyph-name="uni04DA" unicode="&#x4d8;&#x308;" horiz-adv-x="1391" 
d="M104 1190q182 215 526 215q192 1 361 -105q154 -97 239 -264t85 -336q0 -325 -187 -529t-482 -204q-296 -1 -444 207q-126 178 -126 442v64h909q1 392 -189 530q-68 50 -165 50q-295 0 -527 -283v213zM414 530v-84q0 -132 72 -229q72 -96 197 -96q125 1 213 143
q75 121 77 266h-559zM1052 1739q0 -29 -11 -55t-31 -44q-20 -20 -45 -31q-26 -11 -55 -11q-28 0 -54 11t-46 31t-30 44q-11 26 -11 55t11 55q10 26 30 46t46 30q26 11 54 11q29 0 55 -11q25 -10 45 -30t31 -46t11 -55zM622 1739q0 -29 -11 -55t-31 -44q-20 -20 -45 -31
q-26 -11 -55 -11t-55 11t-45 31t-30 44q-11 26 -11 55t11 55t30 46t45 30q26 11 55 11t55 -11q25 -10 45 -30t31 -46t11 -55z" />
    <glyph glyph-name="uni04DB" unicode="&#x4d9;&#x308;" horiz-adv-x="1083" 
d="M66 903q186 121 448 121q114 0 212 -40t164 -109q130 -137 130 -368q0 -230 -143 -381t-371 -151t-342 144q-98 123 -98 323v50h669q0 169 -82 265q-82 97 -231 97q-189 0 -356 -115v164zM356 332q0 -238 174 -238q98 0 147 84q48 84 48 199h-369v-45zM875 1339
q0 -29 -11 -55q-10 -26 -30 -44q-20 -20 -46 -31t-55 -11t-55 11t-44 31q-20 20 -31 44q-11 26 -11 55t11 55t31 46t44 30q26 11 55 11t55 -11q26 -10 46 -30t30 -46q11 -26 11 -55zM445 1339q0 -29 -11 -55q-10 -26 -30 -44q-20 -20 -46 -31t-55 -11t-55 11t-45 31t-30 44
q-11 26 -11 55t11 55t30 46t45 30q26 11 55 11t55 -11q26 -10 46 -30t30 -46q11 -26 11 -55z" />
    <glyph glyph-name="uni04DC" unicode="&#x416;&#x308;" horiz-adv-x="1974" 
d="M121 1124q-107 88 -107 148q0 59 67 97t147 38q151 0 231 -76q89 -89 120 -216t48 -173t33 -70q23 -36 80 -82t102 -59v483q0 20 -14 32t-31 14l-107 10v104h594v-104l-104 -10q-19 -2 -32 -14t-13 -32v-483q65 17 147 99q56 56 90 185q10 39 20 79t33 104q24 64 76 116
q53 52 109 72t116 21q99 0 167 -38q67 -38 67 -81t-24 -80t-83 -84l-204 84q-47 -56 -70 -139q-23 -82 -35 -129q-12 -48 -38 -100q-61 -132 -142 -178q131 -27 176 -103l281 -444l135 -11v-104h-416v74l-305 469q-13 17 -53 31t-47 18v-432q0 -40 45 -45l104 -11v-104h-594
v104l107 11q17 1 31 13t14 32v432q-8 -4 -22 -9q-68 -23 -81 -40l-305 -469v-74h-414v104l134 11l280 444q49 76 178 103q-83 47 -147 188q-21 43 -34 90l-25 94q-29 114 -78 174zM1344 1739q0 -29 -11 -55t-31 -44q-20 -20 -45 -31q-26 -11 -55 -11q-28 0 -54 11t-46 31
t-30 44q-11 26 -11 55t11 55q10 26 30 46t46 30q26 11 54 11q29 0 55 -11q25 -10 45 -30t31 -46t11 -55zM914 1739q0 -29 -11 -55t-31 -44q-20 -20 -45 -31q-26 -11 -55 -11t-55 11t-45 31t-30 44q-11 26 -11 55t11 55t30 46t45 30q26 11 55 11t55 -11q25 -10 45 -30t31 -46
t11 -55z" />
    <glyph glyph-name="uni04DD" unicode="&#x436;&#x308;" horiz-adv-x="1608" 
d="M1237 0v68q-9 13 -21 32t-36 53q-23 34 -56 84q-34 51 -73 109q-19 24 -59 37q-39 12 -52 12v-245q0 -18 14 -32t31 -16l74 -6v-96h-510v96l74 6q17 2 31 16t14 32v245q-35 0 -70 -22t-39 -27q-145 -210 -163 -237q-18 -28 -27 -41v-68h-357v96l115 6l235 340
q39 54 95 72q-35 28 -53 58t-36 56q-16 26 -25 51t-16 51t-13 52t-19 49l-182 -81q-83 67 -95 113q-4 15 -4 37q0 48 67 86t136 38q137 0 205 -106q21 -34 49 -129t53 -132q24 -37 62 -51t82 -28v272q0 18 -14 32t-31 15l-74 6v96h510v-96l-74 -6q-17 -1 -31 -15t-14 -32
v-272q42 14 80 28t58 45q34 52 59 140t52 131q29 44 81 73t102 29q90 0 155 -38q66 -38 66 -90q0 -53 -50 -103q-19 -19 -48 -43l-182 81q-13 -25 -32 -96t-38 -102q-20 -31 -39 -61t-53 -58q57 -18 92 -72l238 -340l112 -6v-96h-356zM1159 1339q0 -29 -11 -55
q-10 -26 -30 -44q-20 -20 -46 -31t-55 -11t-55 11t-44 31q-20 20 -31 44q-11 26 -11 55t11 55t31 46t44 30q26 11 55 11t55 -11q26 -10 46 -30t30 -46q11 -26 11 -55zM729 1339q0 -29 -11 -55q-10 -26 -30 -44q-20 -20 -46 -31t-55 -11t-55 11t-45 31t-30 44q-11 26 -11 55
t11 55t30 46t45 30q26 11 55 11t55 -11q26 -10 46 -30t30 -46q11 -26 11 -55z" />
    <glyph glyph-name="uni04DE" unicode="&#x417;&#x308;" horiz-adv-x="1155" 
d="M477 772q29 0 78 15t89 47q91 72 91 196q1 125 -91 196q-72 56 -163 56q-90 0 -132 -42l-17 -17q-26 -26 -37 -60l-41 -192h-158v317q198 97 330 113q52 6 136 6t174 -26t154 -72q136 -97 136 -251t-166 -265q-58 -39 -143 -68q164 -23 263 -112q99 -90 99 -226
q0 -420 -594 -420q-168 0 -297 44q-50 17 -112 44v330h155l43 -192q11 -53 111 -89q56 -20 107 -20q115 0 208 85t93 222q1 179 -171 235q-52 17 -102 17t-155 -18v153q83 -6 112 -6zM893 1739q0 -29 -11 -55q-10 -26 -30 -44q-20 -20 -46 -31t-55 -11t-55 11t-44 31
q-20 20 -31 44q-11 26 -11 55t11 55t31 46t44 30q26 11 55 11t55 -11q26 -10 46 -30t30 -46q11 -26 11 -55zM463 1739q0 -29 -11 -55q-10 -26 -30 -44q-20 -20 -46 -31t-55 -11t-55 11t-45 31t-30 44q-11 26 -11 55t11 55t30 46t45 30q26 11 55 11t55 -11q26 -10 46 -30
t30 -46q11 -26 11 -55z" />
    <glyph glyph-name="uni04DF" unicode="&#x437;&#x308;" horiz-adv-x="983" 
d="M877 772q0 -183 -203 -250q124 -18 184 -83t60 -160q0 -304 -486 -304q-135 0 -224 25q-88 25 -142 43v270h120l27 -143q5 -25 20 -35t29 -17q23 -12 90 -23q68 -11 96 -11q75 0 134 49t59 150q-1 100 -73 141q-47 27 -86 27t-102 -9l-50 -8v139l84 -6q73 0 127 47
q55 47 55 137t-50 127t-91 37q-59 0 -110 -20q-50 -20 -75 -43q-24 -22 -24 -25q-26 -143 -29 -153h-115v250q174 76 249 88q73 12 143 12t145 -20t127 -52q110 -70 111 -180zM827 1339q0 -29 -11 -55q-10 -26 -30 -44q-20 -20 -46 -31t-55 -11t-55 11t-44 31q-20 20 -31 44
q-11 26 -11 55t11 55t31 46t44 30q26 11 55 11t55 -11q26 -10 46 -30t30 -46q11 -26 11 -55zM397 1339q0 -29 -11 -55q-10 -26 -30 -44q-20 -20 -46 -31t-55 -11t-55 11t-45 31t-30 44q-11 26 -11 55t11 55t30 46t45 30q26 11 55 11t55 -11q26 -10 46 -30t30 -46
q11 -26 11 -55z" />
    <glyph glyph-name="uni04E2" unicode="&#x418;&#x304;" horiz-adv-x="1536" 
d="M881 0v104l104 11q45 5 45 45v725l-524 -629v-96q0 -20 14 -32t31 -13l104 -11v-104h-592v104l105 11q45 5 45 45v1054q0 20 -13 32t-32 14l-105 10v104h592v-104l-104 -10q-17 -2 -31 -14t-14 -32v-690l524 629v61q0 20 -13 32t-32 14l-104 10v104h594v-104l-107 -10
q-17 -2 -31 -14t-14 -32v-1054q0 -20 14 -32t31 -13l107 -11v-104h-594zM421 1600v165h696v-165h-696z" />
    <glyph glyph-name="uni04E3" unicode="&#x438;&#x304;" horiz-adv-x="1323" 
d="M745 0v96l74 6q19 2 32 16t13 32v479l-405 -441v-38q0 -18 13 -32t32 -16l74 -6v-96h-523v96l84 6q19 2 32 16t13 32v700q0 18 -13 32t-32 15l-84 6v96h523v-96l-74 -6q-19 -1 -32 -15t-13 -32v-485l405 448v37q0 18 -13 32t-32 15l-74 6v96h521v-96l-84 -6
q-19 -1 -32 -15t-13 -32v-700q0 -18 13 -32t32 -16l84 -6v-96h-521zM312 1200v165h696v-165h-696z" />
    <glyph glyph-name="uni04E4" unicode="&#x418;&#x308;" horiz-adv-x="1536" 
d="M881 0v104l104 11q45 5 45 45v725l-524 -629v-96q0 -20 14 -32t31 -13l104 -11v-104h-592v104l105 11q45 5 45 45v1054q0 20 -13 32t-32 14l-105 10v104h592v-104l-104 -10q-17 -2 -31 -14t-14 -32v-690l524 629v61q0 20 -13 32t-32 14l-104 10v104h594v-104l-107 -10
q-17 -2 -31 -14t-14 -32v-1054q0 -20 14 -32t31 -13l107 -11v-104h-594zM1126 1739q0 -29 -11 -55t-31 -44q-20 -20 -45 -31q-26 -11 -55 -11q-28 0 -54 11t-46 31t-30 44q-11 26 -11 55t11 55q10 26 30 46t46 30q26 11 54 11q29 0 55 -11q25 -10 45 -30t31 -46t11 -55z
M696 1739q0 -29 -11 -55t-31 -44q-20 -20 -45 -31q-26 -11 -55 -11t-55 11t-45 31t-30 44q-11 26 -11 55t11 55t30 46t45 30q26 11 55 11t55 -11q25 -10 45 -30t31 -46t11 -55z" />
    <glyph glyph-name="uni04E5" unicode="&#x438;&#x308;" horiz-adv-x="1323" 
d="M745 0v96l74 6q19 2 32 16t13 32v479l-405 -441v-38q0 -18 13 -32t32 -16l74 -6v-96h-523v96l84 6q19 2 32 16t13 32v700q0 18 -13 32t-32 15l-84 6v96h523v-96l-74 -6q-19 -1 -32 -15t-13 -32v-485l405 448v37q0 18 -13 32t-32 15l-74 6v96h521v-96l-84 -6
q-19 -1 -32 -15t-13 -32v-700q0 -18 13 -32t32 -16l84 -6v-96h-521zM1017 1339q0 -29 -11 -55q-10 -26 -30 -44q-20 -20 -46 -31t-55 -11t-55 11t-44 31q-20 20 -31 44q-11 26 -11 55t11 55t31 46t44 30q26 11 55 11t55 -11q26 -10 46 -30t30 -46q11 -26 11 -55zM587 1339
q0 -29 -11 -55q-10 -26 -30 -44q-20 -20 -46 -31t-55 -11t-55 11t-45 31t-30 44q-11 26 -11 55t11 55t30 46t45 30q26 11 55 11t55 -11q26 -10 46 -30t30 -46q11 -26 11 -55z" />
    <glyph glyph-name="uni04E6" unicode="&#x41e;&#x308;" horiz-adv-x="1548" 
d="M1475 656q1 -122 -49 -252t-141 -227q-197 -210 -506 -210t-506 194t-197 520t186 526t506 200q206 -1 372 -101q239 -144 312 -434q23 -92 23 -216zM1145 699q-1 93 -23 201t-67 191q-98 179 -269 179q-256 0 -347 -308q-36 -122 -36 -233q-1 -112 9 -184t29 -138
q40 -140 123 -225q83 -86 202 -86q191 0 292 189q59 111 73 216t14 198zM1132 1739q0 -29 -11 -55t-31 -44q-20 -20 -45 -31q-26 -11 -55 -11q-28 0 -54 11t-46 31t-30 44q-11 26 -11 55t11 55q10 26 30 46t46 30q26 11 54 11q29 0 55 -11q25 -10 45 -30t31 -46t11 -55z
M702 1739q0 -29 -11 -55t-31 -44q-20 -20 -45 -31q-26 -11 -55 -11t-55 11t-45 31t-30 44q-11 26 -11 55t11 55t30 46t45 30q26 11 55 11t55 -11q25 -10 45 -30t31 -46t11 -55z" />
    <glyph glyph-name="uni04E7" unicode="&#x43e;&#x308;" horiz-adv-x="1196" 
d="M988 117q-145 -142 -388 -142t-389 140q-145 140 -145 384t149 384q149 141 395 141q245 0 384 -146t139 -383q0 -236 -145 -378zM827 483q0 55 -4 103q-3 48 -13 94q-21 100 -73 164q-52 63 -130 63q-135 1 -191 -135q-44 -106 -43 -268q0 -320 144 -396q35 -18 94 -18
t103 38t69 96q25 59 35 131t9 128zM956 1339q0 -29 -11 -55t-31 -44q-20 -20 -45 -31q-26 -11 -55 -11q-28 0 -54 11t-46 31t-30 44q-11 26 -11 55t11 55q10 26 30 46t46 30q26 11 54 11q29 0 55 -11q25 -10 45 -30t31 -46t11 -55zM526 1339q0 -29 -11 -55t-31 -44
q-20 -20 -45 -31q-26 -11 -55 -11t-55 11t-45 31t-30 44q-11 26 -11 55t11 55t30 46t45 30q26 11 55 11t55 -11q25 -10 45 -30t31 -46t11 -55z" />
    <glyph glyph-name="uni04EA" unicode="&#x4e8;&#x308;" horiz-adv-x="1548" 
d="M1475 656q1 -122 -49 -252t-141 -227q-197 -210 -506 -210t-506 194t-197 520t186 526t506 200q206 -1 372 -101q239 -144 312 -434q23 -92 23 -216zM510 1120q-87 -129 -102 -334h731q-19 213 -111 348q-92 136 -254 136q-163 0 -264 -150zM754 96q78 0 132 23t96 63
q79 77 120 207t43 264h-742q9 -229 95 -383q44 -78 110 -126t146 -48zM1132 1739q0 -29 -11 -55t-31 -44q-20 -20 -45 -31q-26 -11 -55 -11q-28 0 -54 11t-46 31t-30 44q-11 26 -11 55t11 55q10 26 30 46t46 30q26 11 54 11q29 0 55 -11q25 -10 45 -30t31 -46t11 -55z
M702 1739q0 -29 -11 -55t-31 -44q-20 -20 -45 -31q-26 -11 -55 -11t-55 11t-45 31t-30 44q-11 26 -11 55t11 55t30 46t45 30q26 11 55 11t55 -11q25 -10 45 -30t31 -46t11 -55z" />
    <glyph glyph-name="uni04EB" unicode="&#x4e9;&#x308;" horiz-adv-x="1196" 
d="M988 117q-145 -142 -388 -142t-389 140q-145 140 -145 384t149 384q149 141 395 141q245 0 384 -146t139 -383q0 -236 -145 -378zM823 575q-28 332 -225 332q-109 0 -168 -106q-45 -82 -55 -226h448zM600 90q116 0 174 114q46 90 51 240h-452q12 -238 121 -322
q42 -32 106 -32zM956 1339q0 -29 -11 -55t-31 -44q-20 -20 -45 -31q-26 -11 -55 -11q-28 0 -54 11t-46 31t-30 44q-11 26 -11 55t11 55q10 26 30 46t46 30q26 11 54 11q29 0 55 -11q25 -10 45 -30t31 -46t11 -55zM526 1339q0 -29 -11 -55t-31 -44q-20 -20 -45 -31
q-26 -11 -55 -11t-55 11t-45 31t-30 44q-11 26 -11 55t11 55t30 46t45 30q26 11 55 11t55 -11q25 -10 45 -30t31 -46t11 -55z" />
    <glyph glyph-name="uni04EC" unicode="&#x42d;&#x308;" horiz-adv-x="1323" 
d="M522 -33q-212 0 -446 78v334h153l50 -225q5 -32 52 -42q95 -18 175 -18t160 32t140 100q126 141 142 409h-538v131h538q-15 260 -135 387t-295 127q-110 0 -223 -45q-24 -14 -31 -47l-31 -180h-157v323q205 59 296 67q92 9 148 9q353 0 540 -198t187 -505
q1 -306 -165 -506q-119 -144 -324 -202q-105 -30 -236 -29zM978 1739q0 -29 -11 -55t-31 -44q-20 -20 -45 -31q-26 -11 -55 -11q-28 0 -54 11t-46 31t-30 44q-11 26 -11 55t11 55q10 26 30 46t46 30q26 11 54 11q29 0 55 -11q25 -10 45 -30t31 -46t11 -55zM548 1739
q0 -29 -11 -55t-31 -44q-20 -20 -45 -31q-26 -11 -55 -11t-55 11t-45 31t-30 44q-11 26 -11 55t11 55t30 46t45 30q26 11 55 11t55 -11q25 -10 45 -30t31 -46t11 -55z" />
    <glyph glyph-name="uni04ED" unicode="&#x44d;&#x308;" horiz-adv-x="1018" 
d="M394 1024q268 0 413 -150t145 -368t-130 -364q-92 -104 -248 -146q-80 -22 -209 -21q-130 0 -299 60v250h143l35 -162q7 -39 141 -39q254 0 279 362h-379v117h379q-18 267 -172 335q-46 20 -82 20q-51 0 -97 -12t-61 -20t-19 -32l-22 -131h-145v244q188 57 328 57z
M831 1339q0 -29 -11 -55q-10 -26 -30 -44q-20 -20 -46 -31t-55 -11t-55 11t-44 31q-20 20 -31 44q-11 26 -11 55t11 55t31 46t44 30q26 11 55 11t55 -11q26 -10 46 -30t30 -46q11 -26 11 -55zM401 1339q0 -29 -11 -55q-10 -26 -30 -44q-20 -20 -46 -31t-55 -11t-55 11
t-45 31t-30 44q-11 26 -11 55t11 55t30 46t45 30q26 11 55 11t55 -11q26 -10 46 -30t30 -46q11 -26 11 -55z" />
    <glyph glyph-name="uni04EE" unicode="&#x423;&#x304;" horiz-adv-x="1491" 
d="M934 1374h547v-104l-152 -13l-506 -1017q-94 -192 -253 -252q-57 -22 -118 -21q-105 0 -170 44t-65 97q1 53 73 126q24 25 56 49l219 -107q39 38 61 78l44 80l-498 923l-162 13v104h674v-104q-92 -8 -121 -10q-31 -2 -39 -14t0 -27l295 -564l273 564q10 17 4 28t-43 15
q-39 0 -119 8v104zM447 1600v165h696v-165h-696z" />
    <glyph glyph-name="uni04EF" unicode="&#x443;&#x304;" horiz-adv-x="1159" 
d="M257 -473q-126 0 -176 90q-51 90 17 168q29 33 82 57l174 -133q72 68 130 211q14 36 22 62l-365 909l-121 12v96h539v-96l-94 -6q-19 -2 -28 -15t-3 -30l211 -526l217 526q6 15 -4 29t-27 16l-90 6v96h400v-96l-109 -14l-354 -869q-87 -212 -139 -288q-51 -76 -93 -115
q-92 -90 -189 -90zM252 1200v165h696v-165h-696z" />
    <glyph glyph-name="uni04F0" unicode="&#x423;&#x308;" horiz-adv-x="1491" 
d="M934 1374h547v-104l-152 -13l-506 -1017q-94 -192 -253 -252q-57 -22 -118 -21q-105 0 -170 44t-65 97q1 53 73 126q24 25 56 49l219 -107q39 38 61 78l44 80l-498 923l-162 13v104h674v-104q-92 -8 -121 -10q-31 -2 -39 -14t0 -27l295 -564l273 564q10 17 4 28t-43 15
q-39 0 -119 8v104zM1152 1739q0 -29 -11 -55t-31 -44q-20 -20 -45 -31q-26 -11 -55 -11q-28 0 -54 11t-46 31t-30 44q-11 26 -11 55t11 55q10 26 30 46t46 30q26 11 54 11q29 0 55 -11q25 -10 45 -30t31 -46t11 -55zM722 1739q0 -29 -11 -55t-31 -44q-20 -20 -45 -31
q-26 -11 -55 -11t-55 11t-45 31t-30 44q-11 26 -11 55t11 55t30 46t45 30q26 11 55 11t55 -11q25 -10 45 -30t31 -46t11 -55z" />
    <glyph glyph-name="uni04F1" unicode="&#x443;&#x308;" horiz-adv-x="1159" 
d="M257 -473q-126 0 -176 90q-51 90 17 168q29 33 82 57l174 -133q72 68 130 211q14 36 22 62l-365 909l-121 12v96h539v-96l-94 -6q-19 -2 -28 -15t-3 -30l211 -526l217 526q6 15 -4 29t-27 16l-90 6v96h400v-96l-109 -14l-354 -869q-87 -212 -139 -288q-51 -76 -93 -115
q-92 -90 -189 -90zM957 1339q0 -29 -11 -55q-10 -26 -30 -44q-20 -20 -46 -31t-55 -11t-55 11t-44 31q-20 20 -31 44q-11 26 -11 55t11 55t31 46t44 30q26 11 55 11t55 -11q26 -10 46 -30t30 -46q11 -26 11 -55zM527 1339q0 -29 -11 -55q-10 -26 -30 -44q-20 -20 -46 -31
t-55 -11t-55 11t-45 31t-30 44q-11 26 -11 55t11 55t30 46t45 30q26 11 55 11t55 -11q26 -10 46 -30t30 -46q11 -26 11 -55z" />
    <glyph glyph-name="uni04F2" unicode="&#x423;&#x30b;" horiz-adv-x="1491" 
d="M934 1374h547v-104l-152 -13l-506 -1017q-94 -192 -253 -252q-57 -22 -118 -21q-105 0 -170 44t-65 97q1 53 73 126q24 25 56 49l219 -107q39 38 61 78l44 80l-498 923l-162 13v104h674v-104q-92 -8 -121 -10q-31 -2 -39 -14t0 -27l295 -564l273 564q10 17 4 28t-43 15
q-39 0 -119 8v104zM1349 1746q-17 -27 -37 -37l-329 -181h-144l281 310q48 54 92 62q16 3 43 3t49 -10q22 -9 36 -25q26 -29 26 -62t-17 -60zM909 1747q-16 -27 -37 -38l-330 -181h-143l281 310q48 54 92 62q16 3 43 3t49 -10q22 -9 36 -25q26 -29 25 -62q0 -32 -16 -59z
" />
    <glyph glyph-name="uni04F3" unicode="&#x443;&#x30b;" horiz-adv-x="1159" 
d="M257 -473q-126 0 -176 90q-51 90 17 168q29 33 82 57l174 -133q72 68 130 211q14 36 22 62l-365 909l-121 12v96h539v-96l-94 -6q-19 -2 -28 -15t-3 -30l211 -526l217 526q6 15 -4 29t-27 16l-90 6v96h400v-96l-109 -14l-354 -869q-87 -212 -139 -288q-51 -76 -93 -115
q-92 -90 -189 -90zM1154 1346q-17 -27 -37 -37l-329 -181h-144l281 310q48 54 92 62q16 3 43 3q28 0 50 -10q22 -9 36 -25q26 -29 25 -62q0 -33 -17 -60zM714 1347q-16 -27 -37 -38l-330 -181h-143l281 310q47 54 91 62q16 3 44 3q27 0 49 -10q21 -9 35 -25q26 -29 26 -62
q0 -32 -16 -59z" />
    <glyph glyph-name="uni04F4" unicode="&#x427;&#x308;" horiz-adv-x="1424" 
d="M918 598q-220 -104 -376 -104q-135 0 -232 75t-97 234v411q0 20 -13 32t-32 14l-105 10v104h574v-104l-86 -10q-45 -11 -45 -46v-374q0 -134 82 -156q25 -6 52 -6q53 0 136 28t142 70v438q0 35 -45 46l-86 10v104h573v-104l-104 -10q-19 -2 -32 -14t-13 -32v-1054
q0 -40 45 -45l104 -11v-104h-591v104l104 11q45 5 45 45v438zM1069 1739q0 -29 -11 -55q-10 -26 -30 -44q-20 -20 -46 -31t-55 -11t-55 11t-44 31q-20 20 -31 44q-11 26 -11 55t11 55t31 46t44 30q26 11 55 11t55 -11q26 -10 46 -30t30 -46q11 -26 11 -55zM639 1739
q0 -29 -11 -55q-10 -26 -30 -44q-20 -20 -46 -31t-55 -11t-55 11t-45 31t-30 44q-11 26 -11 55t11 55t30 46t45 30q26 11 55 11t55 -11q26 -10 46 -30t30 -46q11 -26 11 -55z" />
    <glyph glyph-name="uni04F5" unicode="&#x447;&#x308;" horiz-adv-x="1206" 
d="M607 487q55 0 143 41v322q0 18 -14 32t-31 15l-66 6v96h502v-96l-74 -6q-19 -1 -32 -15t-13 -32v-700q0 -18 13 -32t32 -16l74 -6v-96h-510v96l74 6q17 2 31 16t14 32v256q-126 -54 -211 -54q-159 0 -257 56t-98 167v275q0 18 -13 32t-32 15l-73 6v96h501v-96l-63 -6
q-19 -1 -32 -15t-13 -32v-248q-1 -64 19 -83t47 -25t82 -7zM960 1339q0 -29 -11 -55t-31 -44q-20 -20 -45 -31q-26 -11 -55 -11q-28 0 -54 11t-46 31t-30 44q-11 26 -11 55t11 55q10 26 30 46t46 30q26 11 54 11q29 0 55 -11q25 -10 45 -30t31 -46t11 -55zM530 1339
q0 -29 -11 -55t-31 -44q-20 -20 -45 -31q-26 -11 -55 -11t-55 11t-45 31t-30 44q-11 26 -11 55t11 55t30 46t45 30q26 11 55 11t55 -11q25 -10 45 -30t31 -46t11 -55z" />
    <glyph glyph-name="uni04F8" unicode="&#x42b;&#x308;" horiz-adv-x="1872" 
d="M612 866q269 0 424 -119q154 -119 154 -333q0 -213 -136 -313q-136 -101 -476 -101h-515v104l105 11q45 5 45 45v1054q0 20 -13 32t-32 14l-105 10v104h592v-104l-104 -10q-17 -2 -31 -14t-14 -32v-354q75 6 106 6zM1194 0v104l127 11q17 1 31 13t14 32v1054q0 20 -14 32
t-31 14l-127 10v104h639v-104l-127 -10q-19 -2 -33 -14t-14 -32v-1054q0 -40 47 -45l127 -11v-104h-639zM874 418q0 332 -280 332q-28 0 -88 -9v-622l61 -2q172 0 239 71q68 72 68 230zM1305 1739q0 -29 -11 -55q-10 -26 -30 -44q-20 -20 -46 -31t-55 -11t-55 11t-44 31
q-20 20 -31 44q-11 26 -11 55t11 55t31 46t44 30q26 11 55 11t55 -11q26 -10 46 -30t30 -46q11 -26 11 -55zM875 1739q0 -29 -11 -55q-10 -26 -30 -44q-20 -20 -46 -31t-55 -11t-55 11t-45 31t-30 44q-11 26 -11 55t11 55t30 46t45 30q26 11 55 11t55 -11q26 -10 46 -30
t30 -46q11 -26 11 -55z" />
    <glyph glyph-name="uni04F9" unicode="&#x44b;&#x308;" horiz-adv-x="1606" 
d="M576 625q80 -1 164 -23t140 -64q114 -85 115 -239q0 -154 -103 -227q-103 -72 -376 -72h-471v96l94 6q19 2 32 16t13 32v700q0 18 -13 32t-32 15l-94 6v96h553v-96l-94 -6q-19 -1 -32 -15t-13 -32v-229q37 4 117 4zM1028 0v96l84 6q20 2 32 16t13 32v700q-1 18 -13 32
t-32 15l-84 6v96h533v-96l-84 -6q-19 -1 -32 -15t-13 -32v-700q0 -18 13 -32t32 -16l84 -6v-96h-533zM721 306q0 208 -170 208l-92 -2v-406l69 -2q170 0 188 124q5 36 5 78zM1160 1339q0 -29 -11 -55t-31 -44q-20 -20 -45 -31q-26 -11 -55 -11q-28 0 -54 11t-46 31t-30 44
q-11 26 -11 55t11 55q10 26 30 46t46 30q26 11 54 11q29 0 55 -11q25 -10 45 -30t31 -46t11 -55zM730 1339q0 -29 -11 -55t-31 -44q-20 -20 -45 -31q-26 -11 -55 -11t-55 11t-45 31t-30 44q-11 26 -11 55t11 55t30 46t45 30q26 11 55 11t55 -11q25 -10 45 -30t31 -46t11 -55
z" />
    <glyph glyph-name="uni1E00" unicode="A&#x325;" horiz-adv-x="1405" 
d="M829 0v104l121 15q10 2 17 13t2 22l-111 325h-438l-113 -317q-6 -16 6 -29t23 -14l115 -15v-104h-441v104l115 17l459 1286h233l455 -1249q8 -18 16 -26t29 -13l78 -15v-104h-566zM631 1092l-172 -492h348zM954 -384q0 -107 -76 -182t-184 -75q-106 -1 -182 75t-76 182
t76 182q76 77 182 77t183 -76t77 -183zM694 -254q-52 0 -90 -38t-39 -78q0 -66 38 -104t78 -38q66 0 104 37t38 77t-10 64q-9 24 -27 42q-40 38 -92 38z" />
    <glyph glyph-name="uni1E01" unicode="a&#x325;" horiz-adv-x="1133" 
d="M502 145q88 0 188 45v338q-197 -40 -265 -89q-69 -49 -69 -146q0 -98 87 -136q27 -12 59 -12zM203 707q-92 -7 -92 85q1 44 41 90q40 44 106 76q136 66 321 66t275 -64q110 -78 109 -284v-526q0 -18 13 -32t32 -16l90 -6v-96h-381l-27 102q-187 -127 -356 -127
q-114 0 -191 73t-77 183t30 155q54 81 188 137t408 116v25q0 20 2 52q4 77 -40 135q-43 58 -152 58q-48 0 -88 -8v-194h-211zM809 -384q0 -107 -76 -182t-184 -75q-107 -1 -183 75t-75 182q0 106 76 182q77 77 183 77t182 -76q77 -76 77 -183zM550 -254q-52 0 -92 -38
q-38 -38 -38 -78q0 -66 38 -104t78 -38q66 0 104 37t38 77t-10 64t-28 42q-38 38 -90 38z" />
    <glyph glyph-name="uni1E02" unicode="B&#x307;" horiz-adv-x="1309" 
d="M580 1260q-6 0 -74 -5v-487q22 -2 39 -2h12q239 0 282 156q13 48 13 98q0 111 -48 167q-63 73 -214 73h-10zM639 117q41 0 101 14q186 43 186 248q0 138 -76 202t-242 64h-37q-22 0 -65 -2v-522q92 -4 133 -4zM1233 385q0 -83 -21 -149q-20 -66 -56 -110
q-62 -78 -184 -108q-78 -19 -212 -18h-703v104l111 11q45 5 45 45v1054q0 20 -13 32t-32 14l-111 10v104h660q331 0 414 -194q22 -52 22 -118t-17 -114q-17 -47 -44 -82q-46 -60 -112 -92t-117 -43q284 -7 353 -213q17 -50 17 -133zM546 1638q-40 40 -40 84q0 77 39 121
t99 44t100 -44q41 -44 41 -89q-1 -44 -11 -70t-29 -45q-41 -41 -101 -41q-58 0 -98 40z" />
    <glyph glyph-name="uni1E03" unicode="b&#x307;" horiz-adv-x="1225" 
d="M862 500q0 258 -168 330q-56 24 -103 24q-48 0 -96 -6l-36 -6v-727l43 -2q180 0 270 89t90 298zM459 930q155 94 312 94t272 -125q116 -125 116 -354q0 -228 -161 -387q-161 -158 -439 -158h-375v1329h-143v84l313 103h105v-586zM556 1678q-40 40 -39 84q0 77 39 121
t99 44t100 -44q41 -44 41 -89q0 -44 -10 -70t-30 -45q-40 -41 -100 -41t-100 40z" />
    <glyph glyph-name="uni1E04" unicode="B&#x323;" horiz-adv-x="1309" 
d="M580 1260q-6 0 -74 -5v-487q22 -2 39 -2h12q239 0 282 156q13 48 13 98q0 111 -48 167q-63 73 -214 73h-10zM639 117q41 0 101 14q186 43 186 248q0 138 -76 202t-242 64h-37q-22 0 -65 -2v-522q92 -4 133 -4zM1233 385q0 -83 -21 -149q-20 -66 -56 -110
q-62 -78 -184 -108q-78 -19 -212 -18h-703v104l111 11q45 5 45 45v1054q0 20 -13 32t-32 14l-111 10v104h660q331 0 414 -194q22 -52 22 -118t-17 -114q-17 -47 -44 -82q-46 -60 -112 -92t-117 -43q284 -7 353 -213q17 -50 17 -133zM545 -423q-39 40 -39 85q0 77 39 120
q39 44 99 44t100 -44q41 -44 41 -89q-1 -45 -11 -71t-29 -44q-41 -41 -101 -41t-99 40z" />
    <glyph glyph-name="uni1E05" unicode="b&#x323;" horiz-adv-x="1225" 
d="M862 500q0 258 -168 330q-56 24 -103 24q-48 0 -96 -6l-36 -6v-727l43 -2q180 0 270 89t90 298zM459 930q155 94 312 94t272 -125q116 -125 116 -354q0 -228 -161 -387q-161 -158 -439 -158h-375v1329h-143v84l313 103h105v-586zM556 -423q-39 40 -39 85q0 77 39 120
q39 44 99 44t100 -44q41 -44 41 -89t-10 -71t-30 -44q-41 -41 -101 -41t-99 40z" />
    <glyph glyph-name="uni1E06" unicode="B&#x331;" horiz-adv-x="1309" 
d="M580 1260q-6 0 -74 -5v-487q22 -2 39 -2h12q239 0 282 156q13 48 13 98q0 111 -48 167q-63 73 -214 73h-10zM639 117q41 0 101 14q186 43 186 248q0 138 -76 202t-242 64h-37q-22 0 -65 -2v-522q92 -4 133 -4zM1233 385q0 -83 -21 -149q-20 -66 -56 -110
q-62 -78 -184 -108q-78 -19 -212 -18h-703v104l111 11q45 5 45 45v1054q0 20 -13 32t-32 14l-111 10v104h660q331 0 414 -194q22 -52 22 -118t-17 -114q-17 -47 -44 -82q-46 -60 -112 -92t-117 -43q284 -7 353 -213q17 -50 17 -133zM297 -340v165h696v-165h-696z" />
    <glyph glyph-name="uni1E07" unicode="b&#x331;" horiz-adv-x="1225" 
d="M862 500q0 258 -168 330q-56 24 -103 24q-48 0 -96 -6l-36 -6v-727l43 -2q180 0 270 89t90 298zM459 930q155 94 312 94t272 -125q116 -125 116 -354q0 -228 -161 -387q-161 -158 -439 -158h-375v1329h-143v84l313 103h105v-586zM308 -340v165h696v-165h-696z" />
    <glyph glyph-name="uni1E0A" unicode="D&#x307;" horiz-adv-x="1483" 
d="M1217 179q-190 -179 -525 -179h-639v104l113 11q47 5 47 45v1054q-1 20 -15 32t-32 14l-113 10v104h627q344 0 535 -183q192 -183 192 -508t-190 -504zM1077 684q0 408 -234 526q-89 44 -208 45h-129v-1134l170 4q232 5 336 217q65 132 65 342zM614 1638q-40 40 -40 84
q0 77 39 121t99 44t100 -44q41 -44 41 -89q-1 -44 -11 -70t-29 -45q-41 -41 -101 -41q-58 0 -98 40z" />
    <glyph glyph-name="uni1E0B" unicode="d&#x307;" horiz-adv-x="1247" 
d="M579 1024q95 0 212 -25v330h-152v84l319 103h105v-1366q0 -18 13 -32t32 -16l86 -6v-96h-403v119q-12 -5 -43 -29q-242 -183 -450 -77q-148 76 -204 264q-28 92 -28 212t40 222q40 101 111 171t169 106t193 36zM365 524q0 -257 149 -334q50 -26 119 -26t158 39v661
q-89 37 -153 37q-131 0 -202 -105t-71 -272zM530 1678q-40 40 -39 84q0 77 39 121t99 44t100 -44q41 -44 41 -89q0 -44 -10 -70t-30 -45q-40 -41 -100 -41t-100 40z" />
    <glyph glyph-name="uni1E0C" unicode="D&#x323;" horiz-adv-x="1483" 
d="M1217 179q-190 -179 -525 -179h-639v104l113 11q47 5 47 45v1054q-1 20 -15 32t-32 14l-113 10v104h627q344 0 535 -183q192 -183 192 -508t-190 -504zM1077 684q0 408 -234 526q-89 44 -208 45h-129v-1134l170 4q232 5 336 217q65 132 65 342zM613 -423q-39 40 -39 85
q0 77 39 120q39 44 99 44t100 -44q41 -44 41 -89q-1 -45 -11 -71t-29 -44q-41 -41 -101 -41t-99 40z" />
    <glyph glyph-name="uni1E0D" unicode="d&#x323;" horiz-adv-x="1247" 
d="M579 1024q95 0 212 -25v330h-152v84l319 103h105v-1366q0 -18 13 -32t32 -16l86 -6v-96h-403v119q-12 -5 -43 -29q-242 -183 -450 -77q-148 76 -204 264q-28 92 -28 212t40 222q40 101 111 171t169 106t193 36zM365 524q0 -257 149 -334q50 -26 119 -26t158 39v661
q-89 37 -153 37q-131 0 -202 -105t-71 -272zM530 -423q-39 40 -39 85q0 77 39 120q39 44 99 44t100 -44q41 -44 41 -89t-10 -71t-30 -44q-41 -41 -101 -41t-99 40z" />
    <glyph glyph-name="uni1E0E" unicode="D&#x331;" horiz-adv-x="1483" 
d="M1217 179q-190 -179 -525 -179h-639v104l113 11q47 5 47 45v1054q-1 20 -15 32t-32 14l-113 10v104h627q344 0 535 -183q192 -183 192 -508t-190 -504zM1077 684q0 408 -234 526q-89 44 -208 45h-129v-1134l170 4q232 5 336 217q65 132 65 342zM365 -340v165h696v-165
h-696z" />
    <glyph glyph-name="uni1E0F" unicode="d&#x331;" horiz-adv-x="1247" 
d="M579 1024q95 0 212 -25v330h-152v84l319 103h105v-1366q0 -18 13 -32t32 -16l86 -6v-96h-403v119q-12 -5 -43 -29q-242 -183 -450 -77q-148 76 -204 264q-28 92 -28 212t40 222q40 101 111 171t169 106t193 36zM365 524q0 -257 149 -334q50 -26 119 -26t158 39v661
q-89 37 -153 37q-131 0 -202 -105t-71 -272zM282 -340v165h696v-165h-696z" />
    <glyph glyph-name="uni1E10" unicode="D&#x327;" horiz-adv-x="1483" 
d="M1217 179q-190 -179 -525 -179h-639v104l113 11q47 5 47 45v1054q-1 20 -15 32t-32 14l-113 10v104h627q344 0 535 -183q192 -183 192 -508t-190 -504zM1077 684q0 408 -234 526q-89 44 -208 45h-129v-1134l170 4q232 5 336 217q65 132 65 342zM597 -156q41 31 89 31
q86 0 136 -50q49 -50 49 -113q0 -111 -84 -184q-84 -72 -206 -95v82q59 16 102 60t43 91h-129q-41 39 -41 93t41 85z" />
    <glyph glyph-name="uni1E11" unicode="d&#x327;" horiz-adv-x="1247" 
d="M579 1024q95 0 212 -25v330h-152v84l319 103h105v-1366q0 -18 13 -32t32 -16l86 -6v-96h-403v119q-12 -5 -43 -29q-242 -183 -450 -77q-148 76 -204 264q-28 92 -28 212t40 222q40 101 111 171t169 106t193 36zM365 524q0 -257 149 -334q50 -26 119 -26t158 39v661
q-89 37 -153 37q-131 0 -202 -105t-71 -272zM514 -156q41 31 89 31q86 0 136 -50q49 -50 49 -113q0 -111 -84 -184q-84 -72 -206 -95v82q59 16 102 60t43 91h-129q-41 39 -41 93t41 85z" />
    <glyph glyph-name="uni1E12" unicode="D&#x32d;" horiz-adv-x="1483" 
d="M1217 179q-190 -179 -525 -179h-639v104l113 11q47 5 47 45v1054q-1 20 -15 32t-32 14l-113 10v104h627q344 0 535 -183q192 -183 192 -508t-190 -504zM1077 684q0 408 -234 526q-89 44 -208 45h-129v-1134l170 4q232 5 336 217q65 132 65 342zM891 -503l-178 195
l-178 -195h-170l227 351h242l227 -351h-170z" />
    <glyph glyph-name="uni1E13" unicode="d&#x32d;" horiz-adv-x="1247" 
d="M579 1024q95 0 212 -25v330h-152v84l319 103h105v-1366q0 -18 13 -32t32 -16l86 -6v-96h-403v119q-12 -5 -43 -29q-242 -183 -450 -77q-148 76 -204 264q-28 92 -28 212t40 222q40 101 111 171t169 106t193 36zM365 524q0 -257 149 -334q50 -26 119 -26t158 39v661
q-89 37 -153 37q-131 0 -202 -105t-71 -272zM808 -503l-178 195l-178 -195h-170l227 351h242l227 -351h-170z" />
    <glyph glyph-name="uni1E18" unicode="E&#x32d;" horiz-adv-x="1225" 
d="M53 0v104l113 11q47 5 47 45v1054q-1 20 -15 32t-32 14l-113 10v104h1045v-327h-148l-32 170q-10 38 -37 38h-381v-481h243q13 0 23 13t12 24l19 139h127v-481h-127l-19 139q-2 11 -12 24t-23 13h-243v-522h446q13 0 24 14t13 25l31 213h149v-375h-1110zM786 -503
l-178 195l-178 -195h-170l227 351h242l227 -351h-170z" />
    <glyph glyph-name="uni1E19" unicode="e&#x32d;" horiz-adv-x="1083" 
d="M1020 96q-182 -121 -448 -121q-114 0 -212 40q-98 39 -164 109q-130 138 -130 369q0 230 142 380q142 151 370 151t343 -144q99 -125 99 -323v-49h-672q0 -260 182 -338q59 -26 134 -25q191 0 356 115v-164zM727 668q0 164 -91 216q-32 18 -83 19q-98 0 -147 -83
q-48 -83 -48 -197h369v45zM748 -503l-178 195l-178 -195h-170l227 351h242l227 -351h-170z" />
    <glyph glyph-name="uni1E1A" unicode="E&#x330;" horiz-adv-x="1225" 
d="M53 0v104l113 11q47 5 47 45v1054q-1 20 -15 32t-32 14l-113 10v104h1045v-327h-148l-32 170q-10 38 -37 38h-381v-481h243q13 0 23 13t12 24l19 139h127v-481h-127l-19 139q-2 11 -12 24t-23 13h-243v-522h446q13 0 24 14t13 25l31 213h149v-375h-1110zM720 -428
q-40 0 -70 15t-84 48t-102 33t-74 -28t-30 -68h-111q44 178 155 234q40 20 86 20t76 -16t60 -33q80 -49 136 -49q54 0 84 60q8 18 11 38h111q-61 -254 -248 -254z" />
    <glyph glyph-name="uni1E1B" unicode="e&#x330;" horiz-adv-x="1083" 
d="M1020 96q-182 -121 -448 -121q-114 0 -212 40q-98 39 -164 109q-130 138 -130 369q0 230 142 380q142 151 370 151t343 -144q99 -125 99 -323v-49h-672q0 -260 182 -338q59 -26 134 -25q191 0 356 115v-164zM727 668q0 164 -91 216q-32 18 -83 19q-98 0 -147 -83
q-48 -83 -48 -197h369v45zM682 -428q-40 0 -70 15t-84 48t-102 33t-74 -28t-30 -68h-111q44 178 155 234q40 20 86 20t76 -16t60 -33q80 -49 136 -49q54 0 84 60q8 18 11 38h111q-61 -254 -248 -254z" />
    <glyph glyph-name="uni1E1E" unicode="F&#x307;" horiz-adv-x="1145" 
d="M877 1249h-371v-504h254q14 0 24 13t11 24l20 140h127v-484h-127l-20 140q-3 12 -13 24t-22 12h-254v-454q0 -40 45 -45l133 -11v-104h-629v104l111 11q47 5 47 45v1054q-1 20 -15 32t-32 14l-117 10v104h1041v-350h-148l-29 186q-7 39 -36 39zM470 1638q-40 40 -40 84
q0 77 39 121t99 44t100 -44q41 -44 41 -89q-1 -44 -11 -70t-29 -45q-41 -41 -101 -41q-58 0 -98 40z" />
    <glyph glyph-name="uni1E1F" unicode="f&#x307;" horiz-adv-x="711" 
d="M733 1217l-203 190q-36 -55 -50 -120q-15 -65 -15 -193v-119h223v-131h-221v-694q1 -20 13 -34t32 -14l125 -6v-96h-594v96l104 6q19 2 33 16t13 32v694h-134v82l131 67q0 155 89 293q97 162 265 213q56 17 104 17q46 0 80 -10t64 -28q68 -45 68 -108q0 -112 -127 -153z
M438 1618q-40 40 -40 84q0 77 39 121t99 44t100 -44q41 -44 41 -89q-1 -44 -11 -70t-29 -45q-41 -41 -101 -41q-58 0 -98 40z" />
    <glyph glyph-name="uni1E20" unicode="G&#x304;" horiz-adv-x="1466" 
d="M985 121v399q0 20 -14 32t-33 13l-137 10v105h618v-105l-104 -10q-47 -5 -47 -45v-457q-217 -96 -475 -96q-312 0 -514 200q-203 200 -203 525t204 520t529 195q250 0 461 -80v-354h-160l-41 221q-6 31 -68 55q-62 23 -134 23q-71 0 -143 -22t-126 -62
q-104 -76 -154 -206q-51 -129 -51 -272q0 -278 131 -434q131 -155 369 -155h92zM441 1600v165h696v-165h-696z" />
    <glyph glyph-name="uni1E21" unicode="g&#x304;" horiz-adv-x="1137" 
d="M979 686q0 -72 -23 -124q-24 -52 -62 -90q-72 -72 -184 -104q-113 -31 -221 -24q-61 -42 -63 -84q0 -17 8 -39q490 -41 589 -189q34 -50 34 -112q-1 -62 -23 -113t-61 -95q-78 -87 -206 -136t-236 -49q-206 0 -336 81q-129 81 -129 236q0 112 72 168t132 47
q-26 51 -26 93q0 66 26 109q26 42 88 97q-84 19 -138 68q-54 48 -84 104t-30 142q0 170 127 261t326 91q115 0 237 -44q30 -11 56 -19h266v-121h-180q41 -82 41 -154zM668 853q-41 71 -120 71t-119 -69t-40 -142q-1 -73 9 -117t30 -78t50 -56q31 -22 73 -22q41 0 71 22
t50 56q38 68 37 167q0 97 -41 168zM793 -148q0 43 -22 69q-22 27 -57 45t-79 30t-88 20t-83 10q-39 4 -65 7q-10 -15 -21 -31q-10 -16 -26 -47t-16 -81t19 -92q20 -42 52 -74q33 -32 73 -50t81 -18t83 16t74 44q33 28 54 68t21 84zM204 1200v165h696v-165h-696z" />
    <glyph glyph-name="uni1E22" unicode="H&#x307;" horiz-adv-x="1575" 
d="M918 0v104l106 11q45 5 45 45v495h-563v-495q0 -40 45 -45l108 -11v-104h-598v104l107 11q45 5 45 45v1054q0 20 -13 32t-32 14l-107 10v104h598v-104l-108 -10q-19 -2 -32 -14t-13 -32v-428h563v428q0 20 -13 32t-32 14l-106 10v104h595v-104l-106 -10q-17 -2 -31 -14
t-14 -32v-1054q0 -40 45 -45l106 -11v-104h-595zM688 1638q-40 40 -40 84q0 77 39 121t99 44t100 -44q41 -44 41 -89q-1 -44 -11 -70t-29 -45q-41 -41 -101 -41q-58 0 -98 40z" />
    <glyph glyph-name="uni1E23" unicode="h&#x307;" horiz-adv-x="1282" 
d="M817 1024q205 0 262 -185q19 -62 19 -137v-552q0 -18 13 -32t32 -16l86 -6v-96h-516v96l65 6q19 2 32 16t13 32v483q0 127 -81 181q-34 22 -97 22t-186 -27v-659q0 -18 13 -32t32 -16l71 -6v-96h-520v96l84 6q19 2 32 16t13 32v1179h-145v84l313 103h107v-619
q207 127 358 127zM534 1678q-40 40 -39 84q0 77 39 121t99 44t100 -44q41 -44 41 -89q0 -44 -10 -70t-30 -45q-40 -41 -100 -41t-100 40z" />
    <glyph glyph-name="uni1E24" unicode="H&#x323;" horiz-adv-x="1575" 
d="M918 0v104l106 11q45 5 45 45v495h-563v-495q0 -40 45 -45l108 -11v-104h-598v104l107 11q45 5 45 45v1054q0 20 -13 32t-32 14l-107 10v104h598v-104l-108 -10q-19 -2 -32 -14t-13 -32v-428h563v428q0 20 -13 32t-32 14l-106 10v104h595v-104l-106 -10q-17 -2 -31 -14
t-14 -32v-1054q0 -40 45 -45l106 -11v-104h-595zM687 -423q-39 40 -39 85q0 77 39 120q39 44 99 44t100 -44q41 -44 41 -89q-1 -45 -11 -71t-29 -44q-41 -41 -101 -41t-99 40z" />
    <glyph glyph-name="uni1E25" unicode="h&#x323;" horiz-adv-x="1282" 
d="M817 1024q205 0 262 -185q19 -62 19 -137v-552q0 -18 13 -32t32 -16l86 -6v-96h-516v96l65 6q19 2 32 16t13 32v483q0 127 -81 181q-34 22 -97 22t-186 -27v-659q0 -18 13 -32t32 -16l71 -6v-96h-520v96l84 6q19 2 32 16t13 32v1179h-145v84l313 103h107v-619
q207 127 358 127zM534 -423q-39 40 -39 85q0 77 39 120q39 44 99 44t100 -44q41 -44 41 -89t-10 -71t-30 -44q-41 -41 -101 -41t-99 40z" />
    <glyph glyph-name="uni1E26" unicode="H&#x308;" horiz-adv-x="1575" 
d="M918 0v104l106 11q45 5 45 45v495h-563v-495q0 -40 45 -45l108 -11v-104h-598v104l107 11q45 5 45 45v1054q0 20 -13 32t-32 14l-107 10v104h598v-104l-108 -10q-19 -2 -32 -14t-13 -32v-428h563v428q0 20 -13 32t-32 14l-106 10v104h595v-104l-106 -10q-17 -2 -31 -14
t-14 -32v-1054q0 -40 45 -45l106 -11v-104h-595zM1144 1739q0 -29 -11 -55t-31 -44q-20 -20 -45 -31q-26 -11 -55 -11q-28 0 -54 11t-46 31t-30 44q-11 26 -11 55t11 55q10 26 30 46t46 30q26 11 54 11q29 0 55 -11q25 -10 45 -30t31 -46t11 -55zM714 1739q0 -29 -11 -55
t-31 -44q-20 -20 -45 -31q-26 -11 -55 -11t-55 11t-45 31t-30 44q-11 26 -11 55t11 55t30 46t45 30q26 11 55 11t55 -11q25 -10 45 -30t31 -46t11 -55z" />
    <glyph glyph-name="uni1E27" unicode="h&#x308;" horiz-adv-x="1282" 
d="M817 1024q205 0 262 -185q19 -62 19 -137v-552q0 -18 13 -32t32 -16l86 -6v-96h-516v96l65 6q19 2 32 16t13 32v483q0 127 -81 181q-34 22 -97 22t-186 -27v-659q0 -18 13 -32t32 -16l71 -6v-96h-520v96l84 6q19 2 32 16t13 32v1179h-145v84l313 103h107v-619
q207 127 358 127zM991 1779q0 -29 -11 -55q-10 -26 -30 -44q-20 -20 -46 -31t-55 -11t-55 11t-44 31q-20 20 -31 44q-11 26 -11 55t11 55t31 46t44 30q26 11 55 11t55 -11q26 -10 46 -30t30 -46q11 -26 11 -55zM561 1779q0 -29 -11 -55q-10 -26 -30 -44q-20 -20 -46 -31
t-55 -11t-55 11t-45 31t-30 44q-11 26 -11 55t11 55t30 46t45 30q26 11 55 11t55 -11q26 -10 46 -30t30 -46q11 -26 11 -55z" />
    <glyph glyph-name="uni1E28" unicode="H&#x327;" horiz-adv-x="1575" 
d="M1014 -225q-14 0 -50 -4v229h-46v104l106 11q45 5 45 45v495h-563v-495q0 -40 45 -45l108 -11v-104h-598v104l107 11q45 5 45 45v1054q0 20 -13 32t-32 14l-107 10v104h598v-104l-108 -10q-19 -2 -32 -14t-13 -32v-428h563v428q0 20 -13 32t-32 14l-106 10v104h595v-104
l-106 -10q-17 -2 -31 -14t-14 -32v-1054q0 -40 45 -45l106 -11v-104h-447v-111q6 -2 35 -2q70 0 118 -39t48 -102q0 -110 -70 -164.5t-171 -54.5t-177 22v103q78 -17 129 -17q121 0 121 70q0 52 -35.5 61t-49.5 9z" />
    <glyph glyph-name="uni1E29" unicode="h&#x327;" horiz-adv-x="1282" 
d="M817 1024q205 0 243 -123.5t38 -198.5v-552q0 -19 13 -32.5t32 -15.5l86 -6v-96h-399v-111q6 -2 35 -2q70 0 118 -39t48 -102q0 -110 -70 -164.5t-171 -54.5t-177 22v103q78 -17 129 -17q121 0 121 70t-90 70q-9 0 -45 -4v229h-15v96l65 6q19 2 32 15.5t13 32.5v483
q0 127 -57.5 165t-120.5 38t-186 -27v-659q0 -19 13 -32.5t32 -15.5l71 -6v-96h-520v96l84 6q19 2 32 15.5t13 32.5v1179h-145v84l313 103h107v-619q207 127 358 127z" />
    <glyph glyph-name="uni1E2A" unicode="H&#x32e;" horiz-adv-x="1575" 
d="M918 0v104l106 11q45 5 45 45v495h-563v-495q0 -40 45 -45l108 -11v-104h-598v104l107 11q45 5 45 45v1054q0 20 -13 32t-32 14l-107 10v104h598v-104l-108 -10q-19 -2 -32 -14t-13 -32v-428h563v428q0 20 -13 32t-32 14l-106 10v104h595v-104l-106 -10q-17 -2 -31 -14
t-14 -32v-1054q0 -40 45 -45l106 -11v-104h-595zM766 -293q196 0 233 168h109q0 -146 -84 -240t-237 -94q-154 0 -237 93t-83 241h106q19 -86 78 -127q60 -41 115 -41z" />
    <glyph glyph-name="uni1E2B" unicode="h&#x32e;" horiz-adv-x="1282" 
d="M817 1024q205 0 262 -185q19 -62 19 -137v-552q0 -18 13 -32t32 -16l86 -6v-96h-516v96l65 6q19 2 32 16t13 32v483q0 127 -81 181q-34 22 -97 22t-186 -27v-659q0 -18 13 -32t32 -16l71 -6v-96h-520v96l84 6q19 2 32 16t13 32v1179h-145v84l313 103h107v-619
q207 127 358 127zM613 -293q196 0 233 168h109q0 -146 -84 -240t-237 -94q-154 0 -237 93t-83 241h106q19 -86 78 -127q60 -41 115 -41z" />
    <glyph glyph-name="uni1E2C" unicode="I&#x330;" horiz-adv-x="735" 
d="M47 0v104l127 11q45 5 45 45v1054q0 20 -13 32t-32 14l-127 10v104h639v-104l-127 -10q-17 -2 -32 -14t-15 -32v-1054q0 -20 15 -32t32 -13l127 -11v-104h-639zM478 -428q-40 0 -70 15t-84 48t-102 33t-74 -28t-30 -68h-111q44 178 155 234q40 20 86 20t76 -16t60 -33
q80 -49 136 -49q54 0 84 60q8 18 11 38h111q-61 -254 -248 -254z" />
    <glyph glyph-name="uni1E2D" unicode="i&#x330;" horiz-adv-x="682" 
d="M506 1358q0 -33 -12 -62t-35 -51q-22 -23 -51 -35t-62 -12t-62 12t-50 35q-22 22 -34 51t-12 62t12 62t34 50q21 22 50 34t62 12t62 -12t51 -34q23 -21 35 -50t12 -62zM66 0v96l94 6q18 2 32 16t13 32v688h-131v84l299 102h104v-874q1 -18 15 -32t32 -16l99 -6v-96h-557z
M462 -428q-40 0 -70 15t-84 48t-102 33t-74 -28t-30 -68h-111q44 178 155 234q40 20 86 20t76 -16t60 -33q80 -49 136 -49q54 0 84 60q8 18 11 38h111q-61 -254 -248 -254z" />
    <glyph glyph-name="uni1E30" unicode="K&#x301;" horiz-adv-x="1397" 
d="M952 0v76l-334 524h-112v-440q0 -40 45 -45l108 -11v-104h-600v104l109 11q45 5 45 45v1054q0 20 -13 32t-32 14l-109 10v104h600v-104l-108 -10q-19 -2 -32 -14t-13 -32v-516h57l441 537q4 5 2 15t-13 10l-116 10v104h469v-104q-22 -2 -45 -4t-49 -4t-50 -5l-381 -454
l430 -686l146 -13v-104h-445zM1005 1709l-332 -181h-143l280 310q52 54 80 60q28 5 55 5t49 -10q22 -9 38 -25q26 -28 26 -61q0 -66 -53 -98z" />
    <glyph glyph-name="uni1E31" unicode="k&#x301;" horiz-adv-x="1212" 
d="M780 0v84l-225 379h-96v-313q1 -18 13 -32t32 -16l82 -6v-96h-533v96l86 6q19 2 32 16t13 32v1179h-143v84l313 103h105v-984h45l274 328q10 11 6 22t-20 13l-78 8v96h426v-96l-135 -16l-219 -250l315 -531l121 -10v-96h-414zM894 1749l-332 -181h-143l280 310
q52 54 80 60q28 5 55 5q28 0 50 -10q22 -9 36 -25q26 -28 27 -61q0 -66 -53 -98z" />
    <glyph glyph-name="uni1E32" unicode="K&#x323;" horiz-adv-x="1397" 
d="M952 0v76l-334 524h-112v-440q0 -40 45 -45l108 -11v-104h-600v104l109 11q45 5 45 45v1054q0 20 -13 32t-32 14l-109 10v104h600v-104l-108 -10q-19 -2 -32 -14t-13 -32v-516h57l441 537q4 5 2 15t-13 10l-116 10v104h469v-104q-22 -2 -45 -4t-49 -4t-50 -5l-381 -454
l430 -686l146 -13v-104h-445zM628 -423q-39 40 -39 85q0 77 39 120q39 44 99 44t100 -44q41 -44 41 -89t-10 -71t-30 -44q-41 -41 -101 -41t-99 40z" />
    <glyph glyph-name="uni1E33" unicode="k&#x323;" horiz-adv-x="1212" 
d="M780 0v84l-225 379h-96v-313q1 -18 13 -32t32 -16l82 -6v-96h-533v96l86 6q19 2 32 16t13 32v1179h-143v84l313 103h105v-984h45l274 328q10 11 6 22t-20 13l-78 8v96h426v-96l-135 -16l-219 -250l315 -531l121 -10v-96h-414zM517 -423q-39 40 -39 85q0 77 39 120
q39 44 99 44t100 -44q41 -44 41 -89q-1 -45 -11 -71t-29 -44q-41 -41 -101 -41t-99 40z" />
    <glyph glyph-name="uni1E34" unicode="K&#x331;" horiz-adv-x="1397" 
d="M952 0v76l-334 524h-112v-440q0 -40 45 -45l108 -11v-104h-600v104l109 11q45 5 45 45v1054q0 20 -13 32t-32 14l-109 10v104h600v-104l-108 -10q-19 -2 -32 -14t-13 -32v-516h57l441 537q4 5 2 15t-13 10l-116 10v104h469v-104q-22 -2 -45 -4t-49 -4t-50 -5l-381 -454
l430 -686l146 -13v-104h-445zM380 -340v165h696v-165h-696z" />
    <glyph glyph-name="uni1E35" unicode="k&#x331;" horiz-adv-x="1212" 
d="M780 0v84l-225 379h-96v-313q1 -18 13 -32t32 -16l82 -6v-96h-533v96l86 6q19 2 32 16t13 32v1179h-143v84l313 103h105v-984h45l274 328q10 11 6 22t-20 13l-78 8v96h426v-96l-135 -16l-219 -250l315 -531l121 -10v-96h-414zM269 -340v165h696v-165h-696z" />
    <glyph glyph-name="uni1E36" unicode="L&#x323;" horiz-adv-x="1135" 
d="M55 0v104l113 11q45 5 45 45v1054q0 20 -13 32t-32 14l-113 10v104h611v-104l-115 -10q-19 -2 -32 -14t-13 -32v-1089h356q30 0 44 33q4 8 5 14l27 236h164v-408h-1047zM478 -423q-39 40 -39 85q0 77 39 120q39 44 99 44t100 -44q41 -44 41 -89t-10 -71t-30 -44
q-41 -41 -101 -41t-99 40z" />
    <glyph glyph-name="uni1E37" unicode="l&#x323;" horiz-adv-x="682" 
d="M59 0v96l101 6q20 2 32 15t13 33v1179h-146v84l314 103h104v-1366q1 -20 13 -33t32 -15l103 -6v-96h-566zM242 -423q-39 40 -39 85q0 77 39 120q39 44 99 44t100 -44q41 -44 41 -89t-10 -71t-30 -44q-41 -41 -101 -41t-99 40z" />
    <glyph glyph-name="uni1E38" unicode="L&#x304;&#x323;" horiz-adv-x="1135" 
d="M55 0v104l113 11q45 5 45 45v1054q0 20 -13 32t-32 14l-113 10v104h611v-104l-115 -10q-19 -2 -32 -14t-13 -32v-1089h356q30 0 44 33q4 8 5 14l27 236h164v-408h-1047zM478 -423q-39 40 -39 85q0 77 39 120q39 44 99 44t100 -44q41 -44 41 -89t-10 -71t-30 -44
q-41 -41 -101 -41t-99 40zM230 1600v165h696v-165h-696z" />
    <glyph glyph-name="uni1E39" unicode="l&#x304;&#x323;" horiz-adv-x="682" 
d="M59 0v96l101 6q20 2 32 15t13 33v1179h-146v84l314 103h104v-1366q1 -20 13 -33t32 -15l103 -6v-96h-566zM242 -423q-39 40 -39 85q0 77 39 120q39 44 99 44t100 -44q41 -44 41 -89t-10 -71t-30 -44q-41 -41 -101 -41t-99 40zM-6 1680v165h696v-165h-696z" />
    <glyph glyph-name="uni1E3A" unicode="L&#x331;" horiz-adv-x="1135" 
d="M55 0v104l113 11q45 5 45 45v1054q0 20 -13 32t-32 14l-113 10v104h611v-104l-115 -10q-19 -2 -32 -14t-13 -32v-1089h356q30 0 44 33q4 8 5 14l27 236h164v-408h-1047zM230 -340v165h696v-165h-696z" />
    <glyph glyph-name="uni1E3B" unicode="l&#x331;" horiz-adv-x="682" 
d="M59 0v96l101 6q20 2 32 15t13 33v1179h-146v84l314 103h104v-1366q1 -20 13 -33t32 -15l103 -6v-96h-566zM-5 -340v165h696v-165h-696z" />
    <glyph glyph-name="uni1E3C" unicode="L&#x32d;" horiz-adv-x="1135" 
d="M55 0v104l113 11q45 5 45 45v1054q0 20 -13 32t-32 14l-113 10v104h611v-104l-115 -10q-19 -2 -32 -14t-13 -32v-1089h356q30 0 44 33q4 8 5 14l27 236h164v-408h-1047zM756 -503l-178 195l-178 -195h-170l227 351h242l227 -351h-170z" />
    <glyph glyph-name="uni1E3D" unicode="l&#x32d;" horiz-adv-x="682" 
d="M59 0v96l101 6q20 2 32 15t13 33v1179h-146v84l314 103h104v-1366q1 -20 13 -33t32 -15l103 -6v-96h-566zM520 -503l-178 195l-178 -195h-170l227 351h242l227 -351h-170z" />
    <glyph glyph-name="uni1E3E" unicode="M&#x301;" horiz-adv-x="1849" 
d="M1196 0v104l100 11q17 1 31 13t14 32v1075l-411 -1235h-158l-403 1227v-1067q0 -20 14 -32t31 -13l110 -11v-104h-473v104l115 11q47 5 47 45v1054q-1 20 -15 32t-32 14l-115 10v104h588v-57l289 -877l286 877v57h582v-104l-117 -10q-17 -2 -31 -14t-14 -32v-1054
q0 -20 14 -32t31 -13l117 -11v-104h-600zM1200 1709l-332 -181h-143l280 310q52 54 80 60q28 5 55 5q28 0 50 -10q22 -9 36 -25q26 -28 27 -61q0 -66 -53 -98z" />
    <glyph glyph-name="uni1E3F" unicode="m&#x301;" horiz-adv-x="1855" 
d="M1397 1024q205 0 264 -189q18 -57 18 -124v-561q-1 -18 13 -32t32 -16l74 -6v-96h-502v96l64 6q18 2 32 16t15 32v493q0 133 -93 177q-34 16 -99 16t-150 -33v-653q0 -18 13 -32t32 -16l64 -6v-96h-492v96l63 6q19 2 33 16t13 32v493q1 131 -95 177q-34 16 -111 16
t-136 -33v-653q0 -18 14 -32t33 -16l63 -6v-96h-504v96l76 6q19 2 32 16t13 32v686h-131v84l301 104h103v-125q97 65 186 95t148 30t100 -16t69 -36q28 -22 48 -46q18 -24 32 -41q219 139 365 139zM1198 1309l-332 -181h-143l280 310q52 54 80 60q28 5 55 5q28 0 50 -10
q22 -9 36 -25q26 -28 27 -61q0 -66 -53 -98z" />
    <glyph glyph-name="uni1E40" unicode="M&#x307;" horiz-adv-x="1849" 
d="M1196 0v104l100 11q17 1 31 13t14 32v1075l-411 -1235h-158l-403 1227v-1067q0 -20 14 -32t31 -13l110 -11v-104h-473v104l115 11q47 5 47 45v1054q-1 20 -15 32t-32 14l-115 10v104h588v-57l289 -877l286 877v57h582v-104l-117 -10q-17 -2 -31 -14t-14 -32v-1054
q0 -20 14 -32t31 -13l117 -11v-104h-600zM824 1638q-40 40 -40 84q0 77 39 121t99 44t100 -44q41 -44 41 -89q-1 -44 -11 -70t-29 -45q-41 -41 -101 -41q-58 0 -98 40z" />
    <glyph glyph-name="uni1E41" unicode="m&#x307;" horiz-adv-x="1855" 
d="M1397 1024q205 0 264 -189q18 -57 18 -124v-561q-1 -18 13 -32t32 -16l74 -6v-96h-502v96l64 6q18 2 32 16t15 32v493q0 133 -93 177q-34 16 -99 16t-150 -33v-653q0 -18 13 -32t32 -16l64 -6v-96h-492v96l63 6q19 2 33 16t13 32v493q1 131 -95 177q-34 16 -111 16
t-136 -33v-653q0 -18 14 -32t33 -16l63 -6v-96h-504v96l76 6q19 2 32 16t13 32v686h-131v84l301 104h103v-125q97 65 186 95t148 30t100 -16t69 -36q28 -22 48 -46q18 -24 32 -41q219 139 365 139zM822 1238q-40 40 -40 84q0 77 39 121t99 44t100 -44q41 -44 41 -89
q-1 -44 -11 -70t-29 -45q-41 -41 -101 -41q-58 0 -98 40z" />
    <glyph glyph-name="uni1E42" unicode="M&#x323;" horiz-adv-x="1849" 
d="M1196 0v104l100 11q17 1 31 13t14 32v1075l-411 -1235h-158l-403 1227v-1067q0 -20 14 -32t31 -13l110 -11v-104h-473v104l115 11q47 5 47 45v1054q-1 20 -15 32t-32 14l-115 10v104h588v-57l289 -877l286 877v57h582v-104l-117 -10q-17 -2 -31 -14t-14 -32v-1054
q0 -20 14 -32t31 -13l117 -11v-104h-600zM823 -423q-39 40 -39 85q0 77 39 120q39 44 99 44t100 -44q41 -44 41 -89q-1 -45 -11 -71t-29 -44q-41 -41 -101 -41t-99 40z" />
    <glyph glyph-name="uni1E43" unicode="m&#x323;" horiz-adv-x="1855" 
d="M1397 1024q205 0 264 -189q18 -57 18 -124v-561q-1 -18 13 -32t32 -16l74 -6v-96h-502v96l64 6q18 2 32 16t15 32v493q0 133 -93 177q-34 16 -99 16t-150 -33v-653q0 -18 13 -32t32 -16l64 -6v-96h-492v96l63 6q19 2 33 16t13 32v493q1 131 -95 177q-34 16 -111 16
t-136 -33v-653q0 -18 14 -32t33 -16l63 -6v-96h-504v96l76 6q19 2 32 16t13 32v686h-131v84l301 104h103v-125q97 65 186 95t148 30t100 -16t69 -36q28 -22 48 -46q18 -24 32 -41q219 139 365 139zM821 -423q-39 40 -39 85q0 77 39 120q39 44 99 44t100 -44q41 -44 41 -89
q-1 -45 -11 -71t-29 -44q-41 -41 -101 -41t-99 40z" />
    <glyph glyph-name="uni1E44" unicode="N&#x307;" horiz-adv-x="1524" 
d="M1309 1214v-1214h-250l-690 1083v-923q0 -20 14 -32t31 -13l114 -11v-104h-473v104l113 11q45 5 45 45v1054q0 20 -13 32t-32 14l-111 10v104h506v-55l590 -924v819q-1 20 -15 32t-32 14l-117 10v104h475v-104l-110 -10q-17 -2 -31 -14t-14 -32zM660 1638q-40 40 -40 84
q0 77 39 121t99 44t100 -44q41 -44 41 -89q-1 -44 -11 -70t-29 -45q-41 -41 -101 -41q-58 0 -98 40z" />
    <glyph glyph-name="uni1E45" unicode="n&#x307;" horiz-adv-x="1280" 
d="M828 1024q268 0 268 -356v-518q0 -18 14 -32t33 -16l63 -6v-96h-504v96l76 6q19 2 32 16t13 32v481q0 137 -90 187q-32 18 -105 18t-169 -27v-659q0 -18 14 -32t33 -16l61 -6v-96h-501v96l73 6q19 2 32 16t13 32v686h-141v84l309 104h107v-125q189 125 369 125zM524 1238
q-40 40 -39 84q0 77 39 121t99 44t100 -44q41 -44 41 -89q0 -44 -10 -70t-30 -45q-40 -41 -100 -41t-100 40z" />
    <glyph glyph-name="uni1E46" unicode="N&#x323;" horiz-adv-x="1524" 
d="M1309 1214v-1214h-250l-690 1083v-923q0 -20 14 -32t31 -13l114 -11v-104h-473v104l113 11q45 5 45 45v1054q0 20 -13 32t-32 14l-111 10v104h506v-55l590 -924v819q-1 20 -15 32t-32 14l-117 10v104h475v-104l-110 -10q-17 -2 -31 -14t-14 -32zM659 -423q-39 40 -39 85
q0 77 39 120q39 44 99 44t100 -44q41 -44 41 -89q-1 -45 -11 -71t-29 -44q-41 -41 -101 -41t-99 40z" />
    <glyph glyph-name="uni1E47" unicode="n&#x323;" horiz-adv-x="1280" 
d="M828 1024q268 0 268 -356v-518q0 -18 14 -32t33 -16l63 -6v-96h-504v96l76 6q19 2 32 16t13 32v481q0 137 -90 187q-32 18 -105 18t-169 -27v-659q0 -18 14 -32t33 -16l61 -6v-96h-501v96l73 6q19 2 32 16t13 32v686h-141v84l309 104h107v-125q189 125 369 125zM524 -423
q-39 40 -39 85q0 77 39 120q39 44 99 44t100 -44q41 -44 41 -89t-10 -71t-30 -44q-41 -41 -101 -41t-99 40z" />
    <glyph glyph-name="uni1E48" unicode="N&#x331;" horiz-adv-x="1524" 
d="M1309 1214v-1214h-250l-690 1083v-923q0 -20 14 -32t31 -13l114 -11v-104h-473v104l113 11q45 5 45 45v1054q0 20 -13 32t-32 14l-111 10v104h506v-55l590 -924v819q-1 20 -15 32t-32 14l-117 10v104h475v-104l-110 -10q-17 -2 -31 -14t-14 -32zM411 -340v165h696v-165
h-696z" />
    <glyph glyph-name="uni1E49" unicode="n&#x331;" horiz-adv-x="1280" 
d="M828 1024q268 0 268 -356v-518q0 -18 14 -32t33 -16l63 -6v-96h-504v96l76 6q19 2 32 16t13 32v481q0 137 -90 187q-32 18 -105 18t-169 -27v-659q0 -18 14 -32t33 -16l61 -6v-96h-501v96l73 6q19 2 32 16t13 32v686h-141v84l309 104h107v-125q189 125 369 125zM276 -340
v165h696v-165h-696z" />
    <glyph glyph-name="uni1E4A" unicode="N&#x32d;" horiz-adv-x="1524" 
d="M1309 1214v-1214h-250l-690 1083v-923q0 -20 14 -32t31 -13l114 -11v-104h-473v104l113 11q45 5 45 45v1054q0 20 -13 32t-32 14l-111 10v104h506v-55l590 -924v819q-1 20 -15 32t-32 14l-117 10v104h475v-104l-110 -10q-17 -2 -31 -14t-14 -32zM937 -503l-178 195
l-178 -195h-170l227 351h242l227 -351h-170z" />
    <glyph glyph-name="uni1E4B" unicode="n&#x32d;" horiz-adv-x="1280" 
d="M828 1024q268 0 268 -356v-518q0 -18 14 -32t33 -16l63 -6v-96h-504v96l76 6q19 2 32 16t13 32v481q0 137 -90 187q-32 18 -105 18t-169 -27v-659q0 -18 14 -32t33 -16l61 -6v-96h-501v96l73 6q19 2 32 16t13 32v686h-141v84l309 104h107v-125q189 125 369 125zM802 -503
l-178 195l-178 -195h-170l227 351h242l227 -351h-170z" />
    <glyph glyph-name="uni1E54" unicode="P&#x301;" horiz-adv-x="1253" 
d="M538 629h23q311 4 311 319q0 142 -68 222t-183 79h-115v-618q24 -2 32 -2zM506 160q0 -40 45 -45l129 -11v-104h-627v104l113 11q47 5 47 45v1054q-1 20 -15 32t-32 14l-119 10v104h574q164 0 246 -22q158 -42 234 -133q77 -91 77 -261q0 -315 -282 -414
q-113 -40 -235 -40t-155 4v-348zM889 1709l-332 -181h-143l280 310q52 54 80 60q28 5 55 5t49 -10q22 -9 38 -25q26 -28 26 -61q0 -66 -53 -98z" />
    <glyph glyph-name="uni1E55" unicode="p&#x301;" horiz-adv-x="1237" 
d="M636 -25q-108 0 -177 21v-295q1 -19 13 -33t32 -14l108 -6v-97h-563v97l90 6q19 0 32 14t13 33v1135h-135v84l303 104h107v-129q88 66 177 98q90 31 152 31t115 -20t95 -54q83 -68 128 -182t45 -239t-39 -227t-111 -174t-174 -113q-103 -40 -211 -40zM583 86q61 0 117 32
q168 97 168 380q0 230 -142 312q-48 28 -113 28q-64 0 -154 -31v-696q62 -25 124 -25zM887 1309l-332 -181h-143l280 310q52 54 80 60q28 5 55 5t49 -10q22 -9 38 -25q26 -28 26 -61q0 -66 -53 -98z" />
    <glyph glyph-name="uni1E56" unicode="P&#x307;" horiz-adv-x="1253" 
d="M538 629h23q311 4 311 319q0 142 -68 222t-183 79h-115v-618q24 -2 32 -2zM506 160q0 -40 45 -45l129 -11v-104h-627v104l113 11q47 5 47 45v1054q-1 20 -15 32t-32 14l-119 10v104h574q164 0 246 -22q158 -42 234 -133q77 -91 77 -261q0 -315 -282 -414
q-113 -40 -235 -40t-155 4v-348zM512 1638q-40 40 -39 84q0 77 39 121t99 44t100 -44q41 -44 41 -89q0 -44 -10 -70t-30 -45q-40 -41 -100 -41t-100 40z" />
    <glyph glyph-name="uni1E57" unicode="p&#x307;" horiz-adv-x="1237" 
d="M636 -25q-108 0 -177 21v-295q1 -19 13 -33t32 -14l108 -6v-97h-563v97l90 6q19 0 32 14t13 33v1135h-135v84l303 104h107v-129q88 66 177 98q90 31 152 31t115 -20t95 -54q83 -68 128 -182t45 -239t-39 -227t-111 -174t-174 -113q-103 -40 -211 -40zM583 86q61 0 117 32
q168 97 168 380q0 230 -142 312q-48 28 -113 28q-64 0 -154 -31v-696q62 -25 124 -25zM510 1238q-40 40 -39 84q0 77 39 121t99 44t100 -44q41 -44 41 -89q0 -44 -10 -70t-30 -45q-40 -41 -100 -41t-100 40z" />
    <glyph glyph-name="uni1E58" unicode="R&#x307;" horiz-adv-x="1442" 
d="M589 723q110 1 184 49q104 68 104 223q0 256 -306 256q-8 1 -19 1h-21q-12 0 -25 -1v-524q51 -4 83 -4zM1208 -33q-68 -1 -134 27t-110 72t-70 102q-26 56 -48 116t-43 117q-74 201 -256 201h-41v-442q0 -40 45 -45l113 -11v-104h-607v104l109 11q47 5 47 45v1054
q-1 20 -15 32t-32 14l-109 10v104h680q161 0 281 -61q166 -84 166 -279q0 -232 -215 -320q-68 -28 -142 -38q175 -34 245 -172q33 -64 53 -136q20 -73 35 -111q34 -86 95 -127t187 -26v-104q-68 -8 -116 -20q-50 -12 -118 -13zM546 1638q-40 40 -40 84q0 77 39 121t99 44
t100 -44q41 -44 41 -89q-1 -44 -11 -70t-29 -45q-41 -41 -101 -41q-58 0 -98 40z" />
    <glyph glyph-name="uni1E59" unicode="r&#x307;" horiz-adv-x="885" 
d="M726 1024q90 0 138 -37v-311h-139q-39 56 -71 69t-84 13t-111 -37v-574q1 -19 13 -33t32 -14l131 -6v-96h-586v96l90 6q19 2 32 16t13 31v689h-149v84l317 104h107v-217q107 133 201 192q40 25 66 25zM380 1238q-40 40 -39 84q0 77 39 121t99 44t100 -44q41 -44 41 -89
q0 -44 -10 -70t-30 -45q-40 -41 -100 -41t-100 40z" />
    <glyph glyph-name="uni1E5A" unicode="R&#x323;" horiz-adv-x="1442" 
d="M589 723q110 1 184 49q104 68 104 223q0 256 -306 256q-8 1 -19 1h-21q-12 0 -25 -1v-524q51 -4 83 -4zM1208 -33q-68 -1 -134 27t-110 72t-70 102q-26 56 -48 116t-43 117q-74 201 -256 201h-41v-442q0 -40 45 -45l113 -11v-104h-607v104l109 11q47 5 47 45v1054
q-1 20 -15 32t-32 14l-109 10v104h680q161 0 281 -61q166 -84 166 -279q0 -232 -215 -320q-68 -28 -142 -38q175 -34 245 -172q33 -64 53 -136q20 -73 35 -111q34 -86 95 -127t187 -26v-104q-68 -8 -116 -20q-50 -12 -118 -13zM545 -423q-39 40 -39 85q0 77 39 120
q39 44 99 44t100 -44q41 -44 41 -89q-1 -45 -11 -71t-29 -44q-41 -41 -101 -41t-99 40z" />
    <glyph glyph-name="uni1E5B" unicode="r&#x323;" horiz-adv-x="885" 
d="M726 1024q90 0 138 -37v-311h-139q-39 56 -71 69t-84 13t-111 -37v-574q1 -19 13 -33t32 -14l131 -6v-96h-586v96l90 6q19 2 32 16t13 31v689h-149v84l317 104h107v-217q107 133 201 192q40 25 66 25zM209 -423q-39 40 -39 85q0 77 39 120q39 44 99 44t100 -44
q41 -44 41 -89q-1 -45 -11 -71t-29 -44q-41 -41 -101 -41t-99 40z" />
    <glyph glyph-name="uni1E5C" unicode="R&#x304;&#x323;" horiz-adv-x="1442" 
d="M589 723q110 1 184 49q104 68 104 223q0 256 -306 256q-8 1 -19 1h-21q-12 0 -25 -1v-524q51 -4 83 -4zM1208 -33q-68 -1 -134 27t-110 72t-70 102q-26 56 -48 116t-43 117q-74 201 -256 201h-41v-442q0 -40 45 -45l113 -11v-104h-607v104l109 11q47 5 47 45v1054
q-1 20 -15 32t-32 14l-109 10v104h680q161 0 281 -61q166 -84 166 -279q0 -232 -215 -320q-68 -28 -142 -38q175 -34 245 -172q33 -64 53 -136q20 -73 35 -111q34 -86 95 -127t187 -26v-104q-68 -8 -116 -20q-50 -12 -118 -13zM545 -423q-39 40 -39 85q0 77 39 120
q39 44 99 44t100 -44q41 -44 41 -89q-1 -45 -11 -71t-29 -44q-41 -41 -101 -41t-99 40zM297 1600v165h696v-165h-696z" />
    <glyph glyph-name="uni1E5D" unicode="r&#x304;&#x323;" horiz-adv-x="885" 
d="M726 1024q90 0 138 -37v-311h-139q-39 56 -71 69t-84 13t-111 -37v-574q1 -19 13 -33t32 -14l131 -6v-96h-586v96l90 6q19 2 32 16t13 31v689h-149v84l317 104h107v-217q107 133 201 192q40 25 66 25zM209 -423q-39 40 -39 85q0 77 39 120q39 44 99 44t100 -44
q41 -44 41 -89q-1 -45 -11 -71t-29 -44q-41 -41 -101 -41t-99 40zM132 1200v165h696v-165h-696z" />
    <glyph glyph-name="uni1E5E" unicode="R&#x331;" horiz-adv-x="1442" 
d="M589 723q110 1 184 49q104 68 104 223q0 256 -306 256q-8 1 -19 1h-21q-12 0 -25 -1v-524q51 -4 83 -4zM1208 -33q-68 -1 -134 27t-110 72t-70 102q-26 56 -48 116t-43 117q-74 201 -256 201h-41v-442q0 -40 45 -45l113 -11v-104h-607v104l109 11q47 5 47 45v1054
q-1 20 -15 32t-32 14l-109 10v104h680q161 0 281 -61q166 -84 166 -279q0 -232 -215 -320q-68 -28 -142 -38q175 -34 245 -172q33 -64 53 -136q20 -73 35 -111q34 -86 95 -127t187 -26v-104q-68 -8 -116 -20q-50 -12 -118 -13zM297 -340v165h696v-165h-696z" />
    <glyph glyph-name="uni1E5F" unicode="r&#x331;" horiz-adv-x="885" 
d="M726 1024q90 0 138 -37v-311h-139q-39 56 -71 69t-84 13t-111 -37v-574q1 -19 13 -33t32 -14l131 -6v-96h-586v96l90 6q19 2 32 16t13 31v689h-149v84l317 104h107v-217q107 133 201 192q40 25 66 25zM-38 -340v165h696v-165h-696z" />
    <glyph glyph-name="uni1E60" unicode="S&#x307;" horiz-adv-x="1098" 
d="M985 989h-158l-34 219q-6 25 -54 43q-47 19 -98 19q-106 0 -179 -49t-73 -136q0 -137 173 -230q50 -27 109 -57q169 -84 237 -144q114 -102 114 -253q0 -207 -159 -320q-159 -114 -374 -114t-413 78v375h162l34 -248q2 -12 12 -22t15 -9q127 -53 240 -26q182 43 182 191
q-1 144 -217 256q-161 84 -218 123q-182 121 -182 290q0 208 143 320t346 112t392 -82v-336zM480 1638q-40 40 -40 84q0 77 39 121t99 44t100 -44q41 -44 41 -89q-1 -44 -11 -70t-29 -45q-41 -41 -101 -41q-58 0 -98 40z" />
    <glyph glyph-name="uni1E61" unicode="s&#x307;" horiz-adv-x="911" 
d="M815 686h-127l-22 164q-44 51 -138 51q-176 0 -176 -113q0 -76 129 -148q37 -20 83 -44q147 -75 191 -111q93 -75 93 -169q0 -174 -133 -266q-110 -76 -294 -75q-184 0 -355 56v311h129q9 -91 24 -188q4 -10 73 -34t120 -24q90 0 132 42t42 86t-26 76q-26 30 -69 55
t-95 47t-99 46q-105 53 -162 113t-57 141q0 152 115 237t299 85q183 0 323 -55v-283zM380 1238q-40 40 -39 84q0 77 39 121t99 44t100 -44q41 -44 41 -89q0 -44 -10 -70t-30 -45q-40 -41 -100 -41t-100 40z" />
    <glyph glyph-name="uni1E62" unicode="S&#x323;" horiz-adv-x="1098" 
d="M985 989h-158l-34 219q-6 25 -54 43q-47 19 -98 19q-106 0 -179 -49t-73 -136q0 -137 173 -230q50 -27 109 -57q169 -84 237 -144q114 -102 114 -253q0 -207 -159 -320q-159 -114 -374 -114t-413 78v375h162l34 -248q2 -12 12 -22t15 -9q127 -53 240 -26q182 43 182 191
q-1 144 -217 256q-161 84 -218 123q-182 121 -182 290q0 208 143 320t346 112t392 -82v-336zM458 -423q-39 40 -39 85q0 77 39 120q39 44 99 44t100 -44q41 -44 41 -89t-10 -71t-30 -44q-41 -41 -101 -41t-99 40z" />
    <glyph glyph-name="uni1E63" unicode="s&#x323;" horiz-adv-x="911" 
d="M815 686h-127l-22 164q-44 51 -138 51q-176 0 -176 -113q0 -76 129 -148q37 -20 83 -44q147 -75 191 -111q93 -75 93 -169q0 -174 -133 -266q-110 -76 -294 -75q-184 0 -355 56v311h129q9 -91 24 -188q4 -10 73 -34t120 -24q90 0 132 42t42 86t-26 76q-26 30 -69 55
t-95 47t-99 46q-105 53 -162 113t-57 141q0 152 115 237t299 85q183 0 323 -55v-283zM360 -423q-39 40 -39 85q0 77 39 120q39 44 99 44t100 -44q41 -44 41 -89t-10 -71t-30 -44q-41 -41 -101 -41t-99 40z" />
    <glyph glyph-name="uni1E6A" unicode="T&#x307;" horiz-adv-x="1247" 
d="M999 1251h-229v-1091q0 -20 14 -32t31 -13l121 -11v-104h-625v104l119 11q47 5 47 45v1091h-229q-28 0 -31 -24l-37 -228h-147v375h1181v-375h-149l-37 228q-3 24 -29 24zM524 1638q-40 40 -40 84q0 77 39 121t99 44t100 -44q41 -44 41 -89q-1 -44 -11 -70t-29 -45
q-41 -41 -101 -41q-58 0 -98 40z" />
    <glyph glyph-name="uni1E6B" unicode="t&#x307;" horiz-adv-x="768" 
d="M459 311q1 -178 159 -178q72 0 142 14v-102q-168 -70 -328 -70q-196 0 -235 140q-13 47 -13 112v641h-135v82l158 94l110 218h142v-263h284v-131h-284v-557zM292 1500q-40 40 -39 86q0 77 39 120q39 44 99 44t100 -44q41 -44 41 -89t-10 -71t-30 -44q-40 -41 -100 -41
q-60 -1 -100 39z" />
    <glyph glyph-name="uni1E6C" unicode="T&#x323;" horiz-adv-x="1247" 
d="M999 1251h-229v-1091q0 -20 14 -32t31 -13l121 -11v-104h-625v104l119 11q47 5 47 45v1091h-229q-28 0 -31 -24l-37 -228h-147v375h1181v-375h-149l-37 228q-3 24 -29 24zM523 -423q-39 40 -39 85q0 77 39 120q39 44 99 44t100 -44q41 -44 41 -89q-1 -45 -11 -71t-29 -44
q-41 -41 -101 -41t-99 40z" />
    <glyph glyph-name="uni1E6D" unicode="t&#x323;" horiz-adv-x="768" 
d="M459 311q1 -178 159 -178q72 0 142 14v-102q-168 -70 -328 -70q-196 0 -235 140q-13 47 -13 112v641h-135v82l158 94l110 218h142v-263h284v-131h-284v-557zM304 -423q-39 40 -39 85q0 77 39 120q39 44 99 44t100 -44q41 -44 41 -89t-10 -71t-30 -44q-41 -41 -101 -41
t-99 40z" />
    <glyph glyph-name="uni1E6E" unicode="T&#x331;" horiz-adv-x="1247" 
d="M999 1251h-229v-1091q0 -20 14 -32t31 -13l121 -11v-104h-625v104l119 11q47 5 47 45v1091h-229q-28 0 -31 -24l-37 -228h-147v375h1181v-375h-149l-37 228q-3 24 -29 24zM275 -340v165h696v-165h-696z" />
    <glyph glyph-name="uni1E6F" unicode="t&#x331;" horiz-adv-x="768" 
d="M459 311q1 -178 159 -178q72 0 142 14v-102q-168 -70 -328 -70q-196 0 -235 140q-13 47 -13 112v641h-135v82l158 94l110 218h142v-263h284v-131h-284v-557zM56 -340v165h696v-165h-696z" />
    <glyph glyph-name="uni1E70" unicode="T&#x32d;" horiz-adv-x="1247" 
d="M999 1251h-229v-1091q0 -20 14 -32t31 -13l121 -11v-104h-625v104l119 11q47 5 47 45v1091h-229q-28 0 -31 -24l-37 -228h-147v375h1181v-375h-149l-37 228q-3 24 -29 24zM801 -503l-178 195l-178 -195h-170l227 351h242l227 -351h-170z" />
    <glyph glyph-name="uni1E71" unicode="t&#x32d;" horiz-adv-x="768" 
d="M459 311q1 -178 159 -178q72 0 142 14v-102q-168 -70 -328 -70q-196 0 -235 140q-13 47 -13 112v641h-135v82l158 94l110 218h142v-263h284v-131h-284v-557zM582 -503l-178 195l-178 -195h-170l227 351h242l227 -351h-170z" />
    <glyph glyph-name="uni1E72" unicode="U&#x324;" horiz-adv-x="1493" 
d="M203 520v694q-1 20 -15 32t-32 14l-111 10v104h606v-104l-110 -10q-17 -2 -31 -14t-14 -32v-710q0 -192 81 -280t243 -87q310 0 310 367v710q0 20 -13 32t-32 14l-116 10v104h471v-104l-109 -10q-17 -2 -31 -14t-14 -32v-694q0 -297 -134 -425t-427 -128q-522 0 -522 553
zM1117 -315q0 -29 -11 -55q-10 -26 -30 -46t-46 -30q-26 -11 -55 -11t-55 11q-26 10 -44 30q-20 20 -31 46t-11 55t11 55t31 44q20 20 44 31q26 11 55 11t55 -11t46 -31t30 -44q11 -26 11 -55zM687 -315q0 -29 -11 -55q-10 -26 -30 -46t-46 -30q-26 -11 -55 -11t-55 11
q-26 10 -45 30t-30 46t-11 55t11 55t30 44q19 20 45 31t55 11t55 -11t46 -31t30 -44q11 -26 11 -55z" />
    <glyph glyph-name="uni1E73" unicode="u&#x324;" horiz-adv-x="1270" 
d="M811 113q-180 -138 -339 -138q-152 0 -220 84t-68 250v529h-133v84l301 102h107v-635q0 -101 24 -142q23 -41 61 -63t110 -22t157 35v641h-129v84l299 102h104v-874q1 -18 15 -32t33 -16l90 -6v-96h-412v113zM994 -315q0 -29 -11 -55t-31 -46t-45 -30q-26 -11 -55 -11
q-28 0 -54 11q-26 10 -46 30t-30 46q-11 26 -11 55t11 55q10 26 30 44q20 20 46 31t54 11q29 0 55 -11q25 -11 45 -31t31 -44q11 -26 11 -55zM564 -315q0 -29 -11 -55t-31 -46t-45 -30q-26 -11 -55 -11t-55 11q-26 10 -45 30t-30 46t-11 55t11 55t30 44q19 20 45 31t55 11
t55 -11q25 -11 45 -31t31 -44q11 -26 11 -55z" />
    <glyph glyph-name="uni1E74" unicode="U&#x330;" horiz-adv-x="1493" 
d="M203 520v694q-1 20 -15 32t-32 14l-111 10v104h606v-104l-110 -10q-17 -2 -31 -14t-14 -32v-710q0 -192 81 -280t243 -87q310 0 310 367v710q0 20 -13 32t-32 14l-116 10v104h471v-104l-109 -10q-17 -2 -31 -14t-14 -32v-694q0 -297 -134 -425t-427 -128q-522 0 -522 553
zM642 -174q46 0 76 -16t60 -33q80 -49 136 -49q54 0 84 60q8 18 11 38h111q-61 -254 -248 -254q-40 0 -70 15t-84 48t-102 33t-74 -28t-30 -68h-111q44 178 155 234q40 20 86 20z" />
    <glyph glyph-name="uni1E75" unicode="u&#x330;" horiz-adv-x="1270" 
d="M811 113q-180 -138 -339 -138q-152 0 -220 84t-68 250v529h-133v84l301 102h107v-635q0 -101 24 -142q23 -41 61 -63t110 -22t157 35v641h-129v84l299 102h104v-874q1 -18 15 -32t33 -16l90 -6v-96h-412v113zM518 -174q46 0 77 -16t61 -33q80 -49 135 -49t85 60
q8 18 10 38h111q-61 -254 -248 -254q-40 0 -70 15t-84 48t-102 33q-47 0 -73 -28t-31 -68h-111q44 178 155 234q39 20 85 20z" />
    <glyph glyph-name="uni1E76" unicode="U&#x32d;" horiz-adv-x="1493" 
d="M203 520v694q-1 20 -15 32t-32 14l-111 10v104h606v-104l-110 -10q-17 -2 -31 -14t-14 -32v-710q0 -192 81 -280t243 -87q310 0 310 367v710q0 20 -13 32t-32 14l-116 10v104h471v-104l-109 -10q-17 -2 -31 -14t-14 -32v-694q0 -297 -134 -425t-427 -128q-522 0 -522 553
zM938 -503l-178 195l-178 -195h-170l227 351h242l227 -351h-170z" />
    <glyph glyph-name="uni1E77" unicode="u&#x32d;" horiz-adv-x="1270" 
d="M811 113q-180 -138 -339 -138q-152 0 -220 84t-68 250v529h-133v84l301 102h107v-635q0 -101 24 -142q23 -41 61 -63t110 -22t157 35v641h-129v84l299 102h104v-874q1 -18 15 -32t33 -16l90 -6v-96h-412v113zM815 -503l-178 195l-178 -195h-170l227 351h242l227 -351
h-170z" />
    <glyph glyph-name="uni1E7C" unicode="V&#x303;" horiz-adv-x="1446" 
d="M20 1374h584v-104l-115 -15q-17 -3 -21 -17t1 -28l324 -891l313 893q9 38 -29 43l-110 15v104h458v-104l-129 -17l-471 -1286h-194l-479 1284l-132 19v104zM865 1598q-46 0 -76 16t-85 48q-55 34 -102 34q-46 0 -72 -28t-31 -70h-111q44 178 155 234q39 20 85 20t77 -15
t61 -33q79 -48 135 -48q57 0 85 58q8 18 10 38h111q-43 -179 -155 -234q-40 -20 -87 -20z" />
    <glyph glyph-name="uni1E7D" unicode="v&#x303;" horiz-adv-x="1159" 
d="M20 999h539v-96l-94 -6q-19 -2 -27 -15t-2 -30l201 -567l223 567q6 15 -4 29t-27 16l-86 6v96h398v-96l-117 -14l-352 -889h-203l-328 891l-121 12v96zM698 1198q-46 0 -76 16t-85 48q-55 34 -102 34t-73 -28t-30 -70h-111q44 178 155 234q40 20 86 20t76 -15t60 -33
q79 -48 136 -48q56 0 84 58q8 18 11 38h111q-44 -179 -156 -234q-40 -20 -86 -20z" />
    <glyph glyph-name="uni1E7E" unicode="V&#x323;" horiz-adv-x="1446" 
d="M20 1374h584v-104l-115 -15q-17 -3 -21 -17t1 -28l324 -891l313 893q9 38 -29 43l-110 15v104h458v-104l-129 -17l-471 -1286h-194l-479 1284l-132 19v104zM647 -423q-39 40 -39 85q0 77 39 120q39 44 99 44t100 -44q41 -44 41 -89q-1 -45 -11 -71t-29 -44
q-41 -41 -101 -41t-99 40z" />
    <glyph glyph-name="uni1E7F" unicode="v&#x323;" horiz-adv-x="1159" 
d="M20 999h539v-96l-94 -6q-19 -2 -27 -15t-2 -30l201 -567l223 567q6 15 -4 29t-27 16l-86 6v96h398v-96l-117 -14l-352 -889h-203l-328 891l-121 12v96zM480 -423q-39 40 -39 85q0 77 39 120q39 44 99 44t100 -44q41 -44 41 -89t-10 -71t-30 -44q-41 -41 -101 -41t-99 40z
" />
    <glyph glyph-name="Wgrave" unicode="W&#x300;" horiz-adv-x="1978" 
d="M20 1374h558v-104l-121 -13q-28 -3 -19 -43l217 -811l287 971h221l297 -993l205 833q9 38 -29 43l-131 13v104h453v-104l-125 -17l-322 -1286h-194l-320 1065l-313 -1065h-197l-342 1286l-125 17v104zM723 1871q28 32 88 32q59 1 97 -33q14 -12 33 -32l280 -310h-143
l-332 181q-32 17 -47 63q-4 12 -4 40q0 27 28 59z" />
    <glyph glyph-name="wgrave" unicode="w&#x300;" horiz-adv-x="1722" 
d="M20 999h525v-96l-88 -6q-17 -2 -27 -15t-4 -30l160 -563l229 710h225l220 -714l170 567q4 15 -4 29t-25 16l-90 6v96h393v-96l-115 -14l-274 -889h-228l-223 727l-235 -727h-223l-265 891l-121 12v96zM595 1471q28 32 88 32q59 1 97 -33q14 -12 33 -32l280 -310h-143
l-332 181q-32 17 -47 63q-4 12 -4 40q0 27 28 59z" />
    <glyph glyph-name="Wacute" unicode="W&#x301;" horiz-adv-x="1978" 
d="M20 1374h558v-104l-121 -13q-28 -3 -19 -43l217 -811l287 971h221l297 -993l205 833q9 38 -29 43l-131 13v104h453v-104l-125 -17l-322 -1286h-194l-320 1065l-313 -1065h-197l-342 1286l-125 17v104zM1297 1709l-332 -181h-143l280 310q52 54 80 60q28 5 55 5t49 -10
q22 -9 38 -25q26 -28 26 -61q0 -66 -53 -98z" />
    <glyph glyph-name="wacute" unicode="w&#x301;" horiz-adv-x="1722" 
d="M20 999h525v-96l-88 -6q-17 -2 -27 -15t-4 -30l160 -563l229 710h225l220 -714l170 567q4 15 -4 29t-25 16l-90 6v96h393v-96l-115 -14l-274 -889h-228l-223 727l-235 -727h-223l-265 891l-121 12v96zM1169 1309l-332 -181h-143l280 310q52 54 80 60q28 5 55 5t49 -10
q22 -9 38 -25q26 -28 26 -61q0 -66 -53 -98z" />
    <glyph glyph-name="Wdieresis" unicode="W&#x308;" horiz-adv-x="1978" 
d="M20 1374h558v-104l-121 -13q-28 -3 -19 -43l217 -811l287 971h221l297 -993l205 833q9 38 -29 43l-131 13v104h453v-104l-125 -17l-322 -1286h-194l-320 1065l-313 -1065h-197l-342 1286l-125 17v104zM1377 1739q0 -29 -11 -55q-10 -26 -30 -44q-20 -20 -46 -31t-55 -11
t-55 11t-44 31q-20 20 -31 44q-11 26 -11 55t11 55t31 46t44 30q26 11 55 11t55 -11q26 -10 46 -30t30 -46q11 -26 11 -55zM947 1739q0 -29 -11 -55q-10 -26 -30 -44q-20 -20 -46 -31t-55 -11t-55 11t-45 31t-30 44q-11 26 -11 55t11 55t30 46t45 30q26 11 55 11t55 -11
q26 -10 46 -30t30 -46q11 -26 11 -55z" />
    <glyph glyph-name="wdieresis" unicode="w&#x308;" horiz-adv-x="1722" 
d="M20 999h525v-96l-88 -6q-17 -2 -27 -15t-4 -30l160 -563l229 710h225l220 -714l170 567q4 15 -4 29t-25 16l-90 6v96h393v-96l-115 -14l-274 -889h-228l-223 727l-235 -727h-223l-265 891l-121 12v96zM1249 1339q0 -29 -11 -55q-10 -26 -30 -44q-20 -20 -46 -31t-55 -11
t-55 11t-44 31q-20 20 -31 44q-11 26 -11 55t11 55t31 46t44 30q26 11 55 11t55 -11q26 -10 46 -30t30 -46q11 -26 11 -55zM819 1339q0 -29 -11 -55q-10 -26 -30 -44q-20 -20 -46 -31t-55 -11t-55 11t-45 31t-30 44q-11 26 -11 55t11 55t30 46t45 30q26 11 55 11t55 -11
q26 -10 46 -30t30 -46q11 -26 11 -55z" />
    <glyph glyph-name="uni1E86" unicode="W&#x307;" horiz-adv-x="1978" 
d="M20 1374h558v-104l-121 -13q-28 -3 -19 -43l217 -811l287 971h221l297 -993l205 833q9 38 -29 43l-131 13v104h453v-104l-125 -17l-322 -1286h-194l-320 1065l-313 -1065h-197l-342 1286l-125 17v104zM920 1638q-40 40 -39 84q0 77 39 121t99 44t100 -44q41 -44 41 -89
q0 -44 -10 -70t-30 -45q-40 -41 -100 -41t-100 40z" />
    <glyph glyph-name="uni1E87" unicode="w&#x307;" horiz-adv-x="1722" 
d="M20 999h525v-96l-88 -6q-17 -2 -27 -15t-4 -30l160 -563l229 710h225l220 -714l170 567q4 15 -4 29t-25 16l-90 6v96h393v-96l-115 -14l-274 -889h-228l-223 727l-235 -727h-223l-265 891l-121 12v96zM792 1238q-40 40 -39 84q0 77 39 121t99 44t100 -44q41 -44 41 -89
q0 -44 -10 -70t-30 -45q-40 -41 -100 -41t-100 40z" />
    <glyph glyph-name="uni1E88" unicode="W&#x323;" horiz-adv-x="1978" 
d="M20 1374h558v-104l-121 -13q-28 -3 -19 -43l217 -811l287 971h221l297 -993l205 833q9 38 -29 43l-131 13v104h453v-104l-125 -17l-322 -1286h-194l-320 1065l-313 -1065h-197l-342 1286l-125 17v104zM909 -423q-39 40 -39 85q0 77 39 120q39 44 99 44t100 -44
q41 -44 41 -89q-1 -45 -11 -71t-29 -44q-41 -41 -101 -41t-99 40z" />
    <glyph glyph-name="uni1E89" unicode="w&#x323;" horiz-adv-x="1722" 
d="M20 999h525v-96l-88 -6q-17 -2 -27 -15t-4 -30l160 -563l229 710h225l220 -714l170 567q4 15 -4 29t-25 16l-90 6v96h393v-96l-115 -14l-274 -889h-228l-223 727l-235 -727h-223l-265 891l-121 12v96zM762 -423q-39 40 -39 85q0 77 39 120q39 44 99 44t100 -44
q41 -44 41 -89t-10 -71t-30 -44q-41 -41 -101 -41t-99 40z" />
    <glyph glyph-name="uni1E8A" unicode="X&#x307;" horiz-adv-x="1374" 
d="M739 0v104l125 9q14 2 18 16t-8 33l-229 360l-276 -358q-23 -26 1 -44q6 -4 11 -5l123 -11v-104h-484v104l132 17l407 534l-383 596l-129 19v104h600v-104l-108 -10q-11 0 -17 -15t6 -35l205 -323l252 325q14 18 8 34t-20 16l-109 8v104h467v-104l-129 -19l-383 -497
l406 -633l129 -17v-104h-615zM588 1638q-40 40 -40 84q0 77 39 121t99 44t100 -44q41 -44 41 -89q-1 -44 -11 -70t-29 -45q-41 -41 -101 -41q-58 0 -98 40z" />
    <glyph glyph-name="uni1E8B" unicode="x&#x307;" horiz-adv-x="1118" 
d="M580 0v96l79 8q17 2 21 12t-4 23l-162 221l-180 -221q-9 -11 -5 -22t19 -13l72 -8v-96h-400v96l123 17l293 354l-303 422l-108 14v96h503v-96l-59 -6q-17 -2 -21 -14t7 -23l143 -198l164 198q8 11 4 23t-18 14l-66 6v96h381v-96l-115 -14l-272 -336l315 -440l109 -17v-96
h-520zM460 1238q-40 40 -39 84q0 77 39 121t99 44t100 -44q41 -44 41 -89q0 -44 -10 -70t-30 -45q-40 -41 -100 -41t-100 40z" />
    <glyph glyph-name="uni1E8C" unicode="X&#x308;" horiz-adv-x="1374" 
d="M739 0v104l125 9q14 2 18 16t-8 33l-229 360l-276 -358q-23 -26 1 -44q6 -4 11 -5l123 -11v-104h-484v104l132 17l407 534l-383 596l-129 19v104h600v-104l-108 -10q-11 0 -17 -15t6 -35l205 -323l252 325q14 18 8 34t-20 16l-109 8v104h467v-104l-129 -19l-383 -497
l406 -633l129 -17v-104h-615zM1044 1739q0 -29 -11 -55t-31 -44q-20 -20 -45 -31q-26 -11 -55 -11q-28 0 -54 11t-46 31t-30 44q-11 26 -11 55t11 55q10 26 30 46t46 30q26 11 54 11q29 0 55 -11q25 -10 45 -30t31 -46t11 -55zM614 1739q0 -29 -11 -55t-31 -44
q-20 -20 -45 -31q-26 -11 -55 -11t-55 11t-45 31t-30 44q-11 26 -11 55t11 55t30 46t45 30q26 11 55 11t55 -11q25 -10 45 -30t31 -46t11 -55z" />
    <glyph glyph-name="uni1E8D" unicode="x&#x308;" horiz-adv-x="1118" 
d="M580 0v96l79 8q17 2 21 12t-4 23l-162 221l-180 -221q-9 -11 -5 -22t19 -13l72 -8v-96h-400v96l123 17l293 354l-303 422l-108 14v96h503v-96l-59 -6q-17 -2 -21 -14t7 -23l143 -198l164 198q8 11 4 23t-18 14l-66 6v96h381v-96l-115 -14l-272 -336l315 -440l109 -17v-96
h-520zM917 1339q0 -29 -11 -55q-10 -26 -30 -44q-20 -20 -46 -31t-55 -11t-55 11t-44 31q-20 20 -31 44q-11 26 -11 55t11 55t31 46t44 30q26 11 55 11t55 -11q26 -10 46 -30t30 -46q11 -26 11 -55zM487 1339q0 -29 -11 -55q-10 -26 -30 -44q-20 -20 -46 -31t-55 -11t-55 11
t-45 31t-30 44q-11 26 -11 55t11 55t30 46t45 30q26 11 55 11t55 -11q26 -10 46 -30t30 -46q11 -26 11 -55z" />
    <glyph glyph-name="uni1E8E" unicode="Y&#x307;" horiz-adv-x="1358" 
d="M840 160q0 -40 45 -45l125 -11v-104h-635v104l125 11q17 1 32 13t15 32v377l-395 714l-132 19v104h582v-104l-108 -10q-10 0 -16 -15t5 -35l258 -485l279 487q12 18 8 34t-18 16l-125 8v104h452v-104l-118 -19l-379 -657v-434zM578 1638q-40 40 -39 84q0 77 39 121t99 44
t100 -44q41 -44 41 -89q0 -44 -10 -70t-30 -45q-40 -41 -100 -41t-100 40z" />
    <glyph glyph-name="uni1E8F" unicode="y&#x307;" horiz-adv-x="1159" 
d="M257 -473q-126 0 -176 90q-51 90 17 168q29 33 82 57l174 -133q72 68 130 211q14 36 22 62l-365 909l-121 12v96h539v-96l-94 -6q-19 -2 -28 -15t-3 -30l211 -526l217 526q6 15 -4 29t-27 16l-90 6v96h400v-96l-109 -14l-354 -869q-87 -212 -139 -288q-51 -76 -93 -115
q-92 -90 -189 -90zM500 1238q-40 40 -39 84q0 77 39 121t99 44t100 -44q41 -44 41 -89q0 -44 -10 -70t-30 -45q-40 -41 -100 -41t-100 40z" />
    <glyph glyph-name="uni1E90" unicode="Z&#x302;" horiz-adv-x="1190" 
d="M76 0v121l702 1128h-452q-26 0 -29 -24l-37 -224h-149v373h993v-121l-701 -1126h490q25 0 31 23l41 253h149v-403h-1038zM794 1528l-178 195l-178 -195h-170l227 351h242l227 -351h-170z" />
    <glyph glyph-name="uni1E91" unicode="&#x7a;&#x302;" horiz-adv-x="1006" 
d="M66 0v133l524 750h-309q-15 -1 -27 -15t-12 -28l-15 -158h-145v317h829v-114l-536 -764h352q21 1 39 33q4 8 6 16l27 174h141v-344h-874zM691 1128l-178 195l-178 -195h-170l227 351h242l227 -351h-170z" />
    <glyph glyph-name="uni1E92" unicode="Z&#x323;" horiz-adv-x="1190" 
d="M76 0v121l702 1128h-452q-26 0 -29 -24l-37 -224h-149v373h993v-121l-701 -1126h490q25 0 31 23l41 253h149v-403h-1038zM516 -423q-39 40 -39 85q0 77 39 120q39 44 99 44t100 -44q41 -44 41 -89t-10 -71t-30 -44q-41 -41 -101 -41t-99 40z" />
    <glyph glyph-name="uni1E93" unicode="&#x7a;&#x323;" horiz-adv-x="1006" 
d="M66 0v133l524 750h-309q-15 -1 -27 -15t-12 -28l-15 -158h-145v317h829v-114l-536 -764h352q21 1 39 33q4 8 6 16l27 174h141v-344h-874zM413 -423q-39 40 -39 85q0 77 39 120q39 44 99 44t100 -44q41 -44 41 -89q-1 -45 -11 -71t-29 -44q-41 -41 -101 -41t-99 40z" />
    <glyph glyph-name="uni1E94" unicode="Z&#x331;" horiz-adv-x="1190" 
d="M76 0v121l702 1128h-452q-26 0 -29 -24l-37 -224h-149v373h993v-121l-701 -1126h490q25 0 31 23l41 253h149v-403h-1038zM268 -340v165h696v-165h-696z" />
    <glyph glyph-name="uni1E95" unicode="&#x7a;&#x331;" horiz-adv-x="1006" 
d="M66 0v133l524 750h-309q-15 -1 -27 -15t-12 -28l-15 -158h-145v317h829v-114l-536 -764h352q21 1 39 33q4 8 6 16l27 174h141v-344h-874zM165 -340v165h696v-165h-696z" />
    <glyph glyph-name="uni1E96" unicode="h&#x331;" horiz-adv-x="1282" 
d="M817 1024q205 0 262 -185q19 -62 19 -137v-552q0 -18 13 -32t32 -16l86 -6v-96h-516v96l65 6q19 2 32 16t13 32v483q0 127 -81 181q-34 22 -97 22t-186 -27v-659q0 -18 13 -32t32 -16l71 -6v-96h-520v96l84 6q19 2 32 16t13 32v1179h-145v84l313 103h107v-619
q207 127 358 127zM286 -340v165h696v-165h-696z" />
    <glyph glyph-name="uni1E97" unicode="t&#x308;" horiz-adv-x="768" 
d="M459 311q1 -178 159 -178q72 0 142 14v-102q-168 -70 -328 -70q-196 0 -235 140q-13 47 -13 112v641h-135v82l158 94l110 218h142v-263h284v-131h-284v-557zM749 1602q0 -28 -11 -54q-10 -26 -30 -46t-46 -30q-26 -11 -55 -11t-55 11q-26 10 -44 30q-20 20 -31 46t-11 54
q0 29 11 55q11 25 31 45t44 31q26 11 55 11t55 -11t46 -31t30 -45q11 -26 11 -55zM319 1602q0 -28 -11 -54q-10 -26 -30 -46t-46 -30q-26 -11 -55 -11t-55 11q-26 10 -45 30t-30 46t-11 54q0 29 11 55q11 25 30 45t45 31t55 11t55 -11t46 -31t30 -45q11 -26 11 -55z" />
    <glyph glyph-name="uni1E98" unicode="w&#x30a;" horiz-adv-x="1722" 
d="M20 999h525v-96l-88 -6q-17 -2 -27 -15t-4 -30l160 -563l229 710h225l220 -714l170 567q4 15 -4 29t-25 16l-90 6v96h393v-96l-115 -14l-274 -889h-228l-223 727l-235 -727h-223l-265 891l-121 12v96zM1075 1203q-76 -75 -184 -75q-107 0 -183 76t-75 182q0 107 75 183
t183 76t184 -76t76 -183q0 -108 -76 -183zM983 1478q-37 38 -78 38q-39 0 -63 -10t-42 -28t-28 -42t-10 -50q0 -53 38 -91t78 -38t64 10q24 9 40 27q38 38 38 92t-37 92z" />
    <glyph glyph-name="uni1E99" unicode="y&#x30a;" horiz-adv-x="1159" 
d="M257 -473q-126 0 -176 90q-51 90 17 168q29 33 82 57l174 -133q72 68 130 211q14 36 22 62l-365 909l-121 12v96h539v-96l-94 -6q-19 -2 -28 -15t-3 -30l211 -526l217 526q6 15 -4 29t-27 16l-90 6v96h400v-96l-109 -14l-354 -869q-87 -212 -139 -288q-51 -76 -93 -115
q-92 -90 -189 -90zM783 1203q-76 -75 -184 -75q-107 0 -183 76t-75 182q0 107 75 183t183 76t184 -76t76 -183q0 -108 -76 -183zM691 1478q-37 38 -78 38q-39 0 -63 -10t-42 -28t-28 -42t-10 -50q0 -53 38 -91t78 -38t64 10q24 9 40 27q38 38 38 92t-37 92z" />
    <glyph glyph-name="uni1E9B" unicode="&#x17f;&#x307;" horiz-adv-x="711" 
d="M733 1217l-203 190q-49 -76 -59 -194q-4 -49 -4 -119v-944q1 -19 13 -33t32 -15l125 -6v-96h-594v96l104 6q17 2 30 14t13 29v848q0 150 96 303q96 152 258 202q56 18 104 18q46 0 80 -10t64 -28q68 -45 68 -108q0 -112 -127 -153zM324 1678q-40 40 -39 84q0 77 39 121
t99 44t100 -44q41 -44 41 -89q0 -44 -10 -70t-30 -45q-40 -41 -100 -41t-100 40z" />
    <glyph glyph-name="uni1EA0" unicode="A&#x323;" horiz-adv-x="1405" 
d="M829 0v104l121 15q10 2 17 13t2 22l-111 325h-438l-113 -317q-6 -16 6 -29t23 -14l115 -15v-104h-441v104l115 17l459 1286h233l455 -1249q8 -18 16 -26t29 -13l78 -15v-104h-566zM631 1092l-172 -492h348zM595 -423q-39 40 -39 85q0 77 39 120q39 44 99 44t100 -44
q41 -44 41 -89q-1 -45 -11 -71t-29 -44q-41 -41 -101 -41t-99 40z" />
    <glyph glyph-name="uni1EA1" unicode="a&#x323;" horiz-adv-x="1133" 
d="M502 145q88 0 188 45v338q-197 -40 -265 -89q-69 -49 -69 -146q0 -98 87 -136q27 -12 59 -12zM203 707q-92 -7 -92 85q1 44 41 90q40 44 106 76q136 66 321 66t275 -64q110 -78 109 -284v-526q0 -18 13 -32t32 -16l90 -6v-96h-381l-27 102q-187 -127 -356 -127
q-114 0 -191 73t-77 183t30 155q54 81 188 137t408 116v25q0 20 2 52q4 77 -40 135q-43 58 -152 58q-48 0 -88 -8v-194h-211zM450 -423q-39 40 -39 85q0 77 39 120q39 44 99 44t100 -44q41 -44 41 -89t-10 -71t-30 -44q-41 -41 -101 -41t-99 40z" />
    <glyph glyph-name="uni1EA2" unicode="A&#x309;" horiz-adv-x="1405" 
d="M829 0v104l121 15q10 2 17 13t2 22l-111 325h-438l-113 -317q-6 -16 6 -29t23 -14l115 -15v-104h-441v104l115 17l459 1286h233l455 -1249q8 -18 16 -26t29 -13l78 -15v-104h-566zM631 1092l-172 -492h348zM756 1805q0 69 -40 98q-11 8 -31 8t-31 -16l-25 -78
q-28 -12 -44 -12q-28 0 -42 18t-14 37q0 39 48 74t101 35q89 0 136 -45t47 -97q1 -53 -17 -80t-45 -49t-94 -51v-119h-63v160q114 30 114 117z" />
    <glyph glyph-name="uni1EA3" unicode="a&#x309;" horiz-adv-x="1133" 
d="M502 145q88 0 188 45v338q-197 -40 -265 -89q-69 -49 -69 -146q0 -98 87 -136q27 -12 59 -12zM203 707q-92 -7 -92 85q1 44 41 90q40 44 106 76q136 66 321 66t275 -64q110 -78 109 -284v-526q0 -18 13 -32t32 -16l90 -6v-96h-381l-27 102q-187 -127 -356 -127
q-114 0 -191 73t-77 183t30 155q54 81 188 137t408 116v25q0 20 2 52q4 77 -40 135q-43 58 -152 58q-48 0 -88 -8v-194h-211zM611 1405q0 69 -40 98q-11 8 -31 8t-31 -16l-25 -78q-28 -12 -45 -12q-28 0 -41 18q-14 18 -14 37q0 39 48 74t101 35q89 0 136 -45t47 -97
q0 -53 -18 -80t-44 -49q-27 -22 -94 -51v-119h-63v160q114 30 114 117z" />
    <glyph glyph-name="uni1EB8" unicode="E&#x323;" horiz-adv-x="1225" 
d="M53 0v104l113 11q47 5 47 45v1054q-1 20 -15 32t-32 14l-113 10v104h1045v-327h-148l-32 170q-10 38 -37 38h-381v-481h243q13 0 23 13t12 24l19 139h127v-481h-127l-19 139q-2 11 -12 24t-23 13h-243v-522h446q13 0 24 14t13 25l31 213h149v-375h-1110zM508 -423
q-39 40 -39 85q0 77 39 120q39 44 99 44t100 -44q41 -44 41 -89t-10 -71t-30 -44q-41 -41 -101 -41t-99 40z" />
    <glyph glyph-name="uni1EB9" unicode="e&#x323;" horiz-adv-x="1083" 
d="M1020 96q-182 -121 -448 -121q-114 0 -212 40q-98 39 -164 109q-130 138 -130 369q0 230 142 380q142 151 370 151t343 -144q99 -125 99 -323v-49h-672q0 -260 182 -338q59 -26 134 -25q191 0 356 115v-164zM727 668q0 164 -91 216q-32 18 -83 19q-98 0 -147 -83
q-48 -83 -48 -197h369v45zM470 -423q-39 40 -39 85q0 77 39 120q39 44 99 44t100 -44q41 -44 41 -89t-10 -71t-30 -44q-41 -41 -101 -41t-99 40z" />
    <glyph glyph-name="uni1EBA" unicode="E&#x309;" horiz-adv-x="1225" 
d="M53 0v104l113 11q47 5 47 45v1054q-1 20 -15 32t-32 14l-113 10v104h1045v-327h-148l-32 170q-10 38 -37 38h-381v-481h243q13 0 23 13t12 24l19 139h127v-481h-127l-19 139q-2 11 -12 24t-23 13h-243v-522h446q13 0 24 14t13 25l31 213h149v-375h-1110zM669 1805
q0 69 -40 98q-11 8 -31 8t-31 -16l-25 -78q-28 -12 -44 -12q-28 0 -42 18t-14 37q0 39 48 74t101 35q89 0 136 -45t47 -97q0 -53 -18 -80t-44 -49q-27 -22 -94 -51v-119h-63v160q114 30 114 117z" />
    <glyph glyph-name="uni1EBB" unicode="e&#x309;" horiz-adv-x="1083" 
d="M1020 96q-182 -121 -448 -121q-114 0 -212 40q-98 39 -164 109q-130 138 -130 369q0 230 142 380q142 151 370 151t343 -144q99 -125 99 -323v-49h-672q0 -260 182 -338q59 -26 134 -25q191 0 356 115v-164zM727 668q0 164 -91 216q-32 18 -83 19q-98 0 -147 -83
q-48 -83 -48 -197h369v45zM631 1405q0 69 -40 98q-11 8 -31 8t-31 -16l-25 -78q-28 -12 -44 -12q-28 0 -42 18t-14 37q0 39 48 74t101 35q89 0 136 -45t47 -97q0 -53 -18 -80t-44 -49q-27 -22 -94 -51v-119h-63v160q114 30 114 117z" />
    </font>
</defs>
</svg>
