<?xml version="1.0" standalone="no"?>
<!DOCTYPE svg PUBLIC "-//W3C//DTD SVG 1.1//EN" "http://www.w3.org/Graphics/SVG/1.1/DTD/svg11.dtd" >
<svg xmlns="http://www.w3.org/2000/svg">
<metadata>
Created by FontPrep 20130207 at Mon Dec 15 10:38:29 2014
 By admin
Copyright (c) 1997-2013, SIL International (http://scripts.sil.org/)
</metadata>
<defs>
<font id="261a66f9319a57426af4725ad9a3b894" horiz-adv-x='1024' >
  <font-face 
    font-family="CharisSIL-Italic"
    font-weight="400"
    font-style="italic"
    font-stretch="normal"
    units-per-em="2048"
    panose-1="2 0 6 0 6 0 0 9 0 4"
    ascent="1638"
    descent="-410"
    x-height="1012"
    cap-height="1374"
    bbox="-1467 -1092 3332 2699"
    underline-thickness="120"
    underline-position="-230"
    slope="-11"
    unicode-range="U+000D-1D513"
  />
<missing-glyph horiz-adv-x="1400" 
d="M100 1800h1200v-1800h-1200v1800zM150 50h1100v1700h-1100v-1700z" />
    <glyph glyph-name="Agrave" unicode="A&#x300;" horiz-adv-x="1378" 
d="M801 0v86l94 10q45 6 39 39l-62 391h-464l-209 -391q-11 -20 -1 -28t40 -11l94 -10v-86h-441v86l115 12l756 1309h164l221 -1272q3 -21 11 -29t30 -10l94 -10v-86h-481zM766 1155l-303 -532h391zM623 1723q-47 31 -47 88t48 79q18 8 42 9q41 0 63 -12t44 -39l274 -320
h-127z" />
    <glyph glyph-name="Aacute" unicode="A&#x301;" horiz-adv-x="1378" 
d="M801 0v86l94 10q45 6 39 39l-62 391h-464l-209 -391q-11 -20 -1 -28t40 -11l94 -10v-86h-441v86l115 12l756 1309h164l221 -1272q3 -21 11 -29t30 -10l94 -10v-86h-481zM766 1155l-303 -532h391zM1150 1872q27 -27 27 -69t-49 -76l-307 -199h-144l279 320q32 39 63 45
t67 6t64 -27z" />
    <glyph glyph-name="Acircumflex" unicode="A&#x302;" horiz-adv-x="1378" 
d="M801 0v86l94 10q45 6 39 39l-62 391h-464l-209 -391q-11 -20 -1 -28t40 -11l94 -10v-86h-441v86l115 12l756 1309h164l221 -1272q3 -21 11 -29t30 -10l94 -10v-86h-481zM766 1155l-303 -532h391zM1051 1528l-168 189l-246 -189h-143l338 347h161l201 -347h-143z" />
    <glyph glyph-name="Atilde" unicode="A&#x303;" horiz-adv-x="1378" 
d="M801 0v86l94 10q45 6 39 39l-62 391h-464l-209 -391q-11 -20 -1 -28t40 -11l94 -10v-86h-441v86l115 12l756 1309h164l221 -1272q3 -21 11 -29t30 -10l94 -10v-86h-481zM766 1155l-303 -532h391zM646 1664q-36 -28 -50 -66h-109q101 217 295 217q66 0 137 -49
q77 -45 111 -45q49 0 83 27t52 67h109q-106 -217 -297 -217q-61 0 -123 41q-63 41 -92 47q-28 6 -54 6t-62 -28z" />
    <glyph glyph-name="Adieresis" unicode="A&#x308;" horiz-adv-x="1378" 
d="M801 0v86l94 10q45 6 39 39l-62 391h-464l-209 -391q-11 -20 -1 -28t40 -11l94 -10v-86h-441v86l115 12l756 1309h164l221 -1272q3 -21 11 -29t30 -10l94 -10v-86h-481zM766 1155l-303 -532h391zM1205 1713q-1 -23 -9 -44t-23 -37t-35 -25t-44 -9q-47 0 -80 35
q-32 35 -32 68q0 55 34 89t68 35q34 0 54 -9t35 -24q15 -16 23 -36t9 -43zM781 1713q0 -46 -33 -81q-33 -34 -68 -34q-57 0 -90 35q-32 35 -32 67q0 55 33 90t66 35q35 0 55 -9t36 -24q34 -32 33 -79z" />
    <glyph glyph-name="Aring" unicode="A&#x30a;" horiz-adv-x="1378" 
d="M801 0v86l94 10q45 6 39 39l-62 391h-464l-209 -391q-11 -20 -1 -28t40 -11l94 -10v-86h-441v86l115 12l756 1309h164l221 -1272q3 -21 11 -29t30 -10l94 -10v-86h-481zM766 1155l-303 -532h391zM707 1583q-56 55 -56 126q1 127 87 213t185 86t156 -56t57 -127t-24 -122
t-63 -90q-87 -85 -186 -85q-100 0 -156 55zM1030 1805q0 40 -31 68t-71 28q-71 0 -122 -48t-51 -104q1 -56 33 -85t70 -29q38 -1 69 13t53 36t36 52q14 29 14 69z" />
    <glyph glyph-name="Ccedilla" unicode="C&#x327;" horiz-adv-x="1290" 
d="M680 -121q137 0 137 -106t-84 -168t-205 -62q-72 0 -164 25l19 82q88 -23 118 -23q59 0 104.5 22.5t45.5 75.5q0 54 -68 54q-11 0 -65 -27l42 222q-293 44 -377.5 232t-84.5 319t27 237t106 254t267.5 269.5t423.5 121.5q131 0 234.5 -31.5t162.5 -50.5l-55 -319h-121
v190q0 16 -11.5 33t-20.5 21t-23 12t-55.5 24.5t-110.5 16.5t-145 -25t-181.5 -97.5t-193 -250.5t-87.5 -402t118 -340t302 -116q86 0 154 34q12 2 26.5 14.5t20.5 26.5l88 234h121l-55 -332q-246 -82 -422 -82h-3l-16 -92q16 4 31 4z" />
    <glyph glyph-name="Egrave" unicode="E&#x300;" horiz-adv-x="1143" 
d="M995 1067v166q0 23 -8 31t-31 8h-393l-94 -504h274q40 0 52 39l39 137h114l-90 -469h-117l21 146q6 41 -39 41h-277l-106 -560h481q37 0 51 41l64 197h125l-68 -340h-1024v86l119 10q43 3 49 39l213 1102q7 37 -39 41l-114 10v86h991l-62 -307h-131zM518 1723
q-47 31 -47 88q-1 57 47 79q18 8 42 9q41 0 64 -12q22 -12 44 -39l274 -320h-127z" />
    <glyph glyph-name="Eacute" unicode="E&#x301;" horiz-adv-x="1143" 
d="M995 1067v166q0 23 -8 31t-31 8h-393l-94 -504h274q40 0 52 39l39 137h114l-90 -469h-117l21 146q6 41 -39 41h-277l-106 -560h481q37 0 51 41l64 197h125l-68 -340h-1024v86l119 10q43 3 49 39l213 1102q7 37 -39 41l-114 10v86h991l-62 -307h-131zM1045 1872
q27 -27 27 -69t-49 -76l-307 -199h-144l279 320q32 39 63 45q32 6 68 6t63 -27z" />
    <glyph glyph-name="Ecircumflex" unicode="E&#x302;" horiz-adv-x="1143" 
d="M995 1067v166q0 23 -8 31t-31 8h-393l-94 -504h274q40 0 52 39l39 137h114l-90 -469h-117l21 146q6 41 -39 41h-277l-106 -560h481q37 0 51 41l64 197h125l-68 -340h-1024v86l119 10q43 3 49 39l213 1102q7 37 -39 41l-114 10v86h991l-62 -307h-131zM946 1528l-168 189
l-246 -189h-143l338 347h161l201 -347h-143z" />
    <glyph glyph-name="Edieresis" unicode="E&#x308;" horiz-adv-x="1143" 
d="M995 1067v166q0 23 -8 31t-31 8h-393l-94 -504h274q40 0 52 39l39 137h114l-90 -469h-117l21 146q6 41 -39 41h-277l-106 -560h481q37 0 51 41l64 197h125l-68 -340h-1024v86l119 10q43 3 49 39l213 1102q7 37 -39 41l-114 10v86h991l-62 -307h-131zM1100 1713
q0 -23 -8 -44t-24 -37t-36 -25t-43 -9q-47 0 -80 35q-32 35 -32 68q1 55 35 89t67 35q33 0 53 -9t36 -24q16 -16 24 -36t8 -43zM676 1713q0 -46 -33 -81q-33 -34 -68 -34q-57 0 -90 35q-32 35 -32 67q0 55 33 90t66 35q34 0 54 -9t36 -24q34 -32 34 -79z" />
    <glyph glyph-name="Igrave" unicode="I&#x300;" horiz-adv-x="643" 
d="M504 0h-535v86l129 10q33 3 39 39l213 1102q7 37 -39 41l-114 10v86h532v-86l-131 -10q-20 -2 -28 -12t-13 -29l-213 -1102q-7 -36 41 -39l119 -10v-86zM272 1723q-47 31 -47 88q-1 57 47 79q18 8 42 9q41 0 64 -12q22 -12 44 -39l274 -320h-127z" />
    <glyph glyph-name="Iacute" unicode="I&#x301;" horiz-adv-x="643" 
d="M504 0h-535v86l129 10q33 3 39 39l213 1102q7 37 -39 41l-114 10v86h532v-86l-131 -10q-20 -2 -28 -12t-13 -29l-213 -1102q-7 -36 41 -39l119 -10v-86zM799 1872q27 -27 27 -69t-49 -76l-307 -199h-144l279 320q32 39 63 45q32 6 68 6t63 -27z" />
    <glyph glyph-name="Icircumflex" unicode="I&#x302;" horiz-adv-x="643" 
d="M504 0h-535v86l129 10q33 3 39 39l213 1102q7 37 -39 41l-114 10v86h532v-86l-131 -10q-20 -2 -28 -12t-13 -29l-213 -1102q-7 -36 41 -39l119 -10v-86zM700 1528l-168 189l-246 -189h-143l338 347h161l201 -347h-143z" />
    <glyph glyph-name="Idieresis" unicode="I&#x308;" horiz-adv-x="643" 
d="M504 0h-535v86l129 10q33 3 39 39l213 1102q7 37 -39 41l-114 10v86h532v-86l-131 -10q-20 -2 -28 -12t-13 -29l-213 -1102q-7 -36 41 -39l119 -10v-86zM854 1713q0 -23 -8 -44t-24 -37t-36 -25t-43 -9q-47 0 -80 35q-32 35 -32 68q1 55 35 89t67 35q33 0 53 -9t36 -24
q16 -16 24 -36t8 -43zM430 1713q0 -46 -33 -81q-33 -34 -68 -34q-57 0 -90 35q-32 35 -32 67q0 55 33 90t66 35q34 0 54 -9t36 -24q34 -32 34 -79z" />
    <glyph glyph-name="Ntilde" unicode="N&#x303;" horiz-adv-x="1456" 
d="M446 0h-475v86l117 10q42 3 51 39l211 1102q7 37 -39 41l-114 10v86h395v-53l461 -977l174 893q7 37 -39 41l-117 10v86h475v-86l-116 -10q-43 -4 -52 -41l-241 -1237h-148l-516 1087l-182 -952q-7 -36 41 -39l114 -10v-86zM693 1664q-36 -28 -50 -66h-109
q101 217 295 217q66 0 137 -49q78 -45 112 -45q49 0 82 27q34 27 52 67h109q-106 -217 -297 -217q-61 0 -123 41q-63 41 -92 47q-28 6 -54 6t-62 -28z" />
    <glyph glyph-name="Ograve" unicode="O&#x300;" horiz-adv-x="1454" 
d="M1060 96q-173 -129 -413 -129q-239 0 -394 157t-155 396t98 439t272 324t408 124q233 0 386 -159t153 -386t-91 -432t-264 -334zM1182 862q0 194 -95 318q-95 125 -242 125q-146 0 -263 -117t-185 -300q-67 -182 -67 -376t97 -316t241 -122q145 0 268 125
q173 177 229 477q17 92 17 186zM677 1723q-47 31 -47 88t48 79q18 8 42 9q41 0 63 -12t44 -39l274 -320h-127z" />
    <glyph glyph-name="Oacute" unicode="O&#x301;" horiz-adv-x="1454" 
d="M1060 96q-173 -129 -413 -129q-239 0 -394 157t-155 396t98 439t272 324t408 124q233 0 386 -159t153 -386t-91 -432t-264 -334zM1182 862q0 194 -95 318q-95 125 -242 125q-146 0 -263 -117t-185 -300q-67 -182 -67 -376t97 -316t241 -122q145 0 268 125
q173 177 229 477q17 92 17 186zM1204 1872q27 -27 27 -69t-49 -76l-307 -199h-144l279 320q32 39 63 45t67 6t64 -27z" />
    <glyph glyph-name="Ocircumflex" unicode="O&#x302;" horiz-adv-x="1454" 
d="M1060 96q-173 -129 -413 -129q-239 0 -394 157t-155 396t98 439t272 324t408 124q233 0 386 -159t153 -386t-91 -432t-264 -334zM1182 862q0 194 -95 318q-95 125 -242 125q-146 0 -263 -117t-185 -300q-67 -182 -67 -376t97 -316t241 -122q145 0 268 125
q173 177 229 477q17 92 17 186zM1105 1528l-168 189l-246 -189h-143l338 347h161l201 -347h-143z" />
    <glyph glyph-name="Otilde" unicode="O&#x303;" horiz-adv-x="1454" 
d="M1060 96q-173 -129 -413 -129q-239 0 -394 157t-155 396t98 439t272 324t408 124q233 0 386 -159t153 -386t-91 -432t-264 -334zM1182 862q0 194 -95 318q-95 125 -242 125q-146 0 -263 -117t-185 -300q-67 -182 -67 -376t97 -316t241 -122q145 0 268 125
q173 177 229 477q17 92 17 186zM700 1664q-36 -28 -50 -66h-109q101 217 295 217q66 0 137 -49q77 -45 111 -45q49 0 83 27t52 67h109q-106 -217 -297 -217q-61 0 -123 41q-63 41 -92 47q-28 6 -54 6t-62 -28z" />
    <glyph glyph-name="Odieresis" unicode="O&#x308;" horiz-adv-x="1454" 
d="M1060 96q-173 -129 -413 -129q-239 0 -394 157t-155 396t98 439t272 324t408 124q233 0 386 -159t153 -386t-91 -432t-264 -334zM1182 862q0 194 -95 318q-95 125 -242 125q-146 0 -263 -117t-185 -300q-67 -182 -67 -376t97 -316t241 -122q145 0 268 125
q173 177 229 477q17 92 17 186zM1259 1713q-1 -23 -9 -44t-23 -37t-35 -25t-44 -9q-47 0 -80 35q-32 35 -32 68q0 55 34 89t68 35q34 0 54 -9t35 -24q15 -16 23 -36t9 -43zM835 1713q0 -46 -33 -81q-33 -34 -68 -34q-57 0 -90 35q-32 35 -32 67q0 55 33 90t66 35q35 0 55 -9
t36 -24q34 -32 33 -79z" />
    <glyph glyph-name="Ugrave" unicode="U&#x300;" horiz-adv-x="1448" 
d="M650 -33q-216 0 -339 87t-123 272q0 76 27 215l143 696q7 38 -41 41l-114 10v86h532v-86l-121 -10q-44 -5 -49 -41l-141 -696q-23 -115 -23 -181q0 -127 76 -194q76 -66 195 -66q118 0 186 34t112 89q75 94 113 287l144 727q7 38 -41 41l-115 10v86h463v-86l-119 -10
q-44 -5 -49 -41l-158 -799q-64 -344 -352 -439q-98 -32 -206 -32zM684 1723q-47 31 -47 88q-1 57 47 79q18 8 42 9q41 0 64 -12q22 -12 44 -39l274 -320h-127z" />
    <glyph glyph-name="Uacute" unicode="U&#x301;" horiz-adv-x="1448" 
d="M650 -33q-216 0 -339 87t-123 272q0 76 27 215l143 696q7 38 -41 41l-114 10v86h532v-86l-121 -10q-44 -5 -49 -41l-141 -696q-23 -115 -23 -181q0 -127 76 -194q76 -66 195 -66q118 0 186 34t112 89q75 94 113 287l144 727q7 38 -41 41l-115 10v86h463v-86l-119 -10
q-44 -5 -49 -41l-158 -799q-64 -344 -352 -439q-98 -32 -206 -32zM1211 1872q27 -27 27 -69t-49 -76l-307 -199h-144l279 320q32 39 63 45q32 6 68 6t63 -27z" />
    <glyph glyph-name="Ucircumflex" unicode="U&#x302;" horiz-adv-x="1448" 
d="M650 -33q-216 0 -339 87t-123 272q0 76 27 215l143 696q7 38 -41 41l-114 10v86h532v-86l-121 -10q-44 -5 -49 -41l-141 -696q-23 -115 -23 -181q0 -127 76 -194q76 -66 195 -66q118 0 186 34t112 89q75 94 113 287l144 727q7 38 -41 41l-115 10v86h463v-86l-119 -10
q-44 -5 -49 -41l-158 -799q-64 -344 -352 -439q-98 -32 -206 -32zM1112 1528l-168 189l-246 -189h-143l338 347h161l201 -347h-143z" />
    <glyph glyph-name="Udieresis" unicode="U&#x308;" horiz-adv-x="1448" 
d="M650 -33q-216 0 -339 87t-123 272q0 76 27 215l143 696q7 38 -41 41l-114 10v86h532v-86l-121 -10q-44 -5 -49 -41l-141 -696q-23 -115 -23 -181q0 -127 76 -194q76 -66 195 -66q118 0 186 34t112 89q75 94 113 287l144 727q7 38 -41 41l-115 10v86h463v-86l-119 -10
q-44 -5 -49 -41l-158 -799q-64 -344 -352 -439q-98 -32 -206 -32zM1266 1713q0 -23 -8 -44t-24 -37t-36 -25t-43 -9q-47 0 -80 35q-32 35 -32 68q1 55 35 89t67 35q33 0 53 -9t36 -24q16 -16 24 -36t8 -43zM842 1713q0 -46 -33 -81q-33 -34 -68 -34q-57 0 -90 35
q-32 35 -32 67q0 55 33 90t66 35q34 0 54 -9t36 -24q34 -32 34 -79z" />
    <glyph glyph-name="Yacute" unicode="Y&#x301;" horiz-adv-x="1309" 
d="M836 0h-533v86l119 10q39 4 49 39l84 422l-229 692q-8 21 -18 25t-21 6l-115 8v86h530v-86l-131 -8q-17 -2 -25 -13t-3 -28l168 -532l395 532q15 27 6 33q-9 7 -22 8l-127 8v86h493v-86l-115 -8q-25 -3 -53 -31l-520 -674l-86 -440q-12 -35 39 -39l115 -10v-86z
M1139 1872q27 -27 27 -69t-49 -76l-307 -199h-144l279 320q32 39 63 45q32 6 68 6t63 -27z" />
    <glyph glyph-name="agrave" unicode="a&#x300;" 
d="M795 -25q-102 0 -130 80q-9 26 -12 60q-146 -140 -291 -140q-207 1 -273 207q-23 72 -23 155q0 85 17 165t51 154q72 159 205 258q134 98 316 98q79 0 151 -47q20 -13 34 -27l30 49h140q-35 -84 -40 -114q-6 -31 -19 -85t-27 -122q-86 -401 -86 -485q0 -85 88 -85
q18 0 68 14q51 14 67 19v-74q-192 -80 -266 -80zM684 913q-214 0 -326 -195q-90 -159 -90 -343t80 -242q30 -22 72 -22q106 0 233 127l107 565q2 11 -28 61q-30 49 -48 49zM489 1323q-47 31 -47 88t48 79q18 8 42 9q41 0 63 -12t44 -39l274 -320h-127z" />
    <glyph glyph-name="aacute" unicode="a&#x301;" 
d="M795 -25q-102 0 -130 80q-9 26 -12 60q-146 -140 -291 -140q-207 1 -273 207q-23 72 -23 155q0 85 17 165t51 154q72 159 205 258q134 98 316 98q79 0 151 -47q20 -13 34 -27l30 49h140q-35 -84 -40 -114q-6 -31 -19 -85t-27 -122q-86 -401 -86 -485q0 -85 88 -85
q18 0 68 14q51 14 67 19v-74q-192 -80 -266 -80zM684 913q-214 0 -326 -195q-90 -159 -90 -343t80 -242q30 -22 72 -22q106 0 233 127l107 565q2 11 -28 61q-30 49 -48 49zM1016 1472q27 -27 27 -69t-49 -76l-307 -199h-144l279 320q32 39 63 45t67 6t64 -27z" />
    <glyph glyph-name="acircumflex" unicode="a&#x302;" 
d="M795 -25q-102 0 -130 80q-9 26 -12 60q-146 -140 -291 -140q-207 1 -273 207q-23 72 -23 155q0 85 17 165t51 154q72 159 205 258q134 98 316 98q79 0 151 -47q20 -13 34 -27l30 49h140q-35 -84 -40 -114q-6 -31 -19 -85t-27 -122q-86 -401 -86 -485q0 -85 88 -85
q18 0 68 14q51 14 67 19v-74q-192 -80 -266 -80zM684 913q-214 0 -326 -195q-90 -159 -90 -343t80 -242q30 -22 72 -22q106 0 233 127l107 565q2 11 -28 61q-30 49 -48 49zM917 1128l-168 189l-246 -189h-143l338 347h161l201 -347h-143z" />
    <glyph glyph-name="atilde" unicode="a&#x303;" 
d="M795 -25q-102 0 -130 80q-9 26 -12 60q-146 -140 -291 -140q-207 1 -273 207q-23 72 -23 155q0 85 17 165t51 154q72 159 205 258q134 98 316 98q79 0 151 -47q20 -13 34 -27l30 49h140q-35 -84 -40 -114q-6 -31 -19 -85t-27 -122q-86 -401 -86 -485q0 -85 88 -85
q18 0 68 14q51 14 67 19v-74q-192 -80 -266 -80zM684 913q-214 0 -326 -195q-90 -159 -90 -343t80 -242q30 -22 72 -22q106 0 233 127l107 565q2 11 -28 61q-30 49 -48 49zM512 1264q-36 -28 -50 -66h-109q101 217 295 217q66 0 137 -49q77 -45 111 -45q49 0 83 27t52 67
h109q-106 -217 -297 -217q-61 0 -123 41q-63 41 -92 47q-28 6 -54 6t-62 -28z" />
    <glyph glyph-name="adieresis" unicode="a&#x308;" 
d="M795 -25q-102 0 -130 80q-9 26 -12 60q-146 -140 -291 -140q-207 1 -273 207q-23 72 -23 155q0 85 17 165t51 154q72 159 205 258q134 98 316 98q79 0 151 -47q20 -13 34 -27l30 49h140q-35 -84 -40 -114q-6 -31 -19 -85t-27 -122q-86 -401 -86 -485q0 -85 88 -85
q18 0 68 14q51 14 67 19v-74q-192 -80 -266 -80zM684 913q-214 0 -326 -195q-90 -159 -90 -343t80 -242q30 -22 72 -22q106 0 233 127l107 565q2 11 -28 61q-30 49 -48 49zM1071 1313q-1 -23 -9 -44t-23 -37t-35 -25t-44 -9q-47 0 -80 35q-32 35 -32 68q0 55 34 89t68 35
q34 0 54 -9t35 -24q15 -16 23 -36t9 -43zM647 1313q0 -46 -33 -81q-33 -34 -68 -34q-57 0 -90 35q-32 35 -32 67q0 55 33 90t66 35q35 0 55 -9t36 -24q34 -32 33 -79z" />
    <glyph glyph-name="aring" unicode="a&#x30a;" 
d="M795 -25q-102 0 -130 80q-9 26 -12 60q-146 -140 -291 -140q-207 1 -273 207q-23 72 -23 155q0 85 17 165t51 154q72 159 205 258q134 98 316 98q79 0 151 -47q20 -13 34 -27l30 49h140q-35 -84 -40 -114q-6 -31 -19 -85t-27 -122q-86 -401 -86 -485q0 -85 88 -85
q18 0 68 14q51 14 67 19v-74q-192 -80 -266 -80zM684 913q-214 0 -326 -195q-90 -159 -90 -343t80 -242q30 -22 72 -22q106 0 233 127l107 565q2 11 -28 61q-30 49 -48 49zM573 1183q-56 55 -56 126q1 127 87 213t185 86t156 -56t57 -127t-24 -122t-63 -90q-87 -85 -186 -85
q-100 0 -156 55zM896 1405q0 40 -31 68t-71 28q-71 0 -122 -48t-51 -104q1 -56 33 -85t70 -29q38 -1 69 13t53 36t36 52q14 29 14 69z" />
    <glyph glyph-name="ccedilla" unicode="c&#x327;" horiz-adv-x="891" 
d="M471 -121q137 0 137 -106t-84 -168t-205 -62q-72 0 -164 25l19 82q88 -23 118 -23q59 0 104.5 22.5t45.5 75.5q0 54 -68 54q-11 0 -65 -27l42 224q-128 12 -206.5 106t-78.5 274q0 270 138.5 428.5t240.5 193t164 34.5q109 0 162.5 -45t53.5 -97t-35.5 -88t-121.5 -47
l-117 158q-101 -6 -181.5 -112.5t-95 -232.5t-14.5 -172q0 -108 44.5 -187.5t137.5 -79.5q139 0 340 196v-129q-175 -169 -323 -193l-19 -108q16 4 31 4z" />
    <glyph glyph-name="egrave" unicode="e&#x300;" horiz-adv-x="889" 
d="M182 45q-116 93 -116 323t160 432q102 130 238 184q68 26 141 26q126 0 196 -80q53 -60 53 -121q0 -60 -26 -107t-70 -85q-85 -73 -223 -116q-137 -44 -263 -50q-8 -53 -8 -102q0 -106 53 -179q53 -72 132 -72t162 50t196 149v-129q-200 -193 -416 -193q-122 0 -209 70z
M641 882q-31 33 -72 33q-42 0 -73 -18q-32 -18 -60 -48q-55 -57 -95 -147q-41 -90 -60 -174q142 14 261 92q58 38 94 85q36 48 36 96t-31 81zM384 1323q-47 31 -47 88q-1 57 47 79q18 8 42 9q41 0 64 -12q22 -12 44 -39l274 -320h-127z" />
    <glyph glyph-name="eacute" unicode="e&#x301;" horiz-adv-x="889" 
d="M182 45q-116 93 -116 323t160 432q102 130 238 184q68 26 141 26q126 0 196 -80q53 -60 53 -121q0 -60 -26 -107t-70 -85q-85 -73 -223 -116q-137 -44 -263 -50q-8 -53 -8 -102q0 -106 53 -179q53 -72 132 -72t162 50t196 149v-129q-200 -193 -416 -193q-122 0 -209 70z
M641 882q-31 33 -72 33q-42 0 -73 -18q-32 -18 -60 -48q-55 -57 -95 -147q-41 -90 -60 -174q142 14 261 92q58 38 94 85q36 48 36 96t-31 81zM911 1472q27 -27 27 -69t-49 -76l-307 -199h-144l279 320q32 39 63 45q32 6 68 6t63 -27z" />
    <glyph glyph-name="ecircumflex" unicode="e&#x302;" horiz-adv-x="889" 
d="M182 45q-116 93 -116 323t160 432q102 130 238 184q68 26 141 26q126 0 196 -80q53 -60 53 -121q0 -60 -26 -107t-70 -85q-85 -73 -223 -116q-137 -44 -263 -50q-8 -53 -8 -102q0 -106 53 -179q53 -72 132 -72t162 50t196 149v-129q-200 -193 -416 -193q-122 0 -209 70z
M641 882q-31 33 -72 33q-42 0 -73 -18q-32 -18 -60 -48q-55 -57 -95 -147q-41 -90 -60 -174q142 14 261 92q58 38 94 85q36 48 36 96t-31 81zM812 1128l-168 189l-246 -189h-143l338 347h161l201 -347h-143z" />
    <glyph glyph-name="edieresis" unicode="e&#x308;" horiz-adv-x="889" 
d="M182 45q-116 93 -116 323t160 432q102 130 238 184q68 26 141 26q126 0 196 -80q53 -60 53 -121q0 -60 -26 -107t-70 -85q-85 -73 -223 -116q-137 -44 -263 -50q-8 -53 -8 -102q0 -106 53 -179q53 -72 132 -72t162 50t196 149v-129q-200 -193 -416 -193q-122 0 -209 70z
M641 882q-31 33 -72 33q-42 0 -73 -18q-32 -18 -60 -48q-55 -57 -95 -147q-41 -90 -60 -174q142 14 261 92q58 38 94 85q36 48 36 96t-31 81zM966 1313q0 -23 -8 -44t-24 -37t-36 -25t-43 -9q-47 0 -80 35q-32 35 -32 68q1 55 35 89t67 35q33 0 53 -9t36 -24q16 -16 24 -36
t8 -43zM542 1313q0 -46 -33 -81q-33 -34 -68 -34q-57 0 -90 35q-32 35 -32 67q0 55 33 90t66 35q34 0 54 -9t36 -24q34 -32 34 -79z" />
    <glyph glyph-name="igrave" unicode="i&#x300;" horiz-adv-x="545" 
d="M113 35q-31 60 -15 141l131 694l-176 19v59l309 64h84l-155 -819q-8 -41 15 -73t63 -32q39 0 100 23q60 23 70 26v-78q-12 -5 -44 -19t-75 -28q-108 -36 -192 -37q-84 0 -115 60zM164 1323q-47 31 -47 88q-1 57 47 79q18 8 42 9q41 0 64 -12q22 -12 44 -39l274 -320h-127
z" />
    <glyph glyph-name="iacute" unicode="i&#x301;" horiz-adv-x="545" 
d="M113 35q-31 60 -15 141l131 694l-176 19v59l309 64h84l-155 -819q-8 -41 15 -73t63 -32q39 0 100 23q60 23 70 26v-78q-12 -5 -44 -19t-75 -28q-108 -36 -192 -37q-84 0 -115 60zM691 1472q27 -27 27 -69t-49 -76l-307 -199h-144l279 320q32 39 63 45q32 6 68 6t63 -27z
" />
    <glyph glyph-name="icircumflex" unicode="i&#x302;" horiz-adv-x="545" 
d="M113 35q-31 60 -15 141l131 694l-176 19v59l309 64h84l-155 -819q-8 -41 15 -73t63 -32q39 0 100 23q60 23 70 26v-78q-12 -5 -44 -19t-75 -28q-108 -36 -192 -37q-84 0 -115 60zM592 1128l-168 189l-246 -189h-143l338 347h161l201 -347h-143z" />
    <glyph glyph-name="idieresis" unicode="i&#x308;" horiz-adv-x="545" 
d="M113 35q-31 60 -15 141l131 694l-176 19v59l309 64h84l-155 -819q-8 -41 15 -73t63 -32q39 0 100 23q60 23 70 26v-78q-12 -5 -44 -19t-75 -28q-108 -36 -192 -37q-84 0 -115 60zM746 1313q0 -23 -8 -44t-24 -37t-36 -25t-43 -9q-47 0 -80 35q-32 35 -32 68q1 55 35 89
t67 35q33 0 53 -9t36 -24q16 -16 24 -36t8 -43zM322 1313q0 -46 -33 -81q-33 -34 -68 -34q-57 0 -90 35q-32 35 -32 67q0 55 33 90t66 35q34 0 54 -9t36 -24q34 -32 34 -79z" />
    <glyph glyph-name="ntilde" unicode="n&#x303;" horiz-adv-x="1085" 
d="M537 814q-88 -52 -158 -126l-141 -688h-191l178 870l-172 19v59l309 64h82l-38 -191q128 127 276 174q54 17 104 17q112 0 160 -62t23 -200l-109 -578q-9 -50 23 -68q31 -18 69 -18q39 0 125 27l2 -72q-172 -66 -280 -66q-109 0 -151 56q-18 24 -9 65l125 629
q13 74 -17 107q-30 34 -76 34t-134 -52zM457 1264q-36 -28 -50 -66h-109q101 217 295 217q66 0 137 -49q78 -45 112 -45q49 0 82 27q34 27 52 67h109q-106 -217 -297 -217q-61 0 -123 41q-63 41 -92 47q-28 6 -54 6t-62 -28z" />
    <glyph glyph-name="ograve" unicode="o&#x300;" horiz-adv-x="1036" 
d="M973 624q-1 -94 -19 -172q-18 -80 -52 -151q-71 -147 -196 -236q-125 -90 -286 -90t-259 105t-98 282q0 256 151 450q98 126 240 175q72 25 149 25t143 -23t118 -72q50 -49 80 -124t29 -169zM715 844q-51 80 -124 80q-137 0 -229 -172t-92 -386q0 -215 111 -279
q33 -19 77 -19t86 24t76 66t62 97q27 55 46 117q38 123 38 257q0 135 -51 215zM427 1323q-47 31 -47 88t48 79q18 8 42 9q41 0 63 -12t44 -39l274 -320h-127z" />
    <glyph glyph-name="oacute" unicode="o&#x301;" horiz-adv-x="1036" 
d="M973 624q-1 -94 -19 -172q-18 -80 -52 -151q-71 -147 -196 -236q-125 -90 -286 -90t-259 105t-98 282q0 256 151 450q98 126 240 175q72 25 149 25t143 -23t118 -72q50 -49 80 -124t29 -169zM715 844q-51 80 -124 80q-137 0 -229 -172t-92 -386q0 -215 111 -279
q33 -19 77 -19t86 24t76 66t62 97q27 55 46 117q38 123 38 257q0 135 -51 215zM954 1472q27 -27 27 -69t-49 -76l-307 -199h-144l279 320q32 39 63 45t67 6t64 -27z" />
    <glyph glyph-name="ocircumflex" unicode="o&#x302;" horiz-adv-x="1036" 
d="M973 624q-1 -94 -19 -172q-18 -80 -52 -151q-71 -147 -196 -236q-125 -90 -286 -90t-259 105t-98 282q0 256 151 450q98 126 240 175q72 25 149 25t143 -23t118 -72q50 -49 80 -124t29 -169zM715 844q-51 80 -124 80q-137 0 -229 -172t-92 -386q0 -215 111 -279
q33 -19 77 -19t86 24t76 66t62 97q27 55 46 117q38 123 38 257q0 135 -51 215zM855 1128l-168 189l-246 -189h-143l338 347h161l201 -347h-143z" />
    <glyph glyph-name="otilde" unicode="o&#x303;" horiz-adv-x="1036" 
d="M973 624q-1 -94 -19 -172q-18 -80 -52 -151q-71 -147 -196 -236q-125 -90 -286 -90t-259 105t-98 282q0 256 151 450q98 126 240 175q72 25 149 25t143 -23t118 -72q50 -49 80 -124t29 -169zM715 844q-51 80 -124 80q-137 0 -229 -172t-92 -386q0 -215 111 -279
q33 -19 77 -19t86 24t76 66t62 97q27 55 46 117q38 123 38 257q0 135 -51 215zM781 1198q-61 0 -123 41q-63 41 -92 47q-28 6 -46 6q-34 0 -70 -28t-50 -66h-109q101 217 295 217q66 0 137 -49q77 -45 111 -45q49 0 83 27t52 67h109q-106 -217 -297 -217z" />
    <glyph glyph-name="odieresis" unicode="o&#x308;" horiz-adv-x="1036" 
d="M973 624q-1 -94 -19 -172q-18 -80 -52 -151q-71 -147 -196 -236q-125 -90 -286 -90t-259 105t-98 282q0 256 151 450q98 126 240 175q72 25 149 25t143 -23t118 -72q50 -49 80 -124t29 -169zM715 844q-51 80 -124 80q-137 0 -229 -172t-92 -386q0 -215 111 -279
q33 -19 77 -19t86 24t76 66t62 97q27 55 46 117q38 123 38 257q0 135 -51 215zM1009 1313q-1 -23 -9 -44t-23 -37t-35 -25t-44 -9q-47 0 -80 35q-32 35 -32 68q0 55 34 89t68 35q34 0 54 -9t35 -24q15 -16 23 -36t9 -43zM585 1313q0 -46 -33 -81q-33 -34 -68 -34
q-57 0 -90 35q-32 35 -32 67q0 55 33 90t66 35q35 0 55 -9t36 -24q34 -32 33 -79z" />
    <glyph glyph-name="ugrave" unicode="u&#x300;" horiz-adv-x="1079" 
d="M782 -25q-46 -1 -73 19q-29 20 -39 46t-9 51q1 26 1 38q-162 -154 -361 -154q-131 0 -179 80q-49 80 -30 176l133 639l-172 19v59l309 64h84l-163 -781q-11 -49 26 -89q38 -40 77 -40q71 0 149 37q77 37 137 94l155 754h191l-164 -788q-12 -56 18 -86q30 -29 84 -29
q53 0 117 37v-72q-73 -42 -159 -58t-132 -16zM440 1323q-47 31 -47 88q-1 57 47 79q18 8 42 9q41 0 64 -12q22 -12 44 -39l274 -320h-127z" />
    <glyph glyph-name="uacute" unicode="u&#x301;" horiz-adv-x="1079" 
d="M782 -25q-46 -1 -73 19q-29 20 -39 46t-9 51q1 26 1 38q-162 -154 -361 -154q-131 0 -179 80q-49 80 -30 176l133 639l-172 19v59l309 64h84l-163 -781q-11 -49 26 -89q38 -40 77 -40q71 0 149 37q77 37 137 94l155 754h191l-164 -788q-12 -56 18 -86q30 -29 84 -29
q53 0 117 37v-72q-73 -42 -159 -58t-132 -16zM967 1472q27 -27 27 -69t-49 -76l-307 -199h-144l279 320q32 39 63 45q32 6 68 6t63 -27z" />
    <glyph glyph-name="ucircumflex" unicode="u&#x302;" horiz-adv-x="1079" 
d="M782 -25q-46 -1 -73 19q-29 20 -39 46t-9 51q1 26 1 38q-162 -154 -361 -154q-131 0 -179 80q-49 80 -30 176l133 639l-172 19v59l309 64h84l-163 -781q-11 -49 26 -89q38 -40 77 -40q71 0 149 37q77 37 137 94l155 754h191l-164 -788q-12 -56 18 -86q30 -29 84 -29
q53 0 117 37v-72q-73 -42 -159 -58t-132 -16zM868 1128l-168 189l-246 -189h-143l338 347h161l201 -347h-143z" />
    <glyph glyph-name="udieresis" unicode="u&#x308;" horiz-adv-x="1079" 
d="M782 -25q-46 -1 -73 19q-29 20 -39 46t-9 51q1 26 1 38q-162 -154 -361 -154q-131 0 -179 80q-49 80 -30 176l133 639l-172 19v59l309 64h84l-163 -781q-11 -49 26 -89q38 -40 77 -40q71 0 149 37q77 37 137 94l155 754h191l-164 -788q-12 -56 18 -86q30 -29 84 -29
q53 0 117 37v-72q-73 -42 -159 -58t-132 -16zM1022 1313q0 -23 -8 -44t-24 -37t-36 -25t-43 -9q-47 0 -80 35q-32 35 -32 68q1 55 35 89t67 35q33 0 53 -9t36 -24q16 -16 24 -36t8 -43zM598 1313q0 -46 -33 -81q-33 -34 -68 -34q-57 0 -90 35q-32 35 -32 67q0 55 33 90
t66 35q34 0 54 -9t36 -24q34 -32 34 -79z" />
    <glyph glyph-name="yacute" unicode="y&#x301;" horiz-adv-x="1018" 
d="M-118 -427q-46 42 -46 79q0 61 40 96t101 39l119 -119q62 6 126 89t171 280q-89 535 -183 802q-13 37 -20 38l-186 14v51l28 9q20 7 44 15t51 16t68 19t64 11q53 0 93 -60q59 -88 122 -386q28 -134 58 -300l312 746h59l170 -56v-47l-102 -63q-46 -46 -100 -144t-72 -138
q-17 -40 -47 -110q-308 -734 -584 -886q-68 -38 -154 -37q-86 0 -132 42zM925 1472q27 -27 27 -69t-49 -76l-307 -199h-144l279 320q32 39 63 45q32 6 68 6t63 -27z" />
    <glyph glyph-name="ydieresis" unicode="y&#x308;" horiz-adv-x="1018" 
d="M-118 -427q-46 42 -46 79q0 61 40 96t101 39l119 -119q62 6 126 89t171 280q-89 535 -183 802q-13 37 -20 38l-186 14v51l28 9q20 7 44 15t51 16t68 19t64 11q53 0 93 -60q59 -88 122 -386q28 -134 58 -300l312 746h59l170 -56v-47l-102 -63q-46 -46 -100 -144t-72 -138
q-17 -40 -47 -110q-308 -734 -584 -886q-68 -38 -154 -37q-86 0 -132 42zM980 1313q0 -23 -8 -44t-24 -37t-36 -25t-43 -9q-47 0 -80 35q-32 35 -32 68q1 55 35 89t67 35q33 0 53 -9t36 -24q16 -16 24 -36t8 -43zM556 1313q0 -46 -33 -81q-33 -34 -68 -34q-57 0 -90 35
q-32 35 -32 67q0 55 33 90t66 35q34 0 54 -9t36 -24q34 -32 34 -79z" />
    <glyph glyph-name="Amacron" unicode="A&#x304;" horiz-adv-x="1378" 
d="M801 0v86l94 10q45 6 39 39l-62 391h-464l-209 -391q-11 -20 -1 -28t40 -11l94 -10v-86h-441v86l115 12l756 1309h164l221 -1272q3 -21 11 -29t30 -10l94 -10v-86h-481zM766 1155l-303 -532h391zM1169 1600h-620l29 135h617z" />
    <glyph glyph-name="amacron" unicode="a&#x304;" 
d="M795 -25q-102 0 -130 80q-9 26 -12 60q-146 -140 -291 -140q-207 1 -273 207q-23 72 -23 155q0 85 17 165t51 154q72 159 205 258q134 98 316 98q79 0 151 -47q20 -13 34 -27l30 49h140q-35 -84 -40 -114q-6 -31 -19 -85t-27 -122q-86 -401 -86 -485q0 -85 88 -85
q18 0 68 14q51 14 67 19v-74q-192 -80 -266 -80zM684 913q-214 0 -326 -195q-90 -159 -90 -343t80 -242q30 -22 72 -22q106 0 233 127l107 565q2 11 -28 61q-30 49 -48 49zM1035 1200h-620l29 135h617z" />
    <glyph glyph-name="Abreve" unicode="A&#x306;" horiz-adv-x="1378" 
d="M801 0v86l94 10q45 6 39 39l-62 391h-464l-209 -391q-11 -20 -1 -28t40 -11l94 -10v-86h-441v86l115 12l756 1309h164l221 -1272q3 -21 11 -29t30 -10l94 -10v-86h-481zM766 1155l-303 -532h391zM851 1664q195 0 267 159h104q-27 -117 -124 -206q-98 -89 -241 -89
t-209 71q-65 71 -65 159q0 34 4 65h107q4 -83 55 -121q52 -38 102 -38z" />
    <glyph glyph-name="abreve" unicode="a&#x306;" 
d="M795 -25q-102 0 -130 80q-9 26 -12 60q-146 -140 -291 -140q-207 1 -273 207q-23 72 -23 155q0 85 17 165t51 154q72 159 205 258q134 98 316 98q79 0 151 -47q20 -13 34 -27l30 49h140q-35 -84 -40 -114q-6 -31 -19 -85t-27 -122q-86 -401 -86 -485q0 -85 88 -85
q18 0 68 14q51 14 67 19v-74q-192 -80 -266 -80zM684 913q-214 0 -326 -195q-90 -159 -90 -343t80 -242q30 -22 72 -22q106 0 233 127l107 565q2 11 -28 61q-30 49 -48 49zM717 1264q195 0 267 159h104q-27 -117 -124 -206q-98 -89 -241 -89t-209 71q-65 71 -65 159
q0 34 4 65h107q4 -83 55 -121q52 -38 102 -38z" />
    <glyph glyph-name="Aogonek" unicode="A&#x328;" horiz-adv-x="1378" 
d="M984 -252q0 -70 82 -70q34 0 76 11l-18 -117q-61 -14 -102 -14q-82 0 -130 32q-47 32 -47 90q0 97 56 180q56 82 137 140h-237v86l94 10q45 6 39 39l-62 391h-464l-209 -391q-11 -20 -1 -28t40 -11l94 -10v-86h-441v86l115 12l756 1309h164l221 -1272q3 -21 11 -29
t30 -10l94 -10v-86h-134q-164 -124 -164 -252zM766 1155l-303 -532h391z" />
    <glyph glyph-name="aogonek" unicode="a&#x328;" 
d="M684 913q-214 0 -315 -177t-101 -361t55 -224t97 -40q106 0 233 127l107 565q2 11 -28 60.5t-48 49.5zM600 -320q0 165 163 297q-99 12 -110 138q-146 -140 -291 -140q-207 0 -251.5 139t-44.5 223t17 164.5t69.5 197.5t186.5 215t316 98q79 0 125 -30t60 -44l30 49h140
q-35 -84 -40 -114q-6 -30 -19 -84.5t-63 -289t-50 -318.5q0 -85 88 -85q18 0 68.5 14.5t66.5 18.5v-74q-12 -5 -63 -26.5t-105 -35.5q-154 -122 -154 -245q0 -70 82 -70q34 0 76 11l-18 -117q-61 -14 -102 -14q-82 0 -129.5 32t-47.5 90z" />
    <glyph glyph-name="Cacute" unicode="C&#x301;" horiz-adv-x="1290" 
d="M1143 1006v190q1 16 -11 33t-21 21t-23 12t-55 24t-111 17q-69 0 -145 -25q-77 -25 -145 -72q-143 -98 -230 -276t-87 -402t118 -340t302 -116q86 0 154 34q13 2 27 14t20 27l88 234h121l-55 -332q-246 -82 -422 -82q-287 0 -438 181q-132 158 -132 388q0 232 105 428
q167 310 489 410q108 34 194 33q129 0 210 -18t223 -64l-55 -319h-121zM1213 1872q27 -27 27 -69t-49 -76l-307 -199h-144l279 320q32 39 63 45q32 6 68 6t63 -27z" />
    <glyph glyph-name="cacute" unicode="c&#x301;" horiz-adv-x="891" 
d="M66 356q0 270 171 466q106 122 242 167q68 23 130 23q109 0 162 -45q54 -45 54 -97q1 -52 -23 -76q-47 -49 -134 -59l-117 158q-101 -6 -182 -112q-81 -107 -103 -306q-6 -53 -6 -99q0 -108 44 -187q44 -80 138 -80q139 0 340 196v-129q-88 -86 -151 -123
q-129 -78 -264 -78q-134 0 -217 100q-84 101 -84 281zM926 1472q27 -27 27 -69t-49 -76l-307 -199h-144l279 320q32 39 63 45t67 6t64 -27z" />
    <glyph glyph-name="Ccircumflex" unicode="C&#x302;" horiz-adv-x="1290" 
d="M1143 1006v190q1 16 -11 33t-21 21t-23 12t-55 24t-111 17q-69 0 -145 -25q-77 -25 -145 -72q-143 -98 -230 -276t-87 -402t118 -340t302 -116q86 0 154 34q13 2 27 14t20 27l88 234h121l-55 -332q-246 -82 -422 -82q-287 0 -438 181q-132 158 -132 388q0 232 105 428
q167 310 489 410q108 34 194 33q129 0 210 -18t223 -64l-55 -319h-121zM1114 1528l-168 189l-246 -189h-143l338 347h161l201 -347h-143z" />
    <glyph glyph-name="ccircumflex" unicode="c&#x302;" horiz-adv-x="891" 
d="M66 356q0 270 171 466q106 122 242 167q68 23 130 23q109 0 162 -45q54 -45 54 -97q1 -52 -23 -76q-47 -49 -134 -59l-117 158q-101 -6 -182 -112q-81 -107 -103 -306q-6 -53 -6 -99q0 -108 44 -187q44 -80 138 -80q139 0 340 196v-129q-88 -86 -151 -123
q-129 -78 -264 -78q-134 0 -217 100q-84 101 -84 281zM827 1128l-168 189l-246 -189h-143l338 347h161l201 -347h-143z" />
    <glyph glyph-name="Cdotaccent" unicode="C&#x307;" horiz-adv-x="1290" 
d="M1143 1006v190q1 16 -11 33t-21 21t-23 12t-55 24t-111 17q-69 0 -145 -25q-77 -25 -145 -72q-143 -98 -230 -276t-87 -402t118 -340t302 -116q86 0 154 34q13 2 27 14t20 27l88 234h121l-55 -332q-246 -82 -422 -82q-287 0 -438 181q-132 158 -132 388q0 232 105 428
q167 310 489 410q108 34 194 33q129 0 210 -18t223 -64l-55 -319h-121zM1060 1713q0 -24 -9 -45q-9 -20 -25 -36t-36 -25q-21 -9 -45 -9q-25 0 -45 9t-36 25t-24 36q-9 21 -9 45q1 24 9 45t24 37q16 15 36 25q21 10 45 10t45 -9q20 -9 36 -25t25 -38t9 -45z" />
    <glyph glyph-name="cdotaccent" unicode="c&#x307;" horiz-adv-x="891" 
d="M66 356q0 270 171 466q106 122 242 167q68 23 130 23q109 0 162 -45q54 -45 54 -97q1 -52 -23 -76q-47 -49 -134 -59l-117 158q-101 -6 -182 -112q-81 -107 -103 -306q-6 -53 -6 -99q0 -108 44 -187q44 -80 138 -80q139 0 340 196v-129q-88 -86 -151 -123
q-129 -78 -264 -78q-134 0 -217 100q-84 101 -84 281zM773 1313q0 -24 -9 -45q-8 -20 -24 -36t-37 -25t-45 -9t-44 9t-36 25t-25 36q-9 21 -9 45t8 45t24 37q16 15 37 25t45 10t45 -9t37 -25t24 -38q9 -22 9 -45z" />
    <glyph glyph-name="Ccaron" unicode="C&#x30c;" horiz-adv-x="1290" 
d="M1143 1006v190q1 16 -11 33t-21 21t-23 12t-55 24t-111 17q-69 0 -145 -25q-77 -25 -145 -72q-143 -98 -230 -276t-87 -402t118 -340t302 -116q86 0 154 34q13 2 27 14t20 27l88 234h121l-55 -332q-246 -82 -422 -82q-287 0 -438 181q-132 158 -132 388q0 232 105 428
q167 310 489 410q108 34 194 33q129 0 210 -18t223 -64l-55 -319h-121zM990 1528h-162l-201 347h144l170 -189l243 189h146z" />
    <glyph glyph-name="ccaron" unicode="c&#x30c;" horiz-adv-x="891" 
d="M66 356q0 270 171 466q106 122 242 167q68 23 130 23q109 0 162 -45q54 -45 54 -97q1 -52 -23 -76q-47 -49 -134 -59l-117 158q-101 -6 -182 -112q-81 -107 -103 -306q-6 -53 -6 -99q0 -108 44 -187q44 -80 138 -80q139 0 340 196v-129q-88 -86 -151 -123
q-129 -78 -264 -78q-134 0 -217 100q-84 101 -84 281zM703 1128h-162l-201 347h144l170 -189l243 189h146z" />
    <glyph glyph-name="Dcaron" unicode="D&#x30c;" horiz-adv-x="1374" 
d="M1337 860q0 -136 -29 -248t-84 -206q-111 -191 -313 -299q-202 -107 -460 -107h-482v86l127 10q20 2 28 12t13 27l213 1102q7 38 -41 41l-114 10v86h489q466 0 604 -278q50 -100 49 -236zM1116 859q0 242 -144 336q-107 70 -335 77h-74l-225 -1166h149q155 2 273 66
t197 171t119 243t40 273zM903 1528h-162l-201 347h144l170 -189l243 189h146z" />
    <glyph glyph-name="dcaron" unicode="d&#x30c;" horiz-adv-x="1386" 
d="M1311 1548q110 0 110 -128q0 -116 -85.5 -192t-213.5 -100l12 68q86 27 122.5 61.5t51.5 118.5h-108q-17 21 -17 51q0 54 37 87.5t91 33.5zM641 920q-151 0 -264 -165t-113 -401q0 -187 65 -220.5t94 -33.5q55 0 123 48.5t130 119.5l94 539q3 13 -45.5 63t-83.5 50z
M66 342q0 260 160 465t419 205q56 0 98.5 -17.5t55.5 -21.5l69 395l-186 18v62l317 61h84l-233 -1333q-9 -50 19.5 -72t45 -22t38 5.5t45.5 12.5t45 13l28 8v-76q-168 -70 -268 -70q-126 0 -140 60t-14 94q-143 -154 -296 -154t-220 107.5t-67 259.5z" />
    <glyph glyph-name="Emacron" unicode="E&#x304;" horiz-adv-x="1143" 
d="M995 1067v166q0 23 -8 31t-31 8h-393l-94 -504h274q40 0 52 39l39 137h114l-90 -469h-117l21 146q6 41 -39 41h-277l-106 -560h481q37 0 51 41l64 197h125l-68 -340h-1024v86l119 10q43 3 49 39l213 1102q7 37 -39 41l-114 10v86h991l-62 -307h-131zM1064 1600h-620
l29 135h617z" />
    <glyph glyph-name="emacron" unicode="e&#x304;" horiz-adv-x="889" 
d="M182 45q-116 93 -116 323t160 432q102 130 238 184q68 26 141 26q126 0 196 -80q53 -60 53 -121q0 -60 -26 -107t-70 -85q-85 -73 -223 -116q-137 -44 -263 -50q-8 -53 -8 -102q0 -106 53 -179q53 -72 132 -72t162 50t196 149v-129q-200 -193 -416 -193q-122 0 -209 70z
M641 882q-31 33 -72 33q-42 0 -73 -18q-32 -18 -60 -48q-55 -57 -95 -147q-41 -90 -60 -174q142 14 261 92q58 38 94 85q36 48 36 96t-31 81zM930 1200h-620l29 135h617z" />
    <glyph glyph-name="Ebreve" unicode="E&#x306;" horiz-adv-x="1143" 
d="M995 1067v166q0 23 -8 31t-31 8h-393l-94 -504h274q40 0 52 39l39 137h114l-90 -469h-117l21 146q6 41 -39 41h-277l-106 -560h481q37 0 51 41l64 197h125l-68 -340h-1024v86l119 10q43 3 49 39l213 1102q7 37 -39 41l-114 10v86h991l-62 -307h-131zM746 1664
q195 0 267 159h104q-27 -117 -124 -206q-98 -89 -241 -89t-209 71q-65 71 -65 159q0 34 4 65h107q4 -83 55 -121q52 -38 102 -38z" />
    <glyph glyph-name="ebreve" unicode="e&#x306;" horiz-adv-x="889" 
d="M182 45q-116 93 -116 323t160 432q102 130 238 184q68 26 141 26q126 0 196 -80q53 -60 53 -121q0 -60 -26 -107t-70 -85q-85 -73 -223 -116q-137 -44 -263 -50q-8 -53 -8 -102q0 -106 53 -179q53 -72 132 -72t162 50t196 149v-129q-200 -193 -416 -193q-122 0 -209 70z
M641 882q-31 33 -72 33q-42 0 -73 -18q-32 -18 -60 -48q-55 -57 -95 -147q-41 -90 -60 -174q142 14 261 92q58 38 94 85q36 48 36 96t-31 81zM612 1264q195 0 267 159h104q-27 -117 -124 -206q-98 -89 -241 -89t-209 71q-65 71 -65 159q0 34 4 65h107q4 -83 55 -121
q52 -38 102 -38z" />
    <glyph glyph-name="Edotaccent" unicode="E&#x307;" horiz-adv-x="1143" 
d="M995 1067v166q0 23 -8 31t-31 8h-393l-94 -504h274q40 0 52 39l39 137h114l-90 -469h-117l21 146q6 41 -39 41h-277l-106 -560h481q37 0 51 41l64 197h125l-68 -340h-1024v86l119 10q43 3 49 39l213 1102q7 37 -39 41l-114 10v86h991l-62 -307h-131zM892 1713
q0 -24 -9 -45q-9 -20 -25 -36t-36 -25q-21 -9 -45 -9q-25 0 -45 9t-36 25t-24 36q-9 21 -9 45q1 24 9 45t24 37q16 15 36 25q21 10 45 10t45 -9q20 -9 36 -25t25 -38t9 -45z" />
    <glyph glyph-name="edotaccent" unicode="e&#x307;" horiz-adv-x="889" 
d="M182 45q-116 93 -116 323t160 432q102 130 238 184q68 26 141 26q126 0 196 -80q53 -60 53 -121q0 -60 -26 -107t-70 -85q-85 -73 -223 -116q-137 -44 -263 -50q-8 -53 -8 -102q0 -106 53 -179q53 -72 132 -72t162 50t196 149v-129q-200 -193 -416 -193q-122 0 -209 70z
M641 882q-31 33 -72 33q-42 0 -73 -18q-32 -18 -60 -48q-55 -57 -95 -147q-41 -90 -60 -174q142 14 261 92q58 38 94 85q36 48 36 96t-31 81zM758 1313q0 -24 -9 -45q-9 -20 -25 -36t-36 -25q-21 -9 -45 -9q-25 0 -45 9t-36 25t-24 36q-9 21 -9 45q1 24 9 45t24 37
q16 15 36 25q21 10 45 10t45 -9q20 -9 36 -25t25 -38t9 -45z" />
    <glyph glyph-name="Eogonek" unicode="E&#x328;" horiz-adv-x="1143" 
d="M657 -252q0 -70 82 -70q34 0 76 11l-18 -117q-61 -14 -102 -14q-82 0 -130 32q-47 32 -47 90q0 97 56 180q56 82 137 140h-742v86l119 10q43 3 49 39l213 1102q7 37 -39 41l-114 10v86h991l-62 -307h-131v166q0 23 -8 31t-31 8h-393l-94 -504h274q40 0 52 39l39 137h114
l-90 -469h-117l21 146q6 41 -39 41h-277l-106 -560h481q37 0 51 41l64 197h125l-68 -340h-172q-164 -124 -164 -252z" />
    <glyph glyph-name="eogonek" unicode="e&#x328;" horiz-adv-x="889" 
d="M641 882q-31 33 -72 33q-42 0 -73 -18t-72.5 -61.5t-82.5 -134t-60 -173.5q142 13 230 71t124.5 106t36.5 96t-31 81zM272 -320q0 165 163 297q-23 -2 -49 -2t-62.5 6t-95.5 31.5t-110.5 109t-51.5 226.5q0 249 131.5 416t233.5 206.5t174 39.5q126 0 187.5 -70
t61.5 -131q0 -60 -26 -107t-91 -102.5t-202 -99t-263 -49.5q-8 -53 -8 -102q0 -106 53.5 -178.5t131.5 -72.5q79 0 162 50t196 149v-129q-79 -76 -130 -103q-118 -62 -192 -151t-74 -166q0 -70 82 -70q34 0 76 11l-18 -117q-61 -14 -102 -14q-82 0 -129.5 32t-47.5 90z" />
    <glyph glyph-name="Ecaron" unicode="E&#x30c;" horiz-adv-x="1143" 
d="M995 1067v166q0 23 -8 31t-31 8h-393l-94 -504h274q40 0 52 39l39 137h114l-90 -469h-117l21 146q6 41 -39 41h-277l-106 -560h481q37 0 51 41l64 197h125l-68 -340h-1024v86l119 10q43 3 49 39l213 1102q7 37 -39 41l-114 10v86h991l-62 -307h-131zM822 1528h-162
l-201 347h144l170 -189l243 189h146z" />
    <glyph glyph-name="ecaron" unicode="e&#x30c;" horiz-adv-x="889" 
d="M182 45q-116 93 -116 323t160 432q102 130 238 184q68 26 141 26q126 0 196 -80q53 -60 53 -121q0 -60 -26 -107t-70 -85q-85 -73 -223 -116q-137 -44 -263 -50q-8 -53 -8 -102q0 -106 53 -179q53 -72 132 -72t162 50t196 149v-129q-200 -193 -416 -193q-122 0 -209 70z
M641 882q-31 33 -72 33q-42 0 -73 -18q-32 -18 -60 -48q-55 -57 -95 -147q-41 -90 -60 -174q142 14 261 92q58 38 94 85q36 48 36 96t-31 81zM688 1128h-162l-201 347h144l170 -189l243 189h146z" />
    <glyph glyph-name="Gcircumflex" unicode="G&#x302;" horiz-adv-x="1409" 
d="M98 547q0 133 35 247t97 210q121 188 324 296q203 107 427 107q135 -1 273 -39q48 -14 108 -31l-64 -329h-139l6 188q4 46 -39 57q-4 1 -17 8t-51 21t-108 14q-72 0 -148 -25t-146 -72q-147 -98 -240 -277q-92 -179 -92 -406q0 -288 228 -400q83 -41 163 -40q81 0 141 16
t72 19l80 417q3 17 -5 27t-36 12l-113 11v86h528v-86l-116 -11q-43 -4 -52 -39l-92 -481q-268 -80 -480 -80q-80 0 -168 27q-88 26 -152 72q-118 83 -171 216q-53 132 -53 265zM1144 1528l-168 189l-246 -189h-143l338 347h161l201 -347h-143z" />
    <glyph glyph-name="gcircumflex" unicode="g&#x302;" horiz-adv-x="901" 
d="M831 711q0 -84 -36 -157t-97 -122q-122 -98 -311 -98q-20 -43 -23 -79q-2 -36 1 -44l274 -125q106 -47 143 -81q66 -62 66 -144q0 -130 -160 -230t-354 -100t-295 86q-102 86 -102 222q1 137 167 228q50 27 105 46q-10 46 14 121t66 118q-191 84 -191 249t115 288
t299 123q90 0 174 -39q20 -9 29 -15h278v-96h-188q26 -67 26 -151zM295 580q0 -170 129 -170q38 0 80 32t71 82q29 49 45 106t15 100q0 86 -30 141t-78 55q-89 0 -160 -104q-72 -103 -72 -242zM129 -135q0 -85 68 -162q68 -78 193 -78t196 65t71 136q0 72 -104 121l-256 116
q-168 -41 -168 -198zM787 1128l-168 189l-246 -189h-143l338 347h161l201 -347h-143z" />
    <glyph glyph-name="Gbreve" unicode="G&#x306;" horiz-adv-x="1409" 
d="M98 547q0 133 35 247t97 210q121 188 324 296q203 107 427 107q135 -1 273 -39q48 -14 108 -31l-64 -329h-139l6 188q4 46 -39 57q-4 1 -17 8t-51 21t-108 14q-72 0 -148 -25t-146 -72q-147 -98 -240 -277q-92 -179 -92 -406q0 -288 228 -400q83 -41 163 -40q81 0 141 16
t72 19l80 417q3 17 -5 27t-36 12l-113 11v86h528v-86l-116 -11q-43 -4 -52 -39l-92 -481q-268 -80 -480 -80q-80 0 -168 27q-88 26 -152 72q-118 83 -171 216q-53 132 -53 265zM944 1664q195 0 267 159h104q-27 -117 -124 -206q-98 -89 -241 -89t-209 71q-65 71 -65 159
q0 34 4 65h107q4 -83 55 -121q52 -38 102 -38z" />
    <glyph glyph-name="gbreve" unicode="g&#x306;" horiz-adv-x="901" 
d="M831 711q0 -84 -36 -157t-97 -122q-122 -98 -311 -98q-20 -43 -23 -79q-2 -36 1 -44l274 -125q106 -47 143 -81q66 -62 66 -144q0 -130 -160 -230t-354 -100t-295 86q-102 86 -102 222q1 137 167 228q50 27 105 46q-10 46 14 121t66 118q-191 84 -191 249t115 288
t299 123q90 0 174 -39q20 -9 29 -15h278v-96h-188q26 -67 26 -151zM295 580q0 -170 129 -170q38 0 80 32t71 82q29 49 45 106t15 100q0 86 -30 141t-78 55q-89 0 -160 -104q-72 -103 -72 -242zM129 -135q0 -85 68 -162q68 -78 193 -78t196 65t71 136q0 72 -104 121l-256 116
q-168 -41 -168 -198zM587 1264q195 0 267 159h104q-27 -117 -124 -206q-98 -89 -241 -89t-209 71q-65 71 -65 159q0 34 4 65h107q4 -83 55 -121q52 -38 102 -38z" />
    <glyph glyph-name="Gdotaccent" unicode="G&#x307;" horiz-adv-x="1409" 
d="M98 547q0 133 35 247t97 210q121 188 324 296q203 107 427 107q135 -1 273 -39q48 -14 108 -31l-64 -329h-139l6 188q4 46 -39 57q-4 1 -17 8t-51 21t-108 14q-72 0 -148 -25t-146 -72q-147 -98 -240 -277q-92 -179 -92 -406q0 -288 228 -400q83 -41 163 -40q81 0 141 16
t72 19l80 417q3 17 -5 27t-36 12l-113 11v86h528v-86l-116 -11q-43 -4 -52 -39l-92 -481q-268 -80 -480 -80q-80 0 -168 27q-88 26 -152 72q-118 83 -171 216q-53 132 -53 265zM1090 1713q0 -24 -9 -45q-9 -20 -25 -36t-36 -25q-21 -9 -45 -9q-25 0 -45 9t-36 25t-24 36
q-9 21 -9 45q1 24 9 45t24 37q16 15 36 25q21 10 45 10t45 -9q20 -9 36 -25t25 -38t9 -45z" />
    <glyph glyph-name="gdotaccent" unicode="g&#x307;" horiz-adv-x="901" 
d="M831 711q0 -84 -36 -157t-97 -122q-122 -98 -311 -98q-20 -43 -23 -79q-2 -36 1 -44l274 -125q106 -47 143 -81q66 -62 66 -144q0 -130 -160 -230t-354 -100t-295 86q-102 86 -102 222q1 137 167 228q50 27 105 46q-10 46 14 121t66 118q-191 84 -191 249t115 288
t299 123q90 0 174 -39q20 -9 29 -15h278v-96h-188q26 -67 26 -151zM295 580q0 -170 129 -170q38 0 80 32t71 82q29 49 45 106t15 100q0 86 -30 141t-78 55q-89 0 -160 -104q-72 -103 -72 -242zM129 -135q0 -85 68 -162q68 -78 193 -78t196 65t71 136q0 72 -104 121l-256 116
q-168 -41 -168 -198zM733 1313q0 -24 -9 -45q-8 -20 -24 -36t-37 -25t-45 -9t-44 9t-36 25t-25 36q-9 21 -9 45t8 45t24 37q16 15 37 25t45 10t45 -9t37 -25t24 -38q9 -22 9 -45z" />
    <glyph glyph-name="Gcommaaccent" unicode="G&#x327;" horiz-adv-x="1409" 
d="M98 547q0 133 35 247t97 210q121 188 324 296q203 107 427 107q135 -1 273 -39q48 -14 108 -31l-64 -329h-139l6 188q4 46 -39 57q-4 1 -17 8t-51 21t-108 14q-72 0 -148 -25t-146 -72q-147 -98 -240 -277q-92 -179 -92 -406q0 -288 228 -400q83 -41 163 -40q81 0 141 16
t72 19l80 417q3 17 -5 27t-36 12l-113 11v86h528v-86l-116 -11q-43 -4 -52 -39l-92 -481q-268 -80 -480 -80q-80 0 -168 27q-88 26 -152 72q-118 83 -171 216q-53 132 -53 265zM529 -159q37 34 91 34q54 1 83 -33t29 -94q0 -115 -87 -192t-214 -101l12 70q86 25 122 59
q36 35 52 119h-108q-17 19 -17 62q0 42 37 76z" />
    <glyph glyph-name="gcommaaccent" unicode="g&#x327;" horiz-adv-x="901" 
d="M831 711q0 -84 -36 -157t-97 -122q-122 -98 -311 -98q-20 -43 -23 -79q-2 -36 1 -44l274 -125q106 -47 143 -81q66 -62 66 -144q0 -130 -160 -230t-354 -100t-295 86q-102 86 -102 222q1 137 167 228q50 27 105 46q-10 46 14 121t66 118q-191 84 -191 249t115 288
t299 123q90 0 174 -39q20 -9 29 -15h278v-96h-188q26 -67 26 -151zM295 580q0 -170 129 -170q38 0 80 32t71 82q29 49 45 106t15 100q0 86 -30 141t-78 55q-89 0 -160 -104q-72 -103 -72 -242zM129 -135q0 -85 68 -162q68 -78 193 -78t196 65t71 136q0 72 -104 121l-256 116
q-168 -41 -168 -198zM598 1128q-110 0 -110 127q0 116 85 193q85 76 214 100l-12 -68q-86 -27 -122 -61t-52 -119h108q17 -21 17 -51q0 -54 -37 -87q-37 -34 -91 -34z" />
    <glyph glyph-name="Hcircumflex" unicode="H&#x302;" horiz-adv-x="1485" 
d="M1346 0h-535v86l123 10q43 5 49 39l102 533h-639l-102 -533q-7 -35 39 -39l119 -10v-86h-533v86l117 10q42 3 51 39l213 1102q7 38 -41 41l-114 10v86h532v-86l-121 -10q-44 -5 -49 -41l-90 -467h639l90 467q7 38 -41 41l-117 10v86h533v-86l-119 -10q-40 -4 -49 -41
l-213 -1102q-7 -36 41 -39l115 -10v-86zM1120 1528l-168 189l-246 -189h-143l338 347h161l201 -347h-143z" />
    <glyph glyph-name="hcircumflex" unicode="h&#x302;" horiz-adv-x="1073" 
d="M667 877q-59 0 -141 -45t-151 -115l-150 -717h-188l282 1368l-182 18v62l320 61h82l-138 -661q103 114 265 152q52 12 106 12q113 0 168 -71t25 -206l-113 -551q-11 -51 33 -84q44 -32 114 -2q33 14 68 25l2 -72q-198 -76 -288 -76q-91 0 -129 66q-15 26 -7 68l125 604
q16 72 -27 118q-42 46 -76 46zM959 1568l-168 189l-246 -189h-143l338 347h161l201 -347h-143z" />
    <glyph glyph-name="Itilde" unicode="I&#x303;" horiz-adv-x="643" 
d="M504 0h-535v86l129 10q33 3 39 39l213 1102q7 37 -39 41l-114 10v86h532v-86l-131 -10q-20 -2 -28 -12t-13 -29l-213 -1102q-7 -36 41 -39l119 -10v-86zM626 1598q-61 0 -123 41q-63 41 -92 47t-47 6q-34 0 -69 -28q-36 -28 -50 -66h-109q101 217 295 217q66 0 137 -49
q78 -45 112 -45q49 0 82 27q34 27 52 67h109q-106 -217 -297 -217z" />
    <glyph glyph-name="itilde" unicode="i&#x303;" horiz-adv-x="545" 
d="M113 35q-31 60 -15 141l131 694l-176 19v59l309 64h84l-155 -819q-8 -41 15 -73t63 -32q39 0 100 23q60 23 70 26v-78q-12 -5 -44 -19t-75 -28q-108 -36 -192 -37q-84 0 -115 60zM188 1264q-36 -28 -50 -66h-109q101 217 295 217q66 0 137 -49q78 -45 112 -45q49 0 82 27
q34 27 52 67h109q-106 -217 -297 -217q-61 0 -123 41q-63 41 -92 47q-28 6 -54 6t-62 -28z" />
    <glyph glyph-name="Imacron" unicode="I&#x304;" horiz-adv-x="643" 
d="M504 0h-535v86l129 10q33 3 39 39l213 1102q7 37 -39 41l-114 10v86h532v-86l-131 -10q-20 -2 -28 -12t-13 -29l-213 -1102q-7 -36 41 -39l119 -10v-86zM718 1600h-420l29 135h417z" />
    <glyph glyph-name="imacron" unicode="i&#x304;" horiz-adv-x="545" 
d="M113 35q-31 60 -15 141l131 694l-176 19v59l309 64h84l-155 -819q-8 -41 15 -73t63 -32q39 0 100 23q60 23 70 26v-78q-12 -5 -44 -19t-75 -28q-108 -36 -192 -37q-84 0 -115 60zM610 1200h-420l29 135h417z" />
    <glyph glyph-name="Ibreve" unicode="I&#x306;" horiz-adv-x="643" 
d="M504 0h-535v86l129 10q33 3 39 39l213 1102q7 37 -39 41l-114 10v86h532v-86l-131 -10q-20 -2 -28 -12t-13 -29l-213 -1102q-7 -36 41 -39l119 -10v-86zM500 1664q195 0 267 159h104q-27 -117 -124 -206q-98 -89 -241 -89t-209 71q-65 71 -65 159q0 34 4 65h107
q4 -83 55 -121q52 -38 102 -38z" />
    <glyph glyph-name="ibreve" unicode="i&#x306;" horiz-adv-x="545" 
d="M113 35q-31 60 -15 141l131 694l-176 19v59l309 64h84l-155 -819q-8 -41 15 -73t63 -32q39 0 100 23q60 23 70 26v-78q-12 -5 -44 -19t-75 -28q-108 -36 -192 -37q-84 0 -115 60zM392 1264q195 0 267 159h104q-27 -117 -124 -206q-98 -89 -241 -89t-209 71
q-65 71 -65 159q0 34 4 65h107q4 -83 55 -121q52 -38 102 -38z" />
    <glyph glyph-name="Iogonek" unicode="I&#x328;" horiz-adv-x="643" 
d="M193 -252q0 -70 82 -70q34 0 76 11l-18 -117q-61 -14 -102 -14q-82 0 -130 32q-47 32 -47 90q0 97 56 180q56 82 137 140h-278v86l129 10q33 3 39 39l213 1102q7 37 -39 41l-114 10v86h532v-86l-131 -10q-20 -2 -28 -12t-13 -29l-213 -1102q-7 -36 41 -39l119 -10v-86
h-147q-164 -124 -164 -252z" />
    <glyph glyph-name="iogonek" unicode="i&#x328;" horiz-adv-x="545" 
d="M497 1232.5q-33 -34.5 -94 -34.5q-60 0 -92 33.5t-32 67.5q0 57 35.5 92.5t79.5 35.5t66 -10t46 -34t24 -70t-33 -80.5zM78 -320q0 160 160 295q-95 2 -125.5 61t-14.5 140l131 694l-176 19v59l309 64h84l-155 -819q-8 -41 15 -73t63 -32q39 0 99.5 23t70.5 26v-78
q-12 -5 -54 -23.5t-106 -36.5q-162 -127 -162 -251q0 -70 82 -70q34 0 76 11l-18 -117q-61 -14 -102 -14q-82 0 -129.5 32t-47.5 90z" />
    <glyph glyph-name="Idotaccent" unicode="I&#x307;" horiz-adv-x="643" 
d="M504 0h-535v86l129 10q33 3 39 39l213 1102q7 37 -39 41l-114 10v86h532v-86l-131 -10q-20 -2 -28 -12t-13 -29l-213 -1102q-7 -36 41 -39l119 -10v-86zM646 1713q0 -24 -9 -45q-9 -20 -25 -36t-36 -25q-21 -9 -45 -9q-25 0 -45 9t-36 25t-24 36q-9 21 -9 45q1 24 9 45
t24 37q16 15 36 25q21 10 45 10t45 -9q20 -9 36 -25t25 -38t9 -45z" />
    <glyph glyph-name="Jcircumflex" unicode="J&#x302;" horiz-adv-x="958" 
d="M162 129q0 -55 98 -55q107 0 168 105t100 327l136 731q7 37 -39 41l-119 10v86h532v-86l-116 -10q-42 -3 -52 -41l-131 -713q-52 -286 -146 -406q-57 -72 -145 -112t-183 -39q-96 0 -143 8q-46 9 -80 19t-54 20t-29 15l68 350h135v-250zM1022 1528l-168 189l-246 -189
h-143l338 347h161l201 -347h-143z" />
    <glyph glyph-name="jcircumflex" unicode="j&#x302;" horiz-adv-x="559" 
d="M-126 -469q-66 0 -102 31t-36 64q0 70 57 106l205 -56q64 68 108 299l154 895l-172 19v59l309 64h76l-145 -848q-38 -214 -128 -376q-143 -257 -326 -257zM612 1128l-168 189l-246 -189h-143l338 347h161l201 -347h-143z" />
    <glyph glyph-name="Kcommaaccent" unicode="K&#x327;" horiz-adv-x="1343" 
d="M502 0h-535v86l119 10q43 3 49 39l215 1102q7 37 -39 41l-114 10v86h532v-86l-121 -10q-42 -4 -51 -41l-104 -537h34l545 537q12 11 10 25t-24 16l-131 10v86h530v-86l-172 -16l-536 -518l284 -551q36 -72 70 -97q34 -24 81 -24t97 4v-86q-113 -33 -175 -33
q-107 -1 -157 31q-51 32 -98 121l-252 485h-125l-92 -469q-3 -15 6 -26t35 -13l119 -10v-86zM453 -159q37 34 91 34q54 1 83 -33t29 -94q0 -115 -87 -192t-214 -101l12 70q86 25 122 59q36 35 52 119h-108q-17 19 -17 62q0 42 37 76z" />
    <glyph glyph-name="kcommaaccent" unicode="k&#x327;" horiz-adv-x="1042" 
d="M907 86q43 0 111 31v-70q-89 -45 -160 -58q-70 -14 -94 -14q-45 0 -92 29q-46 29 -66 59q-20 29 -38 63t-36 74q-20 40 -40 84t-38 84t-34 75t-27 57l-94 -84l-84 -416h-188l272 1368l-180 18v62l317 61h82l-190 -952l331 342q62 64 103 88q41 25 83 25q73 0 109 -34
q35 -34 34 -73q-2 -39 -34 -77t-104 -62l-70 74q-63 -50 -243 -207q15 -29 69 -166t101 -211t74 -104t55 -48t71 -18zM282 -159q37 34 91 34q54 1 83 -33t29 -94q0 -115 -87 -192t-214 -101l12 70q86 25 122 59q36 35 52 119h-108q-17 19 -17 62q0 42 37 76z" />
    <glyph glyph-name="Lacute" unicode="L&#x301;" horiz-adv-x="1061" 
d="M-31 0v86l119 10q43 3 49 39l213 1102q7 37 -39 41l-114 10v86h532v-86l-121 -10q-44 -4 -51 -41l-217 -1135h403q36 0 52 41l73 236h121l-74 -379h-946zM1005 1872q27 -27 27 -69t-49 -76l-307 -199h-144l279 320q32 39 63 45q32 6 68 6t63 -27z" />
    <glyph glyph-name="lacute" unicode="l&#x301;" horiz-adv-x="543" 
d="M254 -25q-174 0 -174 150q0 31 6 72l225 1171l-182 18v62l320 61h79l-249 -1306q-8 -43 21 -78t70 -35q40 0 100 20t69 21v-78q-187 -78 -285 -78zM797 1952q27 -27 27 -69t-49 -76l-307 -199h-144l279 320q32 39 63 45q32 6 68 6t63 -27z" />
    <glyph glyph-name="Lcommaaccent" unicode="L&#x327;" horiz-adv-x="1061" 
d="M-31 0v86l119 10q43 3 49 39l213 1102q7 37 -39 41l-114 10v86h532v-86l-121 -10q-44 -4 -51 -41l-217 -1135h403q36 0 52 41l73 236h121l-74 -379h-946zM291 -159q37 34 91 34q54 1 83 -33t29 -94q0 -115 -87 -192t-214 -101l12 70q86 25 122 59q36 35 52 119h-108
q-17 19 -17 62q0 42 37 76z" />
    <glyph glyph-name="lcommaaccent" unicode="l&#x327;" horiz-adv-x="543" 
d="M254 -25q-174 0 -174 150q0 31 6 72l225 1171l-182 18v62l320 61h79l-249 -1306q-8 -43 21 -78t70 -35q40 0 100 20t69 21v-78q-187 -78 -285 -78zM47 -159q37 34 91 34q54 1 83 -33t29 -94q0 -115 -87 -192t-214 -101l12 70q86 25 122 59q36 35 52 119h-108
q-17 19 -17 62q0 42 37 76z" />
    <glyph glyph-name="Lcaron" unicode="L&#x30c;" horiz-adv-x="1061" 
d="M-31 0v86l119 10q43 3 49 39l213 1102q7 37 -39 41l-114 10v86h532v-86l-121 -10q-44 -4 -51 -41l-217 -1135h403q36 0 52 41l73 236h121l-74 -379h-946zM977 1458q110 0 110 -128q0 -116 -85.5 -192t-213.5 -100l12 68q86 27 122.5 61.5t51.5 118.5h-108q-17 21 -17 51
q0 54 37 87.5t91 33.5z" />
    <glyph glyph-name="lcaron" unicode="l&#x30c;" horiz-adv-x="839" 
d="M254 -25q-174 0 -174 150q0 31 6 72l225 1171l-182 18v62l320 61h79l-249 -1306q-8 -43 21.5 -78t69.5 -35t100 19.5t69 21.5v-78q-187 -78 -285 -78zM764 1548q110 0 110 -128q0 -116 -85.5 -192t-213.5 -100l12 68q86 27 122.5 61.5t51.5 118.5h-108q-17 21 -17 51
q0 54 37 87.5t91 33.5z" />
    <glyph glyph-name="Nacute" unicode="N&#x301;" horiz-adv-x="1456" 
d="M446 0h-475v86l117 10q42 3 51 39l211 1102q7 37 -39 41l-114 10v86h395v-53l461 -977l174 893q7 37 -39 41l-117 10v86h475v-86l-116 -10q-43 -4 -52 -41l-241 -1237h-148l-516 1087l-182 -952q-7 -36 41 -39l114 -10v-86zM1197 1872q27 -27 27 -69t-49 -76l-307 -199
h-144l279 320q32 39 63 45q32 6 68 6t63 -27z" />
    <glyph glyph-name="nacute" unicode="n&#x301;" horiz-adv-x="1085" 
d="M537 814q-88 -52 -158 -126l-141 -688h-191l178 870l-172 19v59l309 64h82l-38 -191q128 127 276 174q54 17 104 17q112 0 160 -62t23 -200l-109 -578q-9 -50 23 -68q31 -18 69 -18q39 0 125 27l2 -72q-172 -66 -280 -66q-109 0 -151 56q-18 24 -9 65l125 629
q13 74 -17 107q-30 34 -76 34t-134 -52zM961 1472q27 -27 27 -69t-49 -76l-307 -199h-144l279 320q32 39 63 45q32 6 68 6t63 -27z" />
    <glyph glyph-name="Ncommaaccent" unicode="N&#x327;" horiz-adv-x="1456" 
d="M446 0h-475v86l117 10q42 3 51 39l211 1102q7 37 -39 41l-114 10v86h395v-53l461 -977l174 893q7 37 -39 41l-117 10v86h475v-86l-116 -10q-43 -4 -52 -41l-241 -1237h-148l-516 1087l-182 -952q-7 -36 41 -39l114 -10v-86zM483 -159q37 34 91 34q54 1 83 -33t29 -94
q0 -115 -87 -192t-214 -101l12 70q86 25 122 59q36 35 52 119h-108q-17 19 -17 62q0 42 37 76z" />
    <glyph glyph-name="ncommaaccent" unicode="n&#x327;" horiz-adv-x="1085" 
d="M537 814q-88 -52 -158 -126l-141 -688h-191l178 870l-172 19v59l309 64h82l-38 -191q128 127 276 174q54 17 104 17q112 0 160 -62t23 -200l-109 -578q-9 -50 23 -68q31 -18 69 -18q39 0 125 27l2 -72q-172 -66 -280 -66q-109 0 -151 56q-18 24 -9 65l125 629
q13 74 -17 107q-30 34 -76 34t-134 -52zM295 -159q37 34 91 34q54 1 83 -33t29 -94q0 -115 -87 -192t-214 -101l12 70q86 25 122 59q36 35 52 119h-108q-17 19 -17 62q0 42 37 76z" />
    <glyph glyph-name="Ncaron" unicode="N&#x30c;" horiz-adv-x="1456" 
d="M446 0h-475v86l117 10q42 3 51 39l211 1102q7 37 -39 41l-114 10v86h395v-53l461 -977l174 893q7 37 -39 41l-117 10v86h475v-86l-116 -10q-43 -4 -52 -41l-241 -1237h-148l-516 1087l-182 -952q-7 -36 41 -39l114 -10v-86zM974 1528h-162l-201 347h144l170 -189l243 189
h146z" />
    <glyph glyph-name="ncaron" unicode="n&#x30c;" horiz-adv-x="1085" 
d="M537 814q-88 -52 -158 -126l-141 -688h-191l178 870l-172 19v59l309 64h82l-38 -191q128 127 276 174q54 17 104 17q112 0 160 -62t23 -200l-109 -578q-9 -50 23 -68q31 -18 69 -18q39 0 125 27l2 -72q-172 -66 -280 -66q-109 0 -151 56q-18 24 -9 65l125 629
q13 74 -17 107q-30 34 -76 34t-134 -52zM738 1128h-162l-201 347h144l170 -189l243 189h146z" />
    <glyph glyph-name="Omacron" unicode="O&#x304;" horiz-adv-x="1454" 
d="M1060 96q-173 -129 -413 -129q-239 0 -394 157t-155 396t98 439t272 324t408 124q233 0 386 -159t153 -386t-91 -432t-264 -334zM1182 862q0 194 -95 318q-95 125 -242 125q-146 0 -263 -117t-185 -300q-67 -182 -67 -376t97 -316t241 -122q145 0 268 125
q173 177 229 477q17 92 17 186zM1223 1600h-620l29 135h617z" />
    <glyph glyph-name="omacron" unicode="o&#x304;" horiz-adv-x="1036" 
d="M973 624q-1 -94 -19 -172q-18 -80 -52 -151q-71 -147 -196 -236q-125 -90 -286 -90t-259 105t-98 282q0 256 151 450q98 126 240 175q72 25 149 25t143 -23t118 -72q50 -49 80 -124t29 -169zM715 844q-51 80 -124 80q-137 0 -229 -172t-92 -386q0 -215 111 -279
q33 -19 77 -19t86 24t76 66t62 97q27 55 46 117q38 123 38 257q0 135 -51 215zM973 1200h-620l29 135h617z" />
    <glyph glyph-name="Obreve" unicode="O&#x306;" horiz-adv-x="1454" 
d="M1060 96q-173 -129 -413 -129q-239 0 -394 157t-155 396t98 439t272 324t408 124q233 0 386 -159t153 -386t-91 -432t-264 -334zM1182 862q0 194 -95 318q-95 125 -242 125q-146 0 -263 -117t-185 -300q-67 -182 -67 -376t97 -316t241 -122q145 0 268 125
q173 177 229 477q17 92 17 186zM905 1664q195 0 267 159h104q-27 -117 -124 -206q-98 -89 -241 -89t-209 71q-65 71 -65 159q0 34 4 65h107q4 -83 55 -121q52 -38 102 -38z" />
    <glyph glyph-name="obreve" unicode="o&#x306;" horiz-adv-x="1036" 
d="M973 624q-1 -94 -19 -172q-18 -80 -52 -151q-71 -147 -196 -236q-125 -90 -286 -90t-259 105t-98 282q0 256 151 450q98 126 240 175q72 25 149 25t143 -23t118 -72q50 -49 80 -124t29 -169zM715 844q-51 80 -124 80q-137 0 -229 -172t-92 -386q0 -215 111 -279
q33 -19 77 -19t86 24t76 66t62 97q27 55 46 117q38 123 38 257q0 135 -51 215zM655 1264q195 0 267 159h104q-27 -117 -124 -206q-98 -89 -241 -89t-209 71q-65 71 -65 159q0 34 4 65h107q4 -83 55 -121q52 -38 102 -38z" />
    <glyph glyph-name="Ohungarumlaut" unicode="O&#x30b;" horiz-adv-x="1454" 
d="M1060 96q-173 -129 -413 -129q-239 0 -394 157t-155 396t98 439t272 324t408 124q233 0 386 -159t153 -386t-91 -432t-264 -334zM1182 862q0 194 -95 318q-95 125 -242 125q-146 0 -263 -117t-185 -300q-67 -182 -67 -376t97 -316t241 -122q145 0 268 125
q173 177 229 477q17 92 17 186zM1434 1872q27 -27 27 -68t-49 -77l-307 -199h-144l279 320q32 39 63 45t67 6t64 -27zM822 1848q44 51 106 51t90 -26q27 -26 27 -68t-49 -78l-309 -199h-141z" />
    <glyph glyph-name="ohungarumlaut" unicode="o&#x30b;" horiz-adv-x="1036" 
d="M973 624q-1 -94 -19 -172q-18 -80 -52 -151q-71 -147 -196 -236q-125 -90 -286 -90t-259 105t-98 282q0 256 151 450q98 126 240 175q72 25 149 25t143 -23t118 -72q50 -49 80 -124t29 -169zM715 844q-51 80 -124 80q-137 0 -229 -172t-92 -386q0 -215 111 -279
q33 -19 77 -19t86 24t76 66t62 97q27 55 46 117q38 123 38 257q0 135 -51 215zM1184 1472q27 -27 27 -68t-49 -77l-307 -199h-144l279 320q32 39 63 45t67 6t64 -27zM572 1448q44 51 106 51t90 -26q27 -26 27 -68t-49 -78l-309 -199h-141z" />
    <glyph glyph-name="Racute" unicode="R&#x301;" horiz-adv-x="1313" 
d="M506 0h-533v86l117 10q42 3 51 39l209 1102q7 37 -39 41l-114 10v86h548q307 0 407 -156q38 -58 38 -144q0 -159 -116 -266t-302 -159q112 -48 161 -135q23 -41 36 -91q13 -49 28 -107q33 -127 86 -180q53 -52 177 -52v-84q-73 -33 -158 -33q-156 0 -230 108
q-44 65 -76 221q-31 155 -62 205q-64 105 -191 105l-67 -1q-19 -1 -40 -1l-88 -469q-7 -35 39 -39l119 -10v-86zM504 711q307 -1 414 169q40 64 40 150t-32 133q-83 117 -318 109l-45 -2l-104 -559h45zM1077 1872q27 -27 27 -69t-49 -76l-307 -199h-144l279 320q32 39 63 45
q32 6 68 6t63 -27z" />
    <glyph glyph-name="racute" unicode="r&#x301;" horiz-adv-x="766" 
d="M838 882q0 -75 -45 -96q-45 -20 -138 -20l-49 98q-77 -32 -164 -146q-88 -114 -106 -202l-107 -516h-190l176 870l-172 19v59l309 64h82l-43 -207q134 207 316 207q67 0 99 -43t32 -87zM811 1472q27 -27 27 -69t-49 -76l-307 -199h-144l279 320q32 39 63 45q32 6 68 6
t63 -27z" />
    <glyph glyph-name="Rcommaaccent" unicode="R&#x327;" horiz-adv-x="1313" 
d="M506 0h-533v86l117 10q42 3 51 39l209 1102q7 37 -39 41l-114 10v86h548q307 0 407 -156q38 -58 38 -144q0 -159 -116 -266t-302 -159q112 -48 161 -135q23 -41 36 -91q13 -49 28 -107q33 -127 86 -180q53 -52 177 -52v-84q-73 -33 -158 -33q-156 0 -230 108
q-44 65 -76 221q-31 155 -62 205q-64 105 -191 105l-67 -1q-19 -1 -40 -1l-88 -469q-7 -35 39 -39l119 -10v-86zM504 711q307 -1 414 169q40 64 40 150t-32 133q-83 117 -318 109l-45 -2l-104 -559h45zM363 -159q37 34 91 34q54 1 83 -33t29 -94q0 -115 -87 -192t-214 -101
l12 70q86 25 122 59q36 35 52 119h-108q-17 19 -17 62q0 42 37 76z" />
    <glyph glyph-name="rcommaaccent" unicode="r&#x327;" horiz-adv-x="766" 
d="M838 882q0 -75 -45 -96q-45 -20 -138 -20l-49 98q-77 -32 -164 -146q-88 -114 -106 -202l-107 -516h-190l176 870l-172 19v59l309 64h82l-43 -207q134 207 316 207q67 0 99 -43t32 -87zM-14 -159q37 34 91 34q54 1 83 -33t29 -94q0 -115 -87 -192t-214 -101l12 70
q86 25 122 59q36 35 52 119h-108q-17 19 -17 62q0 42 37 76z" />
    <glyph glyph-name="Rcaron" unicode="R&#x30c;" horiz-adv-x="1313" 
d="M506 0h-533v86l117 10q42 3 51 39l209 1102q7 37 -39 41l-114 10v86h548q307 0 407 -156q38 -58 38 -144q0 -159 -116 -266t-302 -159q112 -48 161 -135q23 -41 36 -91q13 -49 28 -107q33 -127 86 -180q53 -52 177 -52v-84q-73 -33 -158 -33q-156 0 -230 108
q-44 65 -76 221q-31 155 -62 205q-64 105 -191 105l-67 -1q-19 -1 -40 -1l-88 -469q-7 -35 39 -39l119 -10v-86zM504 711q307 -1 414 169q40 64 40 150t-32 133q-83 117 -318 109l-45 -2l-104 -559h45zM854 1528h-162l-201 347h144l170 -189l243 189h146z" />
    <glyph glyph-name="rcaron" unicode="r&#x30c;" horiz-adv-x="766" 
d="M838 882q0 -75 -45 -96q-45 -20 -138 -20l-49 98q-77 -32 -164 -146q-88 -114 -106 -202l-107 -516h-190l176 870l-172 19v59l309 64h82l-43 -207q134 207 316 207q67 0 99 -43t32 -87zM588 1128h-162l-201 347h144l170 -189l243 189h146z" />
    <glyph glyph-name="Sacute" unicode="S&#x301;" 
d="M956 420q0 -174 -129 -300q-156 -152 -442 -153q-191 -1 -351 83q-34 18 -44 24l69 329h140l-23 -235q-2 -40 162 -80q55 -13 97 -14q43 0 103 20t106 60q100 84 99 213q0 129 -207 231q-207 101 -285 176q-79 75 -79 180q0 206 151 330q151 123 365 123q215 0 363 -74
l-66 -313h-121l8 207q0 22 -59 51t-121 29q-125 0 -218 -81t-93 -206t198 -220q218 -105 297 -182q80 -78 80 -198zM1038 1872q27 -27 27 -69t-49 -76l-307 -199h-144l279 320q32 39 63 45t67 6t64 -27z" />
    <glyph glyph-name="sacute" unicode="s&#x301;" horiz-adv-x="758" 
d="M174 131q53 -74 128 -74t123 47t48 124q-1 78 -101 162q-30 26 -64 52q-168 129 -169 262q0 139 115 223q115 85 236 85t173 -41t52 -83q0 -110 -148 -118l-92 125q-19 16 -52 16q-59 0 -90 -45q-30 -45 -30 -84q0 -62 48 -115t108 -100q106 -84 155 -143q48 -59 48 -124
q0 -135 -104 -230t-288 -95q-138 0 -212 56t-74 133q0 50 30 80t92 30q64 0 107 -43zM822 1472q27 -27 27 -69t-49 -76l-307 -199h-144l279 320q32 39 63 45t67 6t64 -27z" />
    <glyph glyph-name="Scircumflex" unicode="S&#x302;" 
d="M956 420q0 -174 -129 -300q-156 -152 -442 -153q-191 -1 -351 83q-34 18 -44 24l69 329h140l-23 -235q-2 -40 162 -80q55 -13 97 -14q43 0 103 20t106 60q100 84 99 213q0 129 -207 231q-207 101 -285 176q-79 75 -79 180q0 206 151 330q151 123 365 123q215 0 363 -74
l-66 -313h-121l8 207q0 22 -59 51t-121 29q-125 0 -218 -81t-93 -206t198 -220q218 -105 297 -182q80 -78 80 -198zM939 1528l-168 189l-246 -189h-143l338 347h161l201 -347h-143z" />
    <glyph glyph-name="scircumflex" unicode="s&#x302;" horiz-adv-x="758" 
d="M174 131q53 -74 128 -74t123 47t48 124q-1 78 -101 162q-30 26 -64 52q-168 129 -169 262q0 139 115 223q115 85 236 85t173 -41t52 -83q0 -110 -148 -118l-92 125q-19 16 -52 16q-59 0 -90 -45q-30 -45 -30 -84q0 -62 48 -115t108 -100q106 -84 155 -143q48 -59 48 -124
q0 -135 -104 -230t-288 -95q-138 0 -212 56t-74 133q0 50 30 80t92 30q64 0 107 -43zM723 1128l-168 189l-246 -189h-143l338 347h161l201 -347h-143z" />
    <glyph glyph-name="Scedilla" unicode="S&#x327;" 
d="M504 -121q137 0 137 -106t-84 -168t-205 -62q-72 0 -164 25l19 82q88 -23 118 -23q59 0 104.5 22.5t45.5 75.5q0 54 -68 54q-11 0 -65 -27l40 215q-188 0 -284.5 50.5t-107.5 56.5l69 329h140l-23 -235q-3 -40 107 -67t152 -27q43 0 103 20.5t132.5 82t72.5 190.5
t-207 230.5t-285.5 176.5t-78.5 180q0 206 150.5 329.5t365.5 123.5t363 -74l-66 -313h-121l8 207q0 22 -59 51t-121 29q-125 0 -218 -80.5t-93 -206.5q0 -125 208 -225t287.5 -177.5t79.5 -197.5q0 -174 -128.5 -300t-337.5 -147l-17 -98q16 4 31 4z" />
    <glyph glyph-name="scedilla" unicode="s&#x327;" horiz-adv-x="758" 
d="M343 -121q137 0 137 -106t-84 -168t-205 -62q-72 0 -164 25l19 82q88 -23 118 -23q59 0 104.5 22.5t45.5 75.5q0 54 -68 54q-11 0 -65 -27l42 225q-171 15 -205 83.5t-34 110.5t29 72.5t93 30.5t107 -43l-39 -100q53 -74 128 -74t123 46.5t48 124.5t-65.5 133t-99.5 81
q-168 129 -169 262q0 139 114.5 223.5t236.5 84.5q121 0 173 -41.5t52 -82.5q0 -110 -148 -118l-92 125q-19 16 -52 16q-59 0 -89.5 -45t-30.5 -84q0 -62 48 -114.5t108 -100.5q106 -84 154.5 -143t48.5 -124q0 -66 -39.5 -156t-184.5 -143q-49 -17 -108 -23l-18 -103
q16 4 31 4z" />
    <glyph glyph-name="Scaron" unicode="S&#x30c;" 
d="M956 420q0 -174 -129 -300q-156 -152 -442 -153q-191 -1 -351 83q-34 18 -44 24l69 329h140l-23 -235q-2 -40 162 -80q55 -13 97 -14q43 0 103 20t106 60q100 84 99 213q0 129 -207 231q-207 101 -285 176q-79 75 -79 180q0 206 151 330q151 123 365 123q215 0 363 -74
l-66 -313h-121l8 207q0 22 -59 51t-121 29q-125 0 -218 -81t-93 -206t198 -220q218 -105 297 -182q80 -78 80 -198zM815 1528h-162l-201 347h144l170 -189l243 189h146z" />
    <glyph glyph-name="scaron" unicode="s&#x30c;" horiz-adv-x="758" 
d="M174 131q53 -74 128 -74t123 47t48 124q-1 78 -101 162q-30 26 -64 52q-168 129 -169 262q0 139 115 223q115 85 236 85t173 -41t52 -83q0 -110 -148 -118l-92 125q-19 16 -52 16q-59 0 -90 -45q-30 -45 -30 -84q0 -62 48 -115t108 -100q106 -84 155 -143q48 -59 48 -124
q0 -135 -104 -230t-288 -95q-138 0 -212 56t-74 133q0 50 30 80t92 30q64 0 107 -43zM599 1128h-162l-201 347h144l170 -189l243 189h146z" />
    <glyph glyph-name="uni0162" unicode="T&#x327;" horiz-adv-x="1200" 
d="M490 -351q46 22 46 76t-68 54q-11 0 -65 -27l47 248h-196v86l119 10q43 5 49 39l213 1147h-256q-39 0 -51 -41l-64 -180h-129l60 313h1134l-63 -313h-129l8 180q3 41 -39 41h-264l-213 -1147q-7 -36 41 -39l116 -10v-86h-230l-22 -125q16 4 31 4q137 0 137 -106t-84 -168
t-205 -62q-72 0 -164 25l19 82q88 -23 132 -23t90 22z" />
    <glyph glyph-name="uni0163" unicode="t&#x327;" horiz-adv-x="614" 
d="M321 -121q137 0 137 -106t-84 -168t-205 -62q-72 0 -164 25l19 82q88 -23 118 -23q59 0 104.5 22.5t45.5 75.5q0 54 -68 54q-11 0 -65 -27l44 232q-113 32 -113 168q0 49 8 84l125 622l-129 -12v67l154 68l100 205h125l-41 -234h283v-94h-301l-129 -643
q-17 -78 37.5 -96.5t80.5 -18.5q80 0 213 50v-82q-173 -80 -309 -92l-17 -101q16 4 31 4z" />
    <glyph glyph-name="Tcaron" unicode="T&#x30c;" horiz-adv-x="1200" 
d="M1106 1282h-264l-213 -1147q-7 -36 41 -39l116 -10v-86h-532v86l119 10q43 5 49 39l213 1147h-256q-39 0 -51 -41l-64 -180h-129l60 313h1134l-63 -313h-129l8 180q3 41 -39 41zM856 1528h-162l-201 347h144l170 -189l243 189h146z" />
    <glyph glyph-name="tcaron" unicode="t&#x30c;" horiz-adv-x="614" 
d="M283 -25q-193 0 -193 177q0 49 8 84l125 622l-129 -12v67l154 68l100 205h125l-41 -234h283v-94h-301l-129 -643q-17 -78 37.5 -96.5t80.5 -18.5q80 0 213 50v-82q-110 -51 -199.5 -72t-133.5 -21zM770 1538q110 0 110 -128q0 -116 -85.5 -192t-213.5 -100l12 68
q86 27 122.5 61.5t51.5 118.5h-108q-17 21 -17 51q0 54 37 87.5t91 33.5z" />
    <glyph glyph-name="Utilde" unicode="U&#x303;" horiz-adv-x="1448" 
d="M650 -33q-216 0 -339 87t-123 272q0 76 27 215l143 696q7 38 -41 41l-114 10v86h532v-86l-121 -10q-44 -5 -49 -41l-141 -696q-23 -115 -23 -181q0 -127 76 -194q76 -66 195 -66q118 0 186 34t112 89q75 94 113 287l144 727q7 38 -41 41l-115 10v86h463v-86l-119 -10
q-44 -5 -49 -41l-158 -799q-64 -344 -352 -439q-98 -32 -206 -32zM707 1664q-36 -28 -50 -66h-109q101 217 295 217q66 0 137 -49q78 -45 112 -45q49 0 82 27q34 27 52 67h109q-106 -217 -297 -217q-61 0 -123 41q-63 41 -92 47q-28 6 -54 6t-62 -28z" />
    <glyph glyph-name="utilde" unicode="u&#x303;" horiz-adv-x="1079" 
d="M782 -25q-46 -1 -73 19q-29 20 -39 46t-9 51q1 26 1 38q-162 -154 -361 -154q-131 0 -179 80q-49 80 -30 176l133 639l-172 19v59l309 64h84l-163 -781q-11 -49 26 -89q38 -40 77 -40q71 0 149 37q77 37 137 94l155 754h191l-164 -788q-12 -56 18 -86q30 -29 84 -29
q53 0 117 37v-72q-73 -42 -159 -58t-132 -16zM463 1264q-36 -28 -50 -66h-109q101 217 295 217q66 0 137 -49q78 -45 112 -45q49 0 82 27q34 27 52 67h109q-106 -217 -297 -217q-61 0 -123 41q-63 41 -92 47q-28 6 -54 6t-62 -28z" />
    <glyph glyph-name="Umacron" unicode="U&#x304;" horiz-adv-x="1448" 
d="M650 -33q-216 0 -339 87t-123 272q0 76 27 215l143 696q7 38 -41 41l-114 10v86h532v-86l-121 -10q-44 -5 -49 -41l-141 -696q-23 -115 -23 -181q0 -127 76 -194q76 -66 195 -66q118 0 186 34t112 89q75 94 113 287l144 727q7 38 -41 41l-115 10v86h463v-86l-119 -10
q-44 -5 -49 -41l-158 -799q-64 -344 -352 -439q-98 -32 -206 -32zM1230 1600h-620l29 135h617z" />
    <glyph glyph-name="umacron" unicode="u&#x304;" horiz-adv-x="1079" 
d="M782 -25q-46 -1 -73 19q-29 20 -39 46t-9 51q1 26 1 38q-162 -154 -361 -154q-131 0 -179 80q-49 80 -30 176l133 639l-172 19v59l309 64h84l-163 -781q-11 -49 26 -89q38 -40 77 -40q71 0 149 37q77 37 137 94l155 754h191l-164 -788q-12 -56 18 -86q30 -29 84 -29
q53 0 117 37v-72q-73 -42 -159 -58t-132 -16zM986 1200h-620l29 135h617z" />
    <glyph glyph-name="Ubreve" unicode="U&#x306;" horiz-adv-x="1448" 
d="M650 -33q-216 0 -339 87t-123 272q0 76 27 215l143 696q7 38 -41 41l-114 10v86h532v-86l-121 -10q-44 -5 -49 -41l-141 -696q-23 -115 -23 -181q0 -127 76 -194q76 -66 195 -66q118 0 186 34t112 89q75 94 113 287l144 727q7 38 -41 41l-115 10v86h463v-86l-119 -10
q-44 -5 -49 -41l-158 -799q-64 -344 -352 -439q-98 -32 -206 -32zM912 1664q195 0 267 159h104q-27 -117 -124 -206q-98 -89 -241 -89t-209 71q-65 71 -65 159q0 34 4 65h107q4 -83 55 -121q52 -38 102 -38z" />
    <glyph glyph-name="ubreve" unicode="u&#x306;" horiz-adv-x="1079" 
d="M782 -25q-46 -1 -73 19q-29 20 -39 46t-9 51q1 26 1 38q-162 -154 -361 -154q-131 0 -179 80q-49 80 -30 176l133 639l-172 19v59l309 64h84l-163 -781q-11 -49 26 -89q38 -40 77 -40q71 0 149 37q77 37 137 94l155 754h191l-164 -788q-12 -56 18 -86q30 -29 84 -29
q53 0 117 37v-72q-73 -42 -159 -58t-132 -16zM668 1264q195 0 267 159h104q-27 -117 -124 -206q-98 -89 -241 -89t-209 71q-65 71 -65 159q0 34 4 65h107q4 -83 55 -121q52 -38 102 -38z" />
    <glyph glyph-name="Uring" unicode="U&#x30a;" horiz-adv-x="1448" 
d="M650 -33q-216 0 -339 87t-123 272q0 76 27 215l143 696q7 38 -41 41l-114 10v86h532v-86l-121 -10q-44 -5 -49 -41l-141 -696q-23 -115 -23 -181q0 -127 76 -194q76 -66 195 -66q118 0 186 34t112 89q75 94 113 287l144 727q7 38 -41 41l-115 10v86h463v-86l-119 -10
q-44 -5 -49 -41l-158 -799q-64 -344 -352 -439q-98 -32 -206 -32zM768 1583q-56 55 -56 126q0 127 86 213t186 86q99 0 156 -56t57 -127q1 -71 -23 -122t-64 -90q-87 -85 -186 -85q-100 0 -156 55zM1091 1805q0 40 -31 68q-30 28 -70 28q-71 0 -123 -48q-51 -48 -51 -104
t32 -85t72 -29q38 -1 68 13t52 36t37 52q14 29 14 69z" />
    <glyph glyph-name="uring" unicode="u&#x30a;" horiz-adv-x="1079" 
d="M782 -25q-46 -1 -73 19q-29 20 -39 46t-9 51q1 26 1 38q-162 -154 -361 -154q-131 0 -179 80q-49 80 -30 176l133 639l-172 19v59l309 64h84l-163 -781q-11 -49 26 -89q38 -40 77 -40q71 0 149 37q77 37 137 94l155 754h191l-164 -788q-12 -56 18 -86q30 -29 84 -29
q53 0 117 37v-72q-73 -42 -159 -58t-132 -16zM524 1183q-56 55 -56 126q0 127 86 213t186 86q99 0 156 -56t57 -127q1 -71 -23 -122t-64 -90q-87 -85 -186 -85q-100 0 -156 55zM847 1405q0 40 -31 68q-30 28 -70 28q-71 0 -123 -48q-51 -48 -51 -104t32 -85t72 -29
q38 -1 68 13t52 36t37 52q14 29 14 69z" />
    <glyph glyph-name="Uhungarumlaut" unicode="U&#x30b;" horiz-adv-x="1448" 
d="M650 -33q-216 0 -339 87t-123 272q0 76 27 215l143 696q7 38 -41 41l-114 10v86h532v-86l-121 -10q-44 -5 -49 -41l-141 -696q-23 -115 -23 -181q0 -127 76 -194q76 -66 195 -66q118 0 186 34t112 89q75 94 113 287l144 727q7 38 -41 41l-115 10v86h463v-86l-119 -10
q-44 -5 -49 -41l-158 -799q-64 -344 -352 -439q-98 -32 -206 -32zM1441 1872q27 -27 27 -68t-49 -77l-307 -199h-144l279 320q32 39 63 45q32 6 68 6t63 -27zM829 1848q44 51 106 51t90 -26q27 -26 27 -68t-49 -78l-309 -199h-141z" />
    <glyph glyph-name="uhungarumlaut" unicode="u&#x30b;" horiz-adv-x="1079" 
d="M782 -25q-46 -1 -73 19q-29 20 -39 46t-9 51q1 26 1 38q-162 -154 -361 -154q-131 0 -179 80q-49 80 -30 176l133 639l-172 19v59l309 64h84l-163 -781q-11 -49 26 -89q38 -40 77 -40q71 0 149 37q77 37 137 94l155 754h191l-164 -788q-12 -56 18 -86q30 -29 84 -29
q53 0 117 37v-72q-73 -42 -159 -58t-132 -16zM1197 1472q27 -27 27 -68t-49 -77l-307 -199h-144l279 320q32 39 63 45q32 6 68 6t63 -27zM585 1448q44 51 106 51t90 -26q27 -26 27 -68t-49 -78l-309 -199h-141z" />
    <glyph glyph-name="Uogonek" unicode="U&#x328;" horiz-adv-x="1448" 
d="M551 -320q0 155 154 290q-33 -3 -98 -3t-146.5 19.5t-177 87t-95.5 252.5q0 76 27 215l143 696q7 38 -41 41l-114 10v86h532v-86l-121 -10q-44 -5 -49 -41l-141 -696q-23 -115 -23 -181q0 -127 76.5 -193.5t194.5 -66.5t185.5 33.5t127.5 108.5t98 268l144 727
q7 38 -41 41l-115 10v86h463v-86l-119 -10q-44 -5 -49 -41l-158 -799q-65 -344 -353 -439q-3 -1 -5 -1q-160 -130 -160 -250q0 -70 82 -70q34 0 76 11l-18 -117q-61 -14 -102 -14q-82 0 -129.5 32t-47.5 90z" />
    <glyph glyph-name="uogonek" unicode="u&#x328;" horiz-adv-x="1079" 
d="M579 -320q0 164 166 300q-55 13 -70 49t-14 62t1 38q-162 -154 -361 -154q-131 0 -179.5 80.5t-29.5 175.5l133 639l-172 19v59l309 64h84l-163 -781q-11 -49 26.5 -89t76.5 -40q71 0 148.5 37.5t137.5 93.5l155 754h191l-164 -788q-12 -56 18 -85.5t84 -29.5
q53 0 117 37v-72q-76 -44 -205 -66q-6 -1 -11 -2q-139 -114 -139 -233q0 -70 82 -70q34 0 76 11l-18 -117q-61 -14 -102 -14q-82 0 -129.5 32t-47.5 90z" />
    <glyph glyph-name="Wcircumflex" unicode="W&#x302;" horiz-adv-x="1898" 
d="M170 1374h473v-86l-90 -4q-41 -4 -41 -41l72 -889l481 1020h166l104 -1034l416 903q18 38 -39 41l-92 4v86h428v-86l-121 -12l-614 -1309h-131l-119 1094l-512 -1094h-143l-103 1276q-4 38 -49 41l-86 4v86zM1365 1528l-168 189l-246 -189h-143l338 347h161l201 -347
h-143z" />
    <glyph glyph-name="wcircumflex" unicode="w&#x302;" horiz-adv-x="1438" 
d="M1200 961q51 51 119 51t97 -42q30 -42 30 -82t-22 -100t-58 -130t-83 -144q-47 -75 -97 -148q-79 -117 -173 -241t-116 -150h-127l-45 699q-189 -407 -379 -699h-151l20 48l-57 845l-154 17v57l248 70l92 -6l45 -766q157 287 346 721l154 18l51 -780q166 214 301 522z
M1003 1128l-168 189l-246 -189h-143l338 347h161l201 -347h-143z" />
    <glyph glyph-name="Ycircumflex" unicode="Y&#x302;" horiz-adv-x="1309" 
d="M836 0h-533v86l119 10q39 4 49 39l84 422l-229 692q-8 21 -18 25t-21 6l-115 8v86h530v-86l-131 -8q-17 -2 -25 -13t-3 -28l168 -532l395 532q15 27 6 33q-9 7 -22 8l-127 8v86h493v-86l-115 -8q-25 -3 -53 -31l-520 -674l-86 -440q-12 -35 39 -39l115 -10v-86z
M1040 1528l-168 189l-246 -189h-143l338 347h161l201 -347h-143z" />
    <glyph glyph-name="ycircumflex" unicode="y&#x302;" horiz-adv-x="1018" 
d="M-118 -427q-46 42 -46 79q0 61 40 96t101 39l119 -119q62 6 126 89t171 280q-89 535 -183 802q-13 37 -20 38l-186 14v51l28 9q20 7 44 15t51 16t68 19t64 11q53 0 93 -60q59 -88 122 -386q28 -134 58 -300l312 746h59l170 -56v-47l-102 -63q-46 -46 -100 -144t-72 -138
q-17 -40 -47 -110q-308 -734 -584 -886q-68 -38 -154 -37q-86 0 -132 42zM826 1128l-168 189l-246 -189h-143l338 347h161l201 -347h-143z" />
    <glyph glyph-name="Ydieresis" unicode="Y&#x308;" horiz-adv-x="1309" 
d="M836 0h-533v86l119 10q39 4 49 39l84 422l-229 692q-8 21 -18 25t-21 6l-115 8v86h530v-86l-131 -8q-17 -2 -25 -13t-3 -28l168 -532l395 532q15 27 6 33q-9 7 -22 8l-127 8v86h493v-86l-115 -8q-25 -3 -53 -31l-520 -674l-86 -440q-12 -35 39 -39l115 -10v-86z
M1194 1713q0 -23 -8 -44t-24 -37t-36 -25t-43 -9q-47 0 -80 35q-32 35 -32 68q1 55 35 89t67 35q33 0 53 -9t36 -24q16 -16 24 -36t8 -43zM770 1713q0 -46 -33 -81q-33 -34 -68 -34q-57 0 -90 35q-32 35 -32 67q0 55 33 90t66 35q34 0 54 -9t36 -24q34 -32 34 -79z" />
    <glyph glyph-name="Zacute" unicode="Z&#x301;" horiz-adv-x="1153" 
d="M793 109q40 0 51 41l61 229h139l-71 -379h-1014l18 90l961 1178h-479q-37 0 -49 -39l-56 -180h-141l66 325h940l-19 -92l-964 -1173h557zM1065 1872q27 -27 27 -69t-49 -76l-307 -199h-144l279 320q32 39 63 45q32 6 68 6t63 -27z" />
    <glyph glyph-name="zacute" unicode="&#x7a;&#x301;" horiz-adv-x="911" 
d="M602 313q43 78 122 78q45 0 77 -39q33 -39 33 -95q0 -113 -96 -197q-96 -85 -201 -85q-67 0 -139 30q-139 58 -179 58q-39 0 -59 -20l-51 -96l-142 76l695 813l-181 -39q-108 59 -164 59q-57 0 -99 -34q-14 -11 -21 -25l108 -131q-45 -68 -106 -68q-60 0 -90 38
q-29 38 -29 84q0 104 81 198t208 94q69 0 169 -52t128 -51q28 0 57 15l45 114l154 -80l-695 -813l172 45q21 -8 48 -20q147 -62 197 -42q28 11 45 30t26 30zM871 1472q27 -27 27 -69t-49 -76l-307 -199h-144l279 320q32 39 63 45q32 6 68 6t63 -27z" />
    <glyph glyph-name="Zdotaccent" unicode="Z&#x307;" horiz-adv-x="1153" 
d="M793 109q40 0 51 41l61 229h139l-71 -379h-1014l18 90l961 1178h-479q-37 0 -49 -39l-56 -180h-141l66 325h940l-19 -92l-964 -1173h557zM912 1713q0 -24 -9 -45q-9 -20 -25 -36t-36 -25q-21 -9 -45 -9q-25 0 -45 9t-36 25t-24 36q-9 21 -9 45q1 24 9 45t24 37
q16 15 36 25q21 10 45 10t45 -9q20 -9 36 -25t25 -38t9 -45z" />
    <glyph glyph-name="zdotaccent" unicode="&#x7a;&#x307;" horiz-adv-x="911" 
d="M602 313q43 78 122 78q45 0 77 -39q33 -39 33 -95q0 -113 -96 -197q-96 -85 -201 -85q-67 0 -139 30q-139 58 -179 58q-39 0 -59 -20l-51 -96l-142 76l695 813l-181 -39q-108 59 -164 59q-57 0 -99 -34q-14 -11 -21 -25l108 -131q-45 -68 -106 -68q-60 0 -90 38
q-29 38 -29 84q0 104 81 198t208 94q69 0 169 -52t128 -51q28 0 57 15l45 114l154 -80l-695 -813l172 45q21 -8 48 -20q147 -62 197 -42q28 11 45 30t26 30zM718 1313q0 -24 -9 -45q-9 -20 -25 -36t-36 -25q-21 -9 -45 -9q-25 0 -45 9t-36 25t-24 36q-9 21 -9 45q1 24 9 45
t24 37q16 15 36 25q21 10 45 10t45 -9q20 -9 36 -25t25 -38t9 -45z" />
    <glyph glyph-name="Zcaron" unicode="Z&#x30c;" horiz-adv-x="1153" 
d="M793 109q40 0 51 41l61 229h139l-71 -379h-1014l18 90l961 1178h-479q-37 0 -49 -39l-56 -180h-141l66 325h940l-19 -92l-964 -1173h557zM842 1528h-162l-201 347h144l170 -189l243 189h146z" />
    <glyph glyph-name="zcaron" unicode="&#x7a;&#x30c;" horiz-adv-x="911" 
d="M602 313q43 78 122 78q45 0 77 -39q33 -39 33 -95q0 -113 -96 -197q-96 -85 -201 -85q-67 0 -139 30q-139 58 -179 58q-39 0 -59 -20l-51 -96l-142 76l695 813l-181 -39q-108 59 -164 59q-57 0 -99 -34q-14 -11 -21 -25l108 -131q-45 -68 -106 -68q-60 0 -90 38
q-29 38 -29 84q0 104 81 198t208 94q69 0 169 -52t128 -51q28 0 57 15l45 114l154 -80l-695 -813l172 45q21 -8 48 -20q147 -62 197 -42q28 11 45 30t26 30zM648 1128h-162l-201 347h144l170 -189l243 189h146z" />
    <glyph glyph-name="Ohorn" unicode="O&#x31b;" horiz-adv-x="1567" 
d="M1286 1497q0 87 60 139t139 52q132 0 162 -78.5t30 -136.5q0 -124 -80 -249.5t-206 -193.5q24 -84 24 -184t-23 -207.5t-91 -260.5t-241 -282t-413 -129q-239 0 -394 157t-155 396t98 439t272.5 324t391.5 124q258 0 360 -110.5t134 -174.5q107 74 145 273h-178
q-35 53 -35 102zM1086.5 1180q-95.5 125 -241.5 125t-263.5 -117.5t-184.5 -299.5t-67 -376t96.5 -316t241.5 -122t262 118.5t184.5 300.5t67.5 372t-95.5 315z" />
    <glyph glyph-name="ohorn" unicode="o&#x31b;" horiz-adv-x="1233" 
d="M951 1134q48 42 99 42q85 0 129 -46t44 -111q0 -119 -74.5 -224t-175.5 -154v-27q0 -254 -156.5 -446.5t-390.5 -192.5q-167 0 -265 105t-98 282q0 256 124.5 415.5t231.5 197t179 37.5q143 0 239.5 -72.5t125.5 -216.5q94 88 112 215h-139q-33 36 -33 95t48 101z
M715.5 844q-50.5 80 -124.5 80q-137 0 -229 -172t-92 -386q0 -215 72 -256.5t116 -41.5t86 24.5t76.5 66t61.5 96.5t55.5 147t28.5 227t-50.5 215z" />
    <glyph glyph-name="Uhorn" unicode="U&#x31b;" horiz-adv-x="1660" 
d="M1602 1786q188 0 188 -233q0 -76 -34.5 -169t-131.5 -209.5t-301 -152.5l-115 -584q-65 -344 -257.5 -407.5t-300.5 -63.5q-216 0 -339 87t-123 272q0 76 27 215l143 696q7 38 -41 41l-114 10v86h532v-86l-121 -10q-44 -5 -49 -41l-141 -696q-23 -115 -23 -181
q0 -127 76.5 -193.5t194.5 -66.5t185.5 33.5t127.5 108.5t98 268l144 727q7 38 -41 41l-115 10v86h422v-86l-78 -10q-44 -7 -49 -41l-20 -102q213 48 240.5 170.5t27.5 187.5h-180q-35 52 -35 102q0 87 62 139t141 52z" />
    <glyph glyph-name="uhorn" unicode="u&#x31b;" horiz-adv-x="1323" 
d="M1060 1261.5q50 41.5 117 41.5q66 0 106 -47.5t40 -121.5q0 -131 -106.5 -241.5t-249.5 -153.5l-113 -540q-12 -56 18 -85.5t84 -29.5q53 0 117 37v-72q-73 -42 -159 -58t-132 -16t-73.5 19.5t-38 45t-9.5 51.5t1 38q-162 -154 -361 -154q-131 0 -179.5 80.5t-29.5 175.5
l133 639l-172 19v59l309 64h84l-163 -781q-11 -49 26.5 -89t76.5 -40q71 0 148.5 37.5t137.5 93.5l155 754h191l-31 -149q155 62 193 227h-144q-26 46 -26 100q0 55 50 96.5z" />
    <glyph glyph-name="uni01CD" unicode="A&#x30c;" horiz-adv-x="1378" 
d="M801 0v86l94 10q45 6 39 39l-62 391h-464l-209 -391q-11 -20 -1 -28t40 -11l94 -10v-86h-441v86l115 12l756 1309h164l221 -1272q3 -21 11 -29t30 -10l94 -10v-86h-481zM766 1155l-303 -532h391zM927 1528h-162l-201 347h144l170 -189l243 189h146z" />
    <glyph glyph-name="uni01CE" unicode="a&#x30c;" 
d="M795 -25q-102 0 -130 80q-9 26 -12 60q-146 -140 -291 -140q-207 1 -273 207q-23 72 -23 155q0 85 17 165t51 154q72 159 205 258q134 98 316 98q79 0 151 -47q20 -13 34 -27l30 49h140q-35 -84 -40 -114q-6 -31 -19 -85t-27 -122q-86 -401 -86 -485q0 -85 88 -85
q18 0 68 14q51 14 67 19v-74q-192 -80 -266 -80zM684 913q-214 0 -326 -195q-90 -159 -90 -343t80 -242q30 -22 72 -22q106 0 233 127l107 565q2 11 -28 61q-30 49 -48 49zM793 1128h-162l-201 347h144l170 -189l243 189h146z" />
    <glyph glyph-name="uni01CF" unicode="I&#x30c;" horiz-adv-x="643" 
d="M504 0h-535v86l129 10q33 3 39 39l213 1102q7 37 -39 41l-114 10v86h532v-86l-131 -10q-20 -2 -28 -12t-13 -29l-213 -1102q-7 -36 41 -39l119 -10v-86zM576 1528h-162l-201 347h144l170 -189l243 189h146z" />
    <glyph glyph-name="uni01D0" unicode="i&#x30c;" horiz-adv-x="545" 
d="M113 35q-31 60 -15 141l131 694l-176 19v59l309 64h84l-155 -819q-8 -41 15 -73t63 -32q39 0 100 23q60 23 70 26v-78q-12 -5 -44 -19t-75 -28q-108 -36 -192 -37q-84 0 -115 60zM468 1128h-162l-201 347h144l170 -189l243 189h146z" />
    <glyph glyph-name="uni01D1" unicode="O&#x30c;" horiz-adv-x="1454" 
d="M1060 96q-173 -129 -413 -129q-239 0 -394 157t-155 396t98 439t272 324t408 124q233 0 386 -159t153 -386t-91 -432t-264 -334zM1182 862q0 194 -95 318q-95 125 -242 125q-146 0 -263 -117t-185 -300q-67 -182 -67 -376t97 -316t241 -122q145 0 268 125
q173 177 229 477q17 92 17 186zM981 1528h-162l-201 347h144l170 -189l243 189h146z" />
    <glyph glyph-name="uni01D2" unicode="o&#x30c;" horiz-adv-x="1036" 
d="M973 624q-1 -94 -19 -172q-18 -80 -52 -151q-71 -147 -196 -236q-125 -90 -286 -90t-259 105t-98 282q0 256 151 450q98 126 240 175q72 25 149 25t143 -23t118 -72q50 -49 80 -124t29 -169zM715 844q-51 80 -124 80q-137 0 -229 -172t-92 -386q0 -215 111 -279
q33 -19 77 -19t86 24t76 66t62 97q27 55 46 117q38 123 38 257q0 135 -51 215zM731 1128h-162l-201 347h144l170 -189l243 189h146z" />
    <glyph glyph-name="uni01D3" unicode="U&#x30c;" horiz-adv-x="1448" 
d="M650 -33q-216 0 -339 87t-123 272q0 76 27 215l143 696q7 38 -41 41l-114 10v86h532v-86l-121 -10q-44 -5 -49 -41l-141 -696q-23 -115 -23 -181q0 -127 76 -194q76 -66 195 -66q118 0 186 34t112 89q75 94 113 287l144 727q7 38 -41 41l-115 10v86h463v-86l-119 -10
q-44 -5 -49 -41l-158 -799q-64 -344 -352 -439q-98 -32 -206 -32zM988 1528h-162l-201 347h144l170 -189l243 189h146z" />
    <glyph glyph-name="uni01D4" unicode="u&#x30c;" horiz-adv-x="1079" 
d="M782 -25q-46 -1 -73 19q-29 20 -39 46t-9 51q1 26 1 38q-162 -154 -361 -154q-131 0 -179 80q-49 80 -30 176l133 639l-172 19v59l309 64h84l-163 -781q-11 -49 26 -89q38 -40 77 -40q71 0 149 37q77 37 137 94l155 754h191l-164 -788q-12 -56 18 -86q30 -29 84 -29
q53 0 117 37v-72q-73 -42 -159 -58t-132 -16zM744 1128h-162l-201 347h144l170 -189l243 189h146z" />
    <glyph glyph-name="uni01E2" unicode="&#xc6;&#x304;" horiz-adv-x="1917" 
d="M1769 1067v166q1 23 -7 31t-31 8h-369l-98 -504h256q38 0 49 39l39 137h116l-92 -469h-114l18 146q6 41 -39 41h-254l-108 -560h462q34 0 50 41l63 197h125l-66 -340h-1001v86l125 10q33 3 39 39l76 383h-461l-316 -383q-11 -12 1 -24t38 -15l88 -10v-86h-467v86l99 10
q17 2 51 39l899 1102q10 11 8 25t-14 16l-115 10v86h1143l-61 -307h-132zM633 627h395l121 626zM1599 1600h-620l29 135h617z" />
    <glyph glyph-name="uni01E3" unicode="&#xe6;&#x304;" horiz-adv-x="1526" 
d="M1309 809q0 38 -30 67t-73 29t-76 -17t-63 -46q-58 -56 -104 -142q-46 -87 -66 -172q137 14 271 92q84 50 122 118q18 34 19 71zM268 361q0 -250 158 -250q88 -1 189 87q26 22 40 42l105 561l-76 112q-214 0 -326 -195q-90 -159 -90 -357zM1489 809q1 -60 -27 -107
t-74 -85q-89 -73 -232 -116q-142 -43 -267 -50q-2 -11 -5 -23q-2 -12 -8 -36t-6 -64q0 -120 35 -175t160 -55q69 0 152 50t194 149v-129q-125 -126 -281 -174q-63 -20 -128 -19q-138 1 -196 33q-76 43 -104 158q-98 -138 -252 -179q-46 -12 -97 -12t-97 17q-46 18 -78 46
q-59 51 -86 133q-26 82 -26 166q0 85 17 165t51 154q72 159 205 258q134 98 316 98q80 0 154 -74l33 49h137q-3 -8 -7 -21t-9 -28l-9 -29q-4 -14 -8 -24q153 125 287 125q133 0 203 -80q52 -61 53 -121zM1265 1200h-620l29 135h617z" />
    <glyph glyph-name="Gcaron" unicode="G&#x30c;" horiz-adv-x="1409" 
d="M98 547q0 133 35 247t97 210q121 188 324 296q203 107 427 107q135 -1 273 -39q48 -14 108 -31l-64 -329h-139l6 188q4 46 -39 57q-4 1 -17 8t-51 21t-108 14q-72 0 -148 -25t-146 -72q-147 -98 -240 -277q-92 -179 -92 -406q0 -288 228 -400q83 -41 163 -40q81 0 141 16
t72 19l80 417q3 17 -5 27t-36 12l-113 11v86h528v-86l-116 -11q-43 -4 -52 -39l-92 -481q-268 -80 -480 -80q-80 0 -168 27q-88 26 -152 72q-118 83 -171 216q-53 132 -53 265zM1020 1528h-162l-201 347h144l170 -189l243 189h146z" />
    <glyph glyph-name="gcaron" unicode="g&#x30c;" horiz-adv-x="901" 
d="M831 711q0 -84 -36 -157t-97 -122q-122 -98 -311 -98q-20 -43 -23 -79q-2 -36 1 -44l274 -125q106 -47 143 -81q66 -62 66 -144q0 -130 -160 -230t-354 -100t-295 86q-102 86 -102 222q1 137 167 228q50 27 105 46q-10 46 14 121t66 118q-191 84 -191 249t115 288
t299 123q90 0 174 -39q20 -9 29 -15h278v-96h-188q26 -67 26 -151zM295 580q0 -170 129 -170q38 0 80 32t71 82q29 49 45 106t15 100q0 86 -30 141t-78 55q-89 0 -160 -104q-72 -103 -72 -242zM129 -135q0 -85 68 -162q68 -78 193 -78t196 65t71 136q0 72 -104 121l-256 116
q-168 -41 -168 -198zM663 1128h-162l-201 347h144l170 -189l243 189h146z" />
    <glyph glyph-name="uni01E8" unicode="K&#x30c;" horiz-adv-x="1343" 
d="M502 0h-535v86l119 10q43 3 49 39l215 1102q7 37 -39 41l-114 10v86h532v-86l-121 -10q-42 -4 -51 -41l-104 -537h34l545 537q12 11 10 25t-24 16l-131 10v86h530v-86l-172 -16l-536 -518l284 -551q36 -72 70 -97q34 -24 81 -24t97 4v-86q-113 -33 -175 -33
q-107 -1 -157 31q-51 32 -98 121l-252 485h-125l-92 -469q-3 -15 6 -26t35 -13l119 -10v-86zM944 1528h-162l-201 347h144l170 -189l243 189h146z" />
    <glyph glyph-name="uni01E9" unicode="k&#x30c;" horiz-adv-x="1042" 
d="M907 86q43 0 111 31v-70q-89 -45 -160 -58q-70 -14 -94 -14q-45 0 -92 29q-46 29 -66 59q-20 29 -38 63t-36 74q-20 40 -40 84t-38 84t-34 75t-27 57l-94 -84l-84 -416h-188l272 1368l-180 18v62l317 61h82l-190 -952l331 342q62 64 103 88q41 25 83 25q73 0 109 -34
q35 -34 34 -73q-2 -39 -34 -77t-104 -62l-70 74q-63 -50 -243 -207q15 -29 69 -166t101 -211t74 -104t55 -48t71 -18zM801 1568h-162l-201 347h144l170 -189l243 189h146z" />
    <glyph glyph-name="uni01EA" unicode="O&#x328;" horiz-adv-x="1454" 
d="M1182 862q0 194 -95.5 318.5t-241.5 124.5t-263.5 -117.5t-184.5 -299.5t-67 -376t96.5 -316t241.5 -122t293 150.5t184.5 347t36.5 290.5zM543 -320q0 156 152 288q-20 -1 -40 -1q-247 0 -402 157t-155 396t98 439t272.5 324t407.5 124t386 -159t153 -386t-122.5 -503
t-462.5 -371q-148 -120 -148 -240q0 -70 82 -70q34 0 76 11l-18 -117q-61 -14 -102 -14q-82 0 -129.5 32t-47.5 90z" />
    <glyph glyph-name="uni01EB" unicode="o&#x328;" horiz-adv-x="1036" 
d="M479 -442q-177 0 -177 135q0 149 166 284q-103 -10 -254 50t-151 325q0 266 124.5 425.5t231.5 197t184 37.5q163 0 266.5 -100.5t103.5 -280.5t-75.5 -337t-207.5 -240q-249 -153 -249 -306q0 -70 82 -70q34 0 76 11l-18 -117q-60 -14 -102 -14zM715.5 844
q-50.5 80 -124.5 80q-137 0 -229 -172t-92 -386q0 -215 72 -256.5t116 -41.5t86 24.5t76.5 66t61.5 96.5t55.5 147t28.5 227t-50.5 215z" />
    <glyph glyph-name="uni01EE" unicode="&#x1b7;&#x30c;" horiz-adv-x="1174" 
d="M438 487q-40 0 -84 -32l-59 86l643 639h-555q-11 0 -27 -9t-22 -26l-70 -207h-125l84 436h951v-141l-627 -633q183 0 334 -114q159 -121 159 -304q0 -150 -102 -304q-101 -154 -272 -251q-171 -96 -377 -96t-314 84t-108 164t47 138t124 58t95 -18l27 -229
q81 -60 182 -60q178 0 312 163t134 357q0 95 -70 179q-70 85 -204 113q-36 8 -76 7zM814 1528h-162l-201 347h144l170 -189l243 189h146z" />
    <glyph glyph-name="uni01EF" unicode="&#x292;&#x30c;" horiz-adv-x="971" 
d="M299 666q-42 -68 -113 -68t-98 75q-8 23 -8 63t22 92t60 94q85 90 198 90q68 0 159 -32t139 -46t85 -14q35 0 57 4l44 8l65 92l131 -98l-577 -535q261 -13 349 -214q30 -67 30 -149t-24 -148t-66 -120q-83 -107 -219 -168q-135 -61 -281 -61q-147 0 -260 71t-113 185
q-1 62 27 94q48 56 106 56q20 -1 44 -9l42 -14l49 -213q41 -63 123 -63q154 0 264 120q109 120 109 265q0 107 -84 191t-190 91l-76 -100l-113 94l582 520q-188 -8 -225 -8q-47 1 -121 23t-110 22t-66 -18t-45 -41zM697 1128h-162l-201 347h144l170 -189l243 189h146z" />
    <glyph glyph-name="uni01F0" unicode="j&#x30c;" horiz-adv-x="559" 
d="M-126 -469q-66 0 -102 31t-36 64q0 70 57 106l205 -56q64 68 108 299l154 895l-172 19v59l309 64h76l-145 -848q-38 -214 -128 -376q-143 -257 -326 -257zM488 1128h-162l-201 347h144l170 -189l243 189h146z" />
    <glyph glyph-name="uni01F4" unicode="G&#x301;" horiz-adv-x="1409" 
d="M98 547q0 133 35 247t97 210q121 188 324 296q203 107 427 107q135 -1 273 -39q48 -14 108 -31l-64 -329h-139l6 188q4 46 -39 57q-4 1 -17 8t-51 21t-108 14q-72 0 -148 -25t-146 -72q-147 -98 -240 -277q-92 -179 -92 -406q0 -288 228 -400q83 -41 163 -40q81 0 141 16
t72 19l80 417q3 17 -5 27t-36 12l-113 11v86h528v-86l-116 -11q-43 -4 -52 -39l-92 -481q-268 -80 -480 -80q-80 0 -168 27q-88 26 -152 72q-118 83 -171 216q-53 132 -53 265zM1243 1872q27 -27 27 -69t-49 -76l-307 -199h-144l279 320q32 39 63 45q32 6 68 6t63 -27z" />
    <glyph glyph-name="uni01F5" unicode="g&#x301;" horiz-adv-x="901" 
d="M831 711q0 -84 -36 -157t-97 -122q-122 -98 -311 -98q-20 -43 -23 -79q-2 -36 1 -44l274 -125q106 -47 143 -81q66 -62 66 -144q0 -130 -160 -230t-354 -100t-295 86q-102 86 -102 222q1 137 167 228q50 27 105 46q-10 46 14 121t66 118q-191 84 -191 249t115 288
t299 123q90 0 174 -39q20 -9 29 -15h278v-96h-188q26 -67 26 -151zM295 580q0 -170 129 -170q38 0 80 32t71 82q29 49 45 106t15 100q0 86 -30 141t-78 55q-89 0 -160 -104q-72 -103 -72 -242zM129 -135q0 -85 68 -162q68 -78 193 -78t196 65t71 136q0 72 -104 121l-256 116
q-168 -41 -168 -198zM886 1472q27 -27 27 -69t-49 -76l-307 -199h-144l279 320q32 39 63 45t67 6t64 -27z" />
    <glyph glyph-name="uni01F8" unicode="N&#x300;" horiz-adv-x="1456" 
d="M446 0h-475v86l117 10q42 3 51 39l211 1102q7 37 -39 41l-114 10v86h395v-53l461 -977l174 893q7 37 -39 41l-117 10v86h475v-86l-116 -10q-43 -4 -52 -41l-241 -1237h-148l-516 1087l-182 -952q-7 -36 41 -39l114 -10v-86zM670 1723q-47 31 -47 88q-1 57 47 79
q18 8 42 9q41 0 64 -12q22 -12 44 -39l274 -320h-127z" />
    <glyph glyph-name="uni01F9" unicode="n&#x300;" horiz-adv-x="1085" 
d="M537 814q-88 -52 -158 -126l-141 -688h-191l178 870l-172 19v59l309 64h82l-38 -191q128 127 276 174q54 17 104 17q112 0 160 -62t23 -200l-109 -578q-9 -50 23 -68q31 -18 69 -18q39 0 125 27l2 -72q-172 -66 -280 -66q-109 0 -151 56q-18 24 -9 65l125 629
q13 74 -17 107q-30 34 -76 34t-134 -52zM434 1323q-47 31 -47 88q-1 57 47 79q18 8 42 9q41 0 64 -12q22 -12 44 -39l274 -320h-127z" />
    <glyph glyph-name="AEacute" unicode="&#xc6;&#x301;" horiz-adv-x="1917" 
d="M1769 1067v166q1 23 -7 31t-31 8h-369l-98 -504h256q38 0 49 39l39 137h116l-92 -469h-114l18 146q6 41 -39 41h-254l-108 -560h462q34 0 50 41l63 197h125l-66 -340h-1001v86l125 10q33 3 39 39l76 383h-461l-316 -383q-11 -12 1 -24t38 -15l88 -10v-86h-467v86l99 10
q17 2 51 39l899 1102q10 11 8 25t-14 16l-115 10v86h1143l-61 -307h-132zM633 627h395l121 626zM1580 1872q27 -27 27 -69t-49 -76l-307 -199h-144l279 320q32 39 63 45t67 6t64 -27z" />
    <glyph glyph-name="aeacute" unicode="&#xe6;&#x301;" horiz-adv-x="1526" 
d="M1309 809q0 38 -30 67t-73 29t-76 -17t-63 -46q-58 -56 -104 -142q-46 -87 -66 -172q137 14 271 92q84 50 122 118q18 34 19 71zM268 361q0 -250 158 -250q88 -1 189 87q26 22 40 42l105 561l-76 112q-214 0 -326 -195q-90 -159 -90 -357zM1489 809q1 -60 -27 -107
t-74 -85q-89 -73 -232 -116q-142 -43 -267 -50q-2 -11 -5 -23q-2 -12 -8 -36t-6 -64q0 -120 35 -175t160 -55q69 0 152 50t194 149v-129q-125 -126 -281 -174q-63 -20 -128 -19q-138 1 -196 33q-76 43 -104 158q-98 -138 -252 -179q-46 -12 -97 -12t-97 17q-46 18 -78 46
q-59 51 -86 133q-26 82 -26 166q0 85 17 165t51 154q72 159 205 258q134 98 316 98q80 0 154 -74l33 49h137q-3 -8 -7 -21t-9 -28l-9 -29q-4 -14 -8 -24q153 125 287 125q133 0 203 -80q52 -61 53 -121zM1246 1472q27 -27 27 -69t-49 -76l-307 -199h-144l279 320
q32 39 63 45t67 6t64 -27z" />
    <glyph glyph-name="Oslashacute" unicode="&#xd8;&#x301;" horiz-adv-x="1454" 
d="M865 1407q117 0 227 -43l110 170l105 -64l-111 -165q105 -75 162 -193t57 -242t-23 -232t-67 -206q-92 -207 -265 -336t-405 -129q-160 0 -288 72l-134 -203l-88 66l129 200q-176 161 -176 435q0 222 98 422t272 324q175 124 397 124zM330 539q0 -167 53 -273l635 981
q-79 58 -165 58t-153 -33t-124 -90q-112 -112 -179 -294t-67 -349zM451 168q90 -94 226 -94t253 118t185 301q67 182 67 362t-80 304zM1204 1872q27 -27 27 -69t-49 -76l-307 -199h-144l279 320q32 39 63 45t67 6t64 -27z" />
    <glyph glyph-name="oslashacute" unicode="&#xf8;&#x301;" horiz-adv-x="1036" 
d="M973 614q-1 -254 -155 -444q-100 -122 -240 -170q-71 -24 -147 -25q-76 0 -152 27l-113 -178l-76 51l109 172q-136 105 -136 315q0 256 151 450q156 200 398 200q86 0 166 -37l99 155l81 -51l-100 -157q115 -108 115 -308zM586 924q-133 0 -224 -172q-92 -172 -92 -379
q0 -94 27 -170l410 655q-51 66 -121 66zM447 68q55 0 97 24t76 66q66 80 106 208t40 225q0 96 -14 161l-404 -639q45 -45 99 -45zM954 1472q27 -27 27 -69t-49 -76l-307 -199h-144l279 320q32 39 63 45t67 6t64 -27z" />
    <glyph glyph-name="uni0200" unicode="A&#x30f;" horiz-adv-x="1378" 
d="M801 0v86l94 10q45 6 39 39l-62 391h-464l-209 -391q-11 -20 -1 -28t40 -11l94 -10v-86h-441v86l115 12l756 1309h164l221 -1272q3 -21 11 -29t30 -10l94 -10v-86h-481zM766 1155l-303 -532h391zM806 1870q34 32 78 31t63 -15t36 -40l213 -318h-119l-272 199
q-33 22 -33 67t34 76zM393 1794q1 45 33 76t78 31q46 -1 63 -15q18 -14 35 -40l213 -318h-117l-272 199q-33 22 -33 67z" />
    <glyph glyph-name="uni0201" unicode="a&#x30f;" 
d="M795 -25q-102 0 -130 80q-9 26 -12 60q-146 -140 -291 -140q-207 1 -273 207q-23 72 -23 155q0 85 17 165t51 154q72 159 205 258q134 98 316 98q79 0 151 -47q20 -13 34 -27l30 49h140q-35 -84 -40 -114q-6 -31 -19 -85t-27 -122q-86 -401 -86 -485q0 -85 88 -85
q18 0 68 14q51 14 67 19v-74q-192 -80 -266 -80zM684 913q-214 0 -326 -195q-90 -159 -90 -343t80 -242q30 -22 72 -22q106 0 233 127l107 565q2 11 -28 61q-30 49 -48 49zM672 1470q34 32 78 31t63 -15t36 -40l213 -318h-119l-272 199q-33 22 -33 67t34 76zM259 1394
q1 45 33 76t78 31q46 -1 63 -15q18 -14 35 -40l213 -318h-117l-272 199q-33 22 -33 67z" />
    <glyph glyph-name="uni0202" unicode="A&#x311;" horiz-adv-x="1378" 
d="M801 0v86l94 10q45 6 39 39l-62 391h-464l-209 -391q-11 -20 -1 -28t40 -11l94 -10v-86h-441v86l115 12l756 1309h164l221 -1272q3 -21 11 -29t30 -10l94 -10v-86h-481zM766 1155l-303 -532h391zM1150 1589q0 -42 -4 -61h-88q-4 118 -112 146q-32 8 -68 8q-80 0 -147 -38
t-101 -116h-88q25 118 122 206q97 89 228 89t195 -69q63 -68 63 -165z" />
    <glyph glyph-name="uni0203" unicode="a&#x311;" 
d="M795 -25q-102 0 -130 80q-9 26 -12 60q-146 -140 -291 -140q-207 1 -273 207q-23 72 -23 155q0 85 17 165t51 154q72 159 205 258q134 98 316 98q79 0 151 -47q20 -13 34 -27l30 49h140q-35 -84 -40 -114q-6 -31 -19 -85t-27 -122q-86 -401 -86 -485q0 -85 88 -85
q18 0 68 14q51 14 67 19v-74q-192 -80 -266 -80zM684 913q-214 0 -326 -195q-90 -159 -90 -343t80 -242q30 -22 72 -22q106 0 233 127l107 565q2 11 -28 61q-30 49 -48 49zM1016 1189q0 -42 -4 -61h-88q-4 118 -112 146q-32 8 -68 8q-80 0 -147 -38t-101 -116h-88
q25 118 122 206q97 89 228 89t195 -69q63 -68 63 -165z" />
    <glyph glyph-name="uni0204" unicode="E&#x30f;" horiz-adv-x="1143" 
d="M995 1067v166q0 23 -8 31t-31 8h-393l-94 -504h274q40 0 52 39l39 137h114l-90 -469h-117l21 146q6 41 -39 41h-277l-106 -560h481q37 0 51 41l64 197h125l-68 -340h-1024v86l119 10q43 3 49 39l213 1102q7 37 -39 41l-114 10v86h991l-62 -307h-131zM700 1870
q34 32 79 31q44 -1 63 -15t36 -40l213 -318h-119l-272 199q-33 22 -33 67q-1 45 33 76zM288 1794q0 45 32 76t78 31q46 -1 64 -15t35 -40l213 -318h-117l-272 199q-33 22 -33 67z" />
    <glyph glyph-name="uni0205" unicode="e&#x30f;" horiz-adv-x="889" 
d="M182 45q-116 93 -116 323t160 432q102 130 238 184q68 26 141 26q126 0 196 -80q53 -60 53 -121q0 -60 -26 -107t-70 -85q-85 -73 -223 -116q-137 -44 -263 -50q-8 -53 -8 -102q0 -106 53 -179q53 -72 132 -72t162 50t196 149v-129q-200 -193 -416 -193q-122 0 -209 70z
M641 882q-31 33 -72 33q-42 0 -73 -18q-32 -18 -60 -48q-55 -57 -95 -147q-41 -90 -60 -174q142 14 261 92q58 38 94 85q36 48 36 96t-31 81zM566 1470q34 32 79 31q44 -1 63 -15t36 -40l213 -318h-119l-272 199q-33 22 -33 67q-1 45 33 76zM154 1394q0 45 32 76t78 31
q46 -1 64 -15t35 -40l213 -318h-117l-272 199q-33 22 -33 67z" />
    <glyph glyph-name="uni0206" unicode="E&#x311;" horiz-adv-x="1143" 
d="M995 1067v166q0 23 -8 31t-31 8h-393l-94 -504h274q40 0 52 39l39 137h114l-90 -469h-117l21 146q6 41 -39 41h-277l-106 -560h481q37 0 51 41l64 197h125l-68 -340h-1024v86l119 10q43 3 49 39l213 1102q7 37 -39 41l-114 10v86h991l-62 -307h-131zM1045 1589
q0 -42 -4 -61h-88q-3 118 -111 146q-32 8 -69 8q-80 0 -147 -38t-101 -116h-88q25 118 122 206q97 89 228 89t195 -69q63 -68 63 -165z" />
    <glyph glyph-name="uni0207" unicode="e&#x311;" horiz-adv-x="889" 
d="M182 45q-116 93 -116 323t160 432q102 130 238 184q68 26 141 26q126 0 196 -80q53 -60 53 -121q0 -60 -26 -107t-70 -85q-85 -73 -223 -116q-137 -44 -263 -50q-8 -53 -8 -102q0 -106 53 -179q53 -72 132 -72t162 50t196 149v-129q-200 -193 -416 -193q-122 0 -209 70z
M641 882q-31 33 -72 33q-42 0 -73 -18q-32 -18 -60 -48q-55 -57 -95 -147q-41 -90 -60 -174q142 14 261 92q58 38 94 85q36 48 36 96t-31 81zM911 1189q0 -42 -4 -61h-88q-3 118 -111 146q-32 8 -69 8q-80 0 -147 -38t-101 -116h-88q25 118 122 206q97 89 228 89t195 -69
q63 -68 63 -165z" />
    <glyph glyph-name="uni0208" unicode="I&#x30f;" horiz-adv-x="643" 
d="M504 0h-535v86l129 10q33 3 39 39l213 1102q7 37 -39 41l-114 10v86h532v-86l-131 -10q-20 -2 -28 -12t-13 -29l-213 -1102q-7 -36 41 -39l119 -10v-86zM454 1870q34 31 79 31q44 -1 63 -15t36 -40l213 -318h-119l-272 199q-33 22 -33 67q-1 45 33 76zM42 1794
q0 45 32 76t78 31q46 -1 64 -15t35 -40l213 -318h-117l-272 199q-33 22 -33 67z" />
    <glyph glyph-name="uni0209" unicode="i&#x30f;" horiz-adv-x="545" 
d="M113 35q-31 60 -15 141l131 694l-176 19v59l309 64h84l-155 -819q-8 -41 15 -73t63 -32q39 0 100 23q60 23 70 26v-78q-12 -5 -44 -19t-75 -28q-108 -36 -192 -37q-84 0 -115 60zM346 1470q34 31 79 31q44 -1 63 -15t36 -40l213 -318h-119l-272 199q-33 22 -33 67
q-1 45 33 76zM-66 1394q0 45 32 76t78 31q46 -1 64 -15t35 -40l213 -318h-117l-272 199q-33 22 -33 67z" />
    <glyph glyph-name="uni020A" unicode="I&#x311;" horiz-adv-x="643" 
d="M504 0h-535v86l129 10q33 3 39 39l213 1102q7 37 -39 41l-114 10v86h532v-86l-131 -10q-20 -2 -28 -12t-13 -29l-213 -1102q-7 -36 41 -39l119 -10v-86zM799 1589q0 -42 -4 -61h-88q-3 118 -111 146q-32 8 -69 8q-80 0 -147 -38t-101 -116h-88q25 118 122 206
q97 89 228 89t195 -69q63 -68 63 -165z" />
    <glyph glyph-name="uni020B" unicode="i&#x311;" horiz-adv-x="545" 
d="M113 35q-31 60 -15 141l131 694l-176 19v59l309 64h84l-155 -819q-8 -41 15 -73t63 -32q39 0 100 23q60 23 70 26v-78q-12 -5 -44 -19t-75 -28q-108 -36 -192 -37q-84 0 -115 60zM691 1189q0 -42 -4 -61h-88q-3 118 -111 146q-32 8 -69 8q-80 0 -147 -38t-101 -116h-88
q25 118 122 206q97 89 228 89t195 -69q63 -68 63 -165z" />
    <glyph glyph-name="uni020C" unicode="O&#x30f;" horiz-adv-x="1454" 
d="M1060 96q-173 -129 -413 -129q-239 0 -394 157t-155 396t98 439t272 324t408 124q233 0 386 -159t153 -386t-91 -432t-264 -334zM1182 862q0 194 -95 318q-95 125 -242 125q-146 0 -263 -117t-185 -300q-67 -182 -67 -376t97 -316t241 -122q145 0 268 125
q173 177 229 477q17 92 17 186zM860 1870q34 32 78 31t63 -15t36 -40l213 -318h-119l-272 199q-33 22 -33 67t34 76zM447 1794q1 45 33 76t78 31q46 -1 63 -15q18 -14 35 -40l213 -318h-117l-272 199q-33 22 -33 67z" />
    <glyph glyph-name="uni020D" unicode="o&#x30f;" horiz-adv-x="1036" 
d="M973 624q-1 -94 -19 -172q-18 -80 -52 -151q-71 -147 -196 -236q-125 -90 -286 -90t-259 105t-98 282q0 256 151 450q98 126 240 175q72 25 149 25t143 -23t118 -72q50 -49 80 -124t29 -169zM715 844q-51 80 -124 80q-137 0 -229 -172t-92 -386q0 -215 111 -279
q33 -19 77 -19t86 24t76 66t62 97q27 55 46 117q38 123 38 257q0 135 -51 215zM610 1470q34 32 78 31t63 -15t36 -40l213 -318h-119l-272 199q-33 22 -33 67t34 76zM197 1394q1 45 33 76t78 31q46 -1 63 -15q18 -14 35 -40l213 -318h-117l-272 199q-33 22 -33 67z" />
    <glyph glyph-name="uni020E" unicode="O&#x311;" horiz-adv-x="1454" 
d="M1060 96q-173 -129 -413 -129q-239 0 -394 157t-155 396t98 439t272 324t408 124q233 0 386 -159t153 -386t-91 -432t-264 -334zM1182 862q0 194 -95 318q-95 125 -242 125q-146 0 -263 -117t-185 -300q-67 -182 -67 -376t97 -316t241 -122q145 0 268 125
q173 177 229 477q17 92 17 186zM1204 1589q0 -42 -4 -61h-88q-4 118 -112 146q-32 8 -68 8q-80 0 -147 -38t-101 -116h-88q25 118 122 206q97 89 228 89t195 -69q63 -68 63 -165z" />
    <glyph glyph-name="uni020F" unicode="o&#x311;" horiz-adv-x="1036" 
d="M973 624q-1 -94 -19 -172q-18 -80 -52 -151q-71 -147 -196 -236q-125 -90 -286 -90t-259 105t-98 282q0 256 151 450q98 126 240 175q72 25 149 25t143 -23t118 -72q50 -49 80 -124t29 -169zM715 844q-51 80 -124 80q-137 0 -229 -172t-92 -386q0 -215 111 -279
q33 -19 77 -19t86 24t76 66t62 97q27 55 46 117q38 123 38 257q0 135 -51 215zM954 1189q0 -42 -4 -61h-88q-4 118 -112 146q-32 8 -68 8q-80 0 -147 -38t-101 -116h-88q25 118 122 206q97 89 228 89t195 -69q63 -68 63 -165z" />
    <glyph glyph-name="uni0210" unicode="R&#x30f;" horiz-adv-x="1313" 
d="M506 0h-533v86l117 10q42 3 51 39l209 1102q7 37 -39 41l-114 10v86h548q307 0 407 -156q38 -58 38 -144q0 -159 -116 -266t-302 -159q112 -48 161 -135q23 -41 36 -91q13 -49 28 -107q33 -127 86 -180q53 -52 177 -52v-84q-73 -33 -158 -33q-156 0 -230 108
q-44 65 -76 221q-31 155 -62 205q-64 105 -191 105l-67 -1q-19 -1 -40 -1l-88 -469q-7 -35 39 -39l119 -10v-86zM504 711q307 -1 414 169q40 64 40 150t-32 133q-83 117 -318 109l-45 -2l-104 -559h45zM732 1870q34 32 79 31q44 -1 63 -15t36 -40l213 -318h-119l-272 199
q-33 22 -33 67q-1 45 33 76zM320 1794q0 45 32 76t78 31q46 -1 64 -15t35 -40l213 -318h-117l-272 199q-33 22 -33 67z" />
    <glyph glyph-name="uni0211" unicode="r&#x30f;" horiz-adv-x="766" 
d="M838 882q0 -75 -45 -96q-45 -20 -138 -20l-49 98q-77 -32 -164 -146q-88 -114 -106 -202l-107 -516h-190l176 870l-172 19v59l309 64h82l-43 -207q134 207 316 207q67 0 99 -43t32 -87zM466 1470q34 32 79 31q44 -1 63 -15t36 -40l213 -318h-119l-272 199q-33 22 -33 67
q-1 45 33 76zM54 1394q0 45 32 76t78 31q46 -1 64 -15t35 -40l213 -318h-117l-272 199q-33 22 -33 67z" />
    <glyph glyph-name="uni0212" unicode="R&#x311;" horiz-adv-x="1313" 
d="M506 0h-533v86l117 10q42 3 51 39l209 1102q7 37 -39 41l-114 10v86h548q307 0 407 -156q38 -58 38 -144q0 -159 -116 -266t-302 -159q112 -48 161 -135q23 -41 36 -91q13 -49 28 -107q33 -127 86 -180q53 -52 177 -52v-84q-73 -33 -158 -33q-156 0 -230 108
q-44 65 -76 221q-31 155 -62 205q-64 105 -191 105l-67 -1q-19 -1 -40 -1l-88 -469q-7 -35 39 -39l119 -10v-86zM504 711q307 -1 414 169q40 64 40 150t-32 133q-83 117 -318 109l-45 -2l-104 -559h45zM1077 1589q0 -42 -4 -61h-88q-3 118 -111 146q-32 8 -69 8
q-80 0 -147 -38t-101 -116h-88q25 118 122 206q97 89 228 89t195 -69q63 -68 63 -165z" />
    <glyph glyph-name="uni0213" unicode="r&#x311;" horiz-adv-x="766" 
d="M838 882q0 -75 -45 -96q-45 -20 -138 -20l-49 98q-77 -32 -164 -146q-88 -114 -106 -202l-107 -516h-190l176 870l-172 19v59l309 64h82l-43 -207q134 207 316 207q67 0 99 -43t32 -87zM811 1189q0 -42 -4 -61h-88q-3 118 -111 146q-32 8 -69 8q-80 0 -147 -38t-101 -116
h-88q25 118 122 206q97 89 228 89t195 -69q63 -68 63 -165z" />
    <glyph glyph-name="uni0214" unicode="U&#x30f;" horiz-adv-x="1448" 
d="M650 -33q-216 0 -339 87t-123 272q0 76 27 215l143 696q7 38 -41 41l-114 10v86h532v-86l-121 -10q-44 -5 -49 -41l-141 -696q-23 -115 -23 -181q0 -127 76 -194q76 -66 195 -66q118 0 186 34t112 89q75 94 113 287l144 727q7 38 -41 41l-115 10v86h463v-86l-119 -10
q-44 -5 -49 -41l-158 -799q-64 -344 -352 -439q-98 -32 -206 -32zM866 1870q34 32 79 31q44 -1 63 -15t36 -40l213 -318h-119l-272 199q-33 22 -33 67q-1 45 33 76zM454 1794q0 45 32 76t78 31q46 -1 64 -15t35 -40l213 -318h-117l-272 199q-33 22 -33 67z" />
    <glyph glyph-name="uni0215" unicode="u&#x30f;" horiz-adv-x="1079" 
d="M782 -25q-46 -1 -73 19q-29 20 -39 46t-9 51q1 26 1 38q-162 -154 -361 -154q-131 0 -179 80q-49 80 -30 176l133 639l-172 19v59l309 64h84l-163 -781q-11 -49 26 -89q38 -40 77 -40q71 0 149 37q77 37 137 94l155 754h191l-164 -788q-12 -56 18 -86q30 -29 84 -29
q53 0 117 37v-72q-73 -42 -159 -58t-132 -16zM622 1470q34 32 79 31q44 -1 63 -15t36 -40l213 -318h-119l-272 199q-33 22 -33 67q-1 45 33 76zM210 1394q0 45 32 76t78 31q46 -1 64 -15t35 -40l213 -318h-117l-272 199q-33 22 -33 67z" />
    <glyph glyph-name="uni0216" unicode="U&#x311;" horiz-adv-x="1448" 
d="M650 -33q-216 0 -339 87t-123 272q0 76 27 215l143 696q7 38 -41 41l-114 10v86h532v-86l-121 -10q-44 -5 -49 -41l-141 -696q-23 -115 -23 -181q0 -127 76 -194q76 -66 195 -66q118 0 186 34t112 89q75 94 113 287l144 727q7 38 -41 41l-115 10v86h463v-86l-119 -10
q-44 -5 -49 -41l-158 -799q-64 -344 -352 -439q-98 -32 -206 -32zM1211 1589q0 -42 -4 -61h-88q-3 118 -111 146q-32 8 -69 8q-80 0 -147 -38t-101 -116h-88q25 118 122 206q97 89 228 89t195 -69q63 -68 63 -165z" />
    <glyph glyph-name="uni0217" unicode="u&#x311;" horiz-adv-x="1079" 
d="M782 -25q-46 -1 -73 19q-29 20 -39 46t-9 51q1 26 1 38q-162 -154 -361 -154q-131 0 -179 80q-49 80 -30 176l133 639l-172 19v59l309 64h84l-163 -781q-11 -49 26 -89q38 -40 77 -40q71 0 149 37q77 37 137 94l155 754h191l-164 -788q-12 -56 18 -86q30 -29 84 -29
q53 0 117 37v-72q-73 -42 -159 -58t-132 -16zM967 1189q0 -42 -4 -61h-88q-3 118 -111 146q-32 8 -69 8q-80 0 -147 -38t-101 -116h-88q25 118 122 206q97 89 228 89t195 -69q63 -68 63 -165z" />
    <glyph glyph-name="Scommaaccent" unicode="S&#x326;" 
d="M956 420q0 -174 -129 -300q-156 -152 -442 -153q-191 -1 -351 83q-34 18 -44 24l69 329h140l-23 -235q-2 -40 162 -80q55 -13 97 -14q43 0 103 20t106 60q100 84 99 213q0 129 -207 231q-207 101 -285 176q-79 75 -79 180q0 206 151 330q151 123 365 123q215 0 363 -74
l-66 -313h-121l8 207q0 22 -59 51t-121 29q-125 0 -218 -81t-93 -206t198 -220q218 -105 297 -182q80 -78 80 -198zM304 -159q37 34 91 34q54 1 83 -33t29 -94q0 -115 -87 -192t-214 -101l12 70q86 25 122 59q36 35 52 119h-108q-17 19 -17 62q0 42 37 76z" />
    <glyph glyph-name="scommaaccent" unicode="s&#x326;" horiz-adv-x="758" 
d="M174 131q53 -74 128 -74t123 47t48 124q-1 78 -101 162q-30 26 -64 52q-168 129 -169 262q0 139 115 223q115 85 236 85t173 -41t52 -83q0 -110 -148 -118l-92 125q-19 16 -52 16q-59 0 -90 -45q-30 -45 -30 -84q0 -62 48 -115t108 -100q106 -84 155 -143q48 -59 48 -124
q0 -135 -104 -230t-288 -95q-138 0 -212 56t-74 133q0 50 30 80t92 30q64 0 107 -43zM143 -159q37 34 91 34q54 1 83 -33t29 -94q0 -115 -87 -192t-214 -101l12 70q86 25 122 59q36 35 52 119h-108q-17 19 -17 62q0 42 37 76z" />
    <glyph glyph-name="uni021A" unicode="T&#x326;" horiz-adv-x="1200" 
d="M1106 1282h-264l-213 -1147q-7 -36 41 -39l116 -10v-86h-532v86l119 10q43 5 49 39l213 1147h-256q-39 0 -51 -41l-64 -180h-129l60 313h1134l-63 -313h-129l8 180q3 41 -39 41zM365 -159q37 34 91 34q54 1 83 -33t29 -94q0 -115 -87 -192t-214 -101l12 70q86 25 122 59
q36 35 52 119h-108q-17 19 -17 62q0 42 37 76z" />
    <glyph glyph-name="uni021B" unicode="t&#x326;" horiz-adv-x="614" 
d="M283 -25q-193 0 -193 177q0 49 8 84l125 622l-129 -12v67l154 68l100 205h125l-41 -234h283v-94h-301l-129 -643q-17 -78 69 -107q24 -8 49 -8q80 0 213 50v-82q-110 -51 -200 -72q-89 -21 -133 -21zM121 -159q37 34 91 34q54 1 83 -33t29 -94q0 -115 -87 -192t-214 -101
l12 70q86 25 122 59q36 35 52 119h-108q-17 19 -17 62q0 42 37 76z" />
    <glyph glyph-name="uni021E" unicode="H&#x30c;" horiz-adv-x="1485" 
d="M1346 0h-535v86l123 10q43 5 49 39l102 533h-639l-102 -533q-7 -35 39 -39l119 -10v-86h-533v86l117 10q42 3 51 39l213 1102q7 38 -41 41l-114 10v86h532v-86l-121 -10q-44 -5 -49 -41l-90 -467h639l90 467q7 38 -41 41l-117 10v86h533v-86l-119 -10q-40 -4 -49 -41
l-213 -1102q-7 -36 41 -39l115 -10v-86zM996 1528h-162l-201 347h144l170 -189l243 189h146z" />
    <glyph glyph-name="uni021F" unicode="h&#x30c;" horiz-adv-x="1073" 
d="M667 877q-59 0 -141 -45t-151 -115l-150 -717h-188l282 1368l-182 18v62l320 61h82l-138 -661q103 114 265 152q52 12 106 12q113 0 168 -71t25 -206l-113 -551q-11 -51 33 -84q44 -32 114 -2q33 14 68 25l2 -72q-198 -76 -288 -76q-91 0 -129 66q-15 26 -7 68l125 604
q16 72 -27 118q-42 46 -76 46zM835 1568h-162l-201 347h144l170 -189l243 189h146z" />
    <glyph glyph-name="uni0226" unicode="A&#x307;" horiz-adv-x="1378" 
d="M801 0v86l94 10q45 6 39 39l-62 391h-464l-209 -391q-11 -20 -1 -28t40 -11l94 -10v-86h-441v86l115 12l756 1309h164l221 -1272q3 -21 11 -29t30 -10l94 -10v-86h-481zM766 1155l-303 -532h391zM997 1713q0 -24 -9 -45q-8 -20 -24 -36t-37 -25t-45 -9t-44 9t-36 25
t-25 36q-9 21 -9 45t8 45t24 37q16 15 37 25t45 10t45 -9t37 -25t24 -38q9 -22 9 -45z" />
    <glyph glyph-name="uni0227" unicode="a&#x307;" 
d="M795 -25q-102 0 -130 80q-9 26 -12 60q-146 -140 -291 -140q-207 1 -273 207q-23 72 -23 155q0 85 17 165t51 154q72 159 205 258q134 98 316 98q79 0 151 -47q20 -13 34 -27l30 49h140q-35 -84 -40 -114q-6 -31 -19 -85t-27 -122q-86 -401 -86 -485q0 -85 88 -85
q18 0 68 14q51 14 67 19v-74q-192 -80 -266 -80zM684 913q-214 0 -326 -195q-90 -159 -90 -343t80 -242q30 -22 72 -22q106 0 233 127l107 565q2 11 -28 61q-30 49 -48 49zM863 1313q0 -24 -9 -45q-8 -20 -24 -36t-37 -25t-45 -9t-44 9t-36 25t-25 36q-9 21 -9 45t8 45
t24 37q16 15 37 25t45 10t45 -9t37 -25t24 -38q9 -22 9 -45z" />
    <glyph glyph-name="uni0228" unicode="E&#x327;" horiz-adv-x="1143" 
d="M456 -351q46 22 46 76t-68 54q-11 0 -65 -27l47 248h-447v86l119 10q43 3 49 39l213 1102q7 37 -39 41l-114 10v86h991l-62 -307h-131v166q0 23 -8 31t-31 8h-393l-94 -504h274q40 0 52 39l39 137h114l-90 -469h-117l21 146q6 41 -39 41h-277l-106 -560h481q37 0 51 41
l64 197h125l-68 -340h-471l-22 -125q16 4 31 4q137 0 137 -106t-84 -168t-205 -62q-72 0 -164 25l19 82q88 -23 132 -23t90 22z" />
    <glyph glyph-name="uni0229" unicode="e&#x327;" horiz-adv-x="889" 
d="M641 882q-31 33 -72 33q-42 0 -73 -18t-72.5 -61.5t-82.5 -134t-60 -173.5q142 13 230 71t124.5 106t36.5 96t-31 81zM442 -121q137 0 137 -106t-84 -168t-205 -62q-72 0 -164 25l19 82q88 -23 118 -23q59 0 104.5 22.5t45.5 75.5q0 54 -68 54q-11 0 -65 -27l43 229
q-188 31 -222.5 160t-34.5 209t19.5 160t74 193t179.5 210t259 97q133 0 194.5 -70t61.5 -131q0 -60 -26 -107t-91 -102.5t-202 -99t-263 -49.5q-8 -53 -8 -102q0 -106 53.5 -178.5t131.5 -72.5q79 0 162 50t196 149v-129q-181 -175 -378 -191l-18 -102q16 4 31 4z" />
    <glyph glyph-name="uni022E" unicode="O&#x307;" horiz-adv-x="1454" 
d="M1060 96q-173 -129 -413 -129q-239 0 -394 157t-155 396t98 439t272 324t408 124q233 0 386 -159t153 -386t-91 -432t-264 -334zM1182 862q0 194 -95 318q-95 125 -242 125q-146 0 -263 -117t-185 -300q-67 -182 -67 -376t97 -316t241 -122q145 0 268 125
q173 177 229 477q17 92 17 186zM1051 1713q0 -24 -9 -45q-8 -20 -24 -36t-37 -25t-45 -9t-44 9t-36 25t-25 36q-9 21 -9 45t8 45t24 37q16 15 37 25t45 10t45 -9t37 -25t24 -38q9 -22 9 -45z" />
    <glyph glyph-name="uni022F" unicode="o&#x307;" horiz-adv-x="1036" 
d="M973 624q-1 -94 -19 -172q-18 -80 -52 -151q-71 -147 -196 -236q-125 -90 -286 -90t-259 105t-98 282q0 256 151 450q98 126 240 175q72 25 149 25t143 -23t118 -72q50 -49 80 -124t29 -169zM715 844q-51 80 -124 80q-137 0 -229 -172t-92 -386q0 -215 111 -279
q33 -19 77 -19t86 24t76 66t62 97q27 55 46 117q38 123 38 257q0 135 -51 215zM801 1313q0 -24 -9 -45q-8 -20 -24 -36t-37 -25t-45 -9t-44 9t-36 25t-25 36q-9 21 -9 45t8 45t24 37q16 15 37 25t45 10t45 -9t37 -25t24 -38q9 -22 9 -45z" />
    <glyph glyph-name="uni0232" unicode="Y&#x304;" horiz-adv-x="1309" 
d="M836 0h-533v86l119 10q39 4 49 39l84 422l-229 692q-8 21 -18 25t-21 6l-115 8v86h530v-86l-131 -8q-17 -2 -25 -13t-3 -28l168 -532l395 532q15 27 6 33q-9 7 -22 8l-127 8v86h493v-86l-115 -8q-25 -3 -53 -31l-520 -674l-86 -440q-12 -35 39 -39l115 -10v-86z
M1158 1600h-620l29 135h617z" />
    <glyph glyph-name="uni0233" unicode="y&#x304;" horiz-adv-x="1018" 
d="M-118 -427q-46 42 -46 79q0 61 40 96t101 39l119 -119q62 6 126 89t171 280q-89 535 -183 802q-13 37 -20 38l-186 14v51l28 9q20 7 44 15t51 16t68 19t64 11q53 0 93 -60q59 -88 122 -386q28 -134 58 -300l312 746h59l170 -56v-47l-102 -63q-46 -46 -100 -144t-72 -138
q-17 -40 -47 -110q-308 -734 -584 -886q-68 -38 -154 -37q-86 0 -132 42zM944 1200h-620l29 135h617z" />
    <glyph glyph-name="uni0400" unicode="&#x415;&#x300;" horiz-adv-x="1143" 
d="M995 1067v166q0 23 -8 31t-31 8h-393l-94 -504h274q40 0 52 39l39 137h114l-90 -469h-117l21 146q6 41 -39 41h-277l-106 -560h481q37 0 51 41l64 197h125l-68 -340h-1024v86l119 10q43 3 49 39l213 1102q7 37 -39 41l-114 10v86h991l-62 -307h-131zM518 1723
q-47 31 -47 88q-1 57 47 79q18 8 42 9q41 0 64 -12q22 -12 44 -39l274 -320h-127z" />
    <glyph glyph-name="uni0401" unicode="&#x415;&#x308;" horiz-adv-x="1143" 
d="M995 1067v166q0 23 -8 31t-31 8h-393l-94 -504h274q40 0 52 39l39 137h114l-90 -469h-117l21 146q6 41 -39 41h-277l-106 -560h481q37 0 51 41l64 197h125l-68 -340h-1024v86l119 10q43 3 49 39l213 1102q7 37 -39 41l-114 10v86h991l-62 -307h-131zM1100 1713
q0 -23 -8 -44t-24 -37t-36 -25t-43 -9q-47 0 -80 35q-32 35 -32 68q1 55 35 89t67 35q33 0 53 -9t36 -24q16 -16 24 -36t8 -43zM676 1713q0 -46 -33 -81q-33 -34 -68 -34q-57 0 -90 35q-32 35 -32 67q0 55 33 90t66 35q34 0 54 -9t36 -24q34 -32 34 -79z" />
    <glyph glyph-name="uni0403" unicode="&#x413;&#x301;" horiz-adv-x="1081" 
d="M993 1270h-424l-223 -1131q-2 -13 6 -27t29 -16l111 -8v-88h-543v88l139 8q22 2 36 16t15 27l217 1096q3 12 -5 26t-29 17l-119 8v88h997l-74 -377h-106l12 240q2 13 -12 23t-27 10zM1014 1872q27 -27 27 -69t-49 -76l-307 -199h-144l279 320q32 39 63 45t67 6t64 -27z
" />
    <glyph glyph-name="uni0407" unicode="&#x406;&#x308;" horiz-adv-x="643" 
d="M504 0h-535v86l129 10q33 3 39 39l213 1102q7 37 -39 41l-114 10v86h532v-86l-131 -10q-20 -2 -28 -12t-13 -29l-213 -1102q-7 -36 41 -39l119 -10v-86zM854 1713q0 -23 -8 -44t-24 -37t-36 -25t-43 -9q-47 0 -80 35q-32 35 -32 68q1 55 35 89t67 35q33 0 53 -9t36 -24
q16 -16 24 -36t8 -43zM430 1713q0 -46 -33 -81q-33 -34 -68 -34q-57 0 -90 35q-32 35 -32 67q0 55 33 90t66 35q34 0 54 -9t36 -24q34 -32 34 -79z" />
    <glyph glyph-name="uni040C" unicode="&#x41a;&#x301;" horiz-adv-x="1309" 
d="M1436 1296q0 -69 -103 -141l-194 88q-79 -67 -139 -185q-26 -50 -50 -102t-64 -112q-90 -136 -196 -178q93 -24 125 -91l242 -477l139 -10v-88h-336v66l-242 475q-26 58 -182 71l-92 -471q-3 -13 5 -27t30 -16l123 -10v-88h-533v88l117 10q22 2 35 16t16 27l215 1092
q8 39 -33 43l-110 10v88h539v-88l-136 -10q-22 -2 -36 -16t-17 -27l-100 -516q192 0 311 141q48 56 79 118l62 124q78 157 170 232t207 75q72 -1 110 -35t38 -76zM1151 1872q27 -27 27 -69t-49 -76l-307 -199h-144l279 320q32 39 63 45q32 6 68 6t63 -27z" />
    <glyph glyph-name="uni040D" unicode="&#x418;&#x300;" horiz-adv-x="1458" 
d="M1317 0h-531v88l117 8q23 2 37 16t16 27l166 844l-757 -741l-21 -103q-2 -13 6 -27t31 -16l119 -8v-88h-541v88l127 8q22 2 36 16t15 27l217 1096q3 12 -5 26t-30 17l-106 8v88h532v-88l-131 -8q-22 -2 -36 -16t-17 -27l-160 -809l758 743l12 66q5 12 -3 26t-29 17
l-117 8v88h520v-88l-110 -8q-23 -3 -37 -17t-17 -26l-215 -1096q-3 -13 5 -27t28 -16l121 -8v-88zM682 1723q-47 31 -47 88q-1 57 47 79q18 8 42 9q41 0 64 -12q22 -12 44 -39l274 -320h-127z" />
    <glyph glyph-name="uni040E" unicode="&#x423;&#x306;" horiz-adv-x="1425" 
d="M208 -20q-30 12 -54 39t-25 73q0 62 127 139l203 -88q44 29 86 80t84 105l-316 946l-155 12v88h598v-88l-140 -6q-23 -2 -38 -15t-9 -30l215 -668l451 668q9 15 0 29t-31 16l-123 6v88h482v-88l-154 -14l-713 -1039q-187 -266 -400 -266q-58 1 -88 13zM949 1524
q-169 0 -239 102q-24 34 -23 69q0 59 30 97q30 39 79 39t81 -19l37 -161q33 -29 87 -29q87 0 144 53t86 117h78q-113 -268 -360 -268z" />
    <glyph glyph-name="uni0419" unicode="&#x418;&#x306;" horiz-adv-x="1458" 
d="M1317 0h-531v88l117 8q23 2 37 16t16 27l166 844l-757 -741l-21 -103q-2 -13 6 -27t31 -16l119 -8v-88h-541v88l127 8q22 2 36 16t15 27l217 1096q3 12 -5 26t-30 17l-106 8v88h532v-88l-131 -8q-22 -2 -36 -16t-17 -27l-160 -809l758 743l12 66q5 12 -3 26t-29 17
l-117 8v88h520v-88l-110 -8q-23 -3 -37 -17t-17 -26l-215 -1096q-3 -13 5 -27t28 -16l121 -8v-88zM924 1524q-168 0 -238 102q-24 34 -24 69q0 59 30 97q30 39 79 39t81 -19l37 -161q33 -29 87 -29q87 0 144 53t86 117h78q-113 -268 -360 -268z" />
    <glyph glyph-name="uni0439" unicode="&#x438;&#x306;" horiz-adv-x="1079" 
d="M782 -25q-46 -1 -73 19q-29 20 -39 46t-9 51q1 26 1 38q-162 -154 -361 -154q-131 0 -179 80q-49 80 -30 176l133 639l-172 19v59l309 64h84l-163 -781q-11 -49 26 -89q38 -40 77 -40q71 0 149 37q77 37 137 94l155 754h191l-164 -788q-12 -56 18 -86q30 -29 84 -29
q53 0 117 37v-72q-73 -42 -159 -58t-132 -16zM479 1372q27 35 74 35q46 0 73 -16l33 -148q30 -26 80 -26q81 0 132 50q52 50 76 105h70q-105 -244 -328 -244q-95 0 -145 31q-92 58 -92 118t27 95z" />
    <glyph glyph-name="uni0450" unicode="&#x435;&#x300;" horiz-adv-x="889" 
d="M182 45q-116 93 -116 323t160 432q102 130 238 184q68 26 141 26q126 0 196 -80q53 -60 53 -121q0 -60 -26 -107t-70 -85q-85 -73 -223 -116q-137 -44 -263 -50q-8 -53 -8 -102q0 -106 53 -179q53 -72 132 -72t162 50t196 149v-129q-200 -193 -416 -193q-122 0 -209 70z
M641 882q-31 33 -72 33q-42 0 -73 -18q-32 -18 -60 -48q-55 -57 -95 -147q-41 -90 -60 -174q142 14 261 92q58 38 94 85q36 48 36 96t-31 81zM424 1323q-47 31 -47 88q-1 57 47 79q18 8 42 9q41 0 64 -12q22 -12 44 -39l274 -320h-127z" />
    <glyph glyph-name="uni0451" unicode="&#x435;&#x308;" horiz-adv-x="889" 
d="M182 45q-116 93 -116 323t160 432q102 130 238 184q68 26 141 26q126 0 196 -80q53 -60 53 -121q0 -60 -26 -107t-70 -85q-85 -73 -223 -116q-137 -44 -263 -50q-8 -53 -8 -102q0 -106 53 -179q53 -72 132 -72t162 50t196 149v-129q-200 -193 -416 -193q-122 0 -209 70z
M641 882q-31 33 -72 33q-42 0 -73 -18q-32 -18 -60 -48q-55 -57 -95 -147q-41 -90 -60 -174q142 14 261 92q58 38 94 85q36 48 36 96t-31 81zM1006 1313q0 -23 -8 -44t-24 -37t-36 -25t-43 -9q-47 0 -80 35q-32 35 -32 68q1 55 35 89t67 35q33 0 53 -9t36 -24q16 -16 24 -36
t8 -43zM582 1313q0 -46 -33 -81q-33 -34 -68 -34q-57 0 -90 35q-32 35 -32 67q0 55 33 90t66 35q34 0 54 -9t36 -24q34 -32 34 -79z" />
    <glyph glyph-name="uni0453" unicode="&#x433;&#x301;" horiz-adv-x="891" 
d="M618 1012q108 0 177 -59t69 -149t-115 -168q-84 -58 -321 -155q-88 -36 -150 -109q-61 -73 -61 -137t26 -99q47 -62 117 -62q135 0 289 168l96 -43q-187 -224 -432 -224q-196 0 -265 141q-23 47 -23 103q0 98 95 186t202 131q189 77 271 142q81 65 81 133q0 100 -111 100
q-58 0 -105 -26t-110 -90l-67 61q120 156 337 156zM875 1472q27 -27 27 -69t-49 -76l-307 -199h-144l279 320q32 39 63 45q32 6 68 6t63 -27z" />
    <glyph glyph-name="uni0457" unicode="&#x456;&#x308;" horiz-adv-x="545" 
d="M113 35q-31 60 -15 141l131 694l-176 19v59l309 64h84l-155 -819q-8 -41 15 -73t63 -32q39 0 100 23q60 23 70 26v-78q-12 -5 -44 -19t-75 -28q-108 -36 -192 -37q-84 0 -115 60zM746 1313q0 -23 -8 -44t-24 -37t-36 -25t-43 -9q-47 0 -80 35q-32 35 -32 68q1 55 35 89
t67 35q33 0 53 -9t36 -24q16 -16 24 -36t8 -43zM322 1313q0 -46 -33 -81q-33 -34 -68 -34q-57 0 -90 35q-32 35 -32 67q0 55 33 90t66 35q34 0 54 -9t36 -24q34 -32 34 -79z" />
    <glyph glyph-name="uni045C" unicode="&#x43a;&#x301;" horiz-adv-x="1020" 
d="M993 211q-253 -315 -359 -213q-24 22 -38 53l-174 340q-12 24 -35 33q-23 8 -76 8l-86 -432h-188l168 864l-160 29v53l317 66h62l-94 -486q133 0 206 106q41 60 69 120q28 58 46 90q98 172 246 172q55 0 87 -28t32 -66q0 -57 -86 -115l-154 69q-47 -42 -75 -100
q-29 -58 -45 -93q-60 -126 -148 -181q59 -29 80 -70l129 -254q21 -47 67 -47t144 98q23 23 35 37zM937 1472q27 -27 27 -69t-49 -76l-307 -199h-144l279 320q32 39 63 45q32 6 68 6t63 -27z" />
    <glyph glyph-name="uni045D" unicode="&#x438;&#x300;" horiz-adv-x="1079" 
d="M782 -25q-46 -1 -73 19q-29 20 -39 46t-9 51q1 26 1 38q-162 -154 -361 -154q-131 0 -179 80q-49 80 -30 176l133 639l-172 19v59l309 64h84l-163 -781q-11 -49 26 -89q38 -40 77 -40q71 0 149 37q77 37 137 94l155 754h191l-164 -788q-12 -56 18 -86q30 -29 84 -29
q53 0 117 37v-72q-73 -42 -159 -58t-132 -16zM470 1323q-47 31 -47 88q-1 57 47 79q18 8 42 9q41 0 64 -12q22 -12 44 -39l274 -320h-127z" />
    <glyph glyph-name="uni045E" unicode="&#x443;&#x306;" horiz-adv-x="1018" 
d="M-118 -427q-46 42 -46 79q0 61 40 96t101 39l119 -119q62 6 126 89t171 280q-89 535 -183 802q-13 37 -20 38l-186 14v51l28 9q20 7 44 15t51 16t68 19t64 11q53 0 93 -60q59 -88 122 -386q28 -134 58 -300l312 746h59l170 -56v-47l-102 -63q-46 -46 -100 -144t-72 -138
q-17 -40 -47 -110q-308 -734 -584 -886q-68 -38 -154 -37q-86 0 -132 42zM407 1372q27 35 74 35q46 0 73 -16l33 -148q30 -26 80 -26q81 0 132 50q52 50 76 105h70q-105 -244 -328 -244q-95 0 -145 31q-92 58 -92 118t27 95z" />
    <glyph glyph-name="uni04C1" unicode="&#x416;&#x306;" horiz-adv-x="1825" 
d="M180 1288q0 47 60 83t124 36q130 0 185 -70q68 -82 76 -218t16 -180q8 -45 24 -79q17 -34 27 -60t28 -44q36 -39 124 -39l102 516q3 13 -5 27t-30 16l-110 10v88h528v-88l-125 -10q-20 -2 -34 -16t-17 -27l-102 -516q91 0 141 39q26 20 83 89t87 131t58 124
q143 308 372 307q106 1 138 -73q10 -22 9 -43q0 -63 -102 -136l-195 88q-77 -65 -134 -185q-24 -50 -46 -102t-62 -112q-88 -132 -175 -178q115 -31 151 -111l195 -457l139 -10v-88h-344v66l-213 475q-32 65 -123 71l-92 -471q-8 -39 33 -43l104 -10v-88h-528v88l131 10
q22 2 36 16t15 27l94 471q-95 -6 -149 -71l-402 -475v-66h-360v88l168 10l375 457q72 89 194 111q-72 59 -104 186q-15 52 -17 104t-6 102q-10 121 -61 185l-230 -88q-51 51 -51 133zM1097 1524q-169 0 -239 102q-24 34 -23 69q0 59 30 97q30 39 79 39t81 -19l37 -161
q33 -29 87 -29q87 0 144 53t86 117h78q-113 -268 -360 -268z" />
    <glyph glyph-name="uni04C2" unicode="&#x436;&#x306;" horiz-adv-x="1880" 
d="M786 658q0 -64 -4 -103h74l86 432h191l-86 -432h75q58 193 203 325t281 132q100 0 154 -45t55 -99q0 -76 -78 -112q-31 -14 -80 -21l-98 158q-85 -1 -152 -97q-84 -122 -110 -320q-7 -54 -7 -100q0 -104 45 -185q45 -82 117 -82q106 0 236 117q40 36 84 79v-129
q-99 -96 -149 -128q-113 -73 -236 -73t-208 102t-85 279q0 60 8 97h-78l-90 -453h-191l93 453h-74q-54 -201 -200 -340q-146 -138 -288 -138q-101 0 -154 45q-54 45 -54 99q0 114 157 133l99 -158q84 0 160 108t101 308q7 54 7 100q0 106 -45 187q-45 82 -117 82
q-105 0 -236 -118q-40 -36 -83 -79v129q90 90 145 126q117 75 239 75q121 0 205 -100q40 -48 64 -119t24 -135zM1068 1128q-95 0 -145 31q-49 31 -71 63t-21 62q0 53 27 88t74 35q46 0 73 -16l33 -148q30 -26 80 -26q81 0 132 50q52 50 76 105h70q-105 -244 -328 -244z" />
    <glyph glyph-name="uni04D0" unicode="&#x410;&#x306;" horiz-adv-x="1378" 
d="M801 0v86l94 10q45 6 39 39l-62 391h-464l-209 -391q-11 -20 -1 -28t40 -11l94 -10v-86h-441v86l115 12l756 1309h164l221 -1272q3 -21 11 -29t30 -10l94 -10v-86h-481zM766 1155l-303 -532h391zM865 1524q-169 0 -239 102q-24 34 -23 69q0 59 30 97q30 39 79 39t81 -19
l37 -161q33 -29 87 -29q87 0 144 53t86 117h78q-113 -268 -360 -268z" />
    <glyph glyph-name="uni04D1" unicode="&#x430;&#x306;" 
d="M795 -25q-102 0 -130 80q-9 26 -12 60q-146 -140 -291 -140q-207 1 -273 207q-23 72 -23 155q0 85 17 165t51 154q72 159 205 258q134 98 316 98q79 0 151 -47q20 -13 34 -27l30 49h140q-35 -84 -40 -114q-6 -31 -19 -85t-27 -122q-86 -401 -86 -485q0 -85 88 -85
q18 0 68 14q51 14 67 19v-74q-192 -80 -266 -80zM684 913q-214 0 -326 -195q-90 -159 -90 -343t80 -242q30 -22 72 -22q106 0 233 127l107 565q2 11 -28 61q-30 49 -48 49zM702 1128q-95 0 -145 31q-49 31 -71 63t-21 62q0 53 27 88t74 35q46 0 73 -16l33 -148
q30 -26 80 -26q81 0 132 50q52 50 76 105h70q-105 -244 -328 -244z" />
    <glyph glyph-name="uni04D2" unicode="&#x410;&#x308;" horiz-adv-x="1378" 
d="M801 0v86l94 10q45 6 39 39l-62 391h-464l-209 -391q-11 -20 -1 -28t40 -11l94 -10v-86h-441v86l115 12l756 1309h164l221 -1272q3 -21 11 -29t30 -10l94 -10v-86h-481zM766 1155l-303 -532h391zM1205 1713q-1 -23 -9 -44t-23 -37t-35 -25t-44 -9q-47 0 -80 35
q-32 35 -32 68q0 55 34 89t68 35q34 0 54 -9t35 -24q15 -16 23 -36t9 -43zM781 1713q0 -46 -33 -81q-33 -34 -68 -34q-57 0 -90 35q-32 35 -32 67q0 55 33 90t66 35q35 0 55 -9t36 -24q34 -32 33 -79z" />
    <glyph glyph-name="uni04D3" unicode="&#x430;&#x308;" 
d="M795 -25q-102 0 -130 80q-9 26 -12 60q-146 -140 -291 -140q-207 1 -273 207q-23 72 -23 155q0 85 17 165t51 154q72 159 205 258q134 98 316 98q79 0 151 -47q20 -13 34 -27l30 49h140q-35 -84 -40 -114q-6 -31 -19 -85t-27 -122q-86 -401 -86 -485q0 -85 88 -85
q18 0 68 14q51 14 67 19v-74q-192 -80 -266 -80zM684 913q-214 0 -326 -195q-90 -159 -90 -343t80 -242q30 -22 72 -22q106 0 233 127l107 565q2 11 -28 61q-30 49 -48 49zM1065 1313q-1 -23 -9 -44t-23 -37t-35 -25t-44 -9q-47 0 -80 35q-32 35 -32 68q0 55 34 89t68 35
q34 0 54 -9t35 -24q15 -16 23 -36t9 -43zM641 1313q0 -46 -33 -81q-33 -34 -68 -34q-57 0 -90 35q-32 35 -32 67q0 55 33 90t66 35q35 0 55 -9t36 -24q34 -32 33 -79z" />
    <glyph glyph-name="uni04D6" unicode="&#x415;&#x306;" horiz-adv-x="1143" 
d="M995 1067v166q0 23 -8 31t-31 8h-393l-94 -504h274q40 0 52 39l39 137h114l-90 -469h-117l21 146q6 41 -39 41h-277l-106 -560h481q37 0 51 41l64 197h125l-68 -340h-1024v86l119 10q43 3 49 39l213 1102q7 37 -39 41l-114 10v86h991l-62 -307h-131zM760 1524
q-168 0 -238 102q-24 34 -24 69q0 59 30 97q30 39 79 39t81 -19l37 -161q33 -29 87 -29q87 0 144 53t86 117h78q-113 -268 -360 -268z" />
    <glyph glyph-name="uni04D7" unicode="&#x435;&#x306;" horiz-adv-x="889" 
d="M182 45q-116 93 -116 323t160 432q102 130 238 184q68 26 141 26q126 0 196 -80q53 -60 53 -121q0 -60 -26 -107t-70 -85q-85 -73 -223 -116q-137 -44 -263 -50q-8 -53 -8 -102q0 -106 53 -179q53 -72 132 -72t162 50t196 149v-129q-200 -193 -416 -193q-122 0 -209 70z
M641 882q-31 33 -72 33q-42 0 -73 -18q-32 -18 -60 -48q-55 -57 -95 -147q-41 -90 -60 -174q142 14 261 92q58 38 94 85q36 48 36 96t-31 81zM643 1128q-95 0 -145 31q-48 31 -70 63t-22 62q0 53 27 88t74 35q46 0 73 -16l33 -148q30 -26 80 -26q81 0 132 50q52 50 76 105
h70q-105 -244 -328 -244z" />
    <glyph glyph-name="uni04DA" unicode="&#x4d8;&#x308;" horiz-adv-x="1231" 
d="M1194 872q0 -364 -186 -622q-62 -86 -148 -149q-180 -134 -433 -134q-253 1 -353 191q-32 60 -31 112q0 250 224 376t696 128q6 50 6 112q-1 62 -23 138t-64 135q-93 131 -233 131q-167 0 -373 -177q-54 -47 -106 -89v158q142 129 214 163q129 62 303 62q173 0 323 -116
q184 -142 184 -419zM351 140q60 -64 133 -64q74 0 148 48t134 128q123 163 180 407q-350 -5 -514 -119q-76 -54 -108 -124t-33 -141q0 -71 60 -135zM1131 1713q-1 -23 -9 -44t-23 -37t-35 -25t-44 -9q-47 0 -80 35q-32 35 -32 68q0 55 34 89t68 35q34 0 54 -9t35 -24
q15 -16 23 -36t9 -43zM707 1713q0 -46 -33 -81q-33 -34 -68 -34q-57 0 -90 35q-32 35 -32 67q0 55 33 90t66 35q35 0 55 -9t36 -24q34 -32 33 -79z" />
    <glyph glyph-name="uni04DB" unicode="&#x4d9;&#x308;" horiz-adv-x="889" 
d="M823 636q1 -80 -19 -160t-56 -154q-75 -154 -199 -250q-124 -97 -257 -97q-132 -1 -202 81q-52 62 -53 122q0 60 26 107t70 85q82 71 215 115q132 43 268 52q9 40 9 94q0 112 -53 185t-132 73t-162 -50t-194 -149v127q125 125 281 173q63 20 113 20t88 -6q36 -6 72 -22
t70 -42t58 -68q26 -42 42 -100q16 -56 15 -136zM248 104q31 -34 81 -34q92 0 170 125q79 125 109 262q-143 -13 -261 -90q-57 -37 -93 -85t-37 -96q0 -48 31 -82zM878 1313q0 -23 -8 -44t-24 -37t-36 -25t-43 -9q-47 0 -80 35q-32 35 -32 68q1 55 35 89t67 35q33 0 53 -9
t36 -24q16 -16 24 -36t8 -43zM454 1313q0 -46 -33 -81q-33 -34 -68 -34q-57 0 -90 35q-32 35 -32 67q0 55 33 90t66 35q34 0 54 -9t36 -24q34 -32 34 -79z" />
    <glyph glyph-name="uni04DC" unicode="&#x416;&#x308;" horiz-adv-x="1825" 
d="M180 1288q0 47 60 83t124 36q130 0 185 -70q68 -82 76 -218t16 -180q8 -45 24 -79q17 -34 27 -60t28 -44q36 -39 124 -39l102 516q3 13 -5 27t-30 16l-110 10v88h528v-88l-125 -10q-20 -2 -34 -16t-17 -27l-102 -516q91 0 141 39q26 20 83 89t87 131t58 124
q143 308 372 307q106 1 138 -73q10 -22 9 -43q0 -63 -102 -136l-195 88q-77 -65 -134 -185q-24 -50 -46 -102t-62 -112q-88 -132 -175 -178q115 -31 151 -111l195 -457l139 -10v-88h-344v66l-213 475q-32 65 -123 71l-92 -471q-8 -39 33 -43l104 -10v-88h-528v88l131 10
q22 2 36 16t15 27l94 471q-95 -6 -149 -71l-402 -475v-66h-360v88l168 10l375 457q72 89 194 111q-72 59 -104 186q-15 52 -17 104t-6 102q-10 121 -61 185l-230 -88q-51 51 -51 133zM1437 1713q-1 -23 -9 -44t-23 -37t-35 -25t-44 -9q-47 0 -80 35q-32 35 -32 68
q0 55 34 89t68 35q34 0 54 -9t35 -24q15 -16 23 -36t9 -43zM1013 1713q0 -46 -33 -81q-33 -34 -68 -34q-57 0 -90 35q-32 35 -32 67q0 55 33 90t66 35q35 0 55 -9t36 -24q34 -32 33 -79z" />
    <glyph glyph-name="uni04DD" unicode="&#x436;&#x308;" horiz-adv-x="1880" 
d="M786 658q0 -64 -4 -103h74l86 432h191l-86 -432h75q58 193 203 325t281 132q100 0 154 -45t55 -99q0 -76 -78 -112q-31 -14 -80 -21l-98 158q-85 -1 -152 -97q-84 -122 -110 -320q-7 -54 -7 -100q0 -104 45 -185q45 -82 117 -82q106 0 236 117q40 36 84 79v-129
q-99 -96 -149 -128q-113 -73 -236 -73t-208 102t-85 279q0 60 8 97h-78l-90 -453h-191l93 453h-74q-54 -201 -200 -340q-146 -138 -288 -138q-101 0 -154 45q-54 45 -54 99q0 114 157 133l99 -158q84 0 160 108t101 308q7 54 7 100q0 106 -45 187q-45 82 -117 82
q-105 0 -236 -118q-40 -36 -83 -79v129q90 90 145 126q117 75 239 75q121 0 205 -100q40 -48 64 -119t24 -135zM1431 1313q-1 -23 -9 -44t-23 -37t-35 -25t-44 -9q-47 0 -80 35q-32 35 -32 68q0 55 34 89t68 35q34 0 54 -9t35 -24q15 -16 23 -36t9 -43zM1007 1313
q0 -46 -33 -81q-33 -34 -68 -34q-57 0 -90 35q-32 35 -32 67q0 55 33 90t66 35q35 0 55 -9t36 -24q34 -32 33 -79z" />
    <glyph glyph-name="uni04DE" unicode="&#x417;&#x308;" horiz-adv-x="1118" 
d="M960 860q-113 -93 -274 -137q218 -15 300 -159q28 -50 28 -128t-27 -148t-73 -122q-87 -100 -234 -150q-146 -49 -310 -49q-163 0 -388 72l61 321h125l-8 -186q-3 -63 152 -99q52 -12 107 -12t131 29q76 28 134 80q130 114 129 274q0 106 -78 157q-78 50 -178 50t-135 -8
l22 121l62 -2q149 -4 264 87t115 243q0 98 -71 154q-71 55 -153 55q-81 0 -143 -25q-118 -48 -137 -98l-68 -187h-123l62 312q228 102 457 102q151 1 259 -65q128 -78 128 -224t-136 -258zM1051 1713q-1 -23 -9 -44t-23 -37t-35 -25t-44 -9q-47 0 -80 35q-32 35 -32 68
q0 55 34 89t68 35q34 0 54 -9t35 -24q15 -16 23 -36t9 -43zM627 1713q0 -46 -33 -81q-33 -34 -68 -34q-57 0 -90 35q-32 35 -32 67q0 55 33 90t66 35q35 0 55 -9t36 -24q34 -32 33 -79z" />
    <glyph glyph-name="uni04DF" unicode="&#x437;&#x308;" horiz-adv-x="907" 
d="M763 620q-81 -72 -202 -102q154 -7 208 -106q19 -35 19 -94t-22 -112t-60 -92q-69 -72 -183 -105q-114 -34 -245 -34q-132 0 -311 52l47 231h99v-115q0 -43 125 -69q40 -8 82 -8t96 16t94 50q88 71 88 184t-124 138q-34 7 -80 7t-77 -8l21 106l41 -2q179 -7 245 128
q22 44 21 93q0 81 -49 113q-49 31 -129 31q-81 0 -165 -51q-26 -16 -36 -37l-47 -119h-98l45 223q182 74 362 74q116 0 206 -46q110 -57 110 -166q0 -108 -81 -180zM896 1313q0 -23 -8 -44t-24 -37t-36 -25t-43 -9q-47 0 -80 35q-32 35 -32 68q1 55 35 89t67 35q33 0 53 -9
t36 -24q16 -16 24 -36t8 -43zM472 1313q0 -46 -33 -81q-33 -34 -68 -34q-57 0 -90 35q-32 35 -32 67q0 55 33 90t66 35q34 0 54 -9t36 -24q34 -32 34 -79z" />
    <glyph glyph-name="uni04E2" unicode="&#x418;&#x304;" horiz-adv-x="1458" 
d="M1317 0h-531v88l117 8q23 2 37 16t16 27l166 844l-757 -741l-21 -103q-2 -13 6 -27t31 -16l119 -8v-88h-541v88l127 8q22 2 36 16t15 27l217 1096q3 12 -5 26t-30 17l-106 8v88h532v-88l-131 -8q-22 -2 -36 -16t-17 -27l-160 -809l758 743l12 66q5 12 -3 26t-29 17
l-117 8v88h520v-88l-110 -8q-23 -3 -37 -17t-17 -26l-215 -1096q-3 -13 5 -27t28 -16l121 -8v-88zM1228 1600h-620l29 135h617z" />
    <glyph glyph-name="uni04E3" unicode="&#x438;&#x304;" horiz-adv-x="1079" 
d="M782 -25q-46 -1 -73 19q-29 20 -39 46t-9 51q1 26 1 38q-162 -154 -361 -154q-131 0 -179 80q-49 80 -30 176l133 639l-172 19v59l309 64h84l-163 -781q-11 -49 26 -89q38 -40 77 -40q71 0 149 37q77 37 137 94l155 754h191l-164 -788q-12 -56 18 -86q30 -29 84 -29
q53 0 117 37v-72q-73 -42 -159 -58t-132 -16zM1016 1200h-620l29 135h617z" />
    <glyph glyph-name="uni04E4" unicode="&#x418;&#x308;" horiz-adv-x="1458" 
d="M1317 0h-531v88l117 8q23 2 37 16t16 27l166 844l-757 -741l-21 -103q-2 -13 6 -27t31 -16l119 -8v-88h-541v88l127 8q22 2 36 16t15 27l217 1096q3 12 -5 26t-30 17l-106 8v88h532v-88l-131 -8q-22 -2 -36 -16t-17 -27l-160 -809l758 743l12 66q5 12 -3 26t-29 17
l-117 8v88h520v-88l-110 -8q-23 -3 -37 -17t-17 -26l-215 -1096q-3 -13 5 -27t28 -16l121 -8v-88zM1264 1713q0 -23 -8 -44t-24 -37t-36 -25t-43 -9q-47 0 -80 35q-32 35 -32 68q1 55 35 89t67 35q33 0 53 -9t36 -24q16 -16 24 -36t8 -43zM840 1713q0 -46 -33 -81
q-33 -34 -68 -34q-57 0 -90 35q-32 35 -32 67q0 55 33 90t66 35q34 0 54 -9t36 -24q34 -32 34 -79z" />
    <glyph glyph-name="uni04E5" unicode="&#x438;&#x308;" horiz-adv-x="1079" 
d="M782 -25q-46 -1 -73 19q-29 20 -39 46t-9 51q1 26 1 38q-162 -154 -361 -154q-131 0 -179 80q-49 80 -30 176l133 639l-172 19v59l309 64h84l-163 -781q-11 -49 26 -89q38 -40 77 -40q71 0 149 37q77 37 137 94l155 754h191l-164 -788q-12 -56 18 -86q30 -29 84 -29
q53 0 117 37v-72q-73 -42 -159 -58t-132 -16zM1052 1313q0 -23 -8 -44t-24 -37t-36 -25t-43 -9q-47 0 -80 35q-32 35 -32 68q1 55 35 89t67 35q33 0 53 -9t36 -24q16 -16 24 -36t8 -43zM628 1313q0 -46 -33 -81q-33 -34 -68 -34q-57 0 -90 35q-32 35 -32 67q0 55 33 90
t66 35q34 0 54 -9t36 -24q34 -32 34 -79z" />
    <glyph glyph-name="uni04E6" unicode="&#x41e;&#x308;" horiz-adv-x="1454" 
d="M1060 96q-173 -129 -413 -129q-239 0 -394 157t-155 396t98 439t272 324t408 124q233 0 386 -159t153 -386t-91 -432t-264 -334zM1087 1180q-95 125 -242 125q-146 0 -263 -117t-185 -300q-67 -182 -67 -376t97 -316t241 -122q145 0 262 118t185 301q67 182 67 372
t-95 315zM1259 1713q-1 -23 -9 -44t-23 -37t-35 -25t-44 -9q-47 0 -80 35q-32 35 -32 68q0 55 34 89t68 35q34 0 54 -9t35 -24q15 -16 23 -36t9 -43zM835 1713q0 -46 -33 -81q-33 -34 -68 -34q-57 0 -90 35q-32 35 -32 67q0 55 33 90t66 35q35 0 55 -9t36 -24q34 -32 33 -79
z" />
    <glyph glyph-name="uni04E7" unicode="&#x43e;&#x308;" horiz-adv-x="1036" 
d="M973 624q-1 -94 -19 -172q-18 -80 -52 -151q-71 -147 -196 -236q-125 -90 -286 -90t-259 105t-98 282q0 256 151 450q98 126 240 175q72 25 149 25t143 -23t118 -72q50 -49 80 -124t29 -169zM715 844q-51 80 -124 80q-137 0 -229 -172t-92 -386q0 -215 111 -279
q33 -19 77 -19t86 24t76 66t62 97q27 55 46 117q38 123 38 257q0 135 -51 215zM1009 1313q-1 -23 -9 -44t-23 -37t-35 -25t-44 -9q-47 0 -80 35q-32 35 -32 68q0 55 34 89t68 35q34 0 54 -9t35 -24q15 -16 23 -36t9 -43zM585 1313q0 -46 -33 -81q-33 -34 -68 -34
q-57 0 -90 35q-32 35 -32 67q0 55 33 90t66 35q35 0 55 -9t36 -24q34 -32 33 -79z" />
    <glyph glyph-name="uni04EA" unicode="&#x4e8;&#x308;" horiz-adv-x="1454" 
d="M1060 96q-173 -129 -413 -129q-239 0 -394 157t-155 396t98 439t272 324t408 124q233 0 386 -159t153 -386t-91 -432t-264 -334zM1182 882q0 74 -26 157t-70 143q-94 124 -253 123q-158 0 -290 -159t-185 -384h820q4 46 4 120zM330 503q0 -185 97 -307t243 -122
q174 0 310 176t183 416h-823q-10 -76 -10 -163zM1259 1713q-1 -23 -9 -44t-23 -37t-35 -25t-44 -9q-47 0 -80 35q-32 35 -32 68q0 55 34 89t68 35q34 0 54 -9t35 -24q15 -16 23 -36t9 -43zM835 1713q0 -46 -33 -81q-33 -34 -68 -34q-57 0 -90 35q-32 35 -32 67q0 55 33 90
t66 35q35 0 55 -9t36 -24q34 -32 33 -79z" />
    <glyph glyph-name="uni04EB" unicode="&#x4e9;&#x308;" horiz-adv-x="1036" 
d="M973 624q-1 -94 -19 -172q-18 -80 -52 -151q-71 -147 -196 -236q-125 -90 -286 -90t-259 105t-98 282q0 256 151 450q98 126 240 175q72 25 149 25t143 -23t118 -72q50 -49 80 -124t29 -169zM766 642q0 121 -51 202q-51 80 -141 80t-168 -105q-79 -105 -115 -264h471
q4 33 4 87zM270 355q0 -129 51 -208t120 -79q118 0 196 112t111 273h-474q-4 -40 -4 -98zM1009 1313q-1 -23 -9 -44t-23 -37t-35 -25t-44 -9q-47 0 -80 35q-32 35 -32 68q0 55 34 89t68 35q34 0 54 -9t35 -24q15 -16 23 -36t9 -43zM585 1313q0 -46 -33 -81q-33 -34 -68 -34
q-57 0 -90 35q-32 35 -32 67q0 55 33 90t66 35q35 0 55 -9t36 -24q34 -32 33 -79z" />
    <glyph glyph-name="uni04EC" unicode="&#x42d;&#x308;" horiz-adv-x="1290" 
d="M1030 872q0 92 -33 178t-90 142q-112 112 -295 111q-81 0 -137 -28q-13 -5 -21 -7t-22 -14t-20 -27l-90 -234h-119l55 332q226 82 400 82q174 1 282 -49t176 -132t101 -186q32 -104 32 -213t-27 -215t-78 -202q-107 -201 -295 -322t-423 -121q-130 0 -288 47
q-50 15 -109 33l55 322h121v-191q-1 -18 11 -34t21 -20t23 -12t36 -17q141 -56 327 22q187 79 306 295q59 108 85 241h-578l19 95h571q4 32 4 124zM1152 1713q0 -23 -8 -44t-24 -37t-36 -25t-43 -9q-47 0 -80 35q-32 35 -32 68q1 55 35 89t67 35q33 0 53 -9t36 -24
q16 -16 24 -36t8 -43zM728 1713q0 -46 -33 -81q-33 -34 -68 -34q-57 0 -90 35q-32 35 -32 67q0 55 33 90t66 35q34 0 54 -9t36 -24q34 -32 34 -79z" />
    <glyph glyph-name="uni04ED" unicode="&#x44d;&#x308;" horiz-adv-x="942" 
d="M682 666q0 258 -248 258q-68 0 -108 -16t-57 -24q-17 -7 -25 -34l-45 -125h-93l48 236q143 40 203 46q61 5 129 5t145 -28q78 -28 132 -80q111 -106 111 -286q0 -260 -182 -450q-116 -122 -276 -169q-80 -24 -176 -24q-144 0 -273 54l49 241h90l3 -155q0 -49 145 -49
q240 0 340 219q34 73 57 170h-379l21 100h379q10 62 10 111zM919 1313q-1 -23 -9 -44t-23 -37t-35 -25t-44 -9q-47 0 -80 35q-32 35 -32 68q0 55 34 89t68 35q34 0 54 -9t35 -24q15 -16 23 -36t9 -43zM495 1313q0 -46 -33 -81q-33 -34 -68 -34q-57 0 -90 35q-32 35 -32 67
q0 55 33 90t66 35q35 0 55 -9t36 -24q34 -32 33 -79z" />
    <glyph glyph-name="uni04EE" unicode="&#x423;&#x304;" horiz-adv-x="1425" 
d="M208 -20q-30 12 -54 39t-25 73q0 62 127 139l203 -88q44 29 86 80t84 105l-316 946l-155 12v88h598v-88l-140 -6q-23 -2 -38 -15t-9 -30l215 -668l451 668q9 15 0 29t-31 16l-123 6v88h482v-88l-154 -14l-713 -1039q-187 -266 -400 -266q-58 1 -88 13zM1253 1600h-620
l29 135h617z" />
    <glyph glyph-name="uni04EF" unicode="&#x443;&#x304;" horiz-adv-x="1018" 
d="M-118 -427q-46 42 -46 79q0 61 40 96t101 39l119 -119q62 6 126 89t171 280q-89 535 -183 802q-13 37 -20 38l-186 14v51l28 9q20 7 44 15t51 16t68 19t64 11q53 0 93 -60q59 -88 122 -386q28 -134 58 -300l312 746h59l170 -56v-47l-102 -63q-46 -46 -100 -144t-72 -138
q-17 -40 -47 -110q-308 -734 -584 -886q-68 -38 -154 -37q-86 0 -132 42zM944 1200h-620l29 135h617z" />
    <glyph glyph-name="uni04F0" unicode="&#x423;&#x308;" horiz-adv-x="1425" 
d="M208 -20q-30 12 -54 39t-25 73q0 62 127 139l203 -88q44 29 86 80t84 105l-316 946l-155 12v88h598v-88l-140 -6q-23 -2 -38 -15t-9 -30l215 -668l451 668q9 15 0 29t-31 16l-123 6v88h482v-88l-154 -14l-713 -1039q-187 -266 -400 -266q-58 1 -88 13zM1289 1713
q-1 -23 -9 -44t-23 -37t-35 -25t-44 -9q-47 0 -80 35q-32 35 -32 68q0 55 34 89t68 35q34 0 54 -9t35 -24q15 -16 23 -36t9 -43zM865 1713q0 -46 -33 -81q-33 -34 -68 -34q-57 0 -90 35q-32 35 -32 67q0 55 33 90t66 35q35 0 55 -9t36 -24q34 -32 33 -79z" />
    <glyph glyph-name="uni04F1" unicode="&#x443;&#x308;" horiz-adv-x="1018" 
d="M-118 -427q-46 42 -46 79q0 61 40 96t101 39l119 -119q62 6 126 89t171 280q-89 535 -183 802q-13 37 -20 38l-186 14v51l28 9q20 7 44 15t51 16t68 19t64 11q53 0 93 -60q59 -88 122 -386q28 -134 58 -300l312 746h59l170 -56v-47l-102 -63q-46 -46 -100 -144t-72 -138
q-17 -40 -47 -110q-308 -734 -584 -886q-68 -38 -154 -37q-86 0 -132 42zM980 1313q0 -23 -8 -44t-24 -37t-36 -25t-43 -9q-47 0 -80 35q-32 35 -32 68q1 55 35 89t67 35q33 0 53 -9t36 -24q16 -16 24 -36t8 -43zM556 1313q0 -46 -33 -81q-33 -34 -68 -34q-57 0 -90 35
q-32 35 -32 67q0 55 33 90t66 35q34 0 54 -9t36 -24q34 -32 34 -79z" />
    <glyph glyph-name="uni04F2" unicode="&#x423;&#x30b;" horiz-adv-x="1425" 
d="M208 -20q-30 12 -54 39t-25 73q0 62 127 139l203 -88q44 29 86 80t84 105l-316 946l-155 12v88h598v-88l-140 -6q-23 -2 -38 -15t-9 -30l215 -668l451 668q9 15 0 29t-31 16l-123 6v88h482v-88l-154 -14l-713 -1039q-187 -266 -400 -266q-58 1 -88 13zM1464 1872
q27 -27 27 -68t-49 -77l-307 -199h-144l279 320q32 39 63 45t67 6t64 -27zM852 1848q44 51 106 51t90 -26q27 -26 27 -68t-49 -78l-309 -199h-141z" />
    <glyph glyph-name="uni04F3" unicode="&#x443;&#x30b;" horiz-adv-x="1018" 
d="M-118 -427q-46 42 -46 79q0 61 40 96t101 39l119 -119q62 6 126 89t171 280q-89 535 -183 802q-13 37 -20 38l-186 14v51l28 9q20 7 44 15t51 16t68 19t64 11q53 0 93 -60q59 -88 122 -386q28 -134 58 -300l312 746h59l170 -56v-47l-102 -63q-46 -46 -100 -144t-72 -138
q-17 -40 -47 -110q-308 -734 -584 -886q-68 -38 -154 -37q-86 0 -132 42zM1155 1472q27 -27 27 -68t-49 -77l-307 -199h-144l279 320q32 39 63 45q32 6 68 6t63 -27zM543 1448q44 51 106 51t90 -26q27 -26 27 -68t-49 -78l-309 -199h-141z" />
    <glyph glyph-name="uni04F4" unicode="&#x427;&#x308;" horiz-adv-x="1320" 
d="M1160 0h-512v88l109 8q19 2 33 14t18 29l96 486q-138 -77 -302 -112q-52 -11 -98 -11q-118 0 -186 64q-85 80 -54 239l86 430q4 17 -6 29t-29 14l-106 8v88h512v-88l-113 -8q-18 -2 -33 -14t-18 -29l-78 -393q-25 -139 65 -165q32 -9 72 -9q137 0 313 88l96 479
q6 36 -34 43l-99 8v88h514v-88l-123 -8q-18 -2 -33 -14t-18 -29l-217 -1096q-3 -17 7 -29t28 -14l110 -8v-88zM1188 1713q0 -23 -8 -44t-24 -37t-36 -25t-43 -9q-47 0 -80 35q-32 35 -32 68q1 55 35 89t67 35q33 0 53 -9t36 -24q16 -16 24 -36t8 -43zM764 1713
q0 -46 -33 -81q-33 -34 -68 -34q-57 0 -90 35q-32 35 -32 67q0 55 33 90t66 35q34 0 54 -9t36 -24q34 -32 34 -79z" />
    <glyph glyph-name="uni04F5" unicode="&#x447;&#x308;" horiz-adv-x="987" 
d="M983 59q-156 -84 -260 -84t-148 48q-45 48 -32 102l57 301q-148 -74 -240 -74q-168 0 -202 120q-12 42 0 103l55 295l-174 19v59l309 64h82l-78 -410q-14 -72 8 -106t94 -35q71 0 162 45l91 481h190l-154 -813q-15 -80 74 -80q40 0 166 39v-74zM966 1313q0 -23 -8 -44
t-24 -37t-36 -25t-43 -9q-47 0 -80 35q-32 35 -32 68q1 55 35 89t67 35q33 0 53 -9t36 -24q16 -16 24 -36t8 -43zM542 1313q0 -46 -33 -81q-33 -34 -68 -34q-57 0 -90 35q-32 35 -32 67q0 55 33 90t66 35q34 0 54 -9t36 -24q34 -32 34 -79z" />
    <glyph glyph-name="uni04F8" unicode="&#x42b;&#x308;" horiz-adv-x="1710" 
d="M1563 0h-539v88l129 8q23 2 37 16t16 29l215 1092q8 39 -32 43l-121 8v90h549v-90l-136 -8q-21 -2 -35 -15t-18 -28l-215 -1092q-3 -15 5 -29t30 -16l115 -8v-88zM680 858q60 0 140 -22t137 -66q120 -92 118 -256q1 -44 -15 -126q-37 -194 -179 -291t-447 -97h-479v88
l133 8q22 2 36 16t15 27l217 1096q3 12 -5 26t-29 17l-107 8v88h541v-88l-142 -8q-20 -2 -34 -16t-17 -27l-76 -387q134 10 193 10zM475 98q169 0 249 74q79 74 112 242q14 70 13 158q-2 189 -249 188q-31 0 -69 -4q-39 -4 -64 -6l-127 -648q60 -4 135 -4zM1390 1713
q0 -23 -8 -44t-24 -37t-36 -25t-43 -9q-47 0 -80 35q-32 35 -32 68q1 55 35 89t67 35q33 0 53 -9t36 -24q16 -16 24 -36t8 -43zM966 1713q0 -46 -33 -81q-33 -34 -68 -34q-57 0 -90 35q-32 35 -32 67q0 55 33 90t66 35q34 0 54 -9t36 -24q34 -32 34 -79z" />
    <glyph glyph-name="uni04F9" unicode="&#x44b;&#x308;" horiz-adv-x="1358" 
d="M1354 59q-202 -84 -299 -84q-98 0 -128 58t-16 143l131 694l-174 19v59l310 64h82l-154 -819q-10 -40 14 -73q23 -32 63 -32t101 23q60 23 70 26v-78zM486 623q144 0 241 -69q96 -69 96 -185q0 -203 -136 -306q-117 -88 -290 -88q-114 0 -210 63q-95 63 -95 175
q0 25 4 53l117 604l-174 19v59l309 64h82l-82 -424q75 35 138 35zM586 493q-40 42 -142 42q-30 0 -67 -16t-45 -21l-45 -236q-6 -30 -6 -64q0 -71 52 -105t99 -34q47 -1 81 23q33 24 59 64q54 87 55 196q-1 109 -41 151zM1184 1313q0 -23 -8 -44t-24 -37t-36 -25t-43 -9
q-47 0 -80 35q-32 35 -32 68q1 55 35 89t67 35q33 0 53 -9t36 -24q16 -16 24 -36t8 -43zM760 1313q0 -46 -33 -81q-33 -34 -68 -34q-57 0 -90 35q-32 35 -32 67q0 55 33 90t66 35q34 0 54 -9t36 -24q34 -32 34 -79z" />
    <glyph glyph-name="uni1E00" unicode="A&#x325;" horiz-adv-x="1378" 
d="M801 0v86l94 10q45 6 39 39l-62 391h-464l-209 -391q-11 -20 -1 -28t40 -11l94 -10v-86h-441v86l115 12l756 1309h164l221 -1272q3 -21 11 -29t30 -10l94 -10v-86h-481zM766 1155l-303 -532h391zM310 -549q-57 55 -57 126q0 127 88 213q88 85 186 85q99 0 156 -56
t57 -127t-24 -122q-24 -52 -64 -90q-87 -84 -186 -84t-156 55zM604 -262q-32 31 -71 31q-71 1 -123 -49q-52 -49 -51 -105q0 -55 31 -85t70 -30q40 0 70 14t54 36q52 50 52 104q0 53 -32 84z" />
    <glyph glyph-name="uni1E01" unicode="a&#x325;" 
d="M795 -25q-102 0 -130 80q-9 26 -12 60q-146 -140 -291 -140q-207 1 -273 207q-23 72 -23 155q0 85 17 165t51 154q72 159 205 258q134 98 316 98q79 0 151 -47q20 -13 34 -27l30 49h140q-35 -84 -40 -114q-6 -31 -19 -85t-27 -122q-86 -401 -86 -485q0 -85 88 -85
q18 0 68 14q51 14 67 19v-74q-192 -80 -266 -80zM684 913q-214 0 -326 -195q-90 -159 -90 -343t80 -242q30 -22 72 -22q106 0 233 127l107 565q2 11 -28 61q-30 49 -48 49zM220 -549q-57 55 -57 126q0 127 88 213q88 85 186 85q99 0 156 -56t57 -127t-24 -122
q-24 -52 -64 -90q-87 -84 -186 -84t-156 55zM514 -262q-32 31 -71 31q-71 1 -123 -49q-52 -49 -51 -105q0 -55 31 -85t70 -30q40 0 70 14t54 36q52 50 52 104q0 53 -32 84z" />
    <glyph glyph-name="uni1E02" unicode="B&#x307;" horiz-adv-x="1243" 
d="M948 1098q0 188 -278 188q-54 0 -105 -6l-100 -520q12 -1 25 -2l27 -1l44 -1q184 0 285 97q102 98 102 245zM463 92q220 0 334 92t114 254q0 228 -313 228q-79 0 -154 -11l-108 -557q72 -6 127 -6zM770 1374q406 0 406 -262q0 -269 -342 -381q220 -29 279 -157
q22 -48 22 -144t-46 -184q-129 -246 -559 -246h-561v86l129 10q33 3 39 39l213 1102q7 38 -41 41l-114 10v86h575zM922 1713q0 -24 -9 -45q-9 -20 -25 -36t-36 -25q-21 -9 -45 -9q-25 0 -45 9t-36 25t-24 36q-9 21 -9 45q1 24 9 45t24 37q16 15 36 25q21 10 45 10t45 -9
q20 -9 36 -25t25 -38t9 -45z" />
    <glyph glyph-name="uni1E03" unicode="b&#x307;" horiz-adv-x="1008" 
d="M379 889q138 123 301 123q58 0 112 -35t88 -90t48 -121t14 -131q0 -63 -14 -137t-44 -147q-66 -164 -196 -270t-318 -106q-187 0 -333 95l242 1298l-183 18v62l320 61h80zM690 813q-49 64 -98 64q-75 0 -179 -64q-31 -19 -57 -41l-114 -620q34 -52 114 -73q26 -7 64 -7
t80 24t78 65t67 96t51 117q44 130 43 253q0 122 -49 186zM820 1753q0 -24 -9 -45q-9 -20 -25 -36t-36 -25q-21 -9 -45 -9q-25 0 -45 9t-36 25t-24 36q-9 21 -9 45q1 24 9 45t24 37q16 15 36 25q21 10 45 10t45 -9q20 -9 36 -25t25 -38t9 -45z" />
    <glyph glyph-name="uni1E04" unicode="B&#x323;" horiz-adv-x="1243" 
d="M948 1098q0 188 -278 188q-54 0 -105 -6l-100 -520q12 -1 25 -2l27 -1l44 -1q184 0 285 97q102 98 102 245zM463 92q220 0 334 92t114 254q0 228 -313 228q-79 0 -154 -11l-108 -557q72 -6 127 -6zM770 1374q406 0 406 -262q0 -269 -342 -381q220 -29 279 -157
q22 -48 22 -144t-46 -184q-129 -246 -559 -246h-561v86l129 10q33 3 39 39l213 1102q7 38 -41 41l-114 10v86h575zM551 -292q0 -24 -9 -46q-8 -20 -24 -36t-36 -25t-45 -9q-24 0 -45 9q-20 9 -36 25t-25 36t-9 45q0 49 33 84t69 35q38 0 58 -10t36 -25t24 -37q9 -22 9 -46z
" />
    <glyph glyph-name="uni1E05" unicode="b&#x323;" horiz-adv-x="1008" 
d="M379 889q138 123 301 123q58 0 112 -35t88 -90t48 -121t14 -131q0 -63 -14 -137t-44 -147q-66 -164 -196 -270t-318 -106q-187 0 -333 95l242 1298l-183 18v62l320 61h80zM690 813q-49 64 -98 64q-75 0 -179 -64q-31 -19 -57 -41l-114 -620q34 -52 114 -73q26 -7 64 -7
t80 24t78 65t67 96t51 117q44 130 43 253q0 122 -49 186zM421 -292q0 -24 -9 -46q-8 -20 -24 -36t-36 -25t-45 -9q-24 0 -45 9q-20 9 -36 25t-25 36t-9 45q0 49 33 84t69 35q38 0 58 -10t36 -25t24 -37q9 -22 9 -46z" />
    <glyph glyph-name="uni1E06" unicode="B&#x331;" horiz-adv-x="1243" 
d="M948 1098q0 188 -278 188q-54 0 -105 -6l-100 -520q12 -1 25 -2l27 -1l44 -1q184 0 285 97q102 98 102 245zM463 92q220 0 334 92t114 254q0 228 -313 228q-79 0 -154 -11l-108 -557q72 -6 127 -6zM770 1374q406 0 406 -262q0 -269 -342 -381q220 -29 279 -157
q22 -48 22 -144t-46 -184q-129 -246 -559 -246h-561v86l129 10q33 3 39 39l213 1102q7 38 -41 41l-114 10v86h575zM741 -315h-620l29 135h617z" />
    <glyph glyph-name="uni1E07" unicode="b&#x331;" horiz-adv-x="1008" 
d="M379 889q138 123 301 123q58 0 112 -35t88 -90t48 -121t14 -131q0 -63 -14 -137t-44 -147q-66 -164 -196 -270t-318 -106q-187 0 -333 95l242 1298l-183 18v62l320 61h80zM690 813q-49 64 -98 64q-75 0 -179 -64q-31 -19 -57 -41l-114 -620q34 -52 114 -73q26 -7 64 -7
t80 24t78 65t67 96t51 117q44 130 43 253q0 122 -49 186zM611 -315h-620l29 135h617z" />
    <glyph glyph-name="uni1E0A" unicode="D&#x307;" horiz-adv-x="1374" 
d="M1337 860q0 -136 -29 -248t-84 -206q-111 -191 -313 -299q-202 -107 -460 -107h-482v86l127 10q20 2 28 12t13 27l213 1102q7 38 -41 41l-114 10v86h489q466 0 604 -278q50 -100 49 -236zM1116 859q0 242 -144 336q-107 70 -335 77h-74l-225 -1166h149q155 2 273 66
t197 171t119 243t40 273zM973 1713q0 -24 -9 -45q-8 -20 -24 -36t-37 -25t-45 -9t-44 9t-36 25t-25 36q-9 21 -9 45t8 45t24 37q16 15 37 25t45 10t45 -9t37 -25t24 -38q9 -22 9 -45z" />
    <glyph glyph-name="uni1E0B" unicode="d&#x307;" horiz-adv-x="1077" 
d="M641 920q-151 0 -264 -165t-113 -401q0 -187 101 -239q29 -15 58 -15q55 0 123 48t130 120l94 539q3 13 -45 63q-49 50 -84 50zM66 342q0 260 160 465t419 205q57 0 99 -18t55 -21l69 395l-186 18v62l317 61h84l-233 -1333q-9 -50 20 -72q28 -22 45 -22q15 0 37 6t46 12
q24 7 45 13l28 8v-76q-168 -70 -268 -70q-125 0 -147 92q-6 28 -7 62q-143 -154 -296 -154t-227 119q-60 96 -60 248zM975 1753q0 -24 -9 -45q-8 -20 -24 -36t-37 -25t-45 -9t-44 9t-36 25t-25 36q-9 21 -9 45t8 45t24 37q16 15 37 25t45 10t45 -9t37 -25t24 -38
q9 -22 9 -45z" />
    <glyph glyph-name="uni1E0C" unicode="D&#x323;" horiz-adv-x="1374" 
d="M1337 860q0 -136 -29 -248t-84 -206q-111 -191 -313 -299q-202 -107 -460 -107h-482v86l127 10q20 2 28 12t13 27l213 1102q7 38 -41 41l-114 10v86h489q466 0 604 -278q50 -100 49 -236zM1116 859q0 242 -144 336q-107 70 -335 77h-74l-225 -1166h149q155 2 273 66
t197 171t119 243t40 273zM602 -292q0 -24 -9 -46q-9 -20 -25 -36t-36 -25t-44 -9t-45 9t-37 25t-24 36q-9 20 -9 45q0 49 33 84t69 35q37 0 57 -10t36 -25t25 -37t9 -46z" />
    <glyph glyph-name="uni1E0D" unicode="d&#x323;" horiz-adv-x="1077" 
d="M641 920q-151 0 -264 -165t-113 -401q0 -187 101 -239q29 -15 58 -15q55 0 123 48t130 120l94 539q3 13 -45 63q-49 50 -84 50zM66 342q0 260 160 465t419 205q57 0 99 -18t55 -21l69 395l-186 18v62l317 61h84l-233 -1333q-9 -50 20 -72q28 -22 45 -22q15 0 37 6t46 12
q24 7 45 13l28 8v-76q-168 -70 -268 -70q-125 0 -147 92q-6 28 -7 62q-143 -154 -296 -154t-227 119q-60 96 -60 248zM576 -292q0 -24 -9 -46q-9 -20 -25 -36t-36 -25t-44 -9t-45 9t-37 25t-24 36q-9 20 -9 45q0 49 33 84t69 35q37 0 57 -10t36 -25t25 -37t9 -46z" />
    <glyph glyph-name="uni1E0E" unicode="D&#x331;" horiz-adv-x="1374" 
d="M1337 860q0 -136 -29 -248t-84 -206q-111 -191 -313 -299q-202 -107 -460 -107h-482v86l127 10q20 2 28 12t13 27l213 1102q7 38 -41 41l-114 10v86h489q466 0 604 -278q50 -100 49 -236zM1116 859q0 242 -144 336q-107 70 -335 77h-74l-225 -1166h149q155 2 273 66
t197 171t119 243t40 273zM792 -315h-620l29 135h617z" />
    <glyph glyph-name="uni1E0F" unicode="d&#x331;" horiz-adv-x="1077" 
d="M641 920q-151 0 -264 -165t-113 -401q0 -187 101 -239q29 -15 58 -15q55 0 123 48t130 120l94 539q3 13 -45 63q-49 50 -84 50zM66 342q0 260 160 465t419 205q57 0 99 -18t55 -21l69 395l-186 18v62l317 61h84l-233 -1333q-9 -50 20 -72q28 -22 45 -22q15 0 37 6t46 12
q24 7 45 13l28 8v-76q-168 -70 -268 -70q-125 0 -147 92q-6 28 -7 62q-143 -154 -296 -154t-227 119q-60 96 -60 248zM766 -315h-620l29 135h617z" />
    <glyph glyph-name="uni1E10" unicode="D&#x327;" horiz-adv-x="1374" 
d="M1337 860q0 -136 -29 -248t-84 -206q-111 -191 -313 -299q-202 -107 -460 -107h-482v86l127 10q20 2 28 12t13 27l213 1102q7 38 -41 41l-114 10v86h489q466 0 604 -278q50 -100 49 -236zM1116 859q0 242 -144 336q-107 70 -335 77h-74l-225 -1166h149q155 2 273 66
t197 171t119 243t40 273zM412 -159q37 34 91 34q54 1 83 -33t29 -94q0 -115 -87 -192t-214 -101l12 70q86 25 122 59q36 35 52 119h-108q-17 19 -17 62q0 42 37 76z" />
    <glyph glyph-name="uni1E11" unicode="d&#x327;" horiz-adv-x="1077" 
d="M641 920q-151 0 -264 -165t-113 -401q0 -187 101 -239q29 -15 58 -15q55 0 123 48t130 120l94 539q3 13 -45 63q-49 50 -84 50zM66 342q0 260 160 465t419 205q57 0 99 -18t55 -21l69 395l-186 18v62l317 61h84l-233 -1333q-9 -50 20 -72q28 -22 45 -22q15 0 37 6t46 12
q24 7 45 13l28 8v-76q-168 -70 -268 -70q-125 0 -147 92q-6 28 -7 62q-143 -154 -296 -154t-227 119q-60 96 -60 248zM386 -159q37 34 91 34q54 1 83 -33t29 -94q0 -115 -87 -192t-214 -101l12 70q86 25 122 59q36 35 52 119h-108q-17 19 -17 62q0 42 37 76z" />
    <glyph glyph-name="uni1E12" unicode="D&#x32d;" horiz-adv-x="1374" 
d="M1337 860q0 -136 -29 -248t-84 -206q-111 -191 -313 -299q-202 -107 -460 -107h-482v86l127 10q20 2 28 12t13 27l213 1102q7 38 -41 41l-114 10v86h489q466 0 604 -278q50 -100 49 -236zM1116 859q0 242 -144 336q-107 70 -335 77h-74l-225 -1166h149q155 2 273 66
t197 171t119 243t40 273zM652 -496l-168 189l-246 -189h-143l338 347h161l201 -347h-143z" />
    <glyph glyph-name="uni1E13" unicode="d&#x32d;" horiz-adv-x="1077" 
d="M641 920q-151 0 -264 -165t-113 -401q0 -187 101 -239q29 -15 58 -15q55 0 123 48t130 120l94 539q3 13 -45 63q-49 50 -84 50zM66 342q0 260 160 465t419 205q57 0 99 -18t55 -21l69 395l-186 18v62l317 61h84l-233 -1333q-9 -50 20 -72q28 -22 45 -22q15 0 37 6t46 12
q24 7 45 13l28 8v-76q-168 -70 -268 -70q-125 0 -147 92q-6 28 -7 62q-143 -154 -296 -154t-227 119q-60 96 -60 248zM626 -496l-168 189l-246 -189h-143l338 347h161l201 -347h-143z" />
    <glyph glyph-name="uni1E18" unicode="E&#x32d;" horiz-adv-x="1143" 
d="M995 1067v166q0 23 -8 31t-31 8h-393l-94 -504h274q40 0 52 39l39 137h114l-90 -469h-117l21 146q6 41 -39 41h-277l-106 -560h481q37 0 51 41l64 197h125l-68 -340h-1024v86l119 10q43 3 49 39l213 1102q7 37 -39 41l-114 10v86h991l-62 -307h-131zM571 -496l-168 189
l-246 -189h-143l338 347h161l201 -347h-143z" />
    <glyph glyph-name="uni1E19" unicode="e&#x32d;" horiz-adv-x="889" 
d="M182 45q-116 93 -116 323t160 432q102 130 238 184q68 26 141 26q126 0 196 -80q53 -60 53 -121q0 -60 -26 -107t-70 -85q-85 -73 -223 -116q-137 -44 -263 -50q-8 -53 -8 -102q0 -106 53 -179q53 -72 132 -72t162 50t196 149v-129q-200 -193 -416 -193q-122 0 -209 70z
M641 882q-31 33 -72 33q-42 0 -73 -18q-32 -18 -60 -48q-55 -57 -95 -147q-41 -90 -60 -174q142 14 261 92q58 38 94 85q36 48 36 96t-31 81zM521 -496l-168 189l-246 -189h-143l338 347h161l201 -347h-143z" />
    <glyph glyph-name="uni1E1A" unicode="E&#x330;" horiz-adv-x="1143" 
d="M995 1067v166q0 23 -8 31t-31 8h-393l-94 -504h274q40 0 52 39l39 137h114l-90 -469h-117l21 146q6 41 -39 41h-277l-106 -560h481q37 0 51 41l64 197h125l-68 -340h-1024v86l119 10q43 3 49 39l213 1102q7 37 -39 41l-114 10v86h991l-62 -307h-131zM504 -391
q-67 0 -135 46t-123 46q-56 0 -100 -54q-14 -17 -23 -38h-108q104 217 296 217q59 0 110 -33t81 -47t60 -14q46 0 80 27t50 67h109q-101 -217 -297 -217z" />
    <glyph glyph-name="uni1E1B" unicode="e&#x330;" horiz-adv-x="889" 
d="M182 45q-116 93 -116 323t160 432q102 130 238 184q68 26 141 26q126 0 196 -80q53 -60 53 -121q0 -60 -26 -107t-70 -85q-85 -73 -223 -116q-137 -44 -263 -50q-8 -53 -8 -102q0 -106 53 -179q53 -72 132 -72t162 50t196 149v-129q-200 -193 -416 -193q-122 0 -209 70z
M641 882q-31 33 -72 33q-42 0 -73 -18q-32 -18 -60 -48q-55 -57 -95 -147q-41 -90 -60 -174q142 14 261 92q58 38 94 85q36 48 36 96t-31 81zM454 -391q-67 0 -135 46t-123 46q-56 0 -100 -54q-14 -17 -23 -38h-108q104 217 296 217q59 0 110 -33t81 -47t60 -14q46 0 80 27
t50 67h109q-101 -217 -297 -217z" />
    <glyph glyph-name="uni1E1E" unicode="F&#x307;" horiz-adv-x="1053" 
d="M971 1044v189q0 23 -9 31t-32 8h-367l-100 -527h262q40 0 49 39l39 140h117l-90 -467h-117l20 143q8 41 -41 41h-260l-98 -506q-7 -35 39 -39l133 -10v-86h-547v86l117 10q42 3 51 39l213 1102q7 38 -41 41l-114 10v86h970l-63 -330h-131zM844 1713q0 -24 -9 -45
q-9 -20 -25 -36t-36 -25q-21 -9 -45 -9q-25 0 -45 9t-36 25t-24 36q-9 21 -9 45q1 24 9 45t24 37q16 15 36 25q21 10 45 10t45 -9q20 -9 36 -25t25 -38t9 -45z" />
    <glyph glyph-name="uni1E1F" unicode="f&#x307;" horiz-adv-x="659" 
d="M903 1382q0 -92 -129 -110l-160 129q-98 -80 -157 -465h250v-102h-269q-17 -129 -28 -208q-12 -78 -24 -164t-33 -214q-20 -128 -36 -194q-17 -66 -41 -126t-58 -118q-73 -124 -165 -202q-93 -77 -176 -77t-113 37t-30 81t53 83l209 -54q95 116 151 449q26 145 48 323
t53 381l-158 -16l2 80l178 59q38 208 132 359q122 196 313 196q95 0 141 -41q47 -42 47 -86zM744 1693q0 -24 -9 -45q-9 -20 -25 -36t-36 -25q-21 -9 -45 -9q-25 0 -45 9t-36 25t-24 36q-9 21 -9 45q1 24 9 45t24 37q16 15 36 25q21 10 45 10t45 -9q20 -9 36 -25t25 -38
t9 -45z" />
    <glyph glyph-name="uni1E20" unicode="G&#x304;" horiz-adv-x="1409" 
d="M98 547q0 133 35 247t97 210q121 188 324 296q203 107 427 107q135 -1 273 -39q48 -14 108 -31l-64 -329h-139l6 188q4 46 -39 57q-4 1 -17 8t-51 21t-108 14q-72 0 -148 -25t-146 -72q-147 -98 -240 -277q-92 -179 -92 -406q0 -288 228 -400q83 -41 163 -40q81 0 141 16
t72 19l80 417q3 17 -5 27t-36 12l-113 11v86h528v-86l-116 -11q-43 -4 -52 -39l-92 -481q-268 -80 -480 -80q-80 0 -168 27q-88 26 -152 72q-118 83 -171 216q-53 132 -53 265zM1262 1600h-620l29 135h617z" />
    <glyph glyph-name="uni1E21" unicode="g&#x304;" horiz-adv-x="901" 
d="M831 711q0 -84 -36 -157t-97 -122q-122 -98 -311 -98q-20 -43 -23 -79q-2 -36 1 -44l274 -125q106 -47 143 -81q66 -62 66 -144q0 -130 -160 -230t-354 -100t-295 86q-102 86 -102 222q1 137 167 228q50 27 105 46q-10 46 14 121t66 118q-191 84 -191 249t115 288
t299 123q90 0 174 -39q20 -9 29 -15h278v-96h-188q26 -67 26 -151zM295 580q0 -170 129 -170q38 0 80 32t71 82q29 49 45 106t15 100q0 86 -30 141t-78 55q-89 0 -160 -104q-72 -103 -72 -242zM129 -135q0 -85 68 -162q68 -78 193 -78t196 65t71 136q0 72 -104 121l-256 116
q-168 -41 -168 -198zM905 1200h-620l29 135h617z" />
    <glyph glyph-name="uni1E22" unicode="H&#x307;" horiz-adv-x="1485" 
d="M1346 0h-535v86l123 10q43 5 49 39l102 533h-639l-102 -533q-7 -35 39 -39l119 -10v-86h-533v86l117 10q42 3 51 39l213 1102q7 38 -41 41l-114 10v86h532v-86l-121 -10q-44 -5 -49 -41l-90 -467h639l90 467q7 38 -41 41l-117 10v86h533v-86l-119 -10q-40 -4 -49 -41
l-213 -1102q-7 -36 41 -39l115 -10v-86zM1066 1713q0 -24 -9 -45q-9 -20 -25 -36t-36 -25q-21 -9 -45 -9q-25 0 -45 9t-36 25t-24 36q-9 21 -9 45q1 24 9 45t24 37q16 15 36 25q21 10 45 10t45 -9q20 -9 36 -25t25 -38t9 -45z" />
    <glyph glyph-name="uni1E23" unicode="h&#x307;" horiz-adv-x="1073" 
d="M667 877q-59 0 -141 -45t-151 -115l-150 -717h-188l282 1368l-182 18v62l320 61h82l-138 -661q103 114 265 152q52 12 106 12q113 0 168 -71t25 -206l-113 -551q-11 -51 33 -84q44 -32 114 -2q33 14 68 25l2 -72q-198 -76 -288 -76q-91 0 -129 66q-15 26 -7 68l125 604
q16 72 -27 118q-42 46 -76 46zM905 1753q0 -24 -9 -45q-8 -20 -24 -36t-37 -25t-45 -9t-44 9t-36 25t-25 36q-9 21 -9 45t8 45t24 37q16 15 37 25t45 10t45 -9t37 -25t24 -38q9 -22 9 -45z" />
    <glyph glyph-name="uni1E24" unicode="H&#x323;" horiz-adv-x="1485" 
d="M1346 0h-535v86l123 10q43 5 49 39l102 533h-639l-102 -533q-7 -35 39 -39l119 -10v-86h-533v86l117 10q42 3 51 39l213 1102q7 38 -41 41l-114 10v86h532v-86l-121 -10q-44 -5 -49 -41l-90 -467h639l90 467q7 38 -41 41l-117 10v86h533v-86l-119 -10q-40 -4 -49 -41
l-213 -1102q-7 -36 41 -39l115 -10v-86zM695 -292q0 -24 -9 -46q-8 -20 -24 -36t-36 -25t-45 -9q-24 0 -45 9q-20 9 -36 25t-25 36t-9 45q0 49 33 84t69 35q38 0 58 -10t36 -25t24 -37q9 -22 9 -46z" />
    <glyph glyph-name="uni1E25" unicode="h&#x323;" horiz-adv-x="1073" 
d="M667 877q-59 0 -141 -45t-151 -115l-150 -717h-188l282 1368l-182 18v62l320 61h82l-138 -661q103 114 265 152q52 12 106 12q113 0 168 -71t25 -206l-113 -551q-11 -51 33 -84q44 -32 114 -2q33 14 68 25l2 -72q-198 -76 -288 -76q-91 0 -129 66q-15 26 -7 68l125 604
q16 72 -27 118q-42 46 -76 46zM506 -292q0 -24 -9 -46q-9 -20 -25 -36t-36 -25t-44 -9t-45 9t-37 25t-24 36q-9 20 -9 45q0 49 33 84t69 35q37 0 57 -10t36 -25t25 -37t9 -46z" />
    <glyph glyph-name="uni1E26" unicode="H&#x308;" horiz-adv-x="1485" 
d="M1346 0h-535v86l123 10q43 5 49 39l102 533h-639l-102 -533q-7 -35 39 -39l119 -10v-86h-533v86l117 10q42 3 51 39l213 1102q7 38 -41 41l-114 10v86h532v-86l-121 -10q-44 -5 -49 -41l-90 -467h639l90 467q7 38 -41 41l-117 10v86h533v-86l-119 -10q-40 -4 -49 -41
l-213 -1102q-7 -36 41 -39l115 -10v-86zM1274 1713q0 -23 -8 -44t-24 -37t-36 -25t-43 -9q-47 0 -80 35q-32 35 -32 68q1 55 35 89t67 35q33 0 53 -9t36 -24q16 -16 24 -36t8 -43zM850 1713q0 -46 -33 -81q-33 -34 -68 -34q-57 0 -90 35q-32 35 -32 67q0 55 33 90t66 35
q34 0 54 -9t36 -24q34 -32 34 -79z" />
    <glyph glyph-name="uni1E27" unicode="h&#x308;" horiz-adv-x="1073" 
d="M667 877q-59 0 -141 -45t-151 -115l-150 -717h-188l282 1368l-182 18v62l320 61h82l-138 -661q103 114 265 152q52 12 106 12q113 0 168 -71t25 -206l-113 -551q-11 -51 33 -84q44 -32 114 -2q33 14 68 25l2 -72q-198 -76 -288 -76q-91 0 -129 66q-15 26 -7 68l125 604
q16 72 -27 118q-42 46 -76 46zM1113 1753q-1 -23 -9 -44t-23 -37t-35 -25t-44 -9q-47 0 -80 35q-32 35 -32 68q0 55 34 89t68 35q34 0 54 -9t35 -24q15 -16 23 -36t9 -43zM689 1753q0 -46 -33 -81q-33 -34 -68 -34q-57 0 -90 35q-32 35 -32 67q0 55 33 90t66 35q35 0 55 -9
t36 -24q34 -32 33 -79z" />
    <glyph glyph-name="uni1E28" unicode="H&#x327;" horiz-adv-x="1485" 
d="M850 -351q46 22 46 76t-68 54q-11 0 -65 -27l47 248h1v86l123 10q43 5 49 39l102 533h-639l-102 -533q-7 -35 39 -39l119 -10v-86h-533v86l117 10q42 3 51 39l213 1102q7 38 -41 41l-114 10v86h532v-86l-121 -10q-44 -5 -49 -41l-90 -467h639l90 467q7 38 -41 41l-117 10
v86h533v-86l-119 -10q-40 -4 -49 -41l-213 -1102q-7 -36 41 -39l115 -10v-86h-430l-22 -125q16 4 31 4q137 0 137 -106t-84 -168t-205 -62q-72 0 -164 25l19 82q88 -23 132 -23t90 22z" />
    <glyph glyph-name="uni1E29" unicode="h&#x327;" horiz-adv-x="1073" 
d="M667 877q-59 0 -141 -45t-151 -115l-150 -717h-188l282 1368l-182 18v62l320 61h82l-138 -661q103 114 265 152q52 12 106 12q113 0 168 -71t25 -206l-113 -551q-11 -51 33 -84q44 -32 114 -2q33 14 68 25l2 -72q-198 -76 -288 -76q-91 0 -129 66q-15 26 -7 68l125 604
q16 72 -27 118q-42 46 -76 46zM662 -121q137 0 137 -106t-84 -168t-205 -62q-72 0 -164 25l19 82q88 -23 118 -23q59 0 104 22q46 22 46 76t-68 54q-11 0 -65 -27l47 248h106l-22 -125q16 4 31 4z" />
    <glyph glyph-name="uni1E2A" unicode="H&#x32e;" horiz-adv-x="1485" 
d="M1346 0h-535v86l123 10q43 5 49 39l102 533h-639l-102 -533q-7 -35 39 -39l119 -10v-86h-533v86l117 10q42 3 51 39l213 1102q7 38 -41 41l-114 10v86h532v-86l-121 -10q-44 -5 -49 -41l-90 -467h639l90 467q7 38 -41 41l-117 10v86h533v-86l-119 -10q-40 -4 -49 -41
l-213 -1102q-7 -36 41 -39l115 -10v-86zM293 -184q0 40 4 59h104q9 -123 119 -152q30 -8 60 -8q69 0 139 38q69 38 106 122h107q-29 -118 -128 -206q-98 -89 -239 -89q-142 0 -207 70q-65 71 -65 166z" />
    <glyph glyph-name="uni1E2B" unicode="h&#x32e;" horiz-adv-x="1073" 
d="M667 877q-59 0 -141 -45t-151 -115l-150 -717h-188l282 1368l-182 18v62l320 61h82l-138 -661q103 114 265 152q52 12 106 12q113 0 168 -71t25 -206l-113 -551q-11 -51 33 -84q44 -32 114 -2q33 14 68 25l2 -72q-198 -76 -288 -76q-91 0 -129 66q-15 26 -7 68l125 604
q16 72 -27 118q-42 46 -76 46zM104 -184q0 40 4 59h104q8 -123 118 -152q30 -8 62 -8q69 0 138 38t106 122h107q-29 -118 -128 -206q-98 -89 -239 -89q-142 0 -207 70q-65 71 -65 166z" />
    <glyph glyph-name="uni1E2C" unicode="I&#x330;" horiz-adv-x="643" 
d="M504 0h-535v86l129 10q33 3 39 39l213 1102q7 37 -39 41l-114 10v86h532v-86l-131 -10q-20 -2 -28 -12t-13 -29l-213 -1102q-7 -36 41 -39l119 -10v-86zM258 -391q-67 0 -135 46t-123 46q-56 0 -100 -54q-14 -17 -23 -38h-108q104 217 296 217q59 0 110 -33t81 -47
t60 -14q46 0 80 27t50 67h109q-101 -217 -297 -217z" />
    <glyph glyph-name="uni1E2D" unicode="i&#x330;" horiz-adv-x="545" 
d="M497 1232q-33 -34 -94 -34q-60 0 -92 34t-32 67q-1 57 35 93t80 35q44 0 66 -10t38 -26q32 -32 32 -78q0 -47 -33 -81zM113 35q-31 60 -15 141l131 694l-176 19v59l309 64h84l-155 -819q-8 -41 15 -73t63 -32q39 0 100 23q60 23 70 26v-78q-12 -5 -44 -19t-75 -28
q-108 -36 -192 -37q-84 0 -115 60zM239 -391q-67 0 -135 46t-123 46q-56 0 -100 -54q-14 -17 -23 -38h-108q104 217 296 217q59 0 110 -33q52 -33 82 -47t60 -14q46 0 79 27q34 27 50 67h109q-101 -217 -297 -217z" />
    <glyph glyph-name="uni1E30" unicode="K&#x301;" horiz-adv-x="1343" 
d="M502 0h-535v86l119 10q43 3 49 39l215 1102q7 37 -39 41l-114 10v86h532v-86l-121 -10q-42 -4 -51 -41l-104 -537h34l545 537q12 11 10 25t-24 16l-131 10v86h530v-86l-172 -16l-536 -518l284 -551q36 -72 70 -97q34 -24 81 -24t97 4v-86q-113 -33 -175 -33
q-107 -1 -157 31q-51 32 -98 121l-252 485h-125l-92 -469q-3 -15 6 -26t35 -13l119 -10v-86zM1167 1872q27 -27 27 -69t-49 -76l-307 -199h-144l279 320q32 39 63 45q32 6 68 6t63 -27z" />
    <glyph glyph-name="uni1E31" unicode="k&#x301;" horiz-adv-x="1042" 
d="M907 86q43 0 111 31v-70q-89 -45 -160 -58q-70 -14 -94 -14q-45 0 -92 29q-46 29 -66 59q-20 29 -38 63t-36 74q-20 40 -40 84t-38 84t-34 75t-27 57l-94 -84l-84 -416h-188l272 1368l-180 18v62l317 61h82l-190 -952l331 342q62 64 103 88q41 25 83 25q73 0 109 -34
q35 -34 34 -73q-2 -39 -34 -77t-104 -62l-70 74q-63 -50 -243 -207q15 -29 69 -166t101 -211t74 -104t55 -48t71 -18zM1024 1912q27 -27 27 -69t-49 -76l-307 -199h-144l279 320q32 39 63 45t67 6t64 -27z" />
    <glyph glyph-name="uni1E32" unicode="K&#x323;" horiz-adv-x="1343" 
d="M502 0h-535v86l119 10q43 3 49 39l215 1102q7 37 -39 41l-114 10v86h532v-86l-121 -10q-42 -4 -51 -41l-104 -537h34l545 537q12 11 10 25t-24 16l-131 10v86h530v-86l-172 -16l-536 -518l284 -551q36 -72 70 -97q34 -24 81 -24t97 4v-86q-113 -33 -175 -33
q-107 -1 -157 31q-51 32 -98 121l-252 485h-125l-92 -469q-3 -15 6 -26t35 -13l119 -10v-86zM643 -292q0 -24 -9 -46q-8 -20 -24 -36t-36 -25t-45 -9q-24 0 -45 9q-20 9 -36 25t-25 36t-9 45q0 49 33 84t69 35q38 0 58 -10t36 -25t24 -37q9 -22 9 -46z" />
    <glyph glyph-name="uni1E33" unicode="k&#x323;" horiz-adv-x="1042" 
d="M907 86q43 0 111 31v-70q-89 -45 -160 -58q-70 -14 -94 -14q-45 0 -92 29q-46 29 -66 59q-20 29 -38 63t-36 74q-20 40 -40 84t-38 84t-34 75t-27 57l-94 -84l-84 -416h-188l272 1368l-180 18v62l317 61h82l-190 -952l331 342q62 64 103 88q41 25 83 25q73 0 109 -34
q35 -34 34 -73q-2 -39 -34 -77t-104 -62l-70 74q-63 -50 -243 -207q15 -29 69 -166t101 -211t74 -104t55 -48t71 -18zM472 -292q0 -24 -9 -46q-9 -20 -25 -36t-36 -25t-44 -9t-45 9t-37 25t-24 36q-9 20 -9 45q0 49 33 84t69 35q37 0 57 -10t36 -25t25 -37t9 -46z" />
    <glyph glyph-name="uni1E34" unicode="K&#x331;" horiz-adv-x="1343" 
d="M502 0h-535v86l119 10q43 3 49 39l215 1102q7 37 -39 41l-114 10v86h532v-86l-121 -10q-42 -4 -51 -41l-104 -537h34l545 537q12 11 10 25t-24 16l-131 10v86h530v-86l-172 -16l-536 -518l284 -551q36 -72 70 -97q34 -24 81 -24t97 4v-86q-113 -33 -175 -33
q-107 -1 -157 31q-51 32 -98 121l-252 485h-125l-92 -469q-3 -15 6 -26t35 -13l119 -10v-86zM833 -315h-620l29 135h617z" />
    <glyph glyph-name="uni1E35" unicode="k&#x331;" horiz-adv-x="1042" 
d="M907 86q43 0 111 31v-70q-89 -45 -160 -58q-70 -14 -94 -14q-45 0 -92 29q-46 29 -66 59q-20 29 -38 63t-36 74q-20 40 -40 84t-38 84t-34 75t-27 57l-94 -84l-84 -416h-188l272 1368l-180 18v62l317 61h82l-190 -952l331 342q62 64 103 88q41 25 83 25q73 0 109 -34
q35 -34 34 -73q-2 -39 -34 -77t-104 -62l-70 74q-63 -50 -243 -207q15 -29 69 -166t101 -211t74 -104t55 -48t71 -18zM662 -315h-620l29 135h617z" />
    <glyph glyph-name="uni1E36" unicode="L&#x323;" horiz-adv-x="1061" 
d="M-31 0v86l119 10q43 3 49 39l213 1102q7 37 -39 41l-114 10v86h532v-86l-121 -10q-44 -4 -51 -41l-217 -1135h403q36 0 52 41l73 236h121l-74 -379h-946zM481 -292q0 -24 -9 -46q-8 -20 -24 -36t-36 -25t-45 -9q-24 0 -45 9q-20 9 -36 25t-25 36t-9 45q0 49 33 84t69 35
q38 0 58 -10t36 -25t24 -37q9 -22 9 -46z" />
    <glyph glyph-name="uni1E37" unicode="l&#x323;" horiz-adv-x="543" 
d="M254 -25q-174 0 -174 150q0 31 6 72l225 1171l-182 18v62l320 61h79l-249 -1306q-8 -43 21 -78t70 -35q40 0 100 20t69 21v-78q-187 -78 -285 -78zM237 -292q0 -24 -9 -46q-8 -20 -24 -36t-36 -25t-45 -9q-24 0 -45 9q-20 9 -36 25t-25 36t-9 45q0 49 33 84t69 35
q38 0 58 -10t36 -25t24 -37q9 -22 9 -46z" />
    <glyph glyph-name="uni1E38" unicode="L&#x304;&#x323;" horiz-adv-x="1061" 
d="M-31 0v86l119 10q43 3 49 39l213 1102q7 37 -39 41l-114 10v86h532v-86l-121 -10q-44 -4 -51 -41l-217 -1135h403q36 0 52 41l73 236h121l-74 -379h-946zM481 -292q0 -24 -9 -46q-8 -20 -24 -36t-36 -25t-45 -9q-24 0 -45 9q-20 9 -36 25t-25 36t-9 45q0 49 33 84t69 35
q38 0 58 -10t36 -25t24 -37q9 -22 9 -46zM1024 1600h-620l29 135h617z" />
    <glyph glyph-name="uni1E39" unicode="l&#x304;&#x323;" horiz-adv-x="543" 
d="M254 -25q-174 0 -174 150q0 31 6 72l225 1171l-182 18v62l320 61h79l-249 -1306q-8 -43 21 -78t70 -35q40 0 100 20t69 21v-78q-187 -78 -285 -78zM237 -292q0 -24 -9 -46q-8 -20 -24 -36t-36 -25t-45 -9q-24 0 -45 9q-20 9 -36 25t-25 36t-9 45q0 49 33 84t69 35
q38 0 58 -10t36 -25t24 -37q9 -22 9 -46zM816 1680h-620l29 135h617z" />
    <glyph glyph-name="uni1E3A" unicode="L&#x331;" horiz-adv-x="1061" 
d="M-31 0v86l119 10q43 3 49 39l213 1102q7 37 -39 41l-114 10v86h532v-86l-121 -10q-44 -4 -51 -41l-217 -1135h403q36 0 52 41l73 236h121l-74 -379h-946zM671 -315h-620l29 135h617z" />
    <glyph glyph-name="uni1E3B" unicode="l&#x331;" horiz-adv-x="543" 
d="M254 -25q-174 0 -174 150q0 31 6 72l225 1171l-182 18v62l320 61h79l-249 -1306q-8 -43 21 -78t70 -35q40 0 100 20t69 21v-78q-187 -78 -285 -78zM428 -315h-620l29 135h617z" />
    <glyph glyph-name="uni1E3C" unicode="L&#x32d;" horiz-adv-x="1061" 
d="M-31 0v86l119 10q43 3 49 39l213 1102q7 37 -39 41l-114 10v86h532v-86l-121 -10q-44 -4 -51 -41l-217 -1135h403q36 0 52 41l73 236h121l-74 -379h-946zM531 -496l-168 189l-246 -189h-143l338 347h161l201 -347h-143z" />
    <glyph glyph-name="uni1E3D" unicode="l&#x32d;" horiz-adv-x="543" 
d="M254 -25q-174 0 -174 150q0 31 6 72l225 1171l-182 18v62l320 61h79l-249 -1306q-8 -43 21 -78t70 -35q40 0 100 20t69 21v-78q-187 -78 -285 -78zM287 -496l-168 189l-246 -189h-143l338 347h161l201 -347h-143z" />
    <glyph glyph-name="uni1E3E" unicode="M&#x301;" horiz-adv-x="1765" 
d="M1626 0h-532v86l120 10q44 5 50 39l198 1039l-657 -1174h-123l-205 1163l-190 -1028q-7 -35 39 -39l114 -10v-86h-469v86l117 10q42 3 51 39l211 1102q7 38 -41 41l-114 10v86h458v-57l176 -991l547 981v67h473v-86l-116 -10q-42 -3 -52 -41l-211 -1102q-2 -15 6 -26
t35 -13l115 -10v-86zM1359 1872q27 -27 27 -69t-49 -76l-307 -199h-144l279 320q32 39 63 45q32 6 68 6t63 -27z" />
    <glyph glyph-name="uni1E3F" unicode="m&#x301;" horiz-adv-x="1589" 
d="M1180 868q-68 0 -150 -64q-83 -64 -110 -112l-144 -692h-190l137 668q16 74 1 118q-14 44 -34 63t-54 19q-61 0 -143 -63q-81 -63 -124 -117l-144 -688h-188l176 870l-170 19v59l307 64h84l-39 -189q199 189 355 189q155 0 182 -189q128 127 276 173q50 16 99 16
q100 0 149 -71t25 -189l-115 -553q-9 -46 18 -80q28 -33 62 -33q33 0 66 12t71 25v-70q-184 -78 -242 -78q-101 0 -148 38t-34 106l113 547q28 144 -40 190q-18 12 -52 12zM1247 1472q27 -27 27 -69t-49 -76l-307 -199h-144l279 320q32 39 63 45q32 6 68 6t63 -27z" />
    <glyph glyph-name="uni1E40" unicode="M&#x307;" horiz-adv-x="1765" 
d="M1626 0h-532v86l120 10q44 5 50 39l198 1039l-657 -1174h-123l-205 1163l-190 -1028q-7 -35 39 -39l114 -10v-86h-469v86l117 10q42 3 51 39l211 1102q7 38 -41 41l-114 10v86h458v-57l176 -991l547 981v67h473v-86l-116 -10q-42 -3 -52 -41l-211 -1102q-2 -15 6 -26
t35 -13l115 -10v-86zM1206 1713q0 -24 -9 -45q-9 -20 -25 -36t-36 -25q-21 -9 -45 -9q-25 0 -45 9t-36 25t-24 36q-9 21 -9 45q1 24 9 45t24 37q16 15 36 25q21 10 45 10t45 -9q20 -9 36 -25t25 -38t9 -45z" />
    <glyph glyph-name="uni1E41" unicode="m&#x307;" horiz-adv-x="1589" 
d="M1180 868q-68 0 -150 -64q-83 -64 -110 -112l-144 -692h-190l137 668q16 74 1 118q-14 44 -34 63t-54 19q-61 0 -143 -63q-81 -63 -124 -117l-144 -688h-188l176 870l-170 19v59l307 64h84l-39 -189q199 189 355 189q155 0 182 -189q128 127 276 173q50 16 99 16
q100 0 149 -71t25 -189l-115 -553q-9 -46 18 -80q28 -33 62 -33q33 0 66 12t71 25v-70q-184 -78 -242 -78q-101 0 -148 38t-34 106l113 547q28 144 -40 190q-18 12 -52 12zM1094 1313q0 -24 -9 -45q-9 -20 -25 -36t-36 -25q-21 -9 -45 -9q-25 0 -45 9t-36 25t-24 36
q-9 21 -9 45q1 24 9 45t24 37q16 15 36 25q21 10 45 10t45 -9q20 -9 36 -25t25 -38t9 -45z" />
    <glyph glyph-name="uni1E42" unicode="M&#x323;" horiz-adv-x="1765" 
d="M1626 0h-532v86l120 10q44 5 50 39l198 1039l-657 -1174h-123l-205 1163l-190 -1028q-7 -35 39 -39l114 -10v-86h-469v86l117 10q42 3 51 39l211 1102q7 38 -41 41l-114 10v86h458v-57l176 -991l547 981v67h473v-86l-116 -10q-42 -3 -52 -41l-211 -1102q-2 -15 6 -26
t35 -13l115 -10v-86zM835 -292q0 -24 -9 -46q-8 -20 -24 -36t-36 -25t-45 -9q-24 0 -45 9q-20 9 -36 25t-25 36t-9 45q0 49 33 84t69 35q38 0 58 -10t36 -25t24 -37q9 -22 9 -46z" />
    <glyph glyph-name="uni1E43" unicode="m&#x323;" horiz-adv-x="1589" 
d="M1180 868q-68 0 -150 -64q-83 -64 -110 -112l-144 -692h-190l137 668q16 74 1 118q-14 44 -34 63t-54 19q-61 0 -143 -63q-81 -63 -124 -117l-144 -688h-188l176 870l-170 19v59l307 64h84l-39 -189q199 189 355 189q155 0 182 -189q128 127 276 173q50 16 99 16
q100 0 149 -71t25 -189l-115 -553q-9 -46 18 -80q28 -33 62 -33q33 0 66 12t71 25v-70q-184 -78 -242 -78q-101 0 -148 38t-34 106l113 547q28 144 -40 190q-18 12 -52 12zM767 -292q0 -24 -9 -46q-8 -20 -24 -36t-36 -25t-45 -9q-24 0 -45 9q-20 9 -36 25t-25 36t-9 45
q0 49 33 84t69 35q38 0 58 -10t36 -25t24 -37q9 -22 9 -46z" />
    <glyph glyph-name="uni1E44" unicode="N&#x307;" horiz-adv-x="1456" 
d="M446 0h-475v86l117 10q42 3 51 39l211 1102q7 37 -39 41l-114 10v86h395v-53l461 -977l174 893q7 37 -39 41l-117 10v86h475v-86l-116 -10q-43 -4 -52 -41l-241 -1237h-148l-516 1087l-182 -952q-7 -36 41 -39l114 -10v-86zM1044 1713q0 -24 -9 -45q-9 -20 -25 -36
t-36 -25q-21 -9 -45 -9q-25 0 -45 9t-36 25t-24 36q-9 21 -9 45q1 24 9 45t24 37q16 15 36 25q21 10 45 10t45 -9q20 -9 36 -25t25 -38t9 -45z" />
    <glyph glyph-name="uni1E45" unicode="n&#x307;" horiz-adv-x="1085" 
d="M537 814q-88 -52 -158 -126l-141 -688h-191l178 870l-172 19v59l309 64h82l-38 -191q128 127 276 174q54 17 104 17q112 0 160 -62t23 -200l-109 -578q-9 -50 23 -68q31 -18 69 -18q39 0 125 27l2 -72q-172 -66 -280 -66q-109 0 -151 56q-18 24 -9 65l125 629
q13 74 -17 107q-30 34 -76 34t-134 -52zM808 1313q0 -24 -9 -45q-9 -20 -25 -36t-36 -25q-21 -9 -45 -9q-25 0 -45 9t-36 25t-24 36q-9 21 -9 45q1 24 9 45t24 37q16 15 36 25q21 10 45 10t45 -9q20 -9 36 -25t25 -38t9 -45z" />
    <glyph glyph-name="uni1E46" unicode="N&#x323;" horiz-adv-x="1456" 
d="M446 0h-475v86l117 10q42 3 51 39l211 1102q7 37 -39 41l-114 10v86h395v-53l461 -977l174 893q7 37 -39 41l-117 10v86h475v-86l-116 -10q-43 -4 -52 -41l-241 -1237h-148l-516 1087l-182 -952q-7 -36 41 -39l114 -10v-86zM673 -292q0 -24 -9 -46q-8 -20 -24 -36
t-36 -25t-45 -9q-24 0 -45 9q-20 9 -36 25t-25 36t-9 45q0 49 33 84t69 35q38 0 58 -10t36 -25t24 -37q9 -22 9 -46z" />
    <glyph glyph-name="uni1E47" unicode="n&#x323;" horiz-adv-x="1085" 
d="M537 814q-88 -52 -158 -126l-141 -688h-191l178 870l-172 19v59l309 64h82l-38 -191q128 127 276 174q54 17 104 17q112 0 160 -62t23 -200l-109 -578q-9 -50 23 -68q31 -18 69 -18q39 0 125 27l2 -72q-172 -66 -280 -66q-109 0 -151 56q-18 24 -9 65l125 629
q13 74 -17 107q-30 34 -76 34t-134 -52zM485 -292q0 -24 -9 -46q-8 -20 -24 -36t-36 -25t-45 -9q-24 0 -45 9q-20 9 -36 25t-25 36t-9 45q0 49 33 84t69 35q38 0 58 -10t36 -25t24 -37q9 -22 9 -46z" />
    <glyph glyph-name="uni1E48" unicode="N&#x331;" horiz-adv-x="1456" 
d="M446 0h-475v86l117 10q42 3 51 39l211 1102q7 37 -39 41l-114 10v86h395v-53l461 -977l174 893q7 37 -39 41l-117 10v86h475v-86l-116 -10q-43 -4 -52 -41l-241 -1237h-148l-516 1087l-182 -952q-7 -36 41 -39l114 -10v-86zM863 -315h-620l29 135h617z" />
    <glyph glyph-name="uni1E49" unicode="n&#x331;" horiz-adv-x="1085" 
d="M537 814q-88 -52 -158 -126l-141 -688h-191l178 870l-172 19v59l309 64h82l-38 -191q128 127 276 174q54 17 104 17q112 0 160 -62t23 -200l-109 -578q-9 -50 23 -68q31 -18 69 -18q39 0 125 27l2 -72q-172 -66 -280 -66q-109 0 -151 56q-18 24 -9 65l125 629
q13 74 -17 107q-30 34 -76 34t-134 -52zM675 -315h-620l29 135h617z" />
    <glyph glyph-name="uni1E4A" unicode="N&#x32d;" horiz-adv-x="1456" 
d="M446 0h-475v86l117 10q42 3 51 39l211 1102q7 37 -39 41l-114 10v86h395v-53l461 -977l174 893q7 37 -39 41l-117 10v86h475v-86l-116 -10q-43 -4 -52 -41l-241 -1237h-148l-516 1087l-182 -952q-7 -36 41 -39l114 -10v-86zM723 -496l-168 189l-246 -189h-143l338 347
h161l201 -347h-143z" />
    <glyph glyph-name="uni1E4B" unicode="n&#x32d;" horiz-adv-x="1085" 
d="M537 814q-88 -52 -158 -126l-141 -688h-191l178 870l-172 19v59l309 64h82l-38 -191q128 127 276 174q54 17 104 17q112 0 160 -62t23 -200l-109 -578q-9 -50 23 -68q31 -18 69 -18q39 0 125 27l2 -72q-172 -66 -280 -66q-109 0 -151 56q-18 24 -9 65l125 629
q13 74 -17 107q-30 34 -76 34t-134 -52zM535 -496l-168 189l-246 -189h-143l338 347h161l201 -347h-143z" />
    <glyph glyph-name="uni1E54" unicode="P&#x301;" horiz-adv-x="1159" 
d="M545 512q-29 0 -129 4l-76 -381q-7 -36 41 -39l117 -10v-86h-533v86l119 10q40 3 49 39l215 1102q7 38 -41 41l-114 10v86h509q239 0 353 -88t114 -225q0 -258 -175 -403q-175 -146 -449 -146zM956 1012q0 266 -317 266q-46 0 -78 -4l-127 -651q262 -23 414 119
q108 101 108 270zM1035 1872q27 -27 27 -69t-49 -76l-307 -199h-144l279 320q32 39 63 45q32 6 68 6t63 -27z" />
    <glyph glyph-name="uni1E55" unicode="p&#x301;" horiz-adv-x="1012" 
d="M371 -25q-72 0 -156 37l-65 -329q-8 -36 40 -41l129 -11v-77h-516v77l107 11q43 3 49 41l231 1187l-172 19v59l310 64h80l-25 -127q25 17 59 39t98 55t140 33q142 0 210 -121q56 -100 56 -258q0 -258 -168 -455q-109 -128 -259 -178q-76 -26 -148 -25zM702 806
q-41 81 -124 81q-82 1 -188 -93q-22 -20 -30 -26l-122 -635q10 -5 26 -15t38 -21q161 -73 287 67q109 122 144 341q10 63 10 142q0 78 -41 159zM864 1472q27 -27 27 -69t-49 -76l-307 -199h-144l279 320q32 39 63 45t67 6t64 -27z" />
    <glyph glyph-name="uni1E56" unicode="P&#x307;" horiz-adv-x="1159" 
d="M545 512q-29 0 -129 4l-76 -381q-7 -36 41 -39l117 -10v-86h-533v86l119 10q40 3 49 39l215 1102q7 38 -41 41l-114 10v86h509q239 0 353 -88t114 -225q0 -258 -175 -403q-175 -146 -449 -146zM956 1012q0 266 -317 266q-46 0 -78 -4l-127 -651q262 -23 414 119
q108 101 108 270zM882 1713q0 -24 -9 -45q-9 -20 -25 -36t-36 -25q-21 -9 -45 -9q-25 0 -45 9t-36 25t-24 36q-9 21 -9 45q1 24 9 45t24 37q16 15 36 25q21 10 45 10t45 -9q20 -9 36 -25t25 -38t9 -45z" />
    <glyph glyph-name="uni1E57" unicode="p&#x307;" horiz-adv-x="1012" 
d="M371 -25q-72 0 -156 37l-65 -329q-8 -36 40 -41l129 -11v-77h-516v77l107 11q43 3 49 41l231 1187l-172 19v59l310 64h80l-25 -127q25 17 59 39t98 55t140 33q142 0 210 -121q56 -100 56 -258q0 -258 -168 -455q-109 -128 -259 -178q-76 -26 -148 -25zM702 806
q-41 81 -124 81q-82 1 -188 -93q-22 -20 -30 -26l-122 -635q10 -5 26 -15t38 -21q161 -73 287 67q109 122 144 341q10 63 10 142q0 78 -41 159zM711 1313q0 -24 -9 -45q-8 -20 -24 -36t-37 -25t-45 -9t-44 9t-36 25t-25 36q-9 21 -9 45t8 45t24 37q16 15 37 25t45 10t45 -9
t37 -25t24 -38q9 -22 9 -45z" />
    <glyph glyph-name="uni1E58" unicode="R&#x307;" horiz-adv-x="1313" 
d="M506 0h-533v86l117 10q42 3 51 39l209 1102q7 37 -39 41l-114 10v86h548q307 0 407 -156q38 -58 38 -144q0 -159 -116 -266t-302 -159q112 -48 161 -135q23 -41 36 -91q13 -49 28 -107q33 -127 86 -180q53 -52 177 -52v-84q-73 -33 -158 -33q-156 0 -230 108
q-44 65 -76 221q-31 155 -62 205q-64 105 -191 105l-67 -1q-19 -1 -40 -1l-88 -469q-7 -35 39 -39l119 -10v-86zM504 711q307 -1 414 169q40 64 40 150t-32 133q-83 117 -318 109l-45 -2l-104 -559h45zM924 1713q0 -24 -9 -45q-9 -20 -25 -36t-36 -25q-21 -9 -45 -9
q-25 0 -45 9t-36 25t-24 36q-9 21 -9 45q1 24 9 45t24 37q16 15 36 25q21 10 45 10t45 -9q20 -9 36 -25t25 -38t9 -45z" />
    <glyph glyph-name="uni1E59" unicode="r&#x307;" horiz-adv-x="766" 
d="M838 882q0 -75 -45 -96q-45 -20 -138 -20l-49 98q-77 -32 -164 -146q-88 -114 -106 -202l-107 -516h-190l176 870l-172 19v59l309 64h82l-43 -207q134 207 316 207q67 0 99 -43t32 -87zM658 1313q0 -24 -9 -45q-9 -20 -25 -36t-36 -25q-21 -9 -45 -9q-25 0 -45 9t-36 25
t-24 36q-9 21 -9 45q1 24 9 45t24 37q16 15 36 25q21 10 45 10t45 -9q20 -9 36 -25t25 -38t9 -45z" />
    <glyph glyph-name="uni1E5A" unicode="R&#x323;" horiz-adv-x="1313" 
d="M506 0h-533v86l117 10q42 3 51 39l209 1102q7 37 -39 41l-114 10v86h548q307 0 407 -156q38 -58 38 -144q0 -159 -116 -266t-302 -159q112 -48 161 -135q23 -41 36 -91q13 -49 28 -107q33 -127 86 -180q53 -52 177 -52v-84q-73 -33 -158 -33q-156 0 -230 108
q-44 65 -76 221q-31 155 -62 205q-64 105 -191 105l-67 -1q-19 -1 -40 -1l-88 -469q-7 -35 39 -39l119 -10v-86zM504 711q307 -1 414 169q40 64 40 150t-32 133q-83 117 -318 109l-45 -2l-104 -559h45zM553 -292q0 -24 -9 -46q-8 -20 -24 -36t-36 -25t-45 -9q-24 0 -45 9
q-20 9 -36 25t-25 36t-9 45q0 49 33 84t69 35q38 0 58 -10t36 -25t24 -37q9 -22 9 -46z" />
    <glyph glyph-name="uni1E5B" unicode="r&#x323;" horiz-adv-x="766" 
d="M838 882q0 -75 -45 -96q-45 -20 -138 -20l-49 98q-77 -32 -164 -146q-88 -114 -106 -202l-107 -516h-190l176 870l-172 19v59l309 64h82l-43 -207q134 207 316 207q67 0 99 -43t32 -87zM176 -292q0 -24 -9 -46q-9 -20 -25 -36t-36 -25t-44 -9t-45 9t-37 25t-24 36
q-9 20 -9 45q0 49 33 84t69 35q37 0 57 -10t36 -25t25 -37t9 -46z" />
    <glyph glyph-name="uni1E5C" unicode="R&#x304;&#x323;" horiz-adv-x="1313" 
d="M506 0h-533v86l117 10q42 3 51 39l209 1102q7 37 -39 41l-114 10v86h548q307 0 407 -156q38 -58 38 -144q0 -159 -116 -266t-302 -159q112 -48 161 -135q23 -41 36 -91q13 -49 28 -107q33 -127 86 -180q53 -52 177 -52v-84q-73 -33 -158 -33q-156 0 -230 108
q-44 65 -76 221q-31 155 -62 205q-64 105 -191 105l-67 -1q-19 -1 -40 -1l-88 -469q-7 -35 39 -39l119 -10v-86zM504 711q307 -1 414 169q40 64 40 150t-32 133q-83 117 -318 109l-45 -2l-104 -559h45zM553 -292q0 -24 -9 -46q-8 -20 -24 -36t-36 -25t-45 -9q-24 0 -45 9
q-20 9 -36 25t-25 36t-9 45q0 49 33 84t69 35q38 0 58 -10t36 -25t24 -37q9 -22 9 -46zM1096 1600h-620l29 135h617z" />
    <glyph glyph-name="uni1E5D" unicode="r&#x304;&#x323;" horiz-adv-x="766" 
d="M838 882q0 -75 -45 -96q-45 -20 -138 -20l-49 98q-77 -32 -164 -146q-88 -114 -106 -202l-107 -516h-190l176 870l-172 19v59l309 64h82l-43 -207q134 207 316 207q67 0 99 -43t32 -87zM176 -292q0 -24 -9 -46q-9 -20 -25 -36t-36 -25t-44 -9t-45 9t-37 25t-24 36
q-9 20 -9 45q0 49 33 84t69 35q37 0 57 -10t36 -25t25 -37t9 -46zM830 1200h-620l29 135h617z" />
    <glyph glyph-name="uni1E5E" unicode="R&#x331;" horiz-adv-x="1313" 
d="M506 0h-533v86l117 10q42 3 51 39l209 1102q7 37 -39 41l-114 10v86h548q307 0 407 -156q38 -58 38 -144q0 -159 -116 -266t-302 -159q112 -48 161 -135q23 -41 36 -91q13 -49 28 -107q33 -127 86 -180q53 -52 177 -52v-84q-73 -33 -158 -33q-156 0 -230 108
q-44 65 -76 221q-31 155 -62 205q-64 105 -191 105l-67 -1q-19 -1 -40 -1l-88 -469q-7 -35 39 -39l119 -10v-86zM504 711q307 -1 414 169q40 64 40 150t-32 133q-83 117 -318 109l-45 -2l-104 -559h45zM743 -315h-620l29 135h617z" />
    <glyph glyph-name="uni1E5F" unicode="r&#x331;" horiz-adv-x="766" 
d="M838 882q0 -75 -45 -96q-45 -20 -138 -20l-49 98q-77 -32 -164 -146q-88 -114 -106 -202l-107 -516h-190l176 870l-172 19v59l309 64h82l-43 -207q134 207 316 207q67 0 99 -43t32 -87zM367 -315h-620l29 135h617z" />
    <glyph glyph-name="uni1E60" unicode="S&#x307;" 
d="M956 420q0 -174 -129 -300q-156 -152 -442 -153q-191 -1 -351 83q-34 18 -44 24l69 329h140l-23 -235q-2 -40 162 -80q55 -13 97 -14q43 0 103 20t106 60q100 84 99 213q0 129 -207 231q-207 101 -285 176q-79 75 -79 180q0 206 151 330q151 123 365 123q215 0 363 -74
l-66 -313h-121l8 207q0 22 -59 51t-121 29q-125 0 -218 -81t-93 -206t198 -220q218 -105 297 -182q80 -78 80 -198zM885 1713q0 -24 -9 -45q-8 -20 -24 -36t-37 -25t-45 -9t-44 9t-36 25t-25 36q-9 21 -9 45t8 45t24 37q16 15 37 25t45 10t45 -9t37 -25t24 -38q9 -22 9 -45z
" />
    <glyph glyph-name="uni1E61" unicode="s&#x307;" horiz-adv-x="758" 
d="M174 131q53 -74 128 -74t123 47t48 124q-1 78 -101 162q-30 26 -64 52q-168 129 -169 262q0 139 115 223q115 85 236 85t173 -41t52 -83q0 -110 -148 -118l-92 125q-19 16 -52 16q-59 0 -90 -45q-30 -45 -30 -84q0 -62 48 -115t108 -100q106 -84 155 -143q48 -59 48 -124
q0 -135 -104 -230t-288 -95q-138 0 -212 56t-74 133q0 50 30 80t92 30q64 0 107 -43zM669 1313q0 -24 -9 -45q-8 -20 -24 -36t-37 -25t-45 -9t-44 9t-36 25t-25 36q-9 21 -9 45t8 45t24 37q16 15 37 25t45 10t45 -9t37 -25t24 -38q9 -22 9 -45z" />
    <glyph glyph-name="uni1E62" unicode="S&#x323;" 
d="M956 420q0 -174 -129 -300q-156 -152 -442 -153q-191 -1 -351 83q-34 18 -44 24l69 329h140l-23 -235q-2 -40 162 -80q55 -13 97 -14q43 0 103 20t106 60q100 84 99 213q0 129 -207 231q-207 101 -285 176q-79 75 -79 180q0 206 151 330q151 123 365 123q215 0 363 -74
l-66 -313h-121l8 207q0 22 -59 51t-121 29q-125 0 -218 -81t-93 -206t198 -220q218 -105 297 -182q80 -78 80 -198zM494 -292q0 -24 -9 -46q-9 -20 -25 -36t-36 -25t-44 -9t-45 9t-37 25t-24 36q-9 20 -9 45q0 49 33 84t69 35q37 0 57 -10t36 -25t25 -37t9 -46z" />
    <glyph glyph-name="uni1E63" unicode="s&#x323;" horiz-adv-x="758" 
d="M174 131q53 -74 128 -74t123 47t48 124q-1 78 -101 162q-30 26 -64 52q-168 129 -169 262q0 139 115 223q115 85 236 85t173 -41t52 -83q0 -110 -148 -118l-92 125q-19 16 -52 16q-59 0 -90 -45q-30 -45 -30 -84q0 -62 48 -115t108 -100q106 -84 155 -143q48 -59 48 -124
q0 -135 -104 -230t-288 -95q-138 0 -212 56t-74 133q0 50 30 80t92 30q64 0 107 -43zM333 -292q0 -24 -9 -46q-8 -20 -24 -36t-36 -25t-45 -9q-24 0 -45 9q-20 9 -36 25t-25 36t-9 45q0 49 33 84t69 35q38 0 58 -10t36 -25t24 -37q9 -22 9 -46z" />
    <glyph glyph-name="uni1E6A" unicode="T&#x307;" horiz-adv-x="1200" 
d="M1106 1282h-264l-213 -1147q-7 -36 41 -39l116 -10v-86h-532v86l119 10q43 5 49 39l213 1147h-256q-39 0 -51 -41l-64 -180h-129l60 313h1134l-63 -313h-129l8 180q3 41 -39 41zM926 1713q0 -24 -9 -45q-9 -20 -25 -36t-36 -25q-21 -9 -45 -9q-25 0 -45 9t-36 25t-24 36
q-9 21 -9 45q1 24 9 45t24 37q16 15 36 25q21 10 45 10t45 -9q20 -9 36 -25t25 -38t9 -45z" />
    <glyph glyph-name="uni1E6B" unicode="t&#x307;" horiz-adv-x="614" 
d="M283 -25q-193 0 -193 177q0 49 8 84l125 622l-129 -12v67l154 68l100 205h125l-41 -234h283v-94h-301l-129 -643q-17 -78 69 -107q24 -8 49 -8q80 0 213 50v-82q-110 -51 -200 -72q-89 -21 -133 -21zM645 1576q0 -24 -9 -45q-8 -21 -24 -37t-37 -24q-21 -9 -45 -9t-44 9
q-20 8 -36 24t-25 37t-9 45t8 45t24 37t37 26t45 9q24 0 45 -9t37 -25q16 -15 24 -37q9 -22 9 -46z" />
    <glyph glyph-name="uni1E6C" unicode="T&#x323;" horiz-adv-x="1200" 
d="M1106 1282h-264l-213 -1147q-7 -36 41 -39l116 -10v-86h-532v86l119 10q43 5 49 39l213 1147h-256q-39 0 -51 -41l-64 -180h-129l60 313h1134l-63 -313h-129l8 180q3 41 -39 41zM555 -292q0 -24 -9 -46q-8 -20 -24 -36t-36 -25t-45 -9q-24 0 -45 9q-20 9 -36 25t-25 36
t-9 45q0 49 33 84t69 35q38 0 58 -10t36 -25t24 -37q9 -22 9 -46z" />
    <glyph glyph-name="uni1E6D" unicode="t&#x323;" horiz-adv-x="614" 
d="M283 -25q-193 0 -193 177q0 49 8 84l125 622l-129 -12v67l154 68l100 205h125l-41 -234h283v-94h-301l-129 -643q-17 -78 69 -107q24 -8 49 -8q80 0 213 50v-82q-110 -51 -200 -72q-89 -21 -133 -21zM311 -292q0 -24 -9 -46q-8 -20 -24 -36t-36 -25t-45 -9q-24 0 -45 9
q-20 9 -36 25t-25 36t-9 45q0 49 33 84t69 35q38 0 58 -10t36 -25t24 -37q9 -22 9 -46z" />
    <glyph glyph-name="uni1E6E" unicode="T&#x331;" horiz-adv-x="1200" 
d="M1106 1282h-264l-213 -1147q-7 -36 41 -39l116 -10v-86h-532v86l119 10q43 5 49 39l213 1147h-256q-39 0 -51 -41l-64 -180h-129l60 313h1134l-63 -313h-129l8 180q3 41 -39 41zM745 -315h-620l29 135h617z" />
    <glyph glyph-name="uni1E6F" unicode="t&#x331;" horiz-adv-x="614" 
d="M283 -25q-193 0 -193 177q0 49 8 84l125 622l-129 -12v67l154 68l100 205h125l-41 -234h283v-94h-301l-129 -643q-17 -78 69 -107q24 -8 49 -8q80 0 213 50v-82q-110 -51 -200 -72q-89 -21 -133 -21zM501 -315h-620l29 135h617z" />
    <glyph glyph-name="uni1E70" unicode="T&#x32d;" horiz-adv-x="1200" 
d="M1106 1282h-264l-213 -1147q-7 -36 41 -39l116 -10v-86h-532v86l119 10q43 5 49 39l213 1147h-256q-39 0 -51 -41l-64 -180h-129l60 313h1134l-63 -313h-129l8 180q3 41 -39 41zM605 -496l-168 189l-246 -189h-143l338 347h161l201 -347h-143z" />
    <glyph glyph-name="uni1E71" unicode="t&#x32d;" horiz-adv-x="614" 
d="M283 -25q-193 0 -193 177q0 49 8 84l125 622l-129 -12v67l154 68l100 205h125l-41 -234h283v-94h-301l-129 -643q-17 -78 69 -107q24 -8 49 -8q80 0 213 50v-82q-110 -51 -200 -72q-89 -21 -133 -21zM361 -496l-168 189l-246 -189h-143l338 347h161l201 -347h-143z" />
    <glyph glyph-name="uni1E72" unicode="U&#x324;" horiz-adv-x="1448" 
d="M650 -33q-216 0 -339 87t-123 272q0 76 27 215l143 696q7 38 -41 41l-114 10v86h532v-86l-121 -10q-44 -5 -49 -41l-141 -696q-23 -115 -23 -181q0 -127 76 -194q76 -66 195 -66q118 0 186 34t112 89q75 94 113 287l144 727q7 38 -41 41l-115 10v86h463v-86l-119 -10
q-44 -5 -49 -41l-158 -799q-64 -344 -352 -439q-98 -32 -206 -32zM897 -287q-1 -23 -9 -43t-22 -37q-14 -16 -34 -25t-43 -9q-47 0 -81 34t-34 68q0 53 36 89t68 36q34 0 54 -9t34 -25t22 -36t9 -43zM473 -287q-1 -23 -9 -43t-23 -37q-15 -16 -35 -25t-43 -9t-43 9
q-20 8 -36 24t-25 36t-9 43q0 22 9 43t25 37q16 15 36 25t43 10t43 -9t35 -25t23 -36t9 -43z" />
    <glyph glyph-name="uni1E73" unicode="u&#x324;" horiz-adv-x="1079" 
d="M782 -25q-46 -1 -73 19q-29 20 -39 46t-9 51q1 26 1 38q-162 -154 -361 -154q-131 0 -179 80q-49 80 -30 176l133 639l-172 19v59l309 64h84l-163 -781q-11 -49 26 -89q38 -40 77 -40q71 0 149 37q77 37 137 94l155 754h191l-164 -788q-12 -56 18 -86q30 -29 84 -29
q53 0 117 37v-72q-73 -42 -159 -58t-132 -16zM727 -287q-1 -23 -9 -43t-22 -37q-14 -16 -34 -25t-43 -9q-47 0 -81 34t-34 68q0 53 36 89t68 36q34 0 54 -9t34 -25t22 -36t9 -43zM303 -287q-1 -23 -9 -43t-23 -37q-15 -16 -35 -25t-43 -9t-43 9q-20 8 -36 24t-25 36t-9 43
q0 22 9 43t25 37q16 15 36 25t43 10t43 -9t35 -25t23 -36t9 -43z" />
    <glyph glyph-name="uni1E74" unicode="U&#x330;" horiz-adv-x="1448" 
d="M650 -33q-216 0 -339 87t-123 272q0 76 27 215l143 696q7 38 -41 41l-114 10v86h532v-86l-121 -10q-44 -5 -49 -41l-141 -696q-23 -115 -23 -181q0 -127 76 -194q76 -66 195 -66q118 0 186 34t112 89q75 94 113 287l144 727q7 38 -41 41l-115 10v86h463v-86l-119 -10
q-44 -5 -49 -41l-158 -799q-64 -344 -352 -439q-98 -32 -206 -32zM670 -391q-67 0 -135 46t-123 46q-56 0 -100 -54q-14 -17 -23 -38h-108q104 217 296 217q59 0 110 -33t81 -47t60 -14q46 0 80 27t50 67h109q-101 -217 -297 -217z" />
    <glyph glyph-name="uni1E75" unicode="u&#x330;" horiz-adv-x="1079" 
d="M782 -25q-46 -1 -73 19q-29 20 -39 46t-9 51q1 26 1 38q-162 -154 -361 -154q-131 0 -179 80q-49 80 -30 176l133 639l-172 19v59l309 64h84l-163 -781q-11 -49 26 -89q38 -40 77 -40q71 0 149 37q77 37 137 94l155 754h191l-164 -788q-12 -56 18 -86q30 -29 84 -29
q53 0 117 37v-72q-73 -42 -159 -58t-132 -16zM500 -391q-67 0 -135 46t-123 46q-56 0 -100 -54q-14 -17 -23 -38h-108q104 217 296 217q59 0 110 -33t81 -47t60 -14q46 0 80 27t50 67h109q-101 -217 -297 -217z" />
    <glyph glyph-name="uni1E76" unicode="U&#x32d;" horiz-adv-x="1448" 
d="M650 -33q-216 0 -339 87t-123 272q0 76 27 215l143 696q7 38 -41 41l-114 10v86h532v-86l-121 -10q-44 -5 -49 -41l-141 -696q-23 -115 -23 -181q0 -127 76 -194q76 -66 195 -66q118 0 186 34t112 89q75 94 113 287l144 727q7 38 -41 41l-115 10v86h463v-86l-119 -10
q-44 -5 -49 -41l-158 -799q-64 -344 -352 -439q-98 -32 -206 -32zM737 -496l-168 189l-246 -189h-143l338 347h161l201 -347h-143z" />
    <glyph glyph-name="uni1E77" unicode="u&#x32d;" horiz-adv-x="1079" 
d="M782 -25q-46 -1 -73 19q-29 20 -39 46t-9 51q1 26 1 38q-162 -154 -361 -154q-131 0 -179 80q-49 80 -30 176l133 639l-172 19v59l309 64h84l-163 -781q-11 -49 26 -89q38 -40 77 -40q71 0 149 37q77 37 137 94l155 754h191l-164 -788q-12 -56 18 -86q30 -29 84 -29
q53 0 117 37v-72q-73 -42 -159 -58t-132 -16zM567 -496l-168 189l-246 -189h-143l338 347h161l201 -347h-143z" />
    <glyph glyph-name="uni1E7C" unicode="V&#x303;" horiz-adv-x="1317" 
d="M170 1374h465v-86l-88 -4q-23 -2 -33 -10t-8 -31l153 -991l521 991q19 38 -31 41l-100 4v86h417v-86l-108 -12l-707 -1309h-155l-199 1276q-5 37 -49 41l-78 4v86zM662 1664q-36 -28 -50 -66h-109q101 217 295 217q66 0 137 -49q78 -45 112 -45q49 0 82 27q34 27 52 67
h109q-106 -217 -297 -217q-61 0 -123 41q-63 41 -92 47q-28 6 -54 6t-62 -28z" />
    <glyph glyph-name="uni1E7D" unicode="v&#x303;" horiz-adv-x="946" 
d="M828 1012q128 0 128 -123q0 -63 -19 -103q-19 -41 -55 -109q-85 -158 -237 -355q-151 -197 -287 -347h-118q45 95 43 161q-2 65 -25 279t-35 300t-24 114t-22 38t-27 10l-146 8v59l219 68q84 -2 122 -38t46 -108l64 -630q220 288 297 483l-39 248q45 45 115 45zM327 1264
q-36 -28 -50 -66h-109q101 217 295 217q66 0 137 -49q78 -45 112 -45q49 0 82 27q34 27 52 67h109q-106 -217 -297 -217q-61 0 -123 41q-63 41 -92 47q-28 6 -54 6t-62 -28z" />
    <glyph glyph-name="uni1E7E" unicode="V&#x323;" horiz-adv-x="1317" 
d="M170 1374h465v-86l-88 -4q-23 -2 -33 -10t-8 -31l153 -991l521 991q19 38 -31 41l-100 4v86h417v-86l-108 -12l-707 -1309h-155l-199 1276q-5 37 -49 41l-78 4v86zM642 -292q0 -24 -9 -46q-9 -20 -25 -36t-36 -25t-44 -9t-45 9t-37 25t-24 36q-9 20 -9 45q0 49 33 84
t69 35q37 0 57 -10t36 -25t25 -37t9 -46z" />
    <glyph glyph-name="uni1E7F" unicode="v&#x323;" horiz-adv-x="946" 
d="M828 1012q128 0 128 -123q0 -63 -19 -103q-19 -41 -55 -109q-85 -158 -237 -355q-151 -197 -287 -347h-118q45 95 43 161q-2 65 -25 279t-35 300t-24 114t-22 38t-27 10l-146 8v59l219 68q84 -2 122 -38t46 -108l64 -630q220 288 297 483l-39 248q45 45 115 45zM351 -292
q0 -24 -9 -46q-8 -20 -24 -36t-36 -25t-45 -9q-24 0 -45 9q-20 9 -36 25t-25 36t-9 45q0 49 33 84t69 35q38 0 58 -10t36 -25t24 -37q9 -22 9 -46z" />
    <glyph glyph-name="Wgrave" unicode="W&#x300;" horiz-adv-x="1898" 
d="M170 1374h473v-86l-90 -4q-41 -4 -41 -41l72 -889l481 1020h166l104 -1034l416 903q18 38 -39 41l-92 4v86h428v-86l-121 -12l-614 -1309h-131l-119 1094l-512 -1094h-143l-103 1276q-4 38 -49 41l-86 4v86zM937 1723q-47 31 -47 88t48 79q18 8 42 9q41 0 63 -12t44 -39
l274 -320h-127z" />
    <glyph glyph-name="wgrave" unicode="w&#x300;" horiz-adv-x="1438" 
d="M1200 961q51 51 119 51t97 -42q30 -42 30 -82t-22 -100t-58 -130t-83 -144q-47 -75 -97 -148q-79 -117 -173 -241t-116 -150h-127l-45 699q-189 -407 -379 -699h-151l20 48l-57 845l-154 17v57l248 70l92 -6l45 -766q157 287 346 721l154 18l51 -780q166 214 301 522z
M575 1323q-47 31 -47 88t48 79q18 8 42 9q41 0 63 -12t44 -39l274 -320h-127z" />
    <glyph glyph-name="Wacute" unicode="W&#x301;" horiz-adv-x="1898" 
d="M170 1374h473v-86l-90 -4q-41 -4 -41 -41l72 -889l481 1020h166l104 -1034l416 903q18 38 -39 41l-92 4v86h428v-86l-121 -12l-614 -1309h-131l-119 1094l-512 -1094h-143l-103 1276q-4 38 -49 41l-86 4v86zM1464 1872q27 -27 27 -69t-49 -76l-307 -199h-144l279 320
q32 39 63 45t67 6t64 -27z" />
    <glyph glyph-name="wacute" unicode="w&#x301;" horiz-adv-x="1438" 
d="M1200 961q51 51 119 51t97 -42q30 -42 30 -82t-22 -100t-58 -130t-83 -144q-47 -75 -97 -148q-79 -117 -173 -241t-116 -150h-127l-45 699q-189 -407 -379 -699h-151l20 48l-57 845l-154 17v57l248 70l92 -6l45 -766q157 287 346 721l154 18l51 -780q166 214 301 522z
M1102 1472q27 -27 27 -69t-49 -76l-307 -199h-144l279 320q32 39 63 45t67 6t64 -27z" />
    <glyph glyph-name="Wdieresis" unicode="W&#x308;" horiz-adv-x="1898" 
d="M170 1374h473v-86l-90 -4q-41 -4 -41 -41l72 -889l481 1020h166l104 -1034l416 903q18 38 -39 41l-92 4v86h428v-86l-121 -12l-614 -1309h-131l-119 1094l-512 -1094h-143l-103 1276q-4 38 -49 41l-86 4v86zM1519 1713q-1 -23 -9 -44t-23 -37t-35 -25t-44 -9
q-47 0 -80 35q-32 35 -32 68q0 55 34 89t68 35q34 0 54 -9t35 -24q15 -16 23 -36t9 -43zM1095 1713q0 -46 -33 -81q-33 -34 -68 -34q-57 0 -90 35q-32 35 -32 67q0 55 33 90t66 35q35 0 55 -9t36 -24q34 -32 33 -79z" />
    <glyph glyph-name="wdieresis" unicode="w&#x308;" horiz-adv-x="1438" 
d="M1200 961q51 51 119 51t97 -42q30 -42 30 -82t-22 -100t-58 -130t-83 -144q-47 -75 -97 -148q-79 -117 -173 -241t-116 -150h-127l-45 699q-189 -407 -379 -699h-151l20 48l-57 845l-154 17v57l248 70l92 -6l45 -766q157 287 346 721l154 18l51 -780q166 214 301 522z
M1157 1313q-1 -23 -9 -44t-23 -37t-35 -25t-44 -9q-47 0 -80 35q-32 35 -32 68q0 55 34 89t68 35q34 0 54 -9t35 -24q15 -16 23 -36t9 -43zM733 1313q0 -46 -33 -81q-33 -34 -68 -34q-57 0 -90 35q-32 35 -32 67q0 55 33 90t66 35q35 0 55 -9t36 -24q34 -32 33 -79z" />
    <glyph glyph-name="uni1E86" unicode="W&#x307;" horiz-adv-x="1898" 
d="M170 1374h473v-86l-90 -4q-41 -4 -41 -41l72 -889l481 1020h166l104 -1034l416 903q18 38 -39 41l-92 4v86h428v-86l-121 -12l-614 -1309h-131l-119 1094l-512 -1094h-143l-103 1276q-4 38 -49 41l-86 4v86zM1311 1713q0 -24 -9 -45q-8 -20 -24 -36t-37 -25t-45 -9t-44 9
t-36 25t-25 36q-9 21 -9 45t8 45t24 37q16 15 37 25t45 10t45 -9t37 -25t24 -38q9 -22 9 -45z" />
    <glyph glyph-name="uni1E87" unicode="w&#x307;" horiz-adv-x="1438" 
d="M1200 961q51 51 119 51t97 -42q30 -42 30 -82t-22 -100t-58 -130t-83 -144q-47 -75 -97 -148q-79 -117 -173 -241t-116 -150h-127l-45 699q-189 -407 -379 -699h-151l20 48l-57 845l-154 17v57l248 70l92 -6l45 -766q157 287 346 721l154 18l51 -780q166 214 301 522z
M949 1313q0 -24 -9 -45q-8 -20 -24 -36t-37 -25t-45 -9t-44 9t-36 25t-25 36q-9 21 -9 45t8 45t24 37q16 15 37 25t45 10t45 -9t37 -25t24 -38q9 -22 9 -45z" />
    <glyph glyph-name="uni1E88" unicode="W&#x323;" horiz-adv-x="1898" 
d="M170 1374h473v-86l-90 -4q-41 -4 -41 -41l72 -889l481 1020h166l104 -1034l416 903q18 38 -39 41l-92 4v86h428v-86l-121 -12l-614 -1309h-131l-119 1094l-512 -1094h-143l-103 1276q-4 38 -49 41l-86 4v86zM930 -292q0 -24 -9 -46q-9 -20 -25 -36t-36 -25t-44 -9t-45 9
t-37 25t-24 36q-9 20 -9 45q0 49 33 84t69 35q37 0 57 -10t36 -25t25 -37t9 -46z" />
    <glyph glyph-name="uni1E89" unicode="w&#x323;" horiz-adv-x="1438" 
d="M1200 961q51 51 119 51t97 -42q30 -42 30 -82t-22 -100t-58 -130t-83 -144q-47 -75 -97 -148q-79 -117 -173 -241t-116 -150h-127l-45 699q-189 -407 -379 -699h-151l20 48l-57 845l-154 17v57l248 70l92 -6l45 -766q157 287 346 721l154 18l51 -780q166 214 301 522z
M596 -292q0 -24 -9 -46q-9 -20 -25 -36t-36 -25t-44 -9t-45 9t-37 25t-24 36q-9 20 -9 45q0 49 33 84t69 35q37 0 57 -10t36 -25t25 -37t9 -46z" />
    <glyph glyph-name="uni1E8A" unicode="X&#x307;" horiz-adv-x="1296" 
d="M1186 0h-529v86l131 8q17 2 27 14t2 27l-184 430l-387 -430q-12 -11 -10 -25t28 -16l123 -8v-86h-477v86l98 8q28 3 49 31l510 571l-245 553q-11 26 -39 31l-113 8v86h532v-86l-133 -8q-17 -2 -27 -14t-3 -27l168 -383l335 383q12 11 10 25t-28 16l-98 8v86h463v-86
l-123 -8q-28 -4 -49 -31l-451 -512l268 -612q14 -26 41 -31l111 -8v-86zM966 1713q0 -24 -9 -45q-9 -20 -25 -36t-36 -25q-21 -9 -45 -9q-25 0 -45 9t-36 25t-24 36q-9 21 -9 45q1 24 9 45t24 37q16 15 36 25q21 10 45 10t45 -9q20 -9 36 -25t25 -38t9 -45z" />
    <glyph glyph-name="uni1E8B" unicode="x&#x307;" horiz-adv-x="1081" 
d="M358 1012q126 0 226 -389q201 389 395 389q57 0 91 -34t34 -80q0 -102 -113 -140l-90 80q-93 -38 -196 -216q-34 -59 -64 -130q7 -20 15 -48q107 -359 208 -358q58 0 117 29v-74q-126 -66 -240 -66q-137 0 -227 302q-12 42 -20 77q-91 -169 -145 -235
q-119 -144 -243 -144q-63 -1 -103 29t-40 82q0 100 127 123l86 -82q108 67 204 238q34 60 62 133q-31 122 -87 241q-57 119 -70 121l-179 23v55q222 74 252 74zM826 1313q0 -24 -9 -45q-9 -20 -25 -36t-36 -25q-21 -9 -45 -9q-25 0 -45 9t-36 25t-24 36q-9 21 -9 45
q1 24 9 45t24 37q16 15 36 25q21 10 45 10t45 -9q20 -9 36 -25t25 -38t9 -45z" />
    <glyph glyph-name="uni1E8C" unicode="X&#x308;" horiz-adv-x="1296" 
d="M1186 0h-529v86l131 8q17 2 27 14t2 27l-184 430l-387 -430q-12 -11 -10 -25t28 -16l123 -8v-86h-477v86l98 8q28 3 49 31l510 571l-245 553q-11 26 -39 31l-113 8v86h532v-86l-133 -8q-17 -2 -27 -14t-3 -27l168 -383l335 383q12 11 10 25t-28 16l-98 8v86h463v-86
l-123 -8q-28 -4 -49 -31l-451 -512l268 -612q14 -26 41 -31l111 -8v-86zM1174 1713q0 -23 -8 -44t-24 -37t-36 -25t-43 -9q-47 0 -80 35q-32 35 -32 68q1 55 35 89t67 35q33 0 53 -9t36 -24q16 -16 24 -36t8 -43zM750 1713q0 -46 -33 -81q-33 -34 -68 -34q-57 0 -90 35
q-32 35 -32 67q0 55 33 90t66 35q34 0 54 -9t36 -24q34 -32 34 -79z" />
    <glyph glyph-name="uni1E8D" unicode="x&#x308;" horiz-adv-x="1081" 
d="M358 1012q126 0 226 -389q201 389 395 389q57 0 91 -34t34 -80q0 -102 -113 -140l-90 80q-93 -38 -196 -216q-34 -59 -64 -130q7 -20 15 -48q107 -359 208 -358q58 0 117 29v-74q-126 -66 -240 -66q-137 0 -227 302q-12 42 -20 77q-91 -169 -145 -235
q-119 -144 -243 -144q-63 -1 -103 29t-40 82q0 100 127 123l86 -82q108 67 204 238q34 60 62 133q-31 122 -87 241q-57 119 -70 121l-179 23v55q222 74 252 74zM1034 1313q0 -23 -8 -44t-24 -37t-36 -25t-43 -9q-47 0 -80 35q-32 35 -32 68q1 55 35 89t67 35q33 0 53 -9
t36 -24q16 -16 24 -36t8 -43zM610 1313q0 -46 -33 -81q-33 -34 -68 -34q-57 0 -90 35q-32 35 -32 67q0 55 33 90t66 35q34 0 54 -9t36 -24q34 -32 34 -79z" />
    <glyph glyph-name="uni1E8E" unicode="Y&#x307;" horiz-adv-x="1309" 
d="M836 0h-533v86l119 10q39 4 49 39l84 422l-229 692q-8 21 -18 25t-21 6l-115 8v86h530v-86l-131 -8q-17 -2 -25 -13t-3 -28l168 -532l395 532q15 27 6 33q-9 7 -22 8l-127 8v86h493v-86l-115 -8q-25 -3 -53 -31l-520 -674l-86 -440q-12 -35 39 -39l115 -10v-86zM986 1713
q0 -24 -9 -45q-9 -20 -25 -36t-36 -25q-21 -9 -45 -9q-25 0 -45 9t-36 25t-24 36q-9 21 -9 45q1 24 9 45t24 37q16 15 36 25q21 10 45 10t45 -9q20 -9 36 -25t25 -38t9 -45z" />
    <glyph glyph-name="uni1E8F" unicode="y&#x307;" horiz-adv-x="1018" 
d="M-118 -427q-46 42 -46 79q0 61 40 96t101 39l119 -119q62 6 126 89t171 280q-89 535 -183 802q-13 37 -20 38l-186 14v51l28 9q20 7 44 15t51 16t68 19t64 11q53 0 93 -60q59 -88 122 -386q28 -134 58 -300l312 746h59l170 -56v-47l-102 -63q-46 -46 -100 -144t-72 -138
q-17 -40 -47 -110q-308 -734 -584 -886q-68 -38 -154 -37q-86 0 -132 42zM772 1313q0 -24 -9 -45q-9 -20 -25 -36t-36 -25q-21 -9 -45 -9q-25 0 -45 9t-36 25t-24 36q-9 21 -9 45q1 24 9 45t24 37q16 15 36 25q21 10 45 10t45 -9q20 -9 36 -25t25 -38t9 -45z" />
    <glyph glyph-name="uni1E90" unicode="Z&#x302;" horiz-adv-x="1153" 
d="M793 109q40 0 51 41l61 229h139l-71 -379h-1014l18 90l961 1178h-479q-37 0 -49 -39l-56 -180h-141l66 325h940l-19 -92l-964 -1173h557zM966 1528l-168 189l-246 -189h-143l338 347h161l201 -347h-143z" />
    <glyph glyph-name="uni1E91" unicode="&#x7a;&#x302;" horiz-adv-x="911" 
d="M602 313q43 78 122 78q45 0 77 -39q33 -39 33 -95q0 -113 -96 -197q-96 -85 -201 -85q-67 0 -139 30q-139 58 -179 58q-39 0 -59 -20l-51 -96l-142 76l695 813l-181 -39q-108 59 -164 59q-57 0 -99 -34q-14 -11 -21 -25l108 -131q-45 -68 -106 -68q-60 0 -90 38
q-29 38 -29 84q0 104 81 198t208 94q69 0 169 -52t128 -51q28 0 57 15l45 114l154 -80l-695 -813l172 45q21 -8 48 -20q147 -62 197 -42q28 11 45 30t26 30zM772 1128l-168 189l-246 -189h-143l338 347h161l201 -347h-143z" />
    <glyph glyph-name="uni1E92" unicode="Z&#x323;" horiz-adv-x="1153" 
d="M793 109q40 0 51 41l61 229h139l-71 -379h-1014l18 90l961 1178h-479q-37 0 -49 -39l-56 -180h-141l66 325h940l-19 -92l-964 -1173h557zM541 -292q0 -24 -9 -46q-8 -20 -24 -36t-36 -25t-45 -9q-24 0 -45 9q-20 9 -36 25t-25 36t-9 45q0 49 33 84t69 35q38 0 58 -10
t36 -25t24 -37q9 -22 9 -46z" />
    <glyph glyph-name="uni1E93" unicode="&#x7a;&#x323;" horiz-adv-x="911" 
d="M602 313q43 78 122 78q45 0 77 -39q33 -39 33 -95q0 -113 -96 -197q-96 -85 -201 -85q-67 0 -139 30q-139 58 -179 58q-39 0 -59 -20l-51 -96l-142 76l695 813l-181 -39q-108 59 -164 59q-57 0 -99 -34q-14 -11 -21 -25l108 -131q-45 -68 -106 -68q-60 0 -90 38
q-29 38 -29 84q0 104 81 198t208 94q69 0 169 -52t128 -51q28 0 57 15l45 114l154 -80l-695 -813l172 45q21 -8 48 -20q147 -62 197 -42q28 11 45 30t26 30zM423 -292q0 -24 -9 -46q-8 -20 -24 -36t-36 -25t-45 -9q-24 0 -45 9q-20 9 -36 25t-25 36t-9 45q0 49 33 84t69 35
q38 0 58 -10t36 -25t24 -37q9 -22 9 -46z" />
    <glyph glyph-name="uni1E94" unicode="Z&#x331;" horiz-adv-x="1153" 
d="M793 109q40 0 51 41l61 229h139l-71 -379h-1014l18 90l961 1178h-479q-37 0 -49 -39l-56 -180h-141l66 325h940l-19 -92l-964 -1173h557zM731 -315h-620l29 135h617z" />
    <glyph glyph-name="uni1E95" unicode="&#x7a;&#x331;" horiz-adv-x="911" 
d="M602 313q43 78 122 78q45 0 77 -39q33 -39 33 -95q0 -113 -96 -197q-96 -85 -201 -85q-67 0 -139 30q-139 58 -179 58q-39 0 -59 -20l-51 -96l-142 76l695 813l-181 -39q-108 59 -164 59q-57 0 -99 -34q-14 -11 -21 -25l108 -131q-45 -68 -106 -68q-60 0 -90 38
q-29 38 -29 84q0 104 81 198t208 94q69 0 169 -52t128 -51q28 0 57 15l45 114l154 -80l-695 -813l172 45q21 -8 48 -20q147 -62 197 -42q28 11 45 30t26 30zM613 -315h-620l29 135h617z" />
    <glyph glyph-name="uni1E96" unicode="h&#x331;" horiz-adv-x="1073" 
d="M667 877q-59 0 -141 -45t-151 -115l-150 -717h-188l282 1368l-182 18v62l320 61h82l-138 -661q103 114 265 152q52 12 106 12q113 0 168 -71t25 -206l-113 -551q-11 -51 33 -84q44 -32 114 -2q33 14 68 25l2 -72q-198 -76 -288 -76q-91 0 -129 66q-15 26 -7 68l125 604
q16 72 -27 118q-42 46 -76 46zM696 -315h-620l29 135h617z" />
    <glyph glyph-name="uni1E97" unicode="t&#x308;" horiz-adv-x="614" 
d="M283 -25q-193 0 -193 177q0 49 8 84l125 622l-129 -12v67l154 68l100 205h125l-41 -234h283v-94h-301l-129 -643q-17 -78 69 -107q24 -8 49 -8q80 0 213 50v-82q-110 -51 -200 -72q-89 -21 -133 -21zM853 1576q-1 -23 -9 -44t-23 -37t-35 -25t-44 -9q-47 0 -80 35
q-32 35 -32 68q0 56 34 90t68 34t54 -9t35 -24t23 -35t9 -44zM429 1576q0 -46 -33 -81q-33 -34 -68 -34q-57 0 -90 35q-32 35 -32 67q0 55 33 90t66 35q35 0 55 -9t36 -24q34 -32 33 -79z" />
    <glyph glyph-name="uni1E98" unicode="w&#x30a;" horiz-adv-x="1438" 
d="M1200 961q51 51 119 51t97 -42q30 -42 30 -82t-22 -100t-58 -130t-83 -144q-47 -75 -97 -148q-79 -117 -173 -241t-116 -150h-127l-45 699q-189 -407 -379 -699h-151l20 48l-57 845l-154 17v57l248 70l92 -6l45 -766q157 287 346 721l154 18l51 -780q166 214 301 522z
M659 1183q-56 55 -56 126q1 127 87 213t185 86t156 -56t57 -127t-24 -122t-63 -90q-87 -85 -186 -85q-100 0 -156 55zM982 1405q0 40 -31 68t-71 28q-71 0 -122 -48t-51 -104q1 -56 33 -85t70 -29q38 -1 69 13t53 36t36 52q14 29 14 69z" />
    </font>
</defs>
</svg>
